<svg width="43" height="10" viewBox="0 0 43 10" fill="none" xmlns="http://www.w3.org/2000/svg">
<path d="M5.39453 0.450195C7.90717 0.450406 9.9442 2.48735 9.94434 5C9.94434 7.51277 7.90725 9.54959 5.39453 9.5498C2.88164 9.5498 0.84375 7.5129 0.84375 5C0.843882 2.48722 2.88172 0.450195 5.39453 0.450195ZM21.4941 0.450195C24.007 0.450195 26.0438 2.48722 26.0439 5C26.0439 7.5129 24.007 9.5498 21.4941 9.5498C18.9812 9.5498 16.9443 7.5129 16.9443 5C16.9445 2.48722 18.9813 0.450196 21.4941 0.450195ZM37.5938 0.450195C40.1066 0.450195 42.1444 2.48722 42.1445 5C42.1445 7.5129 40.1066 9.5498 37.5938 9.5498C35.081 9.54959 33.0439 7.51277 33.0439 5C33.0441 2.48735 35.0811 0.450406 37.5938 0.450195Z" fill="#C5C5C5"/>
</svg>
