<svg width="165" height="96" viewBox="0 0 165 96" fill="none" xmlns="http://www.w3.org/2000/svg">
<g clip-path="url(#clip0_34_1109)">
<path d="M19.4648 83.863H22.2052C23.7968 83.863 25.2015 84.2648 26.1011 85.588C26.7585 86.5578 27.146 87.9571 27.146 89.8275C27.146 94.3858 24.9247 95.792 22.2328 95.792H19.4648V83.863ZM20.6689 94.6836H22.136C24.9385 94.6836 25.9212 92.8964 25.9212 89.8345C25.9212 88.1719 25.6651 86.9804 25.0839 86.1906C24.4887 85.3524 23.52 84.9784 22.1014 84.9784H20.6689V94.6836Z" fill="white"/>
<path d="M28.793 86.6201H33.0903V87.4791H29.7202V90.6796H33.0903V91.5386H29.7202V94.9469H33.0903V95.8059H28.793V86.627V86.6201Z" fill="white"/>
<path d="M34.4112 86.6201H35.3385V94.9399H38.2587V95.7989H34.4043V86.6201H34.4112Z" fill="white"/>
<path d="M39.8163 95.7921H38.8613L41.4771 86.6133H42.3905L45.0409 95.7921H44.0998L43.3178 93.0766H40.5706L39.8163 95.7921ZM41.9476 87.8186L40.8197 92.2314H43.0756L41.9476 87.8186Z" fill="white"/>
<path d="M46.7786 92.4599L44.4258 86.6201H45.3946L47.2491 91.5663L49.0968 86.6201H50.0656L47.7128 92.4599V95.792H46.7855V92.4599H46.7786Z" fill="white"/>
<path d="M50.9863 86.6201H55.2836V87.4791H51.9136V90.6796H55.2836V91.5386H51.9136V94.9469H55.2836V95.8059H50.9863V86.627V86.6201Z" fill="white"/>
<path d="M56.5909 86.6201H58.6946C59.9194 86.6201 60.9989 86.9318 61.6909 87.9502C62.1961 88.6914 62.4936 89.7721 62.4936 91.213C62.4936 94.7183 60.7844 95.7989 58.7153 95.7989H56.584V86.6201H56.5909ZM57.5182 94.9399H58.6461C60.8052 94.9399 61.5595 93.5614 61.5595 91.2061C61.5595 89.9314 61.3588 89.0101 60.9159 88.4005C60.4592 87.7562 59.7118 87.4722 58.6254 87.4722H57.5251V94.933L57.5182 94.9399Z" fill="white"/>
<path d="M67.1088 90.749V91.8297H63.6973V90.749H67.1088Z" fill="white"/>
<path d="M68.8244 83.863H71.0941C72.8657 83.863 73.5923 84.1678 74.0421 84.5696C74.8171 85.2 75.2807 86.1976 75.2807 87.4584C75.2807 88.1996 75.1492 88.9755 74.7479 89.6197C74.2842 90.3609 73.5715 90.8597 72.6857 90.9913L75.0662 95.792H73.7099L71.0526 90.2501C71.2118 90.2501 71.3294 90.2501 71.4678 90.2362C72.2913 90.2224 72.8657 90.0284 73.3362 89.592C73.8345 89.1071 74.0282 88.3797 74.0282 87.5761C74.0282 86.7725 73.8345 85.9136 73.1286 85.3801C72.6165 84.9922 71.7931 84.9784 71.0526 84.9784H70.0215V95.792H68.8105V83.863H68.8244Z" fill="white"/>
<path d="M76.7344 86.6201H81.0317V87.4791H77.6617V90.6796H81.0317V91.5386H77.6617V94.9469H81.0317V95.8059H76.7344V86.627V86.6201Z" fill="white"/>
<path d="M82.3546 86.6201H83.2819V94.9399H86.2021V95.7989H82.3477V86.6201H82.3546Z" fill="white"/>
<path d="M87.2383 86.6201H91.5356V87.4791H88.1656V90.6796H91.5356V91.5386H88.1656V94.9469H91.5356V95.8059H87.2383V86.627V86.6201Z" fill="white"/>
<path d="M93.3495 95.7921H92.3945L95.0103 86.6133H95.9237L98.5741 95.7921H97.633L96.851 93.0766H94.1038L93.3495 95.7921ZM95.4808 87.8186L94.3529 92.2314H96.6088L95.4808 87.8186Z" fill="white"/>
<path d="M99.9378 93.2637C100.048 94.6907 100.893 95.1341 101.585 95.1341C102.56 95.1341 103.322 94.476 103.322 93.3468C103.322 91.996 102.18 91.6981 101.28 91.4002C100.498 91.13 99.1904 90.6659 99.1904 89.0172C99.1766 87.4031 100.18 86.4402 101.605 86.4402C103.031 86.4402 103.848 87.1468 104.055 88.7678H103.162C103.079 88.0889 102.754 87.2299 101.626 87.2299C100.699 87.2299 100.125 87.9019 100.125 88.8509C100.125 90.0563 101.038 90.3403 102.214 90.7213C102.92 90.9707 104.256 91.4626 104.256 93.2914C104.256 94.9124 103.093 95.9446 101.605 95.9446C100.118 95.9446 99.0797 95.0787 99.0312 93.2568H99.9378V93.2637Z" fill="white"/>
<path d="M105.535 86.6201H109.832V87.4791H106.462V90.6796H109.832V91.5386H106.462V94.9469H109.832V95.8059H105.535V86.627V86.6201Z" fill="white"/>
<path d="M123.056 91.9058C123.056 93.9702 121.845 95.9999 119.333 95.9999C116.822 95.9999 115.195 93.8593 115.195 89.8276C115.195 86.0522 116.593 83.6553 119.333 83.6553C121.845 83.6553 123.07 85.7543 123.056 88.0057H121.866C121.832 86.4401 121.223 84.7844 119.403 84.7844C117.327 84.7844 116.441 86.8003 116.441 89.9454C116.441 93.3329 117.7 94.8777 119.403 94.8777C121.236 94.8777 121.804 93.3467 121.866 91.9127H123.056V91.9058Z" fill="white"/>
<path d="M124.476 95.7921H123.521L126.137 86.6133H127.051L129.701 95.7921H128.76L127.978 93.0766H125.231L124.476 95.7921ZM126.601 87.8186L125.473 92.2314H127.729L126.601 87.8186Z" fill="white"/>
<path d="M132.365 86.6202C133.417 86.6202 134.074 86.7795 134.655 87.2506C135.188 87.687 135.548 88.4906 135.548 89.3565C135.548 90.2225 135.188 91.0399 134.655 91.4763C134.074 91.9474 133.403 92.1067 132.365 92.1067H131.562V95.7921H130.635V86.6133H132.372L132.365 86.6202ZM131.562 91.2546H132.365C133.195 91.2546 133.617 91.1784 134.046 90.8182C134.378 90.555 134.6 89.9869 134.6 89.3704C134.6 88.7538 134.365 88.165 134.032 87.8949C133.638 87.5623 133.202 87.4723 132.358 87.4723H131.555V91.2546H131.562Z" fill="white"/>
<path d="M137.25 93.2637C137.361 94.6907 138.205 95.1341 138.897 95.1341C139.873 95.1341 140.634 94.476 140.634 93.3468C140.634 91.996 139.492 91.6981 138.593 91.4002C137.811 91.13 136.503 90.6659 136.503 89.0172C136.489 87.4031 137.492 86.4402 138.918 86.4402C140.343 86.4402 141.16 87.1468 141.368 88.7678H140.475C140.392 88.0889 140.067 87.2299 138.939 87.2299C138.011 87.2299 137.437 87.9019 137.437 88.8509C137.437 90.0563 138.351 90.3403 139.527 90.7213C140.233 90.9707 141.568 91.4626 141.568 93.2914C141.568 94.9124 140.406 95.9446 138.918 95.9446C137.43 95.9446 136.392 95.0787 136.344 93.2568H137.25V93.2637Z" fill="white"/>
<path d="M143.707 86.6201V93.3189C143.707 93.8523 143.783 94.3234 144.163 94.6975C144.475 95.0092 144.945 95.1062 145.402 95.1062C145.859 95.1062 146.329 95.0092 146.654 94.6975C147.035 94.3234 147.111 93.8523 147.111 93.3189V86.6201H148.038V93.3743C148.038 94.2403 147.838 94.8152 147.395 95.2586C146.959 95.7019 146.308 95.9513 145.416 95.9513C144.523 95.9513 143.859 95.7019 143.409 95.2586C142.973 94.8152 142.779 94.2403 142.779 93.3743V86.6201H143.707Z" fill="white"/>
<path d="M149.706 86.6201H150.633V94.9399H153.554V95.7989H149.699V86.6201H149.706Z" fill="white"/>
<path d="M154.592 86.6201H158.889V87.4791H155.519V90.6796H158.889V91.5386H155.519V94.9469H158.889V95.8059H154.592V86.627V86.6201Z" fill="white"/>
<path d="M160.68 93.2637C160.791 94.6907 161.635 95.1341 162.327 95.1341C163.303 95.1341 164.064 94.476 164.064 93.3468C164.064 91.996 162.922 91.6981 162.022 91.4002C161.24 91.13 159.933 90.6659 159.933 89.0172C159.919 87.4031 160.922 86.4402 162.348 86.4402C163.773 86.4402 164.59 87.1468 164.797 88.7678H163.905C163.822 88.0889 163.496 87.2299 162.368 87.2299C161.441 87.2299 160.867 87.9019 160.867 88.8509C160.867 90.0563 161.78 90.3403 162.957 90.7213C163.662 90.9707 164.998 91.4626 164.998 93.2914C164.998 94.9124 163.835 95.9446 162.348 95.9446C160.86 95.9446 159.822 95.0787 159.773 93.2568H160.68V93.2637Z" fill="white"/>
<path d="M19.8739 37.1171C19.8739 37.1171 19.8186 37.0824 19.7909 37.0963C17.8118 38.08 15.5628 39.4308 13.2723 40.9618C15.542 37.6435 17.5696 34.3461 18.9743 31.4989C18.9882 31.4712 18.9743 31.4366 18.9536 31.4158C18.9259 31.395 18.8913 31.4019 18.8636 31.4158C16.9191 33.3208 14.7878 35.7662 12.6772 38.4333C14.1442 33.494 15.3137 28.6587 15.9019 24.6339C15.9019 24.5992 15.888 24.5715 15.8534 24.5577C15.8188 24.5438 15.7842 24.5577 15.7704 24.5923C14.3103 27.3841 12.8432 30.7854 11.4592 34.4292C11.2724 28.3816 10.8018 22.5972 9.99913 17.8658C9.98529 17.7965 9.87457 17.8035 9.86765 17.8658C8.67049 24.9318 8.22069 34.3738 8.33141 43.5111C8.20685 43.9198 8.07537 44.3285 7.95081 44.7372C4.84374 47.0995 1.98579 49.5171 0.0135954 51.4637C-0.00716456 51.4845 -0.0140845 51.5261 0.00667539 51.5538C0.0205154 51.5746 0.0412753 51.5815 0.0620352 51.5815C0.0689552 51.5815 0.0827952 51.5815 0.0897151 51.5746C1.66747 50.7571 3.53586 49.6557 5.51498 48.381C3.66042 51.2143 2.05499 53.9091 0.906273 56.1397C0.892433 56.1674 0.906273 56.209 0.927033 56.2228C0.940873 56.2298 0.954713 56.2367 0.968553 56.2367C0.989312 56.2367 1.00315 56.2367 1.01699 56.2159C2.62243 54.588 4.4839 52.4751 6.40766 50.1129C5.32814 54.1308 4.47698 57.8854 3.97874 60.9266C3.97874 60.9612 3.99258 60.9889 4.02718 61.0028C4.0341 61.0028 4.04102 61.0028 4.04794 61.0028C4.07562 61.0028 4.09638 60.9889 4.11022 60.9681C5.50806 58.1764 7.04429 54.5949 8.53901 50.6532C8.78813 56.2921 9.25177 61.5154 9.87457 65.6164C9.87457 65.651 9.90917 65.6718 9.94377 65.6718C9.97837 65.6718 10.006 65.651 10.013 65.6164C10.8641 59.9914 11.4177 52.2534 11.5423 44.2315C14.7116 41.89 17.7149 39.4031 19.8739 37.1933C19.8947 37.1725 19.9016 37.1309 19.8739 37.1032V37.1171Z" fill="white"/>
<g style="mix-blend-mode:multiply">
<path d="M15.8532 24.5647C15.8532 24.5647 15.784 24.5647 15.7702 24.5993C10.6978 34.2908 5.57703 51.2144 3.97852 60.9405C3.97852 60.9751 3.99236 61.0029 4.02696 61.0167C4.03388 61.0167 4.0408 61.0167 4.04772 61.0167C4.0754 61.0167 4.09616 61.0029 4.11 60.9821C8.51802 52.1773 14.31 35.4754 15.9016 24.6409C15.9016 24.6063 15.8878 24.5786 15.8532 24.5647Z" fill="white"/>
</g>
<g style="mix-blend-mode:multiply">
<path d="M18.9463 31.4088C18.9463 31.4088 18.8841 31.3949 18.8564 31.4088C12.6146 37.5188 4.53895 49.1291 0.905962 56.1396C0.892122 56.1673 0.905962 56.2089 0.926722 56.2228C0.940562 56.2297 0.954402 56.2366 0.968241 56.2366C0.989001 56.2366 1.00284 56.2366 1.01668 56.2158C6.54575 50.6046 15.0781 39.3268 18.9602 31.485C18.974 31.4573 18.9602 31.4226 18.9394 31.4019L18.9463 31.4088Z" fill="white"/>
</g>
<path d="M83.502 61.3629V82.4083H87.4187V69.7173C88.2421 70.4932 89.1279 71.1236 90.0898 71.5947C91.5499 72.3082 93.1276 72.6684 94.8369 72.6684H94.8646C97.8747 72.6684 100.511 71.5392 102.636 69.3571C104.767 67.168 105.86 64.4386 105.853 61.3213C105.86 58.2594 104.76 55.5577 102.601 53.3964C100.456 51.2073 97.7917 50.092 94.7677 50.0989C93.0308 50.0989 91.3492 50.3968 89.8891 51.1727C88.4774 51.9208 86.8305 53.0916 85.8893 54.29C84.9898 55.4469 83.495 57.6567 83.5089 61.3698L83.502 61.3629ZM89.3563 56.098C90.7818 54.6571 92.4633 53.9575 94.5462 53.9436C95.8818 53.9436 97.079 54.2692 98.2 54.9204C99.321 55.5716 100.2 56.4721 100.871 57.6636C101.535 58.8482 101.868 60.0882 101.868 61.4114C101.868 62.7345 101.535 63.9537 100.857 65.1522C100.186 66.3506 99.2933 67.2789 98.1723 67.9301C97.0374 68.5951 95.861 68.9207 94.5601 68.9207C93.2591 68.9207 92.0343 68.5951 90.8579 67.9301C89.6884 67.2789 88.8027 66.406 88.1799 65.2838C87.5571 64.1615 87.2387 62.9077 87.2387 61.4806C87.2387 59.2985 87.9377 57.5528 89.3493 56.098H89.3563Z" fill="white"/>
<path d="M133.775 61.3629V82.4083H137.685V69.7173C138.509 70.4932 139.408 71.1236 140.37 71.5947C141.823 72.3082 143.408 72.6684 145.097 72.6684H145.131C148.134 72.6684 150.778 71.5392 152.888 69.3571C155.034 67.168 156.127 64.4386 156.127 61.3213C156.127 58.204 155.02 55.5577 152.868 53.3964C150.729 51.2073 148.051 50.092 145.027 50.0989C143.297 50.0989 141.623 50.3968 140.149 51.1727C138.744 51.9208 137.097 53.0916 136.156 54.29C135.249 55.4469 133.762 57.6567 133.775 61.3698V61.3629ZM139.623 56.098C141.048 54.6571 142.73 53.9575 144.813 53.9436C146.155 53.9436 147.346 54.2692 148.474 54.9204C149.588 55.5716 150.466 56.4721 151.152 57.6636C151.809 58.8482 152.134 60.0882 152.134 61.4114C152.134 62.7345 151.809 63.9537 151.138 65.1522C150.453 66.3506 149.567 67.2789 148.446 67.9301C147.325 68.5951 146.121 68.9207 144.841 68.9207C143.56 68.9207 142.315 68.5951 141.138 67.9301C139.962 67.2789 139.083 66.406 138.453 65.2838C137.831 64.1615 137.526 62.9077 137.526 61.4806C137.526 59.2985 138.218 57.5528 139.63 56.098H139.623Z" fill="white"/>
<path d="M78.8729 54.7471C78.2639 53.3339 77.3159 52.184 76.0357 51.3527C74.7486 50.5075 73.2677 50.0919 71.6484 50.0919C71.51 50.0919 71.2055 50.085 71.2055 50.085C69.5724 50.085 67.8494 50.4937 66.5346 51.3527C65.2544 52.1909 64.2994 53.3339 63.6974 54.7471C63.0746 56.2088 62.8047 58.2801 62.8047 61.0649C62.8047 61.0649 62.8047 61.0857 62.8047 61.1342V72.1488H66.7698V71.4699C66.7698 71.4699 66.7629 62.6513 66.7629 61.8408C66.7491 61.0995 66.8667 57.9199 67.019 57.3449C67.3096 56.1049 67.8078 55.2736 68.5137 54.7055C69.2887 54.1029 69.8631 53.8535 71.1294 53.8327C72.3958 53.8396 73.3369 54.1444 74.0497 54.7055C74.7486 55.2597 75.2537 56.1049 75.5305 57.338C75.6966 57.9891 75.8073 59.5339 75.8073 61.8408V72.1488H79.7517V61.0857C79.7517 58.2939 79.4818 56.2088 78.866 54.7471H78.8729Z" fill="white"/>
<path d="M54.3973 65.6233C53.9337 66.2745 53.4977 66.794 53.1171 67.1265C52.5012 67.653 51.7539 68.0964 50.8474 68.4219C49.9547 68.7545 49.0274 68.9207 48.0794 68.9207C46.1141 68.9069 44.5363 68.2418 43.2077 66.8841C42.0313 65.651 41.3531 64.1408 41.1801 62.2635H59.2967V61.5777C59.269 58.7097 58.4801 56.2297 56.9162 54.2554C54.7571 51.4914 51.7608 50.0712 48.1486 50.092C44.6332 50.0712 41.7199 51.4706 39.6232 54.1653C37.9624 56.2713 37.1181 58.7305 37.125 61.4322C37.125 64.3071 38.1215 66.9256 40.073 69.1978C42.0521 71.4977 44.8547 72.6615 48.2662 72.6615H48.3077C49.8647 72.6615 51.2695 72.426 52.5358 71.9341C53.7884 71.4561 54.9232 70.7496 55.9266 69.8213C56.9439 68.8999 57.8089 67.6876 58.5562 66.219L58.8607 65.6163H58.8399L54.4042 65.6094L54.3973 65.6233ZM43.5399 55.6686C44.8547 54.5048 46.3563 53.9367 48.197 53.9367C49.2973 53.9367 50.3422 54.1653 51.3456 54.6295C52.3559 55.1005 53.131 55.7032 53.7192 56.4375C54.1689 57.0056 54.5634 57.7468 54.8609 58.6612H41.6645C42.142 57.3381 42.7787 56.3475 43.5399 55.6686Z" fill="white"/>
<path d="M125.819 65.6233C125.362 66.2745 124.919 66.794 124.539 67.1265C123.93 67.653 123.176 68.0964 122.269 68.4219C121.369 68.7545 120.456 68.9207 119.501 68.9207C117.536 68.9069 115.965 68.2418 114.629 66.8841C113.446 65.651 112.782 64.1408 112.609 62.2635H130.718V61.5777C130.691 58.7097 129.909 56.2297 128.345 54.2554C126.186 51.4914 123.183 50.0712 119.577 50.092C116.069 50.0712 113.149 51.4706 111.052 54.1653C109.398 56.2713 108.554 58.7305 108.561 61.4322C108.561 64.3071 109.55 66.9256 111.502 69.1978C113.481 71.4977 116.283 72.6615 119.688 72.6615H119.736C121.286 72.6615 122.698 72.426 123.958 71.9341C125.21 71.4561 126.345 70.7496 127.348 69.8213C128.359 68.8999 129.231 67.6876 129.971 66.219L130.275 65.6163H130.248L125.805 65.6094L125.819 65.6233ZM114.968 55.6686C116.276 54.5048 117.778 53.9367 119.612 53.9367C120.719 53.9367 121.764 54.1653 122.767 54.6295C123.778 55.1005 124.553 55.7032 125.141 56.4375C125.598 57.0056 125.985 57.7468 126.29 58.6612H113.093C113.578 57.3381 114.214 56.3475 114.968 55.6686Z" fill="white"/>
<path d="M24.7658 68.4773L35.5402 46.0671H19.4581V49.6902H29.6305L18.7246 72.135H35.5332V68.4773H24.7658Z" fill="white"/>
<path d="M159.214 54.6432C157.567 54.6432 156.225 53.327 156.225 51.6644C156.225 50.0018 157.56 48.6787 159.214 48.6787C160.868 48.6787 162.203 50.0157 162.203 51.6644C162.203 53.3131 160.854 54.6432 159.214 54.6432ZM159.214 49.2883C157.92 49.2883 156.84 50.3274 156.84 51.6714C156.84 52.9391 157.885 54.0059 159.214 54.0059C160.543 54.0059 161.588 52.9668 161.588 51.6714C161.588 50.3759 160.522 49.2883 159.214 49.2883ZM157.975 50.0365H159.422C159.726 50.0365 159.989 50.0365 160.238 50.2235C160.467 50.4036 160.577 50.66 160.577 50.9994C160.577 51.4358 160.37 51.6021 160.19 51.7337C160.335 51.8168 160.494 51.9207 160.508 52.2879C160.55 53.0845 160.515 53.1607 160.709 53.3131H159.892C159.65 52.6897 160.024 52.0454 159.387 52.0454H158.695V53.3131H157.968V50.0434L157.975 50.0365ZM158.695 50.6599V51.4358H159.297C159.56 51.4358 159.865 51.4428 159.865 51.0479C159.865 50.653 159.574 50.6599 159.297 50.6599H158.695Z" fill="white"/>
<path d="M19.459 5.19555H21.6941V7.65478C22.3861 5.77745 23.5971 4.86304 25.3617 4.86304C28.2889 4.86304 30.358 7.79333 30.358 12.8434C30.358 17.8935 28.5103 20.7684 25.3617 20.7684C23.7079 20.7684 22.4346 19.7708 21.8602 18.1983C21.8879 18.7802 21.8879 19.4106 21.8879 20.4358V25.7977H19.459V5.19555ZM27.929 12.788C27.929 9.39356 26.8841 7.26685 24.8912 7.26685C23.8947 7.26685 23.2373 7.79333 22.7114 8.61769C22.1024 9.5044 21.881 10.689 21.881 12.8157C21.881 14.9424 22.1024 16.1339 22.7114 17.0137C23.2373 17.8727 23.8947 18.3646 24.8912 18.3646C26.8772 18.3646 27.929 16.2655 27.929 12.8157V12.788Z" fill="white"/>
<path d="M43.188 20.4358H40.9529V18.0043C40.2886 19.7985 39.0499 20.7684 37.2853 20.7684C34.3581 20.7684 32.2891 17.8381 32.2891 12.8434C32.2891 7.84875 34.1367 4.86304 37.2853 4.86304C38.8284 4.86304 40.2678 5.58349 40.9529 7.7102V5.19555H43.188V20.4428V20.4358ZM34.718 12.8434C34.718 16.2655 35.7906 18.3646 37.7558 18.3646C38.8008 18.3646 39.4928 17.8658 40.0187 17.0137C40.6 16.127 40.766 14.9424 40.766 12.8157C40.766 10.689 40.6 9.5044 40.0187 8.61769C39.4928 7.7864 38.8077 7.26685 37.7558 7.26685C35.7975 7.26685 34.718 9.39356 34.718 12.8157V12.8434Z" fill="white"/>
<path d="M46.669 5.19555H48.8211C48.8211 5.94371 48.8211 6.62953 48.7935 7.4331C49.5131 5.63891 50.9456 4.86304 52.7379 4.86304C55.2775 4.86304 56.959 6.32472 56.959 9.80921V20.4428H54.5301V10.6128C54.5301 9.20652 54.3087 7.27377 52.0735 7.27377C50.2813 7.27377 49.091 8.48607 49.091 11.0561V20.4497H46.6621V5.19555H46.669Z" fill="white"/>
<path d="M70.3908 15.0533C70.1694 18.1706 68.5432 20.7684 65.3946 20.7684C61.4779 20.7684 59.5195 17.2908 59.5195 12.8434C59.5195 7.81411 61.8377 4.86304 65.3392 4.86304C68.5363 4.86304 70.2524 7.43311 70.3355 10.6336H67.8512C67.6297 8.00808 66.5018 7.15601 65.2285 7.15601C64.2874 7.15601 63.4916 7.48852 62.9103 8.56227C62.3567 9.60831 62.0799 10.9107 62.0799 12.8157C62.0799 16.6535 63.2356 18.5031 65.2216 18.5031C66.8478 18.5031 67.6782 17.0968 67.8719 15.0533H70.3839H70.3908Z" fill="white"/>
<path d="M72.6523 5.19546H74.8875C74.8875 6.38005 74.8875 7.18363 74.8598 8.01492C75.5518 5.38943 77.2887 4.89758 78.8596 4.86987V7.77246C78.5274 7.55078 78.1952 7.49536 77.87 7.49536C76.576 7.49536 75.0813 8.92933 75.0813 12.0536V20.4496H72.6523V5.19546Z" fill="white"/>
<path d="M82.3132 13.6193C82.3132 16.2448 83.3374 18.51 85.6002 18.51C87.1434 18.51 88.1675 17.464 88.4997 15.8568H90.9009C90.6241 17.5956 89.8768 18.8703 88.9149 19.6669C87.9461 20.4428 86.7628 20.7684 85.6071 20.7684C81.469 20.7684 79.7598 16.9029 79.7598 12.8434C79.7598 8.20205 81.8565 4.86304 85.5518 4.86304C87.4271 4.86304 88.8388 5.66662 89.7453 7.10059C90.9286 8.95021 91.0947 11.3817 91.0393 13.6193H82.3202H82.3132ZM88.6035 11.5203C88.5481 9.08875 87.6347 6.90662 85.5172 6.90662C83.6142 6.90662 82.3686 8.75624 82.3132 11.5203H88.6035Z" fill="white"/>
<path d="M94.0918 0H96.5207V20.4358H94.0918V0Z" fill="white"/>
<path d="M100.574 0H103.003V2.81945H100.574V0ZM100.574 5.19555H103.003V20.4428H100.574V5.19555Z" fill="white"/>
<path d="M106.781 5.19555H109.016V7.65478C109.708 5.77745 110.919 4.86304 112.684 4.86304C115.611 4.86304 117.68 7.79333 117.68 12.8434C117.68 17.8935 115.833 20.7684 112.684 20.7684C111.03 20.7684 109.757 19.7708 109.182 18.1983C109.21 18.7802 109.21 19.4106 109.21 20.4358V25.7977H106.781V5.19555ZM115.251 12.788C115.251 9.39356 114.206 7.26685 112.213 7.26685C111.224 7.26685 110.56 7.79333 110.034 8.61769C109.425 9.5044 109.203 10.689 109.203 12.8157C109.203 14.9424 109.425 16.1339 110.034 17.0137C110.56 17.8727 111.217 18.3646 112.213 18.3646C114.199 18.3646 115.251 16.2655 115.251 12.8157V12.788Z" fill="white"/>
<path d="M130.51 20.4358H128.275V18.0043C127.611 19.7985 126.372 20.7684 124.608 20.7684C121.68 20.7684 119.611 17.8381 119.611 12.8434C119.611 7.84875 121.459 4.86304 124.608 4.86304C126.151 4.86304 127.59 5.58349 128.275 7.7102V5.19555H130.51V20.4428V20.4358ZM122.04 12.8434C122.04 16.2655 123.113 18.3646 125.078 18.3646C126.123 18.3646 126.815 17.8658 127.341 17.0137C127.922 16.127 128.088 14.9424 128.088 12.8157C128.088 10.689 127.922 9.5044 127.341 8.61769C126.815 7.7864 126.13 7.26685 125.078 7.26685C123.12 7.26685 122.04 9.39356 122.04 12.8157V12.8434Z" fill="white"/>
<path d="M140.004 9.33814C139.976 7.65478 139.146 6.98975 137.824 6.98975C136.669 6.98975 135.894 7.76562 135.894 8.9225C135.894 10.495 137.437 10.9384 139.236 11.4926C140.918 12.019 142.793 13.0374 142.793 16.1062C142.793 18.8425 140.751 20.7753 137.99 20.7753C135.229 20.7753 133.188 19.1473 132.994 15.8291H135.395C135.423 17.5956 136.503 18.5654 138.018 18.5654C139.534 18.5654 140.253 17.5402 140.253 16.2725C140.253 14.5891 138.821 14.0626 136.89 13.4253C135.042 12.8157 133.361 11.8251 133.361 9.00563C133.361 6.51869 135.125 4.86304 137.914 4.86304C140.703 4.86304 142.302 6.46327 142.412 9.33814H140.011H140.004Z" fill="white"/>
<path d="M147.341 13.6193C147.341 16.2448 148.365 18.51 150.628 18.51C152.171 18.51 153.195 17.464 153.527 15.8568H155.928C155.651 17.5956 154.904 18.8703 153.942 19.6669C152.973 20.4428 151.79 20.7684 150.634 20.7684C146.496 20.7684 144.787 16.9029 144.787 12.8434C144.787 8.20205 146.884 4.86304 150.579 4.86304C152.454 4.86304 153.866 5.66662 154.773 7.10059C155.956 8.95021 156.122 11.3817 156.067 13.6193H147.347H147.341ZM153.631 11.5203C153.575 9.08875 152.662 6.90662 150.545 6.90662C148.642 6.90662 147.396 8.75624 147.341 11.5203H153.631Z" fill="white"/>
<path d="M10.0067 17.8797C9.99291 17.8104 9.88219 17.8174 9.87527 17.8797C7.59167 31.3604 8.03455 53.4519 9.87527 65.6303C9.87527 65.665 9.90987 65.6857 9.94447 65.6857C9.97907 65.6857 10.0067 65.665 10.0137 65.6303C11.8613 53.4519 12.3042 31.3604 10.0137 17.8797H10.0067Z" fill="white"/>
<g style="mix-blend-mode:multiply">
<path d="M15.8552 24.5647C15.8552 24.5647 15.786 24.5647 15.7721 24.5993C10.6998 34.2908 5.57898 51.2144 3.98047 60.9405C3.98047 60.9751 3.99431 61.0029 4.02891 61.0167C4.03583 61.0167 4.04275 61.0167 4.04967 61.0167C4.07735 61.0167 4.09811 61.0029 4.11195 60.9821C8.51998 52.1773 14.312 35.4754 15.9036 24.6409C15.9036 24.6063 15.8898 24.5786 15.8552 24.5647Z" fill="white"/>
</g>
<g style="mix-blend-mode:multiply">
<path d="M18.9483 31.409C18.9483 31.409 18.886 31.3952 18.8583 31.409C12.6165 37.519 4.5409 49.1293 0.907915 56.1399C0.894075 56.1676 0.907915 56.2091 0.928675 56.223C0.942515 56.2299 0.956355 56.2368 0.970195 56.2368C0.990955 56.2368 1.00479 56.2369 1.01863 56.2161C6.5477 50.6049 15.08 39.3271 18.9621 31.4852C18.976 31.4575 18.9621 31.4229 18.9414 31.4021L18.9483 31.409Z" fill="white"/>
</g>
<g style="mix-blend-mode:multiply">
<path d="M19.7849 37.0963C13.5154 40.2067 4.50555 47.044 0.0214079 51.4707C0.000647936 51.4914 -0.00627204 51.533 0.0144879 51.5607C0.0283279 51.5815 0.0490878 51.5884 0.0698477 51.5884C0.0767677 51.5884 0.0906077 51.5884 0.0975277 51.5815C5.68887 48.6858 14.9616 42.2156 19.861 37.2071C19.8818 37.1863 19.8887 37.1448 19.861 37.1171C19.8402 37.0894 19.8056 37.0824 19.778 37.0963H19.7849Z" fill="white"/>
</g>
</g>
<defs>
<clipPath id="clip0_34_1109">
<rect width="165" height="96" fill="white"/>
</clipPath>
</defs>
</svg>
