<svg width="96" height="50" viewBox="0 0 96 50" fill="none" xmlns="http://www.w3.org/2000/svg">
<path d="M0 0.000113994L96 0V21.0937C96 37.0582 83.0583 49.9999 67.0938 49.9999L0 50V0.000113994Z" fill="#9F248B"/>
<path d="M43.006 39.8439H34.1118C33.4447 39.8439 33 39.3992 33 38.7322V12.0495C33 11.3825 33.4447 10.9377 34.1118 10.9377H43.006C43.6731 10.9377 44.1178 11.3825 44.1178 12.0495C44.1178 12.7166 43.6731 13.1613 43.006 13.1613H35.2236V37.6204H43.006C43.6731 37.6204 44.1178 38.0651 44.1178 38.7322C44.1178 39.3992 43.6731 39.8439 43.006 39.8439ZM53.012 35.3968C52.6784 35.3968 52.4561 35.2856 52.2337 35.0633C51.789 34.6186 51.789 33.9515 52.2337 33.5068L59.2379 26.5026H39.6707C39.0036 26.5026 38.5589 26.0579 38.5589 25.3908C38.5589 24.7238 39.0036 24.2791 39.6707 24.2791H59.2379L52.2337 17.2749C51.789 16.8302 51.789 16.1631 52.2337 15.7184C52.6784 15.2737 53.3455 15.2737 53.7902 15.7184L62.6844 24.6126C62.7956 24.7238 62.9068 24.8349 62.9068 24.9461C62.9068 25.0573 63.018 25.1685 63.018 25.3908C63.018 25.502 63.018 25.7244 62.9068 25.8355C62.9068 25.9467 62.7956 26.0579 62.6844 26.1691L53.7902 35.0633C53.5679 35.2856 53.3455 35.3968 53.012 35.3968Z" fill="white"/>
</svg>
