<svg width="47" height="46" viewBox="0 0 47 46" fill="none" xmlns="http://www.w3.org/2000/svg">
<g opacity="0.5">
<path d="M15.2246 22.6799C15.2246 24.8505 13.4577 26.6174 11.2871 26.6174C9.11655 26.6174 7.34961 24.8505 7.34961 22.6799C7.34961 20.5094 9.11655 18.7424 11.2871 18.7424C13.4577 18.7424 15.2246 20.5094 15.2246 22.6799ZM23.0996 30.5549C20.929 30.5549 19.1621 32.3219 19.1621 34.4924C19.1621 36.663 20.929 38.4299 23.0996 38.4299C25.2702 38.4299 27.0371 36.663 27.0371 34.4924C27.0371 32.3219 25.2702 30.5549 23.0996 30.5549ZM11.2871 30.5549C9.11655 30.5549 7.34961 32.3219 7.34961 34.4924C7.34961 36.663 9.11655 38.4299 11.2871 38.4299C13.4577 38.4299 15.2246 36.663 15.2246 34.4924C15.2246 32.3219 13.4577 30.5549 11.2871 30.5549ZM34.9121 14.8049C37.0827 14.8049 38.8496 13.038 38.8496 10.8674C38.8496 8.69687 37.0827 6.92993 34.9121 6.92993C32.7415 6.92993 30.9746 8.69687 30.9746 10.8674C30.9746 13.038 32.7415 14.8049 34.9121 14.8049ZM11.2871 6.92993C9.11655 6.92993 7.34961 8.69687 7.34961 10.8674C7.34961 13.038 9.11655 14.8049 11.2871 14.8049C13.4577 14.8049 15.2246 13.038 15.2246 10.8674C15.2246 8.69687 13.4577 6.92993 11.2871 6.92993ZM34.9121 30.5549C32.7415 30.5549 30.9746 32.3219 30.9746 34.4924C30.9746 36.663 32.7415 38.4299 34.9121 38.4299C37.0827 38.4299 38.8496 36.663 38.8496 34.4924C38.8496 32.3219 37.0827 30.5549 34.9121 30.5549ZM34.9121 18.7424C32.7415 18.7424 30.9746 20.5094 30.9746 22.6799C30.9746 24.8505 32.7415 26.6174 34.9121 26.6174C37.0827 26.6174 38.8496 24.8505 38.8496 22.6799C38.8496 20.5094 37.0827 18.7424 34.9121 18.7424ZM23.0996 18.7424C20.929 18.7424 19.1621 20.5094 19.1621 22.6799C19.1621 24.8505 20.929 26.6174 23.0996 26.6174C25.2702 26.6174 27.0371 24.8505 27.0371 22.6799C27.0371 20.5094 25.2702 18.7424 23.0996 18.7424ZM23.0996 6.92993C20.929 6.92993 19.1621 8.69687 19.1621 10.8674C19.1621 13.038 20.929 14.8049 23.0996 14.8049C25.2702 14.8049 27.0371 13.038 27.0371 10.8674C27.0371 8.69687 25.2702 6.92993 23.0996 6.92993Z" fill="white"/>
</g>
</svg>
