<svg width="171" height="103" viewBox="0 0 171 103" fill="none" xmlns="http://www.w3.org/2000/svg">
<g clip-path="url(#clip0_42_662)">
<path d="M1.98334 68.3696C1.40001 66.6892 0.926476 64.5835 0.555886 62.0526C0.185295 59.5216 0 56.8878 0 54.158C0 51.4281 0.192158 48.6229 0.569611 46.0096C0.947064 43.4032 1.44805 41.2564 2.05884 39.576C2.1206 39.4182 2.21668 39.3428 2.34707 39.3428H3.07453C3.15688 39.3428 3.21865 39.3839 3.25296 39.4594C3.29414 39.5348 3.29414 39.624 3.26669 39.7132C2.75198 41.4622 2.32648 43.6227 1.98334 46.1948C1.64707 48.7738 1.4755 51.4007 1.4755 54.0894C1.4755 56.7781 1.64707 59.3502 1.98334 61.8674C2.31962 64.3846 2.75198 66.5109 3.26669 68.2324C3.28041 68.253 3.29414 68.301 3.29414 68.3696C3.29414 68.4382 3.27355 68.4931 3.23237 68.5411C3.19119 68.5822 3.13629 68.6097 3.07453 68.6097H2.27844C2.14805 68.6097 2.05197 68.5342 1.99021 68.3765L1.98334 68.3696Z" fill="#001B70"/>
<path d="M6.26667 43.7325C6.00588 44.3704 5.88235 45.3718 5.88235 46.7367V47.9439C5.88235 48.033 5.91667 48.081 5.97843 48.081H7.96178C8.11962 48.081 8.20197 48.1908 8.20197 48.4171V49.1579C8.20197 49.3842 8.11962 49.494 7.96178 49.494H5.97843C5.91667 49.494 5.88235 49.542 5.88235 49.6311V64.6796C5.88235 64.9059 5.8 65.0156 5.64216 65.0156H4.84607C4.68823 65.0156 4.60587 64.9059 4.60587 64.6796V49.6311C4.60587 49.542 4.57156 49.494 4.5098 49.494H3.4941C3.3294 49.494 3.25391 49.3842 3.25391 49.1579V48.4171C3.25391 48.1908 3.33626 48.081 3.4941 48.081H4.5098C4.57156 48.081 4.60587 48.0399 4.60587 47.9439V46.7024C4.60587 44.8231 4.83921 43.4376 5.30588 42.5528C5.77255 41.668 6.56177 41.229 7.6804 41.229H8.04413C8.20197 41.229 8.28433 41.3387 8.28433 41.5651L8.25688 42.4362C8.25688 42.6625 8.17452 42.7723 8.01668 42.7723H7.70099C7.00785 42.7723 6.53432 43.0946 6.27353 43.7325H6.26667Z" fill="#001B70"/>
<path d="M15.8523 57.1896H10.2866C10.2249 57.1896 10.1905 57.2376 10.1905 57.3267V60.18C10.1905 61.2089 10.4033 62.0594 10.8288 62.7178C11.2543 63.3763 11.8102 63.7055 12.4896 63.7055C13.0523 63.7055 13.5396 63.4723 13.9445 62.999C14.3494 62.5258 14.6102 61.9153 14.7406 61.154C14.7886 60.9551 14.8778 60.8522 15.0082 60.8522L15.7837 60.9208C15.8455 60.9208 15.9072 60.9414 15.9553 60.9894C16.0033 61.0374 16.017 61.0991 16.0033 61.1883V61.3255C15.8386 62.5601 15.4543 63.5272 14.8435 64.2336C14.2327 64.9401 13.4504 65.2899 12.4964 65.2899C11.4327 65.2899 10.568 64.8235 9.90917 63.8976C9.25034 62.9716 8.91406 61.7644 8.91406 60.2829V52.8616C8.91406 51.3869 9.24348 50.1729 9.90917 49.2332C10.568 48.2936 11.4327 47.8203 12.4964 47.8203C13.5602 47.8203 14.4455 48.2936 15.1112 49.2332C15.77 50.1729 16.1063 51.3801 16.1063 52.8616V56.8603C16.1063 57.0867 16.0239 57.1964 15.8661 57.1964L15.8523 57.1896ZM10.8288 50.3855C10.4033 51.044 10.1905 51.9014 10.1905 52.9576V55.5091C10.1905 55.5983 10.2249 55.6463 10.2866 55.6463H14.7131C14.7749 55.6463 14.8092 55.6052 14.8092 55.5091V52.9576C14.8092 51.9082 14.5964 51.0508 14.171 50.3855C13.7455 49.7271 13.1827 49.3979 12.4896 49.3979C11.7964 49.3979 11.2611 49.7271 10.8288 50.3855Z" fill="#001B70"/>
<path d="M18.6454 63.8907C17.9935 62.9647 17.6641 61.7439 17.6641 60.2486V52.8616C17.6641 51.3869 17.9935 50.1729 18.6592 49.2332C19.318 48.2936 20.1827 47.8203 21.2464 47.8203C21.9533 47.8203 22.5847 48.0261 23.1337 48.4445C23.6827 48.856 24.1082 49.4047 24.4033 50.0906C24.7053 50.7765 24.8494 51.5173 24.8494 52.3266V52.5255C24.8494 52.7519 24.767 52.8616 24.6092 52.8616L23.8131 52.9302C23.6484 52.9302 23.5729 52.8204 23.5729 52.5941V52.3952C23.5729 51.5858 23.3533 50.8862 22.921 50.2964C22.4886 49.7065 21.9259 49.4047 21.2533 49.4047C20.5807 49.4047 20.0249 49.7339 19.5925 50.3924C19.167 51.0509 18.9543 51.9082 18.9543 52.9645V60.1869C18.9543 61.2157 19.167 62.0662 19.5925 62.7247C20.018 63.3831 20.5739 63.7124 21.2533 63.7124C21.9327 63.7124 22.4886 63.4174 22.921 62.8207C23.3533 62.2308 23.5729 61.5244 23.5729 60.7219V60.5573C23.5729 60.3309 23.6553 60.2212 23.8131 60.2212H24.6092C24.7739 60.2212 24.8494 60.3309 24.8494 60.5573V60.8248C24.8494 61.6341 24.6984 62.3749 24.4033 63.0608C24.1082 63.7467 23.6827 64.2885 23.1337 64.6932C22.5847 65.0979 21.9533 65.2968 21.2464 65.2968C20.1621 65.2968 19.2974 64.8304 18.6454 63.9044V63.8907Z" fill="#001B70"/>
<path d="M32.7078 49.3431C33.3254 50.365 33.6411 51.7231 33.6411 53.4241V64.6795C33.6411 64.9059 33.5588 65.0156 33.4009 65.0156H32.6048C32.4401 65.0156 32.3646 64.9059 32.3646 64.6795V63.4724C32.3646 63.4038 32.3509 63.3695 32.3303 63.3558C32.3029 63.3421 32.2754 63.3558 32.248 63.4038C31.6509 64.659 30.7176 65.2831 29.4411 65.2831C28.5832 65.2831 27.8421 64.9333 27.2175 64.2406C26.5862 63.5478 26.2773 62.3269 26.2773 60.5779C26.2773 58.7192 26.6548 57.3542 27.4028 56.4763C28.1509 55.6052 29.146 55.1663 30.3882 55.1663H32.2754C32.3372 55.1663 32.3715 55.1251 32.3715 55.0291V53.4858C32.3715 52.2307 32.1725 51.2361 31.7676 50.4954C31.3627 49.7546 30.8068 49.3842 30.0999 49.3842C29.5509 49.3842 29.0705 49.6311 28.6587 50.125C28.247 50.6188 28.0068 51.2567 27.945 52.0386C27.945 52.2649 27.8626 52.3747 27.7048 52.3747L26.8332 52.3061C26.7509 52.3061 26.6891 52.2718 26.6548 52.2032C26.6136 52.1346 26.5999 52.0592 26.6205 51.97C26.7166 50.7148 27.094 49.7066 27.7597 48.9452C28.4185 48.1839 29.2215 47.7998 30.1548 47.7998C31.2529 47.7998 32.1107 48.3074 32.7352 49.3293L32.7078 49.3431ZM31.5686 62.7316C32.0901 62.08 32.3578 61.1678 32.3578 59.9743V56.785C32.3578 56.6958 32.3235 56.6478 32.2617 56.6478H30.3744C29.5372 56.6478 28.8646 56.9701 28.3568 57.608C27.8489 58.2459 27.595 59.1924 27.595 60.4476C27.595 61.545 27.7872 62.3612 28.1783 62.9031C28.5627 63.4381 29.0705 63.7124 29.7019 63.7124C30.4293 63.7124 31.0538 63.3901 31.5754 62.7385L31.5686 62.7316Z" fill="#001B70"/>
<path d="M35.502 64.6796V41.8395C35.502 41.6132 35.5843 41.5034 35.7422 41.5034H36.5382C36.7029 41.5034 36.7784 41.6132 36.7784 41.8395V64.6796C36.7784 64.906 36.6961 65.0157 36.5382 65.0157H35.7422C35.5774 65.0157 35.502 64.906 35.502 64.6796Z" fill="#001B70"/>
<path d="M54.7856 49.3223C55.3209 50.31 55.5817 51.6544 55.5817 53.3554V64.6725C55.5817 64.8989 55.4993 65.0086 55.3415 65.0086H54.5454C54.3807 65.0086 54.3052 64.8989 54.3052 64.6725V53.52C54.3052 52.2648 54.1131 51.2703 53.7356 50.5295C53.3581 49.7887 52.8503 49.4184 52.2258 49.4184C51.5464 49.4184 51.0111 49.775 50.6199 50.4952C50.2219 51.2154 50.0297 52.1962 50.0297 53.4514V64.6725C50.0297 64.8989 49.9473 65.0086 49.7895 65.0086H48.9934C48.8287 65.0086 48.7532 64.8989 48.7532 64.6725V53.52C48.7532 52.2648 48.5611 51.2703 48.1699 50.5295C47.7856 49.7887 47.2846 49.4184 46.6669 49.4184C45.9875 49.4184 45.4454 49.775 45.0473 50.4952C44.6424 51.2154 44.4434 52.1962 44.4434 53.4514V64.6725C44.4434 64.8989 44.361 65.0086 44.2032 65.0086H43.4277C43.263 65.0086 43.1875 64.8989 43.1875 64.6725V48.417C43.1875 48.1906 43.2699 48.0809 43.4277 48.0809H44.2032C44.361 48.0809 44.4434 48.1906 44.4434 48.417V49.6584C44.4434 49.727 44.4571 49.7682 44.4914 49.775C44.5257 49.7887 44.5463 49.7613 44.5669 49.6927C44.8552 49.0891 45.2257 48.6296 45.665 48.3141C46.111 47.9986 46.5709 47.8408 47.0581 47.8408C47.6689 47.8408 48.2042 48.0672 48.6571 48.513C49.1101 48.9588 49.4532 49.5967 49.7003 50.4266C49.7346 50.5364 49.7758 50.5158 49.8238 50.358C50.0983 49.5281 50.4826 48.9039 50.9836 48.4787C51.4846 48.0534 52.0336 47.8408 52.6307 47.8408C53.5503 47.8408 54.2778 48.3347 54.8062 49.3155L54.7856 49.3223Z" fill="#001B70"/>
<path d="M57.18 44.3497C56.9536 44.1234 56.8438 43.8353 56.8438 43.4786C56.8438 43.122 56.9536 42.8339 57.18 42.6076C57.4065 42.3812 57.6947 42.2715 58.0516 42.2715C58.4085 42.2715 58.6967 42.3812 58.9232 42.6076C59.1496 42.8339 59.2594 43.122 59.2594 43.4786C59.2594 43.8353 59.1428 44.1234 58.9232 44.3497C58.6967 44.5761 58.4085 44.6858 58.0516 44.6858C57.6947 44.6858 57.4065 44.5761 57.18 44.3497ZM57.4271 64.6795V48.4239C57.4271 48.1976 57.5094 48.0878 57.6673 48.0878H58.4634C58.6212 48.0878 58.7036 48.1976 58.7036 48.4239V64.6795C58.7036 64.9058 58.6212 65.0156 58.4634 65.0156H57.6673C57.5026 65.0156 57.4271 64.9058 57.4271 64.6795Z" fill="#001B70"/>
<path d="M61.5243 63.8907C60.8724 62.9647 60.543 61.7439 60.543 60.2486V52.8616C60.543 51.3869 60.8724 50.1729 61.5381 49.2332C62.1969 48.2936 63.0616 47.8203 64.1253 47.8203C64.8322 47.8203 65.4636 48.0261 66.0126 48.4445C66.5616 48.856 66.9871 49.4047 67.2822 50.0906C67.5842 50.7765 67.7283 51.5173 67.7283 52.3266V52.5255C67.7283 52.7519 67.6459 52.8616 67.4881 52.8616L66.692 52.9302C66.5273 52.9302 66.4518 52.8204 66.4518 52.5941V52.3952C66.4518 51.5858 66.2322 50.8862 65.7999 50.2964C65.3675 49.7065 64.8048 49.4047 64.1322 49.4047C63.4596 49.4047 62.9038 49.7339 62.4714 50.3924C62.0459 51.0509 61.8332 51.9082 61.8332 52.9645V60.1869C61.8332 61.2157 62.0459 62.0662 62.4714 62.7247C62.8969 63.3831 63.4528 63.7124 64.1322 63.7124C64.8116 63.7124 65.3675 63.4174 65.7999 62.8207C66.2322 62.2308 66.4518 61.5244 66.4518 60.7219V60.5573C66.4518 60.3309 66.5342 60.2212 66.692 60.2212H67.4881C67.6528 60.2212 67.7283 60.3309 67.7283 60.5573V60.8248C67.7283 61.6341 67.5773 62.3749 67.2822 63.0608C66.9871 63.7467 66.5616 64.2885 66.0126 64.6932C65.4636 65.0979 64.8322 65.2968 64.1253 65.2968C63.041 65.2968 62.1763 64.8304 61.5243 63.9044V63.8907Z" fill="#001B70"/>
<path d="M74.2413 48.2867C74.3511 48.3759 74.3923 48.5199 74.3649 48.7257L74.1727 49.8711C74.1247 50.07 74.0217 50.1318 73.857 50.0426C73.5962 49.9054 73.2874 49.8506 72.9168 49.8711C72.2717 49.8917 71.7433 50.3444 71.3452 51.2155C70.9403 52.0865 70.7413 53.1634 70.7413 54.4392V64.6863C70.7413 64.9127 70.659 65.0224 70.5011 65.0224H69.705C69.5403 65.0224 69.4648 64.9127 69.4648 64.6863V48.4308C69.4648 48.2044 69.5472 48.0947 69.705 48.0947H70.5011C70.659 48.0947 70.7413 48.2044 70.7413 48.4308V50.5159C70.7413 50.5845 70.755 50.6187 70.7894 50.6187C70.8237 50.6187 70.8443 50.5845 70.8649 50.5159C71.0913 49.7065 71.4002 49.0824 71.7982 48.6365C72.1962 48.1907 72.6629 47.9644 73.2119 47.9644C73.6168 47.9644 73.96 48.0741 74.2551 48.3004L74.2413 48.2867Z" fill="#001B70"/>
<path d="M75.9228 63.8907C75.2708 62.9647 74.9414 61.7439 74.9414 60.2486V52.8616C74.9414 51.3869 75.2708 50.1729 75.9365 49.2332C76.5953 48.2936 77.46 47.8203 78.5238 47.8203C79.5875 47.8203 80.5003 48.2867 81.1591 49.2127C81.8179 50.1455 82.1542 51.3595 82.1542 52.8547V60.2418C82.1542 61.7439 81.8248 62.9579 81.1591 63.8838C80.5003 64.8098 79.615 65.2762 78.5238 65.2762C77.4326 65.2762 76.5747 64.8098 75.9228 63.8838V63.8907ZM80.2189 62.711C80.6512 62.0525 80.8709 61.202 80.8709 60.1732V52.9508C80.8709 51.9014 80.6512 51.044 80.2189 50.3787C79.7865 49.7202 79.2169 49.391 78.5238 49.391C77.8306 49.391 77.2953 49.7202 76.863 50.3787C76.4375 51.0371 76.2247 51.8945 76.2247 52.9508V60.1732C76.2247 61.202 76.4375 62.0525 76.863 62.711C77.2885 63.3694 77.8444 63.6987 78.5238 63.6987C79.2032 63.6987 79.7797 63.3694 80.2189 62.711Z" fill="#001B70"/>
<path d="M90.0331 49.206C90.6371 50.1388 90.939 51.3528 90.939 52.8481V60.2694C90.939 61.7509 90.6371 62.9512 90.0331 63.884C89.4292 64.81 88.6263 65.2764 87.6243 65.2764C87.137 65.2764 86.691 65.1392 86.2655 64.8717C85.8468 64.6042 85.49 64.2132 85.2017 63.6988C85.1674 63.6577 85.14 63.6371 85.1194 63.6508C85.0919 63.6645 85.0851 63.692 85.0851 63.7331V64.6728C85.0851 64.8991 85.0027 65.0089 84.8449 65.0089H84.0488C83.8841 65.0089 83.8086 64.8991 83.8086 64.6728V41.8327C83.8086 41.6063 83.8909 41.4966 84.0488 41.4966H84.8449C85.0027 41.4966 85.0851 41.6063 85.0851 41.8327V49.3569C85.0851 49.4049 85.0988 49.4323 85.1331 49.4392C85.1674 49.4529 85.188 49.4392 85.2086 49.3912C85.4968 48.8768 85.8537 48.4858 86.2723 48.2183C86.691 47.9508 87.1439 47.8136 87.6312 47.8136C88.6331 47.8136 89.4361 48.28 90.04 49.206H90.0331ZM89.0312 50.3857C88.5988 49.7273 88.0292 49.398 87.3361 49.398C86.6429 49.398 86.1351 49.7273 85.7164 50.3857C85.2978 51.0442 85.0851 51.9015 85.0851 52.9578V60.1802C85.0851 61.2365 85.2978 62.087 85.7164 62.7317C86.1351 63.3833 86.6772 63.7057 87.3361 63.7057C87.9949 63.7057 88.5919 63.3765 89.0312 62.718C89.4635 62.0595 89.6831 61.209 89.6831 60.1802V52.9578C89.6831 51.9084 89.4635 51.051 89.0312 50.3857Z" fill="#001B70"/>
<path d="M92.5648 44.3497C92.3383 44.1234 92.2285 43.8353 92.2285 43.4786C92.2285 43.122 92.3383 42.8339 92.5648 42.6076C92.7913 42.3812 93.0795 42.2715 93.4364 42.2715C93.7932 42.2715 94.0815 42.3812 94.3079 42.6076C94.5344 42.8339 94.6442 43.122 94.6442 43.4786C94.6442 43.8353 94.5275 44.1234 94.3079 44.3497C94.0815 44.5761 93.7932 44.6858 93.4364 44.6858C93.0795 44.6858 92.7913 44.5761 92.5648 44.3497ZM92.805 64.6795V48.4239C92.805 48.1976 92.8873 48.0878 93.0452 48.0878H93.8413C93.9991 48.0878 94.0815 48.1976 94.0815 48.4239V64.6795C94.0815 64.9058 93.9991 65.0156 93.8413 65.0156H93.0452C92.8805 65.0156 92.805 64.9058 92.805 64.6795Z" fill="#001B70"/>
<path d="M96.8818 63.8907C96.2298 62.9647 95.9004 61.7439 95.9004 60.2486V52.8616C95.9004 51.3869 96.2298 50.1729 96.8955 49.2332C97.5543 48.2936 98.419 47.8203 99.4828 47.8203C100.546 47.8203 101.459 48.2867 102.118 49.2127C102.777 50.1455 103.113 51.3595 103.113 52.8547V60.2418C103.113 61.7439 102.784 62.9579 102.118 63.8838C101.459 64.8098 100.574 65.2762 99.4828 65.2762C98.3916 65.2762 97.5337 64.8098 96.8818 63.8838V63.8907ZM101.178 62.711C101.61 62.0525 101.83 61.202 101.83 60.1732V52.9508C101.83 51.9014 101.61 51.044 101.178 50.3787C100.746 49.7202 100.176 49.391 99.4828 49.391C98.7896 49.391 98.2543 49.7202 97.822 50.3787C97.3965 51.0371 97.1837 51.8945 97.1837 52.9508V60.1732C97.1837 61.202 97.3965 62.0525 97.822 62.711C98.2475 63.3694 98.8033 63.6987 99.4828 63.6987C100.162 63.6987 100.739 63.3694 101.178 62.711Z" fill="#001B70"/>
<path d="M108.342 49.494H106.407C106.345 49.494 106.311 49.542 106.311 49.6312V60.4477C106.311 61.5657 106.448 62.3476 106.723 62.7797C106.997 63.2187 107.43 63.4381 108.027 63.4381H108.267C108.425 63.4381 108.507 63.5479 108.507 63.7742V64.6796C108.507 64.9059 108.425 65.0157 108.267 65.0157H107.78C106.874 65.0157 106.194 64.7276 105.734 64.1446C105.275 63.5616 105.048 62.4779 105.048 60.8866V49.6312C105.048 49.542 105.014 49.494 104.952 49.494H103.957C103.792 49.494 103.717 49.3843 103.717 49.1579V48.4172C103.717 48.1908 103.799 48.0811 103.957 48.0811H104.952C105.014 48.0811 105.048 48.0399 105.048 47.9439V44.1784C105.048 43.952 105.131 43.8423 105.288 43.8423H106.064C106.222 43.8423 106.304 43.952 106.304 44.1784V47.9439C106.304 48.0331 106.338 48.0811 106.4 48.0811H108.335C108.493 48.0811 108.576 48.1908 108.576 48.4172V49.1579C108.576 49.3843 108.493 49.494 108.335 49.494H108.342Z" fill="#001B70"/>
<path d="M115.856 49.3431C116.474 50.365 116.79 51.7231 116.79 53.4241V64.6795C116.79 64.9059 116.707 65.0156 116.549 65.0156H115.753C115.589 65.0156 115.513 64.9059 115.513 64.6795V63.4724C115.513 63.4038 115.499 63.3695 115.479 63.3558C115.451 63.3421 115.424 63.3558 115.396 63.4038C114.799 64.659 113.866 65.2831 112.59 65.2831C111.732 65.2831 110.991 64.9333 110.366 64.2406C109.735 63.5478 109.426 62.3269 109.426 60.5779C109.426 58.7192 109.803 57.3542 110.551 56.4763C111.299 55.6052 112.294 55.1663 113.537 55.1663H115.424C115.486 55.1663 115.52 55.1251 115.52 55.0291V53.4858C115.52 52.2307 115.321 51.2361 114.916 50.4954C114.511 49.7546 113.955 49.3842 113.248 49.3842C112.699 49.3842 112.219 49.6311 111.807 50.125C111.395 50.6188 111.155 51.2567 111.093 52.0386C111.093 52.2649 111.011 52.3747 110.853 52.3747L109.982 52.3061C109.899 52.3061 109.838 52.2718 109.803 52.2032C109.762 52.1346 109.748 52.0592 109.769 51.97C109.865 50.7148 110.242 49.7066 110.908 48.9452C111.567 48.1839 112.37 47.7998 113.303 47.7998C114.401 47.7998 115.259 48.3074 115.884 49.3293L115.856 49.3431ZM114.717 62.7316C115.239 62.08 115.506 61.1678 115.506 59.9743V56.785C115.506 56.6958 115.472 56.6478 115.41 56.6478H113.523C112.686 56.6478 112.013 56.9701 111.505 57.608C110.997 58.2459 110.743 59.1924 110.743 60.4476C110.743 61.545 110.936 62.3612 111.327 62.9031C111.711 63.4381 112.219 63.7124 112.85 63.7124C113.578 63.7124 114.202 63.3901 114.724 62.7385L114.717 62.7316Z" fill="#001B70"/>
<path d="M123.675 63.9868C123.036 63.1911 122.721 62.1691 122.721 60.914V60.7151C122.721 60.4887 122.803 60.379 122.961 60.379H123.709C123.874 60.379 123.949 60.4887 123.949 60.7151V60.914C123.949 61.7233 124.155 62.3886 124.581 62.9305C125.006 63.4723 125.541 63.7398 126.2 63.7398C126.859 63.7398 127.367 63.4655 127.758 62.9168C128.156 62.3681 128.348 61.6547 128.348 60.7837C128.348 60.1321 128.238 59.5971 128.012 59.1718C127.785 58.7466 127.504 58.4036 127.168 58.1498C126.832 57.8892 126.372 57.5943 125.788 57.2582C125.157 56.9015 124.642 56.5449 124.237 56.2019C123.832 55.8521 123.489 55.372 123.208 54.7547C122.927 54.1374 122.782 53.3623 122.782 52.4227C122.782 51.0577 123.091 49.9672 123.702 49.1647C124.313 48.3622 125.13 47.9575 126.145 47.9575C127.161 47.9575 127.998 48.3691 128.616 49.199C129.227 50.0289 129.535 51.1058 129.535 52.4227V52.5255C129.535 52.7519 129.453 52.8616 129.295 52.8616H128.568C128.41 52.8616 128.328 52.7519 128.328 52.5255V52.3609C128.328 51.531 128.129 50.8383 127.724 50.2758C127.319 49.7134 126.797 49.439 126.152 49.439C125.507 49.439 124.992 49.7134 124.601 50.2621C124.217 50.8108 124.018 51.5241 124.018 52.3952C124.018 52.9988 124.121 53.5064 124.333 53.9042C124.546 54.3089 124.807 54.6312 125.123 54.8781C125.438 55.1251 125.878 55.4269 126.44 55.7835C127.099 56.1676 127.648 56.5311 128.074 56.8741C128.499 57.2239 128.87 57.7109 129.172 58.335C129.481 58.9592 129.632 59.7548 129.632 60.7219C129.632 62.0663 129.316 63.1431 128.691 63.9662C128.06 64.7824 127.23 65.1939 126.2 65.1939C125.171 65.1939 124.306 64.7961 123.668 64.0005L123.675 63.9868Z" fill="#001B70"/>
<path d="M137.077 49.2059C137.681 50.1387 137.983 51.3527 137.983 52.8479V60.235C137.983 61.7371 137.681 62.9511 137.077 63.877C136.473 64.803 135.67 65.2694 134.668 65.2694C134.181 65.2694 133.735 65.1322 133.316 64.8647C132.898 64.5972 132.541 64.2063 132.253 63.6918C132.218 63.6507 132.191 63.6301 132.17 63.6438C132.143 63.6575 132.136 63.685 132.136 63.7261V71.2503C132.136 71.4767 132.054 71.5864 131.896 71.5864H131.1C130.935 71.5864 130.859 71.4767 130.859 71.2503V48.4102C130.859 48.1839 130.942 48.0741 131.1 48.0741H131.896C132.054 48.0741 132.136 48.1839 132.136 48.4102V49.3499C132.136 49.3979 132.15 49.4253 132.184 49.4322C132.218 49.4459 132.239 49.4322 132.259 49.3842C132.548 48.8698 132.904 48.4788 133.323 48.2113C133.742 47.9438 134.195 47.8066 134.675 47.8066C135.677 47.8066 136.48 48.273 137.084 49.199L137.077 49.2059ZM136.075 50.3856C135.643 49.7271 135.073 49.3979 134.38 49.3979C133.687 49.3979 133.179 49.7203 132.76 50.3719C132.342 51.0235 132.129 51.874 132.129 52.9234V60.1801C132.129 61.2364 132.335 62.0869 132.76 62.7316C133.179 63.3832 133.721 63.7056 134.38 63.7056C135.039 63.7056 135.636 63.3763 136.075 62.7179C136.507 62.0594 136.727 61.2089 136.727 60.1801V52.9234C136.727 51.8945 136.507 51.0509 136.075 50.3856Z" fill="#001B70"/>
<path d="M140.44 63.8907C139.788 62.9647 139.459 61.7439 139.459 60.2486V52.8616C139.459 51.3869 139.788 50.1729 140.454 49.2332C141.113 48.2936 141.978 47.8203 143.041 47.8203C144.105 47.8203 145.018 48.2867 145.677 49.2127C146.335 50.1455 146.672 51.3595 146.672 52.8547V60.2418C146.672 61.7439 146.342 62.9579 145.677 63.8838C145.018 64.8098 144.133 65.2762 143.041 65.2762C141.95 65.2762 141.092 64.8098 140.44 63.8838V63.8907ZM144.736 62.711C145.169 62.0525 145.388 61.202 145.388 60.1732V52.9508C145.388 51.9014 145.169 51.044 144.736 50.3787C144.304 49.7202 143.734 49.391 143.041 49.391C142.348 49.391 141.813 49.7202 141.381 50.3787C140.955 51.0371 140.742 51.8945 140.742 52.9508V60.1732C140.742 61.202 140.955 62.0525 141.381 62.711C141.806 63.3694 142.362 63.6987 143.041 63.6987C143.721 63.6987 144.297 63.3694 144.736 62.711Z" fill="#001B70"/>
<path d="M152.964 48.2867C153.074 48.3759 153.115 48.5199 153.088 48.7257L152.895 49.8711C152.847 50.07 152.744 50.1318 152.58 50.0426C152.319 49.9054 152.01 49.8506 151.639 49.8711C150.994 49.8917 150.466 50.3444 150.068 51.2155C149.663 52.0865 149.464 53.1634 149.464 54.4392V64.6863C149.464 64.9127 149.382 65.0224 149.224 65.0224H148.428C148.263 65.0224 148.188 64.9127 148.188 64.6863V48.4308C148.188 48.2044 148.27 48.0947 148.428 48.0947H149.224C149.382 48.0947 149.464 48.2044 149.464 48.4308V50.5159C149.464 50.5845 149.478 50.6187 149.512 50.6187C149.546 50.6187 149.567 50.5845 149.588 50.5159C149.814 49.7065 150.123 49.0824 150.521 48.6365C150.919 48.1907 151.386 47.9644 151.935 47.9644C152.339 47.9644 152.683 48.0741 152.978 48.3004L152.964 48.2867Z" fill="#001B70"/>
<path d="M160.294 57.1896H154.728C154.666 57.1896 154.632 57.2376 154.632 57.3267V60.18C154.632 61.2089 154.845 62.0594 155.27 62.7178C155.696 63.3763 156.252 63.7055 156.931 63.7055C157.494 63.7055 157.981 63.4723 158.386 62.999C158.791 62.5258 159.052 61.9153 159.182 61.154C159.23 60.9551 159.319 60.8522 159.45 60.8522L160.225 60.9208C160.287 60.9208 160.349 60.9414 160.397 60.9894C160.445 61.0374 160.458 61.0991 160.445 61.1883V61.3255C160.28 62.5601 159.896 63.5272 159.285 64.2336C158.674 64.9401 157.892 65.2899 156.938 65.2899C155.874 65.2899 155.009 64.8235 154.351 63.8976C153.692 62.9716 153.355 61.7644 153.355 60.2829V52.8616C153.355 51.3869 153.685 50.1729 154.351 49.2332C155.009 48.2936 155.874 47.8203 156.938 47.8203C158.002 47.8203 158.887 48.2936 159.553 49.2332C160.211 50.1729 160.548 51.3801 160.548 52.8616V56.8603C160.548 57.0867 160.465 57.1964 160.307 57.1964L160.294 57.1896ZM155.277 50.3855C154.852 51.044 154.639 51.9014 154.639 52.9576V55.5091C154.639 55.5983 154.673 55.6463 154.735 55.6463H159.161C159.223 55.6463 159.257 55.6052 159.257 55.5091V52.9576C159.257 51.9082 159.045 51.0508 158.619 50.3855C158.194 49.7271 157.631 49.3979 156.938 49.3979C156.245 49.3979 155.709 49.7271 155.277 50.3855Z" fill="#001B70"/>
<path d="M162.731 63.9868C162.093 63.1911 161.777 62.1691 161.777 60.914V60.7151C161.777 60.4887 161.86 60.379 162.018 60.379H162.766C162.93 60.379 163.006 60.4887 163.006 60.7151V60.914C163.006 61.7233 163.212 62.3886 163.637 62.9305C164.063 63.4723 164.598 63.7398 165.257 63.7398C165.916 63.7398 166.423 63.4655 166.815 62.9168C167.213 62.3681 167.405 61.6547 167.405 60.7837C167.405 60.1321 167.295 59.5971 167.069 59.1718C166.842 58.7466 166.561 58.4036 166.224 58.1498C165.888 57.8892 165.428 57.5943 164.845 57.2582C164.214 56.9015 163.699 56.5449 163.294 56.2019C162.889 55.8521 162.546 55.372 162.265 54.7547C161.983 54.1374 161.839 53.3623 161.839 52.4227C161.839 51.0577 162.148 49.9672 162.759 49.1647C163.37 48.3622 164.186 47.9575 165.202 47.9575C166.218 47.9575 167.055 48.3691 167.672 49.199C168.283 50.0289 168.592 51.1058 168.592 52.4227V52.5255C168.592 52.7519 168.51 52.8616 168.352 52.8616H167.624C167.467 52.8616 167.384 52.7519 167.384 52.5255V52.3609C167.384 51.531 167.185 50.8383 166.78 50.2758C166.375 49.7134 165.854 49.439 165.209 49.439C164.564 49.439 164.049 49.7134 163.658 50.2621C163.273 50.8108 163.074 51.5241 163.074 52.3952C163.074 52.9988 163.177 53.5064 163.39 53.9042C163.603 54.3089 163.864 54.6312 164.179 54.8781C164.495 55.1251 164.934 55.4269 165.497 55.7835C166.156 56.1676 166.705 56.5311 167.13 56.8741C167.556 57.2239 167.926 57.7109 168.228 58.335C168.537 58.9592 168.688 59.7548 168.688 60.7219C168.688 62.0663 168.372 63.1431 167.748 63.9662C167.117 64.7824 166.286 65.1939 165.257 65.1939C164.227 65.1939 163.363 64.7961 162.724 64.0005L162.731 63.9868Z" fill="#001B70"/>
<path d="M169.084 67.3954C169.036 67.3268 169.023 67.2377 169.036 67.1279L169.86 60.1387C169.894 59.9398 169.97 59.8369 170.1 59.8369H170.779C170.862 59.8369 170.924 59.8712 170.958 59.9398C170.999 60.0084 171.013 60.0976 170.992 60.2073L169.976 67.1965C169.963 67.3954 169.874 67.4983 169.709 67.4983H169.249C169.187 67.4983 169.126 67.464 169.077 67.3954H169.084Z" fill="#001B70"/>
<path d="M17.8711 96.0795V73.2394C17.8711 73.0131 17.9534 72.9033 18.1113 72.9033H18.9074C19.0721 72.9033 19.1476 73.0131 19.1476 73.2394V96.0795C19.1476 96.3059 19.0652 96.4156 18.9074 96.4156H18.1113C17.9466 96.4156 17.8711 96.3059 17.8711 96.0795Z" fill="#001B70"/>
<path d="M20.7269 75.7496C20.5004 75.5233 20.3906 75.2352 20.3906 74.8785C20.3906 74.5219 20.5004 74.2338 20.7269 74.0075C20.9534 73.7811 21.2416 73.6714 21.5985 73.6714C21.9553 73.6714 22.2436 73.7811 22.4701 74.0075C22.6965 74.2338 22.8063 74.5219 22.8063 74.8785C22.8063 75.2352 22.6897 75.5233 22.4701 75.7496C22.2436 75.976 21.9553 76.0857 21.5985 76.0857C21.2416 76.0857 20.9534 75.976 20.7269 75.7496ZM20.9671 96.0794V79.8238C20.9671 79.5975 21.0495 79.4877 21.2073 79.4877H22.0034C22.1612 79.4877 22.2436 79.5975 22.2436 79.8238V96.0794C22.2436 96.3057 22.1612 96.4155 22.0034 96.4155H21.2073C21.0426 96.4155 20.9671 96.3057 20.9671 96.0794Z" fill="#001B70"/>
<path d="M26.7785 96.1138L23.7521 79.8582L23.7246 79.7553C23.7246 79.577 23.807 79.4878 23.9648 79.4878H24.8844C25.0285 79.4878 25.1178 79.5907 25.1521 79.7896L27.4511 93.3976C27.4648 93.4662 27.4854 93.5005 27.4991 93.5005C27.5129 93.5005 27.5335 93.4662 27.5472 93.3976L29.8462 79.7896C29.8805 79.5907 29.9697 79.4878 30.1139 79.4878L31.0541 79.5221C31.1364 79.5221 31.1982 79.5564 31.2325 79.625C31.2737 79.6936 31.2737 79.7827 31.2462 79.8925L28.2678 96.1206C28.254 96.3195 28.1648 96.4224 28.0001 96.4224H27.0325C26.8884 96.4224 26.7991 96.3195 26.7648 96.1206L26.7785 96.1138Z" fill="#001B70"/>
<path d="M39.0965 88.5895H33.5308C33.469 88.5895 33.4347 88.6375 33.4347 88.7266V91.5799C33.4347 92.6088 33.6474 93.4593 34.0729 94.1177C34.4984 94.7762 35.0543 95.1054 35.7337 95.1054C36.2965 95.1054 36.7837 94.8722 37.1886 94.3989C37.5935 93.9257 37.8543 93.3152 37.9847 92.5539C38.0327 92.355 38.122 92.2521 38.2524 92.2521L39.0278 92.3207C39.0896 92.3207 39.1514 92.3413 39.1994 92.3893C39.2475 92.4373 39.2612 92.499 39.2475 92.5882V92.7254C39.0828 93.96 38.6984 94.9271 38.0876 95.6335C37.4769 96.34 36.6945 96.6898 35.7406 96.6898C34.6768 96.6898 33.8121 96.2234 33.1533 95.2975C32.4945 94.3715 32.1582 93.1643 32.1582 91.6828V84.2615C32.1582 82.7868 32.4876 81.5728 33.1533 80.6331C33.8121 79.6935 34.6768 79.2202 35.7406 79.2202C36.8043 79.2202 37.6896 79.6935 38.3553 80.6331C39.0141 81.5728 39.3504 82.78 39.3504 84.2615V88.2602C39.3504 88.4866 39.268 88.5963 39.1102 88.5963L39.0965 88.5895ZM34.0729 81.7854C33.6474 82.4439 33.4347 83.3013 33.4347 84.3575V86.909C33.4347 86.9982 33.469 87.0462 33.5308 87.0462H37.9573C38.019 87.0462 38.0533 87.0051 38.0533 86.909V84.3575C38.0533 83.3081 37.8406 82.4508 37.4151 81.7854C36.9896 81.127 36.4269 80.7978 35.7337 80.7978C35.0406 80.7978 34.5053 81.127 34.0729 81.7854Z" fill="#001B70"/>
<path d="M40.4492 86.3054V85.4001C40.4492 85.1737 40.5316 85.064 40.6894 85.064H46.0355C46.1934 85.064 46.2757 85.1737 46.2757 85.4001V86.3054C46.2757 86.5318 46.1934 86.6415 46.0355 86.6415H40.6894C40.5247 86.6415 40.4492 86.5318 40.4492 86.3054Z" fill="#001B70"/>
<path d="M54.3261 80.6059C54.93 81.5387 55.232 82.7527 55.232 84.248V91.6693C55.232 93.1508 54.93 94.3511 54.3261 95.2839C53.7222 96.2099 52.9192 96.6763 51.9173 96.6763C51.43 96.6763 50.9839 96.5391 50.5584 96.2716C50.1398 96.0041 49.7829 95.6131 49.4947 95.0987C49.4604 95.0576 49.4329 95.037 49.4124 95.0507C49.3849 95.0644 49.378 95.0919 49.378 95.133V96.0727C49.378 96.299 49.2957 96.4088 49.1378 96.4088H48.3418C48.1771 96.4088 48.1016 96.299 48.1016 96.0727V73.2326C48.1016 73.0062 48.1839 72.8965 48.3418 72.8965H49.1378C49.2957 72.8965 49.378 73.0062 49.378 73.2326V80.7568C49.378 80.8048 49.3918 80.8322 49.4261 80.8391C49.4604 80.8528 49.481 80.8391 49.5016 80.7911C49.7898 80.2767 50.1467 79.8857 50.5653 79.6182C50.9839 79.3507 51.4369 79.2135 51.9241 79.2135C52.9261 79.2135 53.729 79.6799 54.333 80.6059H54.3261ZM53.3241 81.7856C52.8918 81.1272 52.3222 80.7979 51.629 80.7979C50.9359 80.7979 50.4281 81.1272 50.0094 81.7856C49.5908 82.4441 49.378 83.3014 49.378 84.3577V91.5801C49.378 92.6364 49.5908 93.4869 50.0094 94.1316C50.4281 94.7832 50.9702 95.1056 51.629 95.1056C52.2879 95.1056 52.8849 94.7764 53.3241 94.1179C53.7565 93.4594 53.9761 92.6089 53.9761 91.5801V84.3577C53.9761 83.3083 53.7565 82.4509 53.3241 81.7856Z" fill="#001B70"/>
<path d="M61.964 79.6866C62.0738 79.7758 62.115 79.9198 62.0875 80.1256L61.8954 81.271C61.8473 81.4699 61.7444 81.5317 61.5797 81.4425C61.3189 81.3053 61.0101 81.2505 60.6395 81.271C59.9944 81.2916 59.4659 81.7443 59.0679 82.6154C58.663 83.4865 58.464 84.5633 58.464 85.8391V96.0862C58.464 96.3126 58.3816 96.4223 58.2238 96.4223H57.4277C57.263 96.4223 57.1875 96.3126 57.1875 96.0862V79.8307C57.1875 79.6043 57.2699 79.4946 57.4277 79.4946H58.2238C58.3816 79.4946 58.464 79.6043 58.464 79.8307V81.9158C58.464 81.9844 58.4777 82.0187 58.512 82.0187C58.5463 82.0187 58.5669 81.9844 58.5875 81.9158C58.814 81.1064 59.1228 80.4823 59.5208 80.0364C59.9189 79.5906 60.3856 79.3643 60.9346 79.3643C61.3395 79.3643 61.6826 79.474 61.9777 79.7003L61.964 79.6866Z" fill="#001B70"/>
<path d="M69.7177 80.6058C70.3216 81.5386 70.6236 82.7526 70.6236 84.2478V91.6349C70.6236 93.137 70.3216 94.351 69.7177 95.2769C69.1138 96.2029 68.3108 96.6693 67.3088 96.6693C66.8216 96.6693 66.3755 96.5321 65.9569 96.2646C65.5382 95.9971 65.1814 95.6062 64.8931 95.0917C64.8588 95.0506 64.8314 95.03 64.8108 95.0437C64.7833 95.0574 64.7765 95.0849 64.7765 95.126V102.65C64.7765 102.877 64.6941 102.986 64.5363 102.986H63.7402C63.5755 102.986 63.5 102.877 63.5 102.65V79.8101C63.5 79.5838 63.5824 79.474 63.7402 79.474H64.5363C64.6941 79.474 64.7765 79.5838 64.7765 79.8101V80.7498C64.7765 80.7978 64.7902 80.8252 64.8245 80.8321C64.8588 80.8458 64.8794 80.8321 64.9 80.7841C65.1882 80.2697 65.5451 79.8787 65.9637 79.6112C66.3824 79.3437 66.8353 79.2065 67.3157 79.2065C68.3177 79.2065 69.1206 79.6729 69.7245 80.5989L69.7177 80.6058ZM68.7157 81.7855C68.2834 81.127 67.7138 80.7978 67.0206 80.7978C66.3275 80.7978 65.8196 81.1202 65.401 81.7718C64.9824 82.4234 64.7696 83.2739 64.7696 84.3233V91.58C64.7696 92.6363 64.9755 93.4868 65.401 94.1315C65.8196 94.7831 66.3618 95.1055 67.0206 95.1055C67.6794 95.1055 68.2765 94.7762 68.7157 94.1178C69.1481 93.4593 69.3677 92.6088 69.3677 91.58V84.3233C69.3677 83.2944 69.1481 82.4508 68.7157 81.7855Z" fill="#001B70"/>
<path d="M72.5879 96.0795V73.2394C72.5879 73.0131 72.6702 72.9033 72.8281 72.9033H73.6242C73.782 72.9033 73.8644 73.0131 73.8644 73.2394V87.3481C73.8644 87.3962 73.8781 87.4236 73.9124 87.4305C73.9467 87.4442 73.9673 87.4305 73.9879 87.3824L77.982 79.6868C78.0438 79.5496 78.1399 79.4879 78.2703 79.4879H79.1144C79.2105 79.4879 79.2722 79.529 79.3066 79.6045C79.3409 79.6799 79.3203 79.7759 79.2585 79.8925L76.9114 84.4606C76.8771 84.5086 76.8703 84.5634 76.884 84.632L79.7183 96.0521L79.7458 96.1893C79.7458 96.347 79.6703 96.4225 79.5262 96.4225H78.682C78.5379 96.4225 78.4419 96.3333 78.3938 96.155L76.0948 86.1753C76.081 86.0381 76.033 86.0312 75.9507 86.141L73.9193 90.0368C73.885 90.0849 73.8712 90.1397 73.8712 90.2083V96.0864C73.8712 96.3127 73.7889 96.4225 73.631 96.4225H72.835C72.6702 96.4225 72.5948 96.3127 72.5948 96.0864L72.5879 96.0795Z" fill="#001B70"/>
<path d="M81.468 70.9827C82.0513 72.6426 82.5249 74.7483 82.8955 77.2998C83.266 79.8513 83.4513 82.4851 83.4513 85.1944C83.4513 87.9036 83.266 90.7021 82.8955 93.3222C82.5249 95.9422 82.0307 98.0891 81.42 99.7695C81.3582 99.9273 81.2552 100.003 81.1317 100.003H80.3837C80.3013 100.003 80.2396 99.9616 80.2052 99.8861C80.1641 99.8107 80.1641 99.7215 80.1915 99.6323C80.7268 97.9108 81.1592 95.7571 81.4954 93.185C81.8317 90.6129 82.0033 87.9654 82.0033 85.2561C82.0033 82.5468 81.8317 79.9953 81.4954 77.4644C81.1592 74.9335 80.7199 72.8278 80.1915 71.1474L80.1641 71.0102C80.1641 70.8318 80.2396 70.7427 80.3837 70.7427H81.1798C81.3101 70.7427 81.4062 70.8181 81.468 70.9759V70.9827Z" fill="#001B70"/>
<path d="M90.0458 95.2906C89.3939 94.3646 89.0645 93.1438 89.0645 91.6485V84.2615C89.0645 82.7868 89.3939 81.5728 90.0596 80.6331C90.7184 79.6935 91.5831 79.2202 92.6468 79.2202C93.3537 79.2202 93.9851 79.426 94.5341 79.8444C95.0831 80.2559 95.5086 80.8046 95.8037 81.4905C96.1057 82.1764 96.2498 82.9172 96.2498 83.7265V83.9254C96.2498 84.1518 96.1674 84.2615 96.0096 84.2615L95.2135 84.3301C95.0488 84.3301 94.9733 84.2203 94.9733 83.994V83.7951C94.9733 82.9857 94.7537 82.2861 94.3213 81.6963C93.889 81.1064 93.3262 80.8046 92.6537 80.8046C91.9811 80.8046 91.4252 81.1338 90.9929 81.7923C90.5674 82.4508 90.3547 83.3081 90.3547 84.3644V91.5868C90.3547 92.6156 90.5674 93.4661 90.9929 94.1246C91.4184 94.783 91.9743 95.1123 92.6537 95.1123C93.3331 95.1123 93.889 94.8173 94.3213 94.2206C94.7537 93.6307 94.9733 92.9243 94.9733 92.1218V91.9572C94.9733 91.7308 95.0557 91.6211 95.2135 91.6211H96.0096C96.1743 91.6211 96.2498 91.7308 96.2498 91.9572V92.2247C96.2498 93.034 96.0988 93.7748 95.8037 94.4607C95.5086 95.1466 95.0831 95.6884 94.5341 96.0931C93.9851 96.4978 93.3537 96.6967 92.6468 96.6967C91.5625 96.6967 90.6978 96.2303 90.0458 95.3043V95.2906Z" fill="#001B70"/>
<path d="M104.376 80.743C104.993 81.7649 105.309 83.123 105.309 84.824V96.0794C105.309 96.3058 105.227 96.4155 105.069 96.4155H104.273C104.108 96.4155 104.033 96.3058 104.033 96.0794V94.8723C104.033 94.8037 104.019 94.7694 103.998 94.7557C103.971 94.742 103.943 94.7557 103.916 94.8037C103.319 96.0589 102.386 96.683 101.109 96.683C100.251 96.683 99.51 96.3332 98.8855 95.6405C98.2541 94.9477 97.9453 93.7268 97.9453 91.9778C97.9453 90.1191 98.3228 88.7541 99.0708 87.8762C99.8189 87.0051 100.814 86.5662 102.056 86.5662H103.943C104.005 86.5662 104.039 86.525 104.039 86.429V84.8857C104.039 83.6306 103.84 82.636 103.436 81.8953C103.031 81.1545 102.475 80.7841 101.768 80.7841C101.219 80.7841 100.738 81.031 100.327 81.5249C99.9149 82.0187 99.6747 82.6566 99.613 83.4385C99.613 83.6648 99.5306 83.7746 99.3728 83.7746L98.5012 83.706C98.4188 83.706 98.3571 83.6717 98.3228 83.6031C98.2816 83.5345 98.2679 83.4591 98.2885 83.3699C98.3845 82.1147 98.762 81.1065 99.4277 80.3451C100.087 79.5838 100.889 79.1997 101.823 79.1997C102.921 79.1997 103.779 79.7073 104.403 80.7292L104.376 80.743ZM103.237 94.1315C103.758 93.4799 104.026 92.5677 104.026 91.3742V88.1849C104.026 88.0957 103.991 88.0477 103.93 88.0477H102.042C101.205 88.0477 100.533 88.37 100.025 89.0079C99.5169 89.6458 99.263 90.5923 99.263 91.8475C99.263 92.9449 99.4551 93.7611 99.8463 94.303C100.231 94.838 100.738 95.1123 101.37 95.1123C102.097 95.1123 102.722 94.79 103.243 94.1384L103.237 94.1315Z" fill="#001B70"/>
<path d="M113.544 80.6058C114.148 81.5386 114.45 82.7526 114.45 84.2478V91.6349C114.45 93.137 114.148 94.351 113.544 95.2769C112.94 96.2029 112.137 96.6693 111.135 96.6693C110.648 96.6693 110.202 96.5321 109.783 96.2646C109.364 95.9971 109.008 95.6062 108.719 95.0917C108.685 95.0506 108.658 95.03 108.637 95.0437C108.61 95.0574 108.603 95.0849 108.603 95.126V102.65C108.603 102.877 108.52 102.986 108.362 102.986H107.566C107.402 102.986 107.326 102.877 107.326 102.65V79.8101C107.326 79.5838 107.409 79.474 107.566 79.474H108.362C108.52 79.474 108.603 79.5838 108.603 79.8101V80.7498C108.603 80.7978 108.616 80.8252 108.651 80.8321C108.685 80.8458 108.706 80.8321 108.726 80.7841C109.014 80.2697 109.371 79.8787 109.79 79.6112C110.209 79.3437 110.661 79.2065 111.142 79.2065C112.144 79.2065 112.947 79.6729 113.551 80.5989L113.544 80.6058ZM112.542 81.7855C112.11 81.127 111.54 80.7978 110.847 80.7978C110.154 80.7978 109.646 81.1202 109.227 81.7718C108.809 82.4234 108.596 83.2739 108.596 84.3233V91.58C108.596 92.6363 108.802 93.4868 109.227 94.1315C109.646 94.7831 110.188 95.1055 110.847 95.1055C111.506 95.1055 112.103 94.7762 112.542 94.1178C112.974 93.4593 113.194 92.6088 113.194 91.58V84.3233C113.194 83.2944 112.974 82.4508 112.542 81.7855Z" fill="#001B70"/>
<path d="M117.223 95.3867C116.585 94.591 116.27 93.569 116.27 92.3139V92.115C116.27 91.8886 116.352 91.7789 116.51 91.7789H117.258C117.422 91.7789 117.498 91.8886 117.498 92.115V92.3139C117.498 93.1232 117.704 93.7885 118.129 94.3304C118.555 94.8722 119.09 95.1397 119.749 95.1397C120.408 95.1397 120.916 94.8654 121.307 94.3167C121.705 93.768 121.897 93.0546 121.897 92.1836C121.897 91.532 121.787 90.997 121.561 90.5717C121.334 90.1465 121.053 89.8035 120.717 89.5497C120.38 89.2891 119.921 88.9942 119.337 88.6581C118.706 88.3014 118.191 87.9448 117.786 87.6018C117.381 87.252 117.038 86.7719 116.757 86.1546C116.475 85.5373 116.331 84.7622 116.331 83.8226C116.331 82.4576 116.64 81.3671 117.251 80.5646C117.862 79.7621 118.678 79.3574 119.694 79.3574C120.71 79.3574 121.547 79.769 122.165 80.5989C122.775 81.4288 123.084 82.5057 123.084 83.8226V83.9254C123.084 84.1518 123.002 84.2615 122.844 84.2615H122.117C121.959 84.2615 121.876 84.1518 121.876 83.9254V83.7608C121.876 82.9309 121.677 82.2382 121.273 81.6757C120.868 81.1133 120.346 80.8389 119.701 80.8389C119.056 80.8389 118.541 81.1133 118.15 81.662C117.766 82.2107 117.567 82.924 117.567 83.7951C117.567 84.3987 117.67 84.9063 117.882 85.3041C118.095 85.7088 118.356 86.0311 118.672 86.278C118.987 86.525 119.426 86.8268 119.989 87.1834C120.648 87.5675 121.197 87.931 121.623 88.274C122.048 88.6238 122.419 89.1108 122.721 89.7349C123.029 90.3591 123.18 91.1547 123.18 92.1218C123.18 93.4662 122.865 94.543 122.24 95.3661C121.609 96.1823 120.778 96.5938 119.749 96.5938C118.72 96.5938 117.855 96.196 117.217 95.4004L117.223 95.3867Z" fill="#001B70"/>
<path d="M131.031 79.481H131.827C131.992 79.481 132.067 79.5907 132.067 79.8171V96.0727C132.067 96.299 131.985 96.4087 131.827 96.4087H131.031C130.866 96.4087 130.791 96.299 130.791 96.0727V94.8655C130.791 94.7969 130.777 94.7626 130.757 94.7489C130.729 94.7352 130.702 94.7489 130.674 94.7969C130.16 96.0315 129.336 96.6419 128.204 96.6419C127.236 96.6419 126.467 96.2304 125.905 95.4142C125.342 94.598 125.061 93.3703 125.061 91.7378V79.8102C125.061 79.5839 125.143 79.4741 125.301 79.4741H126.097C126.262 79.4741 126.337 79.5839 126.337 79.8102V91.3332C126.337 92.5678 126.529 93.4937 126.907 94.1179C127.284 94.742 127.819 95.0575 128.513 95.0575C129.206 95.0575 129.782 94.7009 130.18 93.9807C130.585 93.2674 130.784 92.2797 130.784 91.0245V79.8034C130.784 79.577 130.866 79.4673 131.024 79.4673L131.031 79.481Z" fill="#001B70"/>
<path d="M134.27 96.0795V73.2394C134.27 73.0131 134.352 72.9033 134.51 72.9033H135.306C135.471 72.9033 135.546 73.0131 135.546 73.2394V96.0795C135.546 96.3059 135.464 96.4156 135.306 96.4156H134.51C134.345 96.4156 134.27 96.3059 134.27 96.0795Z" fill="#001B70"/>
<path d="M144.675 88.5895H139.109C139.047 88.5895 139.013 88.6375 139.013 88.7266V91.5799C139.013 92.6088 139.226 93.4593 139.651 94.1177C140.077 94.7762 140.632 95.1054 141.312 95.1054C141.875 95.1054 142.362 94.8722 142.767 94.3989C143.172 93.9257 143.432 93.3152 143.563 92.5539C143.611 92.355 143.7 92.2521 143.83 92.2521L144.606 92.3207C144.668 92.3207 144.73 92.3413 144.778 92.3893C144.826 92.4373 144.839 92.499 144.826 92.5882V92.7254C144.661 93.96 144.277 94.9271 143.666 95.6335C143.055 96.34 142.273 96.6898 141.319 96.6898C140.255 96.6898 139.39 96.2234 138.731 95.2975C138.073 94.3715 137.736 93.1643 137.736 91.6828V84.2615C137.736 82.7868 138.066 81.5728 138.731 80.6331C139.39 79.6935 140.255 79.2202 141.319 79.2202C142.382 79.2202 143.268 79.6935 143.933 80.6331C144.592 81.5728 144.929 82.78 144.929 84.2615V88.2602C144.929 88.4866 144.846 88.5963 144.688 88.5963L144.675 88.5895ZM139.658 81.7854C139.232 82.4439 139.02 83.3013 139.02 84.3575V86.909C139.02 86.9982 139.054 87.0462 139.116 87.0462H143.542C143.604 87.0462 143.638 87.0051 143.638 86.909V84.3575C143.638 83.3081 143.426 82.4508 143 81.7854C142.575 81.127 142.012 80.7978 141.319 80.7978C140.626 80.7978 140.09 81.127 139.658 81.7854Z" fill="#001B70"/>
<path d="M147.11 95.3867C146.472 94.591 146.156 93.569 146.156 92.3139V92.115C146.156 91.8886 146.239 91.7789 146.396 91.7789H147.144C147.309 91.7789 147.385 91.8886 147.385 92.115V92.3139C147.385 93.1232 147.591 93.7885 148.016 94.3304C148.442 94.8722 148.977 95.1397 149.636 95.1397C150.295 95.1397 150.802 94.8654 151.194 94.3167C151.592 93.768 151.784 93.0546 151.784 92.1836C151.784 91.532 151.674 90.997 151.447 90.5717C151.221 90.1465 150.94 89.8035 150.603 89.5497C150.267 89.2891 149.807 88.9942 149.224 88.6581C148.593 88.3014 148.078 87.9448 147.673 87.6018C147.268 87.252 146.925 86.7719 146.644 86.1546C146.362 85.5373 146.218 84.7622 146.218 83.8226C146.218 82.4576 146.527 81.3671 147.138 80.5646C147.748 79.7621 148.565 79.3574 149.581 79.3574C150.596 79.3574 151.434 79.769 152.051 80.5989C152.662 81.4288 152.971 82.5057 152.971 83.8226V83.9254C152.971 84.1518 152.889 84.2615 152.731 84.2615H152.003C151.846 84.2615 151.763 84.1518 151.763 83.9254V83.7608C151.763 82.9309 151.564 82.2382 151.159 81.6757C150.754 81.1133 150.233 80.8389 149.588 80.8389C148.943 80.8389 148.428 81.1133 148.037 81.662C147.652 82.2107 147.453 82.924 147.453 83.7951C147.453 84.3987 147.556 84.9063 147.769 85.3041C147.982 85.7088 148.243 86.0311 148.558 86.278C148.874 86.525 149.313 86.8268 149.876 87.1834C150.535 87.5675 151.084 87.931 151.509 88.274C151.935 88.6238 152.305 89.1108 152.607 89.7349C152.916 90.3591 153.067 91.1547 153.067 92.1218C153.067 93.4662 152.751 94.543 152.127 95.3661C151.495 96.1823 150.665 96.5938 149.636 96.5938C148.606 96.5938 147.742 96.196 147.103 95.4004L147.11 95.3867Z" fill="#001B70"/>
<path d="M6.47852 3.04541H10.6168L17.9668 19.2804C18.3031 20.028 18.6051 20.7619 18.8864 21.4958C19.5247 23.1351 20.0188 24.4726 20.3619 25.5083H20.5404C20.7257 24.9116 20.9315 24.3011 21.158 23.6907L21.8786 21.7359C22.16 21.0157 22.4688 20.2818 22.8188 19.541L30.2924 3.04541H34.211L21.2266 31.7224H19.4698L6.47852 3.04541Z" fill="#001B70"/>
<path d="M68.6484 3.04541H72.9445C77.1034 13.3612 79.2995 18.8277 79.5397 19.4382C80.0887 20.9265 80.4456 21.9417 80.6171 22.4767L81.1181 23.8964H81.2965C81.4681 23.2723 81.6534 22.6344 81.8593 21.9828L82.5387 19.8634C82.7926 19.0884 83.074 18.2859 83.376 17.4491L88.5505 3.05227H89.6897L95.0221 17.1473L97.3212 23.8964H97.4996L98.9202 19.3421C99.1741 18.5465 99.4349 17.792 99.7025 17.0856L104.795 3.04541H109.091L97.9388 31.7224H96.7996L90.726 15.7069C90.5544 15.2817 90.376 14.7947 90.2044 14.246L89.127 10.9537H89.0103L88.4888 12.689C88.3446 13.1829 88.1799 13.6973 88.0084 14.2254L81.7358 31.7156H80.5965L68.6484 3.04541Z" fill="#001B70"/>
<path d="M111.343 24.9526C113.82 26.5507 116.339 27.6001 118.899 28.1077C119.763 28.2791 120.642 28.3683 121.534 28.3683C122.426 28.3683 123.346 28.286 124.3 28.1214C125.254 27.9568 126.098 27.6756 126.825 27.2915C128.479 26.4135 129.303 25.0623 129.303 23.2379C129.303 21.4134 127.916 20.0485 125.144 19.3009C124.334 19.0882 123.462 18.8962 122.543 18.7247L119.688 18.224C116.051 17.5998 113.511 16.6808 112.077 15.4667C110.746 14.3625 110.08 12.8741 110.08 10.9947C110.08 8.43637 111.308 6.37184 113.759 4.78744C115.941 3.36079 118.521 2.64746 121.493 2.64746C124.464 2.64746 126.908 3.11387 129.186 4.04668C129.996 4.36904 130.847 4.76686 131.725 5.24698L130.366 8.50496C128.438 7.3458 126.16 6.59818 123.531 6.24838C122.708 6.13178 121.905 6.07005 121.136 6.07005C119.365 6.07005 117.801 6.40613 116.442 7.08517C114.857 7.8808 114.067 8.99194 114.067 10.398C114.067 11.8864 115.076 12.9838 117.087 13.6697C117.993 13.9921 119.015 14.2458 120.161 14.4516L123.716 15.0689C126.715 15.6313 128.788 16.2624 129.948 16.9688C131.108 17.6753 131.965 18.4641 132.515 19.3351C133.07 20.2062 133.345 21.3654 133.345 22.8126C133.345 24.2598 133.002 25.5493 132.329 26.6947C131.657 27.8402 130.744 28.7867 129.612 29.5275C127.402 31.0021 124.581 31.7429 121.157 31.7429C117.959 31.7429 114.953 31.0501 112.146 29.6646C111.226 29.212 110.375 28.6907 109.586 28.1077L111.343 24.9526Z" fill="#001B70"/>
<path d="M144.818 6.39941H134.188V3.04541H159.141V6.39941H148.51V31.3178H144.811V6.39941H144.818Z" fill="#001B70"/>
<path d="M67.2342 8.07292C65.6215 5.56942 63.4322 3.5872 60.7146 2.18113C57.9145 0.733902 54.8537 0 51.6145 0C48.3753 0 45.0605 0.768196 42.1988 2.27715C40.8331 2.99734 39.5772 3.88899 38.4654 4.92469C37.3536 5.96038 36.386 7.14011 35.583 8.42958C34.787 9.71905 34.1624 11.1526 33.7301 12.6752C33.2977 14.2048 33.0781 16.043 33.0781 18.1418C33.0781 20.2406 33.5585 22.3051 34.5056 24.3491C35.4526 26.3999 36.7634 28.1901 38.3968 29.6716C40.037 31.1531 41.9723 32.3191 44.1615 33.149C46.3507 33.9721 48.5125 34.3905 50.5988 34.3905C52.6851 34.3905 54.5724 34.1916 56.1645 33.8006C59.342 33.0119 62.0871 31.5578 64.3312 29.4727C67.9548 26.105 69.7185 21.969 69.7185 16.8386C69.7185 13.6423 68.8881 10.6999 67.2411 8.07978L67.2342 8.07292ZM61.6822 27.3738C58.9371 29.9665 55.5469 31.2834 51.6076 31.2834C47.6684 31.2834 44.0586 29.8773 41.2174 27.0995C39.886 25.8032 38.8223 24.2599 38.0605 22.5177C37.2919 20.7687 36.9076 18.8688 36.9076 16.8729C36.9076 14.8769 37.285 13.0182 38.0262 11.3515C38.7674 9.68476 39.7968 8.22381 41.0939 7.00979C42.3841 5.79577 43.9145 4.82866 45.6302 4.14277C47.3527 3.45002 49.3978 3.10022 51.7106 3.10022C54.0233 3.10022 56.3636 3.75867 58.594 5.055C60.8518 6.35134 62.6293 8.08664 63.8783 10.2198C65.2097 12.4626 65.8822 14.9318 65.8822 17.5588C65.8822 21.4409 64.4685 24.7469 61.6891 27.3738H61.6822Z" fill="#0336FF"/>
<path d="M50.4428 29.9252C52.2924 29.9252 53.7918 28.4267 53.7918 26.5781C53.7918 24.7295 52.2924 23.231 50.4428 23.231C48.5932 23.231 47.0938 24.7295 47.0938 26.5781C47.0938 28.4267 48.5932 29.9252 50.4428 29.9252Z" fill="#7490FF"/>
<path d="M44.1278 26.3519C45.4885 26.3519 46.5915 25.2495 46.5915 23.8896C46.5915 22.5297 45.4885 21.4272 44.1278 21.4272C42.7671 21.4272 41.6641 22.5297 41.6641 23.8896C41.6641 25.2495 42.7671 26.3519 44.1278 26.3519Z" fill="#93DEF9"/>
<path d="M55.8777 23.4849C57.0906 23.4849 58.0738 22.5022 58.0738 21.2901C58.0738 20.0779 57.0906 19.0952 55.8777 19.0952C54.6649 19.0952 53.6816 20.0779 53.6816 21.2901C53.6816 22.5022 54.6649 23.4849 55.8777 23.4849Z" fill="#93DEF9"/>
<path d="M44.5877 18.67C45.5239 18.67 46.2828 17.9115 46.2828 16.9759C46.2828 16.0402 45.5239 15.2817 44.5877 15.2817C43.6515 15.2817 42.8926 16.0402 42.8926 16.9759C42.8926 17.9115 43.6515 18.67 44.5877 18.67Z" fill="#5B7CFF"/>
<path d="M60.2498 26.3653C61.186 26.3653 61.9449 25.6068 61.9449 24.6712C61.9449 23.7355 61.186 22.9771 60.2498 22.9771C59.3136 22.9771 58.5547 23.7355 58.5547 24.6712C58.5547 25.6068 59.3136 26.3653 60.2498 26.3653Z" fill="#7490FF"/>
<path d="M48.1701 21.736C48.7462 21.736 49.2132 21.2692 49.2132 20.6934C49.2132 20.1176 48.7462 19.6509 48.1701 19.6509C47.594 19.6509 47.127 20.1176 47.127 20.6934C47.127 21.2692 47.594 21.736 48.1701 21.736Z" fill="#4BC8F5"/>
<path d="M61.9299 21.2418C62.506 21.2418 62.973 20.7751 62.973 20.1993C62.973 19.6235 62.506 19.1567 61.9299 19.1567C61.3537 19.1567 60.8867 19.6235 60.8867 20.1993C60.8867 20.7751 61.3537 21.2418 61.9299 21.2418Z" fill="#4BC8F5"/>
<path d="M40.95 21.6743C41.4692 21.6743 41.8902 21.2536 41.8902 20.7346C41.8902 20.2156 41.4692 19.7949 40.95 19.7949C40.4307 19.7949 40.0098 20.2156 40.0098 20.7346C40.0098 21.2536 40.4307 21.6743 40.95 21.6743Z" fill="#7490FF"/>
<path d="M56.756 28.1969C57.3321 28.1969 57.7992 27.7302 57.7992 27.1544C57.7992 26.5786 57.3321 26.1118 56.756 26.1118C56.1799 26.1118 55.7129 26.5786 55.7129 27.1544C55.7129 27.7302 56.1799 28.1969 56.756 28.1969Z" fill="#4BC8F5"/>
<path d="M160.945 5.04829V5.03457C160.945 3.8617 161.899 2.87402 163.093 2.87402C164.287 2.87402 165.241 3.84799 165.241 5.02086V5.03457C165.241 6.20745 164.287 7.19513 163.093 7.19513C161.899 7.19513 160.945 6.22116 160.945 5.04829ZM164.994 5.04143V5.02772C164.994 3.97831 164.178 3.11408 163.093 3.11408C162.009 3.11408 161.192 3.99202 161.192 5.04143V5.05515C161.192 6.10456 162.009 6.96878 163.093 6.96878C164.178 6.96878 164.994 6.09084 164.994 5.04143ZM162.201 3.87542H163.251C163.773 3.87542 164.15 4.10862 164.15 4.61618C164.15 4.97284 163.951 5.20605 163.656 5.30893L164.226 6.11142H163.574L163.093 5.40496H162.75V6.11142H162.208V3.87542H162.201ZM163.217 4.96599C163.464 4.96599 163.601 4.84253 163.601 4.65734C163.601 4.45843 163.45 4.34869 163.217 4.34869H162.75V4.96599H163.217Z" fill="#001B70"/>
</g>
<defs>
<clipPath id="clip0_42_662">
<rect width="171" height="103" fill="white"/>
</clipPath>
</defs>
</svg>
