<svg width="103" height="64" viewBox="0 0 103 64" fill="none" xmlns="http://www.w3.org/2000/svg">
<path d="M0 0.000145912L103 0V27C103 47.4346 86.4346 64 66.0001 64.0001L0 64.0001V0.000145912Z" fill="#9F248B"/>
<path d="M46.8077 51H35.4231C34.5692 51 34 50.4308 34 49.5769V15.4231C34 14.5692 34.5692 14 35.4231 14H46.8077C47.6615 14 48.2308 14.5692 48.2308 15.4231C48.2308 16.2769 47.6615 16.8462 46.8077 16.8462H36.8462V48.1538H46.8077C47.6615 48.1538 48.2308 48.7231 48.2308 49.5769C48.2308 50.4308 47.6615 51 46.8077 51ZM59.6154 45.3077C59.1885 45.3077 58.9038 45.1654 58.6192 44.8808C58.05 44.3115 58.05 43.4577 58.6192 42.8885L67.5846 33.9231H42.5385C41.6846 33.9231 41.1154 33.3538 41.1154 32.5C41.1154 31.6462 41.6846 31.0769 42.5385 31.0769H67.5846L58.6192 22.1115C58.05 21.5423 58.05 20.6885 58.6192 20.1192C59.1885 19.55 60.0423 19.55 60.6115 20.1192L71.9962 31.5038C72.1385 31.6462 72.2808 31.7885 72.2808 31.9308C72.2808 32.0731 72.4231 32.2154 72.4231 32.5C72.4231 32.6423 72.4231 32.9269 72.2808 33.0692C72.2808 33.2115 72.1385 33.3538 71.9962 33.4962L60.6115 44.8808C60.3269 45.1654 60.0423 45.3077 59.6154 45.3077Z" fill="white"/>
</svg>
