<svg width="95" height="10" viewBox="0 0 95 10" fill="none" xmlns="http://www.w3.org/2000/svg">
<path d="M31.5508 0C34.0634 0.000210984 36.1005 2.03715 36.1006 4.5498C36.1006 7.06257 34.0635 9.0994 31.5508 9.09961C29.0379 9.09961 27 7.0627 27 4.5498C27.0001 2.03702 29.038 0 31.5508 0ZM47.6504 0C50.1632 0 52.2001 2.03702 52.2002 4.5498C52.2002 7.0627 50.1633 9.09961 47.6504 9.09961C45.1375 9.09961 43.1006 7.0627 43.1006 4.5498C43.1007 2.03702 45.1376 5.15391e-07 47.6504 0ZM63.75 0C66.2628 0 68.3006 2.03702 68.3008 4.5498C68.3008 7.0627 66.2629 9.09961 63.75 9.09961C61.2373 9.0994 59.2002 7.06257 59.2002 4.5498C59.2003 2.03715 61.2374 0.000210779 63.75 0Z" fill="#C5C5C5"/>
</svg>
