<svg width="498" height="172" viewBox="0 0 498 172" fill="none" xmlns="http://www.w3.org/2000/svg">
<path d="M51.9658 142.049C51.9658 142.501 51.8747 142.893 51.6924 143.225C51.5101 143.558 51.2594 143.831 50.9404 144.046C50.626 144.255 50.2614 144.406 49.8467 144.497V144.545C50.6442 144.645 51.2458 144.895 51.6514 145.297C52.0615 145.698 52.2666 146.228 52.2666 146.889C52.2666 147.468 52.1276 147.985 51.8496 148.441C51.5716 148.892 51.1455 149.248 50.5713 149.507C49.9971 149.767 49.2588 149.897 48.3564 149.897C47.8141 149.897 47.3105 149.854 46.8457 149.767C46.3854 149.681 45.9479 149.542 45.5332 149.35V147.922C45.957 148.131 46.4082 148.293 46.8867 148.407C47.3652 148.521 47.8187 148.578 48.2471 148.578C49.0811 148.578 49.6758 148.423 50.0312 148.113C50.3867 147.798 50.5645 147.366 50.5645 146.814C50.5645 146.459 50.471 146.167 50.2842 145.939C50.1019 145.711 49.8171 145.54 49.4297 145.426C49.0469 145.312 48.5524 145.255 47.9463 145.255H47.0645V143.964H47.9531C48.5319 143.964 48.9967 143.895 49.3477 143.758C49.6986 143.617 49.9515 143.423 50.1064 143.177C50.266 142.931 50.3457 142.644 50.3457 142.316C50.3457 141.888 50.2067 141.555 49.9287 141.318C49.6507 141.076 49.2383 140.956 48.6914 140.956C48.3542 140.956 48.0465 140.994 47.7686 141.072C47.4951 141.149 47.2422 141.247 47.0098 141.366C46.7773 141.484 46.5563 141.612 46.3467 141.749L45.5742 140.634C45.9525 140.352 46.4036 140.113 46.9277 139.917C47.4518 139.721 48.0625 139.623 48.7598 139.623C49.7852 139.623 50.5758 139.844 51.1318 140.286C51.6878 140.723 51.9658 141.311 51.9658 142.049ZM55.7324 148.133L55.8281 148.291C55.7461 148.619 55.6413 148.972 55.5137 149.35C55.3861 149.728 55.2471 150.107 55.0967 150.485C54.9463 150.868 54.7936 151.228 54.6387 151.565H53.4629C53.5586 151.196 53.6497 150.809 53.7363 150.403C53.8275 150.002 53.9095 149.605 53.9824 149.214C54.0599 148.817 54.1214 148.457 54.167 148.133H55.7324ZM64.1748 144.756C64.1748 145.563 64.111 146.285 63.9834 146.923C63.8604 147.557 63.6644 148.095 63.3955 148.537C63.1266 148.979 62.7757 149.316 62.3428 149.548C61.9098 149.781 61.3857 149.897 60.7705 149.897C60.0003 149.897 59.3646 149.694 58.8633 149.289C58.362 148.879 57.9906 148.291 57.749 147.525C57.5075 146.755 57.3867 145.832 57.3867 144.756C57.3867 143.681 57.4961 142.76 57.7148 141.995C57.9382 141.225 58.2982 140.634 58.7949 140.224C59.2917 139.814 59.9502 139.609 60.7705 139.609C61.5452 139.609 62.1833 139.814 62.6846 140.224C63.1904 140.63 63.5641 141.218 63.8057 141.988C64.0518 142.754 64.1748 143.676 64.1748 144.756ZM59.0068 144.756C59.0068 145.6 59.0615 146.304 59.1709 146.869C59.2848 147.434 59.4717 147.858 59.7314 148.14C59.9912 148.418 60.3376 148.557 60.7705 148.557C61.2035 148.557 61.5498 148.418 61.8096 148.14C62.0693 147.862 62.2562 147.441 62.3701 146.876C62.4886 146.311 62.5479 145.604 62.5479 144.756C62.5479 143.918 62.4909 143.216 62.377 142.651C62.263 142.086 62.0762 141.662 61.8164 141.38C61.5566 141.092 61.208 140.949 60.7705 140.949C60.333 140.949 59.9844 141.092 59.7246 141.38C59.4694 141.662 59.2848 142.086 59.1709 142.651C59.0615 143.216 59.0068 143.918 59.0068 144.756ZM72.1865 144.756C72.1865 145.563 72.1227 146.285 71.9951 146.923C71.8721 147.557 71.6761 148.095 71.4072 148.537C71.1383 148.979 70.7874 149.316 70.3545 149.548C69.9215 149.781 69.3975 149.897 68.7822 149.897C68.012 149.897 67.3763 149.694 66.875 149.289C66.3737 148.879 66.0023 148.291 65.7607 147.525C65.5192 146.755 65.3984 145.832 65.3984 144.756C65.3984 143.681 65.5078 142.76 65.7266 141.995C65.9499 141.225 66.3099 140.634 66.8066 140.224C67.3034 139.814 67.9619 139.609 68.7822 139.609C69.557 139.609 70.195 139.814 70.6963 140.224C71.2021 140.63 71.5758 141.218 71.8174 141.988C72.0635 142.754 72.1865 143.676 72.1865 144.756ZM67.0186 144.756C67.0186 145.6 67.0732 146.304 67.1826 146.869C67.2965 147.434 67.4834 147.858 67.7432 148.14C68.0029 148.418 68.3493 148.557 68.7822 148.557C69.2152 148.557 69.5615 148.418 69.8213 148.14C70.0811 147.862 70.2679 147.441 70.3818 146.876C70.5003 146.311 70.5596 145.604 70.5596 144.756C70.5596 143.918 70.5026 143.216 70.3887 142.651C70.2747 142.086 70.0879 141.662 69.8281 141.38C69.5684 141.092 69.2197 140.949 68.7822 140.949C68.3447 140.949 67.9961 141.092 67.7363 141.38C67.4811 141.662 67.2965 142.086 67.1826 142.651C67.0732 143.216 67.0186 143.918 67.0186 144.756ZM80.1982 144.756C80.1982 145.563 80.1344 146.285 80.0068 146.923C79.8838 147.557 79.6878 148.095 79.4189 148.537C79.1501 148.979 78.7992 149.316 78.3662 149.548C77.9333 149.781 77.4092 149.897 76.7939 149.897C76.0238 149.897 75.388 149.694 74.8867 149.289C74.3854 148.879 74.014 148.291 73.7725 147.525C73.5309 146.755 73.4102 145.832 73.4102 144.756C73.4102 143.681 73.5195 142.76 73.7383 141.995C73.9616 141.225 74.3216 140.634 74.8184 140.224C75.3151 139.814 75.9736 139.609 76.7939 139.609C77.5687 139.609 78.2067 139.814 78.708 140.224C79.2139 140.63 79.5876 141.218 79.8291 141.988C80.0752 142.754 80.1982 143.676 80.1982 144.756ZM75.0303 144.756C75.0303 145.6 75.085 146.304 75.1943 146.869C75.3083 147.434 75.4951 147.858 75.7549 148.14C76.0146 148.418 76.361 148.557 76.7939 148.557C77.2269 148.557 77.5732 148.418 77.833 148.14C78.0928 147.862 78.2796 147.441 78.3936 146.876C78.512 146.311 78.5713 145.604 78.5713 144.756C78.5713 143.918 78.5143 143.216 78.4004 142.651C78.2865 142.086 78.0996 141.662 77.8398 141.38C77.5801 141.092 77.2314 140.949 76.7939 140.949C76.3564 140.949 76.0078 141.092 75.748 141.38C75.4928 141.662 75.3083 142.086 75.1943 142.651C75.085 143.216 75.0303 143.918 75.0303 144.756ZM27.0146 166.76H25.4014V156.124H27.0146V166.76ZM30.918 159.193V166.76H29.3115V159.193H30.918ZM30.125 156.295C30.3711 156.295 30.583 156.361 30.7607 156.493C30.943 156.625 31.0342 156.853 31.0342 157.176C31.0342 157.495 30.943 157.723 30.7607 157.86C30.583 157.992 30.3711 158.058 30.125 158.058C29.8698 158.058 29.6533 157.992 29.4756 157.86C29.3024 157.723 29.2158 157.495 29.2158 157.176C29.2158 156.853 29.3024 156.625 29.4756 156.493C29.6533 156.361 29.8698 156.295 30.125 156.295ZM37.1045 159.049C38.0023 159.049 38.7223 159.378 39.2646 160.034C39.8115 160.69 40.085 161.665 40.085 162.96C40.085 163.816 39.9574 164.539 39.7021 165.127C39.4515 165.71 39.0983 166.152 38.6426 166.453C38.1914 166.749 37.665 166.897 37.0635 166.897C36.6807 166.897 36.348 166.847 36.0654 166.747C35.7829 166.646 35.5413 166.517 35.3408 166.357C35.1403 166.193 34.9717 166.015 34.835 165.824H34.7393C34.762 166.006 34.7826 166.209 34.8008 166.432C34.8236 166.651 34.835 166.852 34.835 167.034V170.117H33.2217V159.193H34.5342L34.7598 160.239H34.835C34.9762 160.025 35.1471 159.826 35.3477 159.644C35.5527 159.462 35.7988 159.318 36.0859 159.214C36.3776 159.104 36.7171 159.049 37.1045 159.049ZM36.6738 160.362C36.2318 160.362 35.8763 160.451 35.6074 160.629C35.3431 160.802 35.1494 161.064 35.0264 161.415C34.9079 161.766 34.8441 162.205 34.835 162.734V162.96C34.835 163.52 34.8919 163.996 35.0059 164.388C35.1243 164.776 35.318 165.072 35.5869 165.277C35.8604 165.477 36.2295 165.578 36.6943 165.578C37.0863 165.578 37.4098 165.471 37.665 165.256C37.9248 165.042 38.1185 164.737 38.2461 164.34C38.3737 163.944 38.4375 163.477 38.4375 162.939C38.4375 162.123 38.2917 161.49 38 161.039C37.7129 160.588 37.2708 160.362 36.6738 160.362ZM44.9111 159.049C45.8682 159.049 46.5905 159.261 47.0781 159.685C47.5703 160.109 47.8164 160.77 47.8164 161.668V166.76H46.6748L46.3672 165.687H46.3125C46.0983 165.961 45.8773 166.186 45.6494 166.364C45.4215 166.542 45.1572 166.674 44.8564 166.76C44.5602 166.852 44.1979 166.897 43.7695 166.897C43.3184 166.897 42.915 166.815 42.5596 166.651C42.2041 166.482 41.9238 166.227 41.7188 165.885C41.5137 165.544 41.4111 165.111 41.4111 164.587C41.4111 163.807 41.7005 163.222 42.2793 162.83C42.8626 162.438 43.7422 162.221 44.918 162.18L46.2305 162.132V161.736C46.2305 161.212 46.1074 160.838 45.8613 160.615C45.6198 160.392 45.278 160.28 44.8359 160.28C44.4577 160.28 44.0908 160.335 43.7354 160.444C43.3799 160.553 43.0335 160.688 42.6963 160.847L42.1768 159.713C42.5459 159.517 42.9652 159.357 43.4346 159.234C43.9085 159.111 44.4007 159.049 44.9111 159.049ZM46.2236 163.144L45.2461 163.178C44.444 163.206 43.8812 163.342 43.5576 163.589C43.234 163.835 43.0723 164.172 43.0723 164.6C43.0723 164.974 43.1839 165.247 43.4072 165.421C43.6305 165.589 43.9245 165.673 44.2891 165.673C44.8451 165.673 45.3053 165.516 45.6699 165.202C46.0391 164.883 46.2236 164.416 46.2236 163.8V163.144ZM55.1514 164.6C55.1514 165.097 55.0306 165.516 54.7891 165.858C54.5475 166.2 54.1943 166.46 53.7295 166.637C53.2692 166.811 52.7041 166.897 52.0342 166.897C51.5055 166.897 51.0498 166.858 50.667 166.781C50.2887 166.708 49.931 166.594 49.5938 166.439V165.051C49.9538 165.22 50.3571 165.366 50.8037 165.489C51.2549 165.612 51.681 165.673 52.082 165.673C52.6107 165.673 52.9912 165.591 53.2236 165.427C53.4561 165.259 53.5723 165.035 53.5723 164.757C53.5723 164.593 53.5244 164.448 53.4287 164.32C53.3376 164.188 53.1644 164.053 52.9092 163.917C52.6585 163.775 52.2894 163.607 51.8018 163.411C51.3232 163.219 50.9199 163.028 50.5918 162.837C50.2637 162.645 50.0153 162.415 49.8467 162.146C49.6781 161.873 49.5938 161.524 49.5938 161.1C49.5938 160.43 49.8581 159.922 50.3867 159.576C50.9199 159.225 51.624 159.049 52.499 159.049C52.9639 159.049 53.4014 159.097 53.8115 159.193C54.2262 159.284 54.6318 159.419 55.0283 159.596L54.5225 160.806C54.1807 160.656 53.8366 160.533 53.4902 160.437C53.1484 160.337 52.7998 160.287 52.4443 160.287C52.0296 160.287 51.7129 160.351 51.4941 160.478C51.2799 160.606 51.1729 160.788 51.1729 161.025C51.1729 161.203 51.2253 161.353 51.3301 161.476C51.4349 161.599 51.6149 161.722 51.8701 161.845C52.1299 161.968 52.4899 162.121 52.9502 162.303C53.4014 162.477 53.791 162.659 54.1191 162.85C54.4518 163.037 54.707 163.267 54.8848 163.541C55.0625 163.814 55.1514 164.167 55.1514 164.6ZM59.9023 159.049C60.5768 159.049 61.1556 159.188 61.6387 159.466C62.1217 159.744 62.4932 160.139 62.7529 160.649C63.0127 161.159 63.1426 161.77 63.1426 162.481V163.342H58.0908C58.109 164.076 58.305 164.641 58.6787 165.038C59.057 165.434 59.5856 165.632 60.2646 165.632C60.7477 165.632 61.1807 165.587 61.5635 165.496C61.9508 165.4 62.3496 165.261 62.7598 165.079V166.384C62.3815 166.562 61.9964 166.692 61.6045 166.774C61.2126 166.856 60.7432 166.897 60.1963 166.897C59.4535 166.897 58.7995 166.754 58.2344 166.466C57.6738 166.175 57.234 165.742 56.915 165.168C56.6006 164.593 56.4434 163.88 56.4434 163.028C56.4434 162.18 56.5869 161.46 56.874 160.868C57.1611 160.275 57.5645 159.824 58.084 159.514C58.6035 159.204 59.2096 159.049 59.9023 159.049ZM59.9023 160.259C59.3965 160.259 58.9863 160.423 58.6719 160.752C58.362 161.08 58.1797 161.561 58.125 162.194H61.5703C61.5658 161.816 61.502 161.481 61.3789 161.189C61.2604 160.897 61.0781 160.67 60.832 160.505C60.5905 160.341 60.2806 160.259 59.9023 160.259ZM75.1875 159.193V166.76H73.9229L73.7041 165.742H73.6152C73.4557 166.002 73.2529 166.218 73.0068 166.391C72.7607 166.56 72.4873 166.685 72.1865 166.767C71.8857 166.854 71.569 166.897 71.2363 166.897C70.6667 166.897 70.179 166.801 69.7734 166.61C69.3724 166.414 69.0648 166.113 68.8506 165.708C68.6364 165.302 68.5293 164.778 68.5293 164.135V159.193H70.1426V163.835C70.1426 164.422 70.2611 164.862 70.498 165.154C70.7396 165.446 71.1133 165.591 71.6191 165.591C72.1068 165.591 72.4941 165.491 72.7812 165.291C73.0684 165.09 73.2712 164.794 73.3896 164.402C73.5127 164.01 73.5742 163.529 73.5742 162.96V159.193H75.1875ZM81.4355 159.049C82.2878 159.049 82.9508 159.27 83.4248 159.713C83.9033 160.15 84.1426 160.854 84.1426 161.825V166.76H82.5361V162.126C82.5361 161.538 82.4154 161.098 82.1738 160.806C81.9323 160.51 81.5586 160.362 81.0527 160.362C80.319 160.362 79.8086 160.588 79.5215 161.039C79.2389 161.49 79.0977 162.144 79.0977 163.001V166.76H77.4912V159.193H78.7422L78.9678 160.218H79.0566C79.2207 159.954 79.4235 159.738 79.665 159.569C79.9111 159.396 80.1846 159.266 80.4854 159.179C80.7907 159.093 81.1074 159.049 81.4355 159.049ZM87.998 159.193V166.76H86.3916V159.193H87.998ZM87.2051 156.295C87.4512 156.295 87.6631 156.361 87.8408 156.493C88.0231 156.625 88.1143 156.853 88.1143 157.176C88.1143 157.495 88.0231 157.723 87.8408 157.86C87.6631 157.992 87.4512 158.058 87.2051 158.058C86.9499 158.058 86.7334 157.992 86.5557 157.86C86.3825 157.723 86.2959 157.495 86.2959 157.176C86.2959 156.853 86.3825 156.625 86.5557 156.493C86.7334 156.361 86.9499 156.295 87.2051 156.295ZM93.1182 165.598C93.3278 165.598 93.5352 165.58 93.7402 165.544C93.9453 165.503 94.1322 165.455 94.3008 165.4V166.617C94.123 166.694 93.8929 166.76 93.6104 166.815C93.3278 166.87 93.0339 166.897 92.7285 166.897C92.3001 166.897 91.915 166.826 91.5732 166.685C91.2314 166.539 90.9603 166.291 90.7598 165.94C90.5592 165.589 90.459 165.104 90.459 164.484V160.417H89.4268V159.699L90.5342 159.131L91.0605 157.511H92.0723V159.193H94.2393V160.417H92.0723V164.464C92.0723 164.846 92.168 165.131 92.3594 165.318C92.5508 165.505 92.8037 165.598 93.1182 165.598ZM100.925 164.6C100.925 165.097 100.804 165.516 100.562 165.858C100.321 166.2 99.9678 166.46 99.5029 166.637C99.0426 166.811 98.4775 166.897 97.8076 166.897C97.279 166.897 96.8232 166.858 96.4404 166.781C96.0622 166.708 95.7044 166.594 95.3672 166.439V165.051C95.7272 165.22 96.1305 165.366 96.5771 165.489C97.0283 165.612 97.4544 165.673 97.8555 165.673C98.3841 165.673 98.7646 165.591 98.9971 165.427C99.2295 165.259 99.3457 165.035 99.3457 164.757C99.3457 164.593 99.2979 164.448 99.2021 164.32C99.111 164.188 98.9378 164.053 98.6826 163.917C98.432 163.775 98.0628 163.607 97.5752 163.411C97.0967 163.219 96.6934 163.028 96.3652 162.837C96.0371 162.645 95.7887 162.415 95.6201 162.146C95.4515 161.873 95.3672 161.524 95.3672 161.1C95.3672 160.43 95.6315 159.922 96.1602 159.576C96.6934 159.225 97.3975 159.049 98.2725 159.049C98.7373 159.049 99.1748 159.097 99.585 159.193C99.9997 159.284 100.405 159.419 100.802 159.596L100.296 160.806C99.9541 160.656 99.61 160.533 99.2637 160.437C98.9219 160.337 98.5732 160.287 98.2178 160.287C97.8031 160.287 97.4863 160.351 97.2676 160.478C97.0534 160.606 96.9463 160.788 96.9463 161.025C96.9463 161.203 96.9987 161.353 97.1035 161.476C97.2083 161.599 97.3883 161.722 97.6436 161.845C97.9033 161.968 98.2633 162.121 98.7236 162.303C99.1748 162.477 99.5645 162.659 99.8926 162.85C100.225 163.037 100.48 163.267 100.658 163.541C100.836 163.814 100.925 164.167 100.925 164.6Z" fill="#1E1E1E"/>
<g clip-path="url(#clip0_536_3838)">
<path opacity="0.2" d="M60.9835 119.613C77.7726 119.613 91.3829 117.572 91.3829 115.054C91.3829 112.536 77.7726 110.495 60.9835 110.495C44.1943 110.495 30.584 112.536 30.584 115.054C30.584 117.572 44.1943 119.613 60.9835 119.613Z" fill="url(#paint0_radial_536_3838)"/>
<path fill-rule="evenodd" clip-rule="evenodd" d="M88.2041 58.0767C88.6332 58.0767 88.9819 57.728 88.9819 57.2989V21.9781C88.9819 10.2582 79.4343 0.697144 67.7009 0.697144C56.0212 0.697144 46.4199 10.2582 46.4199 21.9781V57.2989C46.4199 57.728 46.7686 58.0767 47.1977 58.0767H88.2175H88.2041Z" fill="#BBBBBC"/>
<g style="mix-blend-mode:overlay" opacity="0.3">
<path fill-rule="evenodd" clip-rule="evenodd" d="M82.7192 90.1792V25.9742C82.7192 24.4589 81.5123 23.2386 79.9836 23.2386C78.522 23.2386 77.248 24.4455 77.248 25.9742V90.1792C77.248 91.6945 78.5085 92.9147 79.9836 92.9147C81.4989 92.9147 82.7192 91.7079 82.7192 90.1792Z" fill="white"/>
</g>
<path fill-rule="evenodd" clip-rule="evenodd" d="M87.9366 94.1752V58.0767H47.4531V94.1752C47.4531 105.909 56.585 115.456 67.7016 115.456C78.8583 115.456 87.9366 105.895 87.9366 94.1752Z" fill="#D7D8D8"/>
<path fill-rule="evenodd" clip-rule="evenodd" d="M87.9362 94.1752V58.0767H50.9258V92.5526C50.9258 103.669 59.5749 112.828 70.2087 112.828C75.6932 112.828 80.6414 110.401 84.1547 106.512C86.555 103.026 87.9496 98.7747 87.9496 94.1752H87.9362Z" fill="#EAEBEB"/>
<path fill-rule="evenodd" clip-rule="evenodd" d="M82.7194 58.0767H77.2617V90.1792C77.2617 91.6944 78.5222 92.9147 79.9973 92.9147C81.5125 92.9147 82.7328 91.7078 82.7328 90.1792V58.0767H82.7194Z" fill="white"/>
<g style="mix-blend-mode:overlay" opacity="0.3">
<path fill-rule="evenodd" clip-rule="evenodd" d="M83.1233 12.6853C82.2651 14.4554 79.9318 11.8808 76.4051 10.1107C72.8113 8.39427 69.3785 8.13949 70.2367 6.42307C71.0949 4.653 74.635 4.653 78.2288 6.42307C81.7689 8.13949 83.9413 10.9689 83.1367 12.6853H83.1233Z" fill="white"/>
</g>
<path d="M55.8745 85.5931C55.1235 84.6813 54.748 83.5146 54.748 82.0664C54.748 81.1143 54.9224 80.2829 55.2576 79.599C55.5928 78.9151 56.0756 78.3922 56.6656 78.0435C57.2556 77.6949 57.9261 77.5206 58.677 77.5206C59.5755 77.5206 60.3532 77.7887 61.0103 78.3117C61.6674 78.8347 62.0697 79.5856 62.2306 80.5645H62.3379C62.539 79.5454 62.9815 78.7408 63.652 78.1374C64.3359 77.534 65.2209 77.239 66.3205 77.239C67.5542 77.239 68.5599 77.6546 69.3377 78.4726C70.1154 79.2906 70.5043 80.4841 70.5043 82.0396C70.5043 83.5951 70.1154 84.7483 69.3377 85.7138C68.5599 86.6659 67.4469 87.2291 66.0255 87.3632V85.9015C66.9776 85.7674 67.7553 85.3786 68.3588 84.6947C68.9488 84.0242 69.2438 83.1392 69.2438 82.0396C69.2438 80.94 68.9622 80.122 68.3856 79.5454C67.809 78.9688 67.0848 78.6738 66.1998 78.6738C64.0275 78.6738 62.9413 80.2427 62.9413 83.3671V83.8365H61.6808V83.3403C61.6808 80.417 60.7287 78.9688 58.8246 78.9688C57.9932 78.9688 57.3227 79.237 56.8131 79.7868C56.3036 80.3366 56.0488 81.1009 56.0488 82.1066C56.0488 83.1123 56.3036 83.8901 56.8131 84.5203C57.3227 85.1506 58.0334 85.5261 58.9452 85.6467V87.1084C57.6445 87.0145 56.612 86.505 55.861 85.5931H55.8745Z" fill="#231F20"/>
<path d="M70.4099 65.9749L63.4771 72.4786H70.4099V73.9804H55.418V72.4786H62.4312L55.418 65.9749V64.0708L62.9005 71.084L70.4099 64.0037V65.9749Z" fill="#231F20"/>
<g style="mix-blend-mode:overlay" opacity="0.47">
<path fill-rule="evenodd" clip-rule="evenodd" d="M54.0491 7.26783C57.6696 3.32542 62.7385 0.81783 68.3705 0.710553C68.1693 0.710553 67.9682 0.697144 67.7536 0.697144C56.0739 0.697144 46.4727 10.2582 46.4727 21.9781V57.2989C46.4727 57.728 46.8213 58.0767 47.2504 58.0767H50.0664V20.2483C50.0664 15.4208 51.5281 10.9286 54.0625 7.26783H54.0491Z" fill="#231F20"/>
</g>
</g>
<path d="M172.979 143.512C173.621 143.512 174.186 143.629 174.674 143.861C175.166 144.089 175.549 144.426 175.822 144.873C176.096 145.315 176.232 145.857 176.232 146.5C176.232 147.201 176.084 147.808 175.788 148.318C175.492 148.824 175.057 149.214 174.482 149.487C173.908 149.76 173.209 149.897 172.384 149.897C171.86 149.897 171.37 149.852 170.914 149.76C170.463 149.669 170.073 149.533 169.745 149.35V147.901C170.087 148.092 170.497 148.25 170.976 148.373C171.454 148.491 171.912 148.55 172.35 148.55C172.814 148.55 173.213 148.482 173.546 148.345C173.879 148.209 174.134 147.999 174.312 147.716C174.494 147.434 174.585 147.076 174.585 146.643C174.585 146.069 174.4 145.627 174.031 145.317C173.667 145.003 173.095 144.845 172.315 144.845C172.042 144.845 171.75 144.87 171.44 144.921C171.135 144.966 170.88 145.016 170.675 145.071L169.971 144.654L170.347 139.766H175.542V141.181H171.762L171.543 143.67C171.707 143.633 171.903 143.599 172.131 143.567C172.359 143.531 172.641 143.512 172.979 143.512ZM179.732 148.133L179.828 148.291C179.746 148.619 179.641 148.972 179.514 149.35C179.386 149.728 179.247 150.107 179.097 150.485C178.946 150.868 178.794 151.228 178.639 151.565H177.463C177.559 151.196 177.65 150.809 177.736 150.403C177.827 150.002 177.91 149.605 177.982 149.214C178.06 148.817 178.121 148.457 178.167 148.133H179.732ZM188.175 144.756C188.175 145.563 188.111 146.285 187.983 146.923C187.86 147.557 187.664 148.095 187.396 148.537C187.127 148.979 186.776 149.316 186.343 149.548C185.91 149.781 185.386 149.897 184.771 149.897C184 149.897 183.365 149.694 182.863 149.289C182.362 148.879 181.991 148.291 181.749 147.525C181.507 146.755 181.387 145.832 181.387 144.756C181.387 143.681 181.496 142.76 181.715 141.995C181.938 141.225 182.298 140.634 182.795 140.224C183.292 139.814 183.95 139.609 184.771 139.609C185.545 139.609 186.183 139.814 186.685 140.224C187.19 140.63 187.564 141.218 187.806 141.988C188.052 142.754 188.175 143.676 188.175 144.756ZM183.007 144.756C183.007 145.6 183.062 146.304 183.171 146.869C183.285 147.434 183.472 147.858 183.731 148.14C183.991 148.418 184.338 148.557 184.771 148.557C185.203 148.557 185.55 148.418 185.81 148.14C186.069 147.862 186.256 147.441 186.37 146.876C186.489 146.311 186.548 145.604 186.548 144.756C186.548 143.918 186.491 143.216 186.377 142.651C186.263 142.086 186.076 141.662 185.816 141.38C185.557 141.092 185.208 140.949 184.771 140.949C184.333 140.949 183.984 141.092 183.725 141.38C183.469 141.662 183.285 142.086 183.171 142.651C183.062 143.216 183.007 143.918 183.007 144.756ZM196.187 144.756C196.187 145.563 196.123 146.285 195.995 146.923C195.872 147.557 195.676 148.095 195.407 148.537C195.138 148.979 194.787 149.316 194.354 149.548C193.922 149.781 193.397 149.897 192.782 149.897C192.012 149.897 191.376 149.694 190.875 149.289C190.374 148.879 190.002 148.291 189.761 147.525C189.519 146.755 189.398 145.832 189.398 144.756C189.398 143.681 189.508 142.76 189.727 141.995C189.95 141.225 190.31 140.634 190.807 140.224C191.303 139.814 191.962 139.609 192.782 139.609C193.557 139.609 194.195 139.814 194.696 140.224C195.202 140.63 195.576 141.218 195.817 141.988C196.063 142.754 196.187 143.676 196.187 144.756ZM191.019 144.756C191.019 145.6 191.073 146.304 191.183 146.869C191.297 147.434 191.483 147.858 191.743 148.14C192.003 148.418 192.349 148.557 192.782 148.557C193.215 148.557 193.562 148.418 193.821 148.14C194.081 147.862 194.268 147.441 194.382 146.876C194.5 146.311 194.56 145.604 194.56 144.756C194.56 143.918 194.503 143.216 194.389 142.651C194.275 142.086 194.088 141.662 193.828 141.38C193.568 141.092 193.22 140.949 192.782 140.949C192.345 140.949 191.996 141.092 191.736 141.38C191.481 141.662 191.297 142.086 191.183 142.651C191.073 143.216 191.019 143.918 191.019 144.756ZM204.198 144.756C204.198 145.563 204.134 146.285 204.007 146.923C203.884 147.557 203.688 148.095 203.419 148.537C203.15 148.979 202.799 149.316 202.366 149.548C201.933 149.781 201.409 149.897 200.794 149.897C200.024 149.897 199.388 149.694 198.887 149.289C198.385 148.879 198.014 148.291 197.772 147.525C197.531 146.755 197.41 145.832 197.41 144.756C197.41 143.681 197.52 142.76 197.738 141.995C197.962 141.225 198.322 140.634 198.818 140.224C199.315 139.814 199.974 139.609 200.794 139.609C201.569 139.609 202.207 139.814 202.708 140.224C203.214 140.63 203.588 141.218 203.829 141.988C204.075 142.754 204.198 143.676 204.198 144.756ZM199.03 144.756C199.03 145.6 199.085 146.304 199.194 146.869C199.308 147.434 199.495 147.858 199.755 148.14C200.015 148.418 200.361 148.557 200.794 148.557C201.227 148.557 201.573 148.418 201.833 148.14C202.093 147.862 202.28 147.441 202.394 146.876C202.512 146.311 202.571 145.604 202.571 144.756C202.571 143.918 202.514 143.216 202.4 142.651C202.286 142.086 202.1 141.662 201.84 141.38C201.58 141.092 201.231 140.949 200.794 140.949C200.356 140.949 200.008 141.092 199.748 141.38C199.493 141.662 199.308 142.086 199.194 142.651C199.085 143.216 199.03 143.918 199.03 144.756ZM151.015 166.76H149.401V156.124H151.015V166.76ZM154.918 159.193V166.76H153.312V159.193H154.918ZM154.125 156.295C154.371 156.295 154.583 156.361 154.761 156.493C154.943 156.625 155.034 156.853 155.034 157.176C155.034 157.495 154.943 157.723 154.761 157.86C154.583 157.992 154.371 158.058 154.125 158.058C153.87 158.058 153.653 157.992 153.476 157.86C153.302 157.723 153.216 157.495 153.216 157.176C153.216 156.853 153.302 156.625 153.476 156.493C153.653 156.361 153.87 156.295 154.125 156.295ZM161.104 159.049C162.002 159.049 162.722 159.378 163.265 160.034C163.812 160.69 164.085 161.665 164.085 162.96C164.085 163.816 163.957 164.539 163.702 165.127C163.451 165.71 163.098 166.152 162.643 166.453C162.191 166.749 161.665 166.897 161.063 166.897C160.681 166.897 160.348 166.847 160.065 166.747C159.783 166.646 159.541 166.517 159.341 166.357C159.14 166.193 158.972 166.015 158.835 165.824H158.739C158.762 166.006 158.783 166.209 158.801 166.432C158.824 166.651 158.835 166.852 158.835 167.034V170.117H157.222V159.193H158.534L158.76 160.239H158.835C158.976 160.025 159.147 159.826 159.348 159.644C159.553 159.462 159.799 159.318 160.086 159.214C160.378 159.104 160.717 159.049 161.104 159.049ZM160.674 160.362C160.232 160.362 159.876 160.451 159.607 160.629C159.343 160.802 159.149 161.064 159.026 161.415C158.908 161.766 158.844 162.205 158.835 162.734V162.96C158.835 163.52 158.892 163.996 159.006 164.388C159.124 164.776 159.318 165.072 159.587 165.277C159.86 165.477 160.229 165.578 160.694 165.578C161.086 165.578 161.41 165.471 161.665 165.256C161.925 165.042 162.118 164.737 162.246 164.34C162.374 163.944 162.438 163.477 162.438 162.939C162.438 162.123 162.292 161.49 162 161.039C161.713 160.588 161.271 160.362 160.674 160.362ZM168.911 159.049C169.868 159.049 170.59 159.261 171.078 159.685C171.57 160.109 171.816 160.77 171.816 161.668V166.76H170.675L170.367 165.687H170.312C170.098 165.961 169.877 166.186 169.649 166.364C169.422 166.542 169.157 166.674 168.856 166.76C168.56 166.852 168.198 166.897 167.77 166.897C167.318 166.897 166.915 166.815 166.56 166.651C166.204 166.482 165.924 166.227 165.719 165.885C165.514 165.544 165.411 165.111 165.411 164.587C165.411 163.807 165.701 163.222 166.279 162.83C166.863 162.438 167.742 162.221 168.918 162.18L170.23 162.132V161.736C170.23 161.212 170.107 160.838 169.861 160.615C169.62 160.392 169.278 160.28 168.836 160.28C168.458 160.28 168.091 160.335 167.735 160.444C167.38 160.553 167.034 160.688 166.696 160.847L166.177 159.713C166.546 159.517 166.965 159.357 167.435 159.234C167.909 159.111 168.401 159.049 168.911 159.049ZM170.224 163.144L169.246 163.178C168.444 163.206 167.881 163.342 167.558 163.589C167.234 163.835 167.072 164.172 167.072 164.6C167.072 164.974 167.184 165.247 167.407 165.421C167.631 165.589 167.924 165.673 168.289 165.673C168.845 165.673 169.305 165.516 169.67 165.202C170.039 164.883 170.224 164.416 170.224 163.8V163.144ZM179.151 164.6C179.151 165.097 179.031 165.516 178.789 165.858C178.548 166.2 178.194 166.46 177.729 166.637C177.269 166.811 176.704 166.897 176.034 166.897C175.506 166.897 175.05 166.858 174.667 166.781C174.289 166.708 173.931 166.594 173.594 166.439V165.051C173.954 165.22 174.357 165.366 174.804 165.489C175.255 165.612 175.681 165.673 176.082 165.673C176.611 165.673 176.991 165.591 177.224 165.427C177.456 165.259 177.572 165.035 177.572 164.757C177.572 164.593 177.524 164.448 177.429 164.32C177.338 164.188 177.164 164.053 176.909 163.917C176.659 163.775 176.289 163.607 175.802 163.411C175.323 163.219 174.92 163.028 174.592 162.837C174.264 162.645 174.015 162.415 173.847 162.146C173.678 161.873 173.594 161.524 173.594 161.1C173.594 160.43 173.858 159.922 174.387 159.576C174.92 159.225 175.624 159.049 176.499 159.049C176.964 159.049 177.401 159.097 177.812 159.193C178.226 159.284 178.632 159.419 179.028 159.596L178.522 160.806C178.181 160.656 177.837 160.533 177.49 160.437C177.148 160.337 176.8 160.287 176.444 160.287C176.03 160.287 175.713 160.351 175.494 160.478C175.28 160.606 175.173 160.788 175.173 161.025C175.173 161.203 175.225 161.353 175.33 161.476C175.435 161.599 175.615 161.722 175.87 161.845C176.13 161.968 176.49 162.121 176.95 162.303C177.401 162.477 177.791 162.659 178.119 162.85C178.452 163.037 178.707 163.267 178.885 163.541C179.062 163.814 179.151 164.167 179.151 164.6ZM183.902 159.049C184.577 159.049 185.156 159.188 185.639 159.466C186.122 159.744 186.493 160.139 186.753 160.649C187.013 161.159 187.143 161.77 187.143 162.481V163.342H182.091C182.109 164.076 182.305 164.641 182.679 165.038C183.057 165.434 183.586 165.632 184.265 165.632C184.748 165.632 185.181 165.587 185.563 165.496C185.951 165.4 186.35 165.261 186.76 165.079V166.384C186.382 166.562 185.996 166.692 185.604 166.774C185.213 166.856 184.743 166.897 184.196 166.897C183.453 166.897 182.799 166.754 182.234 166.466C181.674 166.175 181.234 165.742 180.915 165.168C180.601 164.593 180.443 163.88 180.443 163.028C180.443 162.18 180.587 161.46 180.874 160.868C181.161 160.275 181.564 159.824 182.084 159.514C182.604 159.204 183.21 159.049 183.902 159.049ZM183.902 160.259C183.396 160.259 182.986 160.423 182.672 160.752C182.362 161.08 182.18 161.561 182.125 162.194H185.57C185.566 161.816 185.502 161.481 185.379 161.189C185.26 160.897 185.078 160.67 184.832 160.505C184.59 160.341 184.281 160.259 183.902 160.259ZM199.188 159.193V166.76H197.923L197.704 165.742H197.615C197.456 166.002 197.253 166.218 197.007 166.391C196.761 166.56 196.487 166.685 196.187 166.767C195.886 166.854 195.569 166.897 195.236 166.897C194.667 166.897 194.179 166.801 193.773 166.61C193.372 166.414 193.065 166.113 192.851 165.708C192.636 165.302 192.529 164.778 192.529 164.135V159.193H194.143V163.835C194.143 164.422 194.261 164.862 194.498 165.154C194.74 165.446 195.113 165.591 195.619 165.591C196.107 165.591 196.494 165.491 196.781 165.291C197.068 165.09 197.271 164.794 197.39 164.402C197.513 164.01 197.574 163.529 197.574 162.96V159.193H199.188ZM205.436 159.049C206.288 159.049 206.951 159.27 207.425 159.713C207.903 160.15 208.143 160.854 208.143 161.825V166.76H206.536V162.126C206.536 161.538 206.415 161.098 206.174 160.806C205.932 160.51 205.559 160.362 205.053 160.362C204.319 160.362 203.809 160.588 203.521 161.039C203.239 161.49 203.098 162.144 203.098 163.001V166.76H201.491V159.193H202.742L202.968 160.218H203.057C203.221 159.954 203.424 159.738 203.665 159.569C203.911 159.396 204.185 159.266 204.485 159.179C204.791 159.093 205.107 159.049 205.436 159.049ZM211.998 159.193V166.76H210.392V159.193H211.998ZM211.205 156.295C211.451 156.295 211.663 156.361 211.841 156.493C212.023 156.625 212.114 156.853 212.114 157.176C212.114 157.495 212.023 157.723 211.841 157.86C211.663 157.992 211.451 158.058 211.205 158.058C210.95 158.058 210.733 157.992 210.556 157.86C210.382 157.723 210.296 157.495 210.296 157.176C210.296 156.853 210.382 156.625 210.556 156.493C210.733 156.361 210.95 156.295 211.205 156.295ZM217.118 165.598C217.328 165.598 217.535 165.58 217.74 165.544C217.945 165.503 218.132 165.455 218.301 165.4V166.617C218.123 166.694 217.893 166.76 217.61 166.815C217.328 166.87 217.034 166.897 216.729 166.897C216.3 166.897 215.915 166.826 215.573 166.685C215.231 166.539 214.96 166.291 214.76 165.94C214.559 165.589 214.459 165.104 214.459 164.484V160.417H213.427V159.699L214.534 159.131L215.061 157.511H216.072V159.193H218.239V160.417H216.072V164.464C216.072 164.846 216.168 165.131 216.359 165.318C216.551 165.505 216.804 165.598 217.118 165.598ZM224.925 164.6C224.925 165.097 224.804 165.516 224.562 165.858C224.321 166.2 223.968 166.46 223.503 166.637C223.043 166.811 222.478 166.897 221.808 166.897C221.279 166.897 220.823 166.858 220.44 166.781C220.062 166.708 219.704 166.594 219.367 166.439V165.051C219.727 165.22 220.131 165.366 220.577 165.489C221.028 165.612 221.454 165.673 221.855 165.673C222.384 165.673 222.765 165.591 222.997 165.427C223.229 165.259 223.346 165.035 223.346 164.757C223.346 164.593 223.298 164.448 223.202 164.32C223.111 164.188 222.938 164.053 222.683 163.917C222.432 163.775 222.063 163.607 221.575 163.411C221.097 163.219 220.693 163.028 220.365 162.837C220.037 162.645 219.789 162.415 219.62 162.146C219.451 161.873 219.367 161.524 219.367 161.1C219.367 160.43 219.632 159.922 220.16 159.576C220.693 159.225 221.397 159.049 222.272 159.049C222.737 159.049 223.175 159.097 223.585 159.193C224 159.284 224.405 159.419 224.802 159.596L224.296 160.806C223.954 160.656 223.61 160.533 223.264 160.437C222.922 160.337 222.573 160.287 222.218 160.287C221.803 160.287 221.486 160.351 221.268 160.478C221.053 160.606 220.946 160.788 220.946 161.025C220.946 161.203 220.999 161.353 221.104 161.476C221.208 161.599 221.388 161.722 221.644 161.845C221.903 161.968 222.263 162.121 222.724 162.303C223.175 162.477 223.564 162.659 223.893 162.85C224.225 163.037 224.48 163.267 224.658 163.541C224.836 163.814 224.925 164.167 224.925 164.6Z" fill="#1E1E1E"/>
<path opacity="0.2" d="M184.467 119.613C200.84 119.613 214.113 117.572 214.113 115.054C214.113 112.536 200.84 110.495 184.467 110.495C168.093 110.495 154.82 112.536 154.82 115.054C154.82 117.572 168.093 119.613 184.467 119.613Z" fill="url(#paint1_radial_536_3838)"/>
<path fill-rule="evenodd" clip-rule="evenodd" d="M211.015 58.0767C211.433 58.0767 211.773 57.728 211.773 57.2989V21.9781C211.773 10.2582 202.462 0.697144 191.019 0.697144C179.629 0.697144 170.266 10.2582 170.266 21.9781V57.2989C170.266 57.728 170.606 58.0767 171.024 58.0767H211.028H211.015Z" fill="#BBBBBC"/>
<g style="mix-blend-mode:overlay" opacity="0.3">
<path fill-rule="evenodd" clip-rule="evenodd" d="M205.666 90.1793V25.9743C205.666 24.459 204.489 23.2387 202.998 23.2387C201.572 23.2387 200.33 24.4456 200.33 25.9743V90.1793C200.33 91.6945 201.559 92.9148 202.998 92.9148C204.476 92.9148 205.666 91.708 205.666 90.1793Z" fill="white"/>
</g>
<path fill-rule="evenodd" clip-rule="evenodd" d="M210.752 94.1753V58.0767H171.271V94.1753C171.271 105.909 180.177 115.456 191.018 115.456C201.899 115.456 210.752 105.895 210.752 94.1753Z" fill="#D7D8D8"/>
<path fill-rule="evenodd" clip-rule="evenodd" d="M210.752 94.1753V58.0767H174.658V92.5527C174.658 103.669 183.093 112.828 193.463 112.828C198.812 112.828 203.638 110.401 207.064 106.512C209.405 103.026 210.765 98.7747 210.765 94.1753H210.752Z" fill="#EAEBEB"/>
<path fill-rule="evenodd" clip-rule="evenodd" d="M205.664 58.0767H200.342V90.1792C200.342 91.6945 201.571 92.9148 203.01 92.9148C204.487 92.9148 205.677 91.7079 205.677 90.1792V58.0767H205.664Z" fill="white"/>
<g style="mix-blend-mode:overlay" opacity="0.3">
<path fill-rule="evenodd" clip-rule="evenodd" d="M206.057 12.6853C205.22 14.4554 202.944 11.8808 199.505 10.1107C196 8.39427 192.652 8.13949 193.489 6.42307C194.326 4.653 197.779 4.653 201.283 6.42307C204.736 8.13949 206.854 10.9689 206.07 12.6853H206.057Z" fill="white"/>
</g>
<path d="M179.916 78.1106V85.9686H185.277C184.793 85.6065 184.388 85.0836 184.074 84.3997C183.76 83.7158 183.603 82.9648 183.603 82.1737C183.603 81.007 183.839 80.0416 184.31 79.304C184.78 78.5665 185.382 78.0167 186.127 77.6949C186.873 77.3596 187.67 77.1987 188.521 77.1987C189.501 77.1987 190.377 77.3865 191.162 77.7619C191.947 78.1374 192.574 78.714 193.032 79.5052C193.49 80.2829 193.725 81.2484 193.725 82.415C193.725 83.8901 193.346 85.0836 192.601 85.9954C191.855 86.9073 190.848 87.4705 189.58 87.6716V86.1965C190.495 86.0088 191.214 85.5797 191.711 84.9092C192.208 84.2388 192.47 83.4074 192.47 82.415C192.47 81.168 192.117 80.2293 191.398 79.599C190.678 78.9688 189.724 78.647 188.547 78.647C187.37 78.647 186.48 78.9688 185.84 79.6125C185.186 80.2561 184.872 81.1814 184.872 82.3748C184.872 83.2062 185.055 83.9303 185.434 84.5606C185.813 85.1908 186.324 85.6602 186.964 85.9552V87.3766H178.66V78.124H179.942L179.916 78.1106Z" fill="#231F20"/>
<path d="M193.662 65.9749L186.901 72.4785H193.662V73.9804H179.041V72.4785H185.88L179.041 65.9749V64.0707L186.338 71.0839L193.662 64.0037V65.9749Z" fill="#231F20"/>
<g style="mix-blend-mode:overlay" opacity="0.47">
<path fill-rule="evenodd" clip-rule="evenodd" d="M177.707 7.26783C181.238 3.32542 186.181 0.81783 191.674 0.710553C191.478 0.710553 191.281 0.697144 191.072 0.697144C179.682 0.697144 170.318 10.2582 170.318 21.9781V57.2989C170.318 57.728 170.658 58.0767 171.077 58.0767H173.823V20.2483C173.823 15.4208 175.249 10.9286 177.72 7.26783H177.707Z" fill="#231F20"/>
</g>
<path d="M294.799 149.76H293.186V143.328C293.186 143.114 293.188 142.899 293.192 142.685C293.197 142.471 293.201 142.261 293.206 142.056C293.215 141.851 293.227 141.655 293.24 141.468C293.145 141.573 293.026 141.687 292.885 141.81C292.748 141.933 292.602 142.061 292.447 142.193L291.299 143.109L290.492 142.09L293.459 139.766H294.799V149.76ZM304.854 144.756C304.854 145.563 304.791 146.285 304.663 146.923C304.54 147.557 304.344 148.095 304.075 148.537C303.806 148.979 303.455 149.316 303.022 149.548C302.59 149.781 302.065 149.897 301.45 149.897C300.68 149.897 300.044 149.694 299.543 149.289C299.042 148.879 298.67 148.291 298.429 147.525C298.187 146.755 298.066 145.832 298.066 144.756C298.066 143.681 298.176 142.76 298.395 141.995C298.618 141.225 298.978 140.634 299.475 140.224C299.971 139.814 300.63 139.609 301.45 139.609C302.225 139.609 302.863 139.814 303.364 140.224C303.87 140.63 304.244 141.218 304.485 141.988C304.731 142.754 304.854 143.676 304.854 144.756ZM299.687 144.756C299.687 145.6 299.741 146.304 299.851 146.869C299.965 147.434 300.151 147.858 300.411 148.14C300.671 148.418 301.017 148.557 301.45 148.557C301.883 148.557 302.229 148.418 302.489 148.14C302.749 147.862 302.936 147.441 303.05 146.876C303.168 146.311 303.228 145.604 303.228 144.756C303.228 143.918 303.171 143.216 303.057 142.651C302.943 142.086 302.756 141.662 302.496 141.38C302.236 141.092 301.888 140.949 301.45 140.949C301.013 140.949 300.664 141.092 300.404 141.38C300.149 141.662 299.965 142.086 299.851 142.651C299.741 143.216 299.687 143.918 299.687 144.756ZM308.238 148.133L308.334 148.291C308.252 148.619 308.147 148.972 308.02 149.35C307.892 149.728 307.753 150.107 307.603 150.485C307.452 150.868 307.299 151.228 307.145 151.565H305.969C306.064 151.196 306.156 150.809 306.242 150.403C306.333 150.002 306.415 149.605 306.488 149.214C306.566 148.817 306.627 148.457 306.673 148.133H308.238ZM316.681 144.756C316.681 145.563 316.617 146.285 316.489 146.923C316.366 147.557 316.17 148.095 315.901 148.537C315.632 148.979 315.282 149.316 314.849 149.548C314.416 149.781 313.892 149.897 313.276 149.897C312.506 149.897 311.87 149.694 311.369 149.289C310.868 148.879 310.496 148.291 310.255 147.525C310.013 146.755 309.893 145.832 309.893 144.756C309.893 143.681 310.002 142.76 310.221 141.995C310.444 141.225 310.804 140.634 311.301 140.224C311.798 139.814 312.456 139.609 313.276 139.609C314.051 139.609 314.689 139.814 315.19 140.224C315.696 140.63 316.07 141.218 316.312 141.988C316.558 142.754 316.681 143.676 316.681 144.756ZM311.513 144.756C311.513 145.6 311.567 146.304 311.677 146.869C311.791 147.434 311.978 147.858 312.237 148.14C312.497 148.418 312.843 148.557 313.276 148.557C313.709 148.557 314.056 148.418 314.315 148.14C314.575 147.862 314.762 147.441 314.876 146.876C314.994 146.311 315.054 145.604 315.054 144.756C315.054 143.918 314.997 143.216 314.883 142.651C314.769 142.086 314.582 141.662 314.322 141.38C314.062 141.092 313.714 140.949 313.276 140.949C312.839 140.949 312.49 141.092 312.23 141.38C311.975 141.662 311.791 142.086 311.677 142.651C311.567 143.216 311.513 143.918 311.513 144.756ZM324.692 144.756C324.692 145.563 324.629 146.285 324.501 146.923C324.378 147.557 324.182 148.095 323.913 148.537C323.644 148.979 323.293 149.316 322.86 149.548C322.427 149.781 321.903 149.897 321.288 149.897C320.518 149.897 319.882 149.694 319.381 149.289C318.88 148.879 318.508 148.291 318.267 147.525C318.025 146.755 317.904 145.832 317.904 144.756C317.904 143.681 318.014 142.76 318.232 141.995C318.456 141.225 318.816 140.634 319.312 140.224C319.809 139.814 320.468 139.609 321.288 139.609C322.063 139.609 322.701 139.814 323.202 140.224C323.708 140.63 324.082 141.218 324.323 141.988C324.569 142.754 324.692 143.676 324.692 144.756ZM319.524 144.756C319.524 145.6 319.579 146.304 319.688 146.869C319.802 147.434 319.989 147.858 320.249 148.14C320.509 148.418 320.855 148.557 321.288 148.557C321.721 148.557 322.067 148.418 322.327 148.14C322.587 147.862 322.774 147.441 322.888 146.876C323.006 146.311 323.065 145.604 323.065 144.756C323.065 143.918 323.008 143.216 322.895 142.651C322.781 142.086 322.594 141.662 322.334 141.38C322.074 141.092 321.726 140.949 321.288 140.949C320.851 140.949 320.502 141.092 320.242 141.38C319.987 141.662 319.802 142.086 319.688 142.651C319.579 143.216 319.524 143.918 319.524 144.756ZM332.704 144.756C332.704 145.563 332.64 146.285 332.513 146.923C332.39 147.557 332.194 148.095 331.925 148.537C331.656 148.979 331.305 149.316 330.872 149.548C330.439 149.781 329.915 149.897 329.3 149.897C328.53 149.897 327.894 149.694 327.393 149.289C326.891 148.879 326.52 148.291 326.278 147.525C326.037 146.755 325.916 145.832 325.916 144.756C325.916 143.681 326.025 142.76 326.244 141.995C326.467 141.225 326.827 140.634 327.324 140.224C327.821 139.814 328.479 139.609 329.3 139.609C330.075 139.609 330.713 139.814 331.214 140.224C331.72 140.63 332.093 141.218 332.335 141.988C332.581 142.754 332.704 143.676 332.704 144.756ZM327.536 144.756C327.536 145.6 327.591 146.304 327.7 146.869C327.814 147.434 328.001 147.858 328.261 148.14C328.521 148.418 328.867 148.557 329.3 148.557C329.733 148.557 330.079 148.418 330.339 148.14C330.599 147.862 330.785 147.441 330.899 146.876C331.018 146.311 331.077 145.604 331.077 144.756C331.077 143.918 331.02 143.216 330.906 142.651C330.792 142.086 330.605 141.662 330.346 141.38C330.086 141.092 329.737 140.949 329.3 140.949C328.862 140.949 328.514 141.092 328.254 141.38C327.999 141.662 327.814 142.086 327.7 142.651C327.591 143.216 327.536 143.918 327.536 144.756ZM275.515 166.76H273.901V156.124H275.515V166.76ZM279.418 159.193V166.76H277.812V159.193H279.418ZM278.625 156.295C278.871 156.295 279.083 156.361 279.261 156.493C279.443 156.625 279.534 156.853 279.534 157.176C279.534 157.495 279.443 157.723 279.261 157.86C279.083 157.992 278.871 158.058 278.625 158.058C278.37 158.058 278.153 157.992 277.976 157.86C277.802 157.723 277.716 157.495 277.716 157.176C277.716 156.853 277.802 156.625 277.976 156.493C278.153 156.361 278.37 156.295 278.625 156.295ZM285.604 159.049C286.502 159.049 287.222 159.378 287.765 160.034C288.312 160.69 288.585 161.665 288.585 162.96C288.585 163.816 288.457 164.539 288.202 165.127C287.951 165.71 287.598 166.152 287.143 166.453C286.691 166.749 286.165 166.897 285.563 166.897C285.181 166.897 284.848 166.847 284.565 166.747C284.283 166.646 284.041 166.517 283.841 166.357C283.64 166.193 283.472 166.015 283.335 165.824H283.239C283.262 166.006 283.283 166.209 283.301 166.432C283.324 166.651 283.335 166.852 283.335 167.034V170.117H281.722V159.193H283.034L283.26 160.239H283.335C283.476 160.025 283.647 159.826 283.848 159.644C284.053 159.462 284.299 159.318 284.586 159.214C284.878 159.104 285.217 159.049 285.604 159.049ZM285.174 160.362C284.732 160.362 284.376 160.451 284.107 160.629C283.843 160.802 283.649 161.064 283.526 161.415C283.408 161.766 283.344 162.205 283.335 162.734V162.96C283.335 163.52 283.392 163.996 283.506 164.388C283.624 164.776 283.818 165.072 284.087 165.277C284.36 165.477 284.729 165.578 285.194 165.578C285.586 165.578 285.91 165.471 286.165 165.256C286.425 165.042 286.618 164.737 286.746 164.34C286.874 163.944 286.938 163.477 286.938 162.939C286.938 162.123 286.792 161.49 286.5 161.039C286.213 160.588 285.771 160.362 285.174 160.362ZM293.411 159.049C294.368 159.049 295.09 159.261 295.578 159.685C296.07 160.109 296.316 160.77 296.316 161.668V166.76H295.175L294.867 165.687H294.812C294.598 165.961 294.377 166.186 294.149 166.364C293.922 166.542 293.657 166.674 293.356 166.76C293.06 166.852 292.698 166.897 292.27 166.897C291.818 166.897 291.415 166.815 291.06 166.651C290.704 166.482 290.424 166.227 290.219 165.885C290.014 165.544 289.911 165.111 289.911 164.587C289.911 163.807 290.201 163.222 290.779 162.83C291.363 162.438 292.242 162.221 293.418 162.18L294.73 162.132V161.736C294.73 161.212 294.607 160.838 294.361 160.615C294.12 160.392 293.778 160.28 293.336 160.28C292.958 160.28 292.591 160.335 292.235 160.444C291.88 160.553 291.534 160.688 291.196 160.847L290.677 159.713C291.046 159.517 291.465 159.357 291.935 159.234C292.409 159.111 292.901 159.049 293.411 159.049ZM294.724 163.144L293.746 163.178C292.944 163.206 292.381 163.342 292.058 163.589C291.734 163.835 291.572 164.172 291.572 164.6C291.572 164.974 291.684 165.247 291.907 165.421C292.131 165.589 292.424 165.673 292.789 165.673C293.345 165.673 293.805 165.516 294.17 165.202C294.539 164.883 294.724 164.416 294.724 163.8V163.144ZM303.651 164.6C303.651 165.097 303.531 165.516 303.289 165.858C303.048 166.2 302.694 166.46 302.229 166.637C301.769 166.811 301.204 166.897 300.534 166.897C300.006 166.897 299.55 166.858 299.167 166.781C298.789 166.708 298.431 166.594 298.094 166.439V165.051C298.454 165.22 298.857 165.366 299.304 165.489C299.755 165.612 300.181 165.673 300.582 165.673C301.111 165.673 301.491 165.591 301.724 165.427C301.956 165.259 302.072 165.035 302.072 164.757C302.072 164.593 302.024 164.448 301.929 164.32C301.838 164.188 301.664 164.053 301.409 163.917C301.159 163.775 300.789 163.607 300.302 163.411C299.823 163.219 299.42 163.028 299.092 162.837C298.764 162.645 298.515 162.415 298.347 162.146C298.178 161.873 298.094 161.524 298.094 161.1C298.094 160.43 298.358 159.922 298.887 159.576C299.42 159.225 300.124 159.049 300.999 159.049C301.464 159.049 301.901 159.097 302.312 159.193C302.726 159.284 303.132 159.419 303.528 159.596L303.022 160.806C302.681 160.656 302.337 160.533 301.99 160.437C301.648 160.337 301.3 160.287 300.944 160.287C300.53 160.287 300.213 160.351 299.994 160.478C299.78 160.606 299.673 160.788 299.673 161.025C299.673 161.203 299.725 161.353 299.83 161.476C299.935 161.599 300.115 161.722 300.37 161.845C300.63 161.968 300.99 162.121 301.45 162.303C301.901 162.477 302.291 162.659 302.619 162.85C302.952 163.037 303.207 163.267 303.385 163.541C303.562 163.814 303.651 164.167 303.651 164.6ZM308.402 159.049C309.077 159.049 309.656 159.188 310.139 159.466C310.622 159.744 310.993 160.139 311.253 160.649C311.513 161.159 311.643 161.77 311.643 162.481V163.342H306.591C306.609 164.076 306.805 164.641 307.179 165.038C307.557 165.434 308.086 165.632 308.765 165.632C309.248 165.632 309.681 165.587 310.063 165.496C310.451 165.4 310.85 165.261 311.26 165.079V166.384C310.882 166.562 310.496 166.692 310.104 166.774C309.713 166.856 309.243 166.897 308.696 166.897C307.953 166.897 307.299 166.754 306.734 166.466C306.174 166.175 305.734 165.742 305.415 165.168C305.101 164.593 304.943 163.88 304.943 163.028C304.943 162.18 305.087 161.46 305.374 160.868C305.661 160.275 306.064 159.824 306.584 159.514C307.104 159.204 307.71 159.049 308.402 159.049ZM308.402 160.259C307.896 160.259 307.486 160.423 307.172 160.752C306.862 161.08 306.68 161.561 306.625 162.194H310.07C310.066 161.816 310.002 161.481 309.879 161.189C309.76 160.897 309.578 160.67 309.332 160.505C309.09 160.341 308.781 160.259 308.402 160.259ZM323.688 159.193V166.76H322.423L322.204 165.742H322.115C321.956 166.002 321.753 166.218 321.507 166.391C321.261 166.56 320.987 166.685 320.687 166.767C320.386 166.854 320.069 166.897 319.736 166.897C319.167 166.897 318.679 166.801 318.273 166.61C317.872 166.414 317.565 166.113 317.351 165.708C317.136 165.302 317.029 164.778 317.029 164.135V159.193H318.643V163.835C318.643 164.422 318.761 164.862 318.998 165.154C319.24 165.446 319.613 165.591 320.119 165.591C320.607 165.591 320.994 165.491 321.281 165.291C321.568 165.09 321.771 164.794 321.89 164.402C322.013 164.01 322.074 163.529 322.074 162.96V159.193H323.688ZM329.936 159.049C330.788 159.049 331.451 159.27 331.925 159.713C332.403 160.15 332.643 160.854 332.643 161.825V166.76H331.036V162.126C331.036 161.538 330.915 161.098 330.674 160.806C330.432 160.51 330.059 160.362 329.553 160.362C328.819 160.362 328.309 160.588 328.021 161.039C327.739 161.49 327.598 162.144 327.598 163.001V166.76H325.991V159.193H327.242L327.468 160.218H327.557C327.721 159.954 327.924 159.738 328.165 159.569C328.411 159.396 328.685 159.266 328.985 159.179C329.291 159.093 329.607 159.049 329.936 159.049ZM336.498 159.193V166.76H334.892V159.193H336.498ZM335.705 156.295C335.951 156.295 336.163 156.361 336.341 156.493C336.523 156.625 336.614 156.853 336.614 157.176C336.614 157.495 336.523 157.723 336.341 157.86C336.163 157.992 335.951 158.058 335.705 158.058C335.45 158.058 335.233 157.992 335.056 157.86C334.882 157.723 334.796 157.495 334.796 157.176C334.796 156.853 334.882 156.625 335.056 156.493C335.233 156.361 335.45 156.295 335.705 156.295ZM341.618 165.598C341.828 165.598 342.035 165.58 342.24 165.544C342.445 165.503 342.632 165.455 342.801 165.4V166.617C342.623 166.694 342.393 166.76 342.11 166.815C341.828 166.87 341.534 166.897 341.229 166.897C340.8 166.897 340.415 166.826 340.073 166.685C339.731 166.539 339.46 166.291 339.26 165.94C339.059 165.589 338.959 165.104 338.959 164.484V160.417H337.927V159.699L339.034 159.131L339.561 157.511H340.572V159.193H342.739V160.417H340.572V164.464C340.572 164.846 340.668 165.131 340.859 165.318C341.051 165.505 341.304 165.598 341.618 165.598ZM349.425 164.6C349.425 165.097 349.304 165.516 349.062 165.858C348.821 166.2 348.468 166.46 348.003 166.637C347.543 166.811 346.978 166.897 346.308 166.897C345.779 166.897 345.323 166.858 344.94 166.781C344.562 166.708 344.204 166.594 343.867 166.439V165.051C344.227 165.22 344.631 165.366 345.077 165.489C345.528 165.612 345.954 165.673 346.355 165.673C346.884 165.673 347.265 165.591 347.497 165.427C347.729 165.259 347.846 165.035 347.846 164.757C347.846 164.593 347.798 164.448 347.702 164.32C347.611 164.188 347.438 164.053 347.183 163.917C346.932 163.775 346.563 163.607 346.075 163.411C345.597 163.219 345.193 163.028 344.865 162.837C344.537 162.645 344.289 162.415 344.12 162.146C343.951 161.873 343.867 161.524 343.867 161.1C343.867 160.43 344.132 159.922 344.66 159.576C345.193 159.225 345.897 159.049 346.772 159.049C347.237 159.049 347.675 159.097 348.085 159.193C348.5 159.284 348.905 159.419 349.302 159.596L348.796 160.806C348.454 160.656 348.11 160.533 347.764 160.437C347.422 160.337 347.073 160.287 346.718 160.287C346.303 160.287 345.986 160.351 345.768 160.478C345.553 160.606 345.446 160.788 345.446 161.025C345.446 161.203 345.499 161.353 345.604 161.476C345.708 161.599 345.888 161.722 346.144 161.845C346.403 161.968 346.763 162.121 347.224 162.303C347.675 162.477 348.064 162.659 348.393 162.85C348.725 163.037 348.98 163.267 349.158 163.541C349.336 163.814 349.425 164.167 349.425 164.6Z" fill="#1E1E1E"/>
<path opacity="0.2" d="M308.727 119.613C325.1 119.613 338.373 117.572 338.373 115.054C338.373 112.536 325.1 110.495 308.727 110.495C292.353 110.495 279.08 112.536 279.08 115.054C279.08 117.572 292.353 119.613 308.727 119.613Z" fill="url(#paint2_radial_536_3838)"/>
<path fill-rule="evenodd" clip-rule="evenodd" d="M335.275 58.0767C335.693 58.0767 336.033 57.728 336.033 57.2989V21.9781C336.033 10.2582 326.722 0.697144 315.279 0.697144C303.889 0.697144 294.525 10.2582 294.525 21.9781V57.2989C294.525 57.728 294.865 58.0767 295.284 58.0767H335.288H335.275Z" fill="#EFC51A"/>
<g style="mix-blend-mode:overlay" opacity="0.3">
<path fill-rule="evenodd" clip-rule="evenodd" d="M329.925 90.1793V25.9743C329.925 24.459 328.748 23.2387 327.258 23.2387C325.832 23.2387 324.59 24.4456 324.59 25.9743V90.1793C324.59 91.6945 325.819 92.9148 327.258 92.9148C328.735 92.9148 329.925 91.708 329.925 90.1793Z" fill="white"/>
</g>
<path fill-rule="evenodd" clip-rule="evenodd" d="M335.012 94.1753V58.0767H295.531V94.1753C295.531 105.909 304.437 115.456 315.278 115.456C326.158 115.456 335.012 105.895 335.012 94.1753Z" fill="#D7D8D8"/>
<path fill-rule="evenodd" clip-rule="evenodd" d="M335.014 94.1753V58.0767H298.92V92.5527C298.92 103.669 307.355 112.828 317.725 112.828C323.074 112.828 327.899 110.401 331.326 106.512C333.667 103.026 335.027 98.7747 335.027 94.1753H335.014Z" fill="#EAEBEB"/>
<path fill-rule="evenodd" clip-rule="evenodd" d="M329.926 58.0767H324.604V90.1792C324.604 91.6945 325.833 92.9148 327.271 92.9148C328.749 92.9148 329.939 91.7079 329.939 90.1792V58.0767H329.926Z" fill="white"/>
<g style="mix-blend-mode:overlay" opacity="0.3">
<path fill-rule="evenodd" clip-rule="evenodd" d="M330.318 12.6853C329.481 14.4554 327.206 11.8808 323.767 10.1107C320.262 8.39427 316.914 8.13949 317.751 6.42307C318.588 4.653 322.04 4.653 325.545 6.42307C328.998 8.13949 331.116 10.9689 330.331 12.6853H330.318Z" fill="white"/>
</g>
<path d="M304.243 94.9797H302.922V91.3323H317.922V92.861H304.243V94.9797Z" fill="#231F20"/>
<path d="M304.701 86.6524C303.38 85.8881 302.713 84.5337 302.713 82.5759C302.713 80.6181 303.38 79.2638 304.701 78.4994C306.021 77.7351 307.892 77.3596 310.285 77.3596C312.678 77.3596 314.613 77.7351 315.96 78.4994C317.307 79.2638 317.974 80.6181 317.974 82.5759C317.974 84.5337 317.307 85.9149 315.96 86.6659C314.626 87.4168 312.73 87.7923 310.285 87.7923C307.839 87.7923 306.021 87.4168 304.701 86.6524ZM307.002 79.1297C306.113 79.3174 305.394 79.6795 304.845 80.2293C304.295 80.7791 304.034 81.5568 304.034 82.5894C304.034 83.6219 304.308 84.3996 304.845 84.9494C305.381 85.4992 306.113 85.8613 307.002 86.049C307.892 86.2368 308.99 86.3306 310.285 86.3306C311.579 86.3306 312.743 86.2368 313.646 86.049C314.548 85.8613 315.267 85.4992 315.816 84.9494C316.366 84.3996 316.627 83.6219 316.627 82.5894C316.627 81.5568 316.353 80.7791 315.816 80.2293C315.267 79.6929 314.548 79.3174 313.646 79.1297C312.743 78.942 311.632 78.8481 310.285 78.8481C308.938 78.8481 307.892 78.942 307.002 79.1297Z" fill="#231F20"/>
<path d="M317.923 65.9749L311.162 72.4785H317.923V73.9804H303.303V72.4785H310.142L303.303 65.9749V64.0707L310.6 71.0839L317.923 64.0037V65.9749Z" fill="#231F20"/>
<g style="mix-blend-mode:overlay" opacity="0.47">
<path fill-rule="evenodd" clip-rule="evenodd" d="M301.967 7.26783C305.498 3.32542 310.441 0.81783 315.933 0.710553C315.737 0.710553 315.541 0.697144 315.332 0.697144C303.942 0.697144 294.578 10.2582 294.578 21.9781V57.2989C294.578 57.728 294.918 58.0767 295.337 58.0767H298.083V20.2483C298.083 15.4208 299.508 10.9286 301.98 7.26783H301.967Z" fill="#231F20"/>
</g>
<path d="M419.299 149.76H417.686V143.328C417.686 143.114 417.688 142.899 417.692 142.685C417.697 142.471 417.701 142.261 417.706 142.056C417.715 141.851 417.727 141.655 417.74 141.468C417.645 141.573 417.526 141.687 417.385 141.81C417.248 141.933 417.102 142.061 416.947 142.193L415.799 143.109L414.992 142.09L417.959 139.766H419.299V149.76ZM425.984 143.512C426.627 143.512 427.192 143.629 427.68 143.861C428.172 144.089 428.555 144.426 428.828 144.873C429.102 145.315 429.238 145.857 429.238 146.5C429.238 147.201 429.09 147.808 428.794 148.318C428.498 148.824 428.062 149.214 427.488 149.487C426.914 149.76 426.215 149.897 425.39 149.897C424.866 149.897 424.376 149.852 423.92 149.76C423.469 149.669 423.079 149.533 422.751 149.35V147.901C423.093 148.092 423.503 148.25 423.981 148.373C424.46 148.491 424.918 148.55 425.355 148.55C425.82 148.55 426.219 148.482 426.552 148.345C426.884 148.209 427.14 147.999 427.317 147.716C427.5 147.434 427.591 147.076 427.591 146.643C427.591 146.069 427.406 145.627 427.037 145.317C426.673 145.003 426.101 144.845 425.321 144.845C425.048 144.845 424.756 144.87 424.446 144.921C424.141 144.966 423.886 145.016 423.681 145.071L422.977 144.654L423.353 139.766H428.548V141.181H424.768L424.549 143.67C424.713 143.633 424.909 143.599 425.137 143.567C425.365 143.531 425.647 143.512 425.984 143.512ZM432.738 148.133L432.834 148.291C432.752 148.619 432.647 148.972 432.52 149.35C432.392 149.728 432.253 150.107 432.103 150.485C431.952 150.868 431.799 151.228 431.645 151.565H430.469C430.564 151.196 430.656 150.809 430.742 150.403C430.833 150.002 430.915 149.605 430.988 149.214C431.066 148.817 431.127 148.457 431.173 148.133H432.738ZM441.181 144.756C441.181 145.563 441.117 146.285 440.989 146.923C440.866 147.557 440.67 148.095 440.401 148.537C440.132 148.979 439.782 149.316 439.349 149.548C438.916 149.781 438.392 149.897 437.776 149.897C437.006 149.897 436.37 149.694 435.869 149.289C435.368 148.879 434.996 148.291 434.755 147.525C434.513 146.755 434.393 145.832 434.393 144.756C434.393 143.681 434.502 142.76 434.721 141.995C434.944 141.225 435.304 140.634 435.801 140.224C436.298 139.814 436.956 139.609 437.776 139.609C438.551 139.609 439.189 139.814 439.69 140.224C440.196 140.63 440.57 141.218 440.812 141.988C441.058 142.754 441.181 143.676 441.181 144.756ZM436.013 144.756C436.013 145.6 436.067 146.304 436.177 146.869C436.291 147.434 436.478 147.858 436.737 148.14C436.997 148.418 437.343 148.557 437.776 148.557C438.209 148.557 438.556 148.418 438.815 148.14C439.075 147.862 439.262 147.441 439.376 146.876C439.494 146.311 439.554 145.604 439.554 144.756C439.554 143.918 439.497 143.216 439.383 142.651C439.269 142.086 439.082 141.662 438.822 141.38C438.562 141.092 438.214 140.949 437.776 140.949C437.339 140.949 436.99 141.092 436.73 141.38C436.475 141.662 436.291 142.086 436.177 142.651C436.067 143.216 436.013 143.918 436.013 144.756ZM449.192 144.756C449.192 145.563 449.129 146.285 449.001 146.923C448.878 147.557 448.682 148.095 448.413 148.537C448.144 148.979 447.793 149.316 447.36 149.548C446.927 149.781 446.403 149.897 445.788 149.897C445.018 149.897 444.382 149.694 443.881 149.289C443.38 148.879 443.008 148.291 442.767 147.525C442.525 146.755 442.404 145.832 442.404 144.756C442.404 143.681 442.514 142.76 442.732 141.995C442.956 141.225 443.316 140.634 443.812 140.224C444.309 139.814 444.968 139.609 445.788 139.609C446.563 139.609 447.201 139.814 447.702 140.224C448.208 140.63 448.582 141.218 448.823 141.988C449.069 142.754 449.192 143.676 449.192 144.756ZM444.024 144.756C444.024 145.6 444.079 146.304 444.188 146.869C444.302 147.434 444.489 147.858 444.749 148.14C445.009 148.418 445.355 148.557 445.788 148.557C446.221 148.557 446.567 148.418 446.827 148.14C447.087 147.862 447.274 147.441 447.388 146.876C447.506 146.311 447.565 145.604 447.565 144.756C447.565 143.918 447.508 143.216 447.395 142.651C447.281 142.086 447.094 141.662 446.834 141.38C446.574 141.092 446.226 140.949 445.788 140.949C445.351 140.949 445.002 141.092 444.742 141.38C444.487 141.662 444.302 142.086 444.188 142.651C444.079 143.216 444.024 143.918 444.024 144.756ZM457.204 144.756C457.204 145.563 457.14 146.285 457.013 146.923C456.89 147.557 456.694 148.095 456.425 148.537C456.156 148.979 455.805 149.316 455.372 149.548C454.939 149.781 454.415 149.897 453.8 149.897C453.03 149.897 452.394 149.694 451.893 149.289C451.391 148.879 451.02 148.291 450.778 147.525C450.537 146.755 450.416 145.832 450.416 144.756C450.416 143.681 450.525 142.76 450.744 141.995C450.967 141.225 451.327 140.634 451.824 140.224C452.321 139.814 452.979 139.609 453.8 139.609C454.575 139.609 455.213 139.814 455.714 140.224C456.22 140.63 456.593 141.218 456.835 141.988C457.081 142.754 457.204 143.676 457.204 144.756ZM452.036 144.756C452.036 145.6 452.091 146.304 452.2 146.869C452.314 147.434 452.501 147.858 452.761 148.14C453.021 148.418 453.367 148.557 453.8 148.557C454.233 148.557 454.579 148.418 454.839 148.14C455.099 147.862 455.285 147.441 455.399 146.876C455.518 146.311 455.577 145.604 455.577 144.756C455.577 143.918 455.52 143.216 455.406 142.651C455.292 142.086 455.105 141.662 454.846 141.38C454.586 141.092 454.237 140.949 453.8 140.949C453.362 140.949 453.014 141.092 452.754 141.38C452.499 141.662 452.314 142.086 452.2 142.651C452.091 143.216 452.036 143.918 452.036 144.756ZM400.015 166.76H398.401V156.124H400.015V166.76ZM403.918 159.193V166.76H402.312V159.193H403.918ZM403.125 156.295C403.371 156.295 403.583 156.361 403.761 156.493C403.943 156.625 404.034 156.853 404.034 157.176C404.034 157.495 403.943 157.723 403.761 157.86C403.583 157.992 403.371 158.058 403.125 158.058C402.87 158.058 402.653 157.992 402.476 157.86C402.302 157.723 402.216 157.495 402.216 157.176C402.216 156.853 402.302 156.625 402.476 156.493C402.653 156.361 402.87 156.295 403.125 156.295ZM410.104 159.049C411.002 159.049 411.722 159.378 412.265 160.034C412.812 160.69 413.085 161.665 413.085 162.96C413.085 163.816 412.957 164.539 412.702 165.127C412.451 165.71 412.098 166.152 411.643 166.453C411.191 166.749 410.665 166.897 410.063 166.897C409.681 166.897 409.348 166.847 409.065 166.747C408.783 166.646 408.541 166.517 408.341 166.357C408.14 166.193 407.972 166.015 407.835 165.824H407.739C407.762 166.006 407.783 166.209 407.801 166.432C407.824 166.651 407.835 166.852 407.835 167.034V170.117H406.222V159.193H407.534L407.76 160.239H407.835C407.976 160.025 408.147 159.826 408.348 159.644C408.553 159.462 408.799 159.318 409.086 159.214C409.378 159.104 409.717 159.049 410.104 159.049ZM409.674 160.362C409.232 160.362 408.876 160.451 408.607 160.629C408.343 160.802 408.149 161.064 408.026 161.415C407.908 161.766 407.844 162.205 407.835 162.734V162.96C407.835 163.52 407.892 163.996 408.006 164.388C408.124 164.776 408.318 165.072 408.587 165.277C408.86 165.477 409.229 165.578 409.694 165.578C410.086 165.578 410.41 165.471 410.665 165.256C410.925 165.042 411.118 164.737 411.246 164.34C411.374 163.944 411.438 163.477 411.438 162.939C411.438 162.123 411.292 161.49 411 161.039C410.713 160.588 410.271 160.362 409.674 160.362ZM417.911 159.049C418.868 159.049 419.59 159.261 420.078 159.685C420.57 160.109 420.816 160.77 420.816 161.668V166.76H419.675L419.367 165.687H419.312C419.098 165.961 418.877 166.186 418.649 166.364C418.422 166.542 418.157 166.674 417.856 166.76C417.56 166.852 417.198 166.897 416.77 166.897C416.318 166.897 415.915 166.815 415.56 166.651C415.204 166.482 414.924 166.227 414.719 165.885C414.514 165.544 414.411 165.111 414.411 164.587C414.411 163.807 414.701 163.222 415.279 162.83C415.863 162.438 416.742 162.221 417.918 162.18L419.23 162.132V161.736C419.23 161.212 419.107 160.838 418.861 160.615C418.62 160.392 418.278 160.28 417.836 160.28C417.458 160.28 417.091 160.335 416.735 160.444C416.38 160.553 416.034 160.688 415.696 160.847L415.177 159.713C415.546 159.517 415.965 159.357 416.435 159.234C416.909 159.111 417.401 159.049 417.911 159.049ZM419.224 163.144L418.246 163.178C417.444 163.206 416.881 163.342 416.558 163.589C416.234 163.835 416.072 164.172 416.072 164.6C416.072 164.974 416.184 165.247 416.407 165.421C416.631 165.589 416.924 165.673 417.289 165.673C417.845 165.673 418.305 165.516 418.67 165.202C419.039 164.883 419.224 164.416 419.224 163.8V163.144ZM428.151 164.6C428.151 165.097 428.031 165.516 427.789 165.858C427.548 166.2 427.194 166.46 426.729 166.637C426.269 166.811 425.704 166.897 425.034 166.897C424.506 166.897 424.05 166.858 423.667 166.781C423.289 166.708 422.931 166.594 422.594 166.439V165.051C422.954 165.22 423.357 165.366 423.804 165.489C424.255 165.612 424.681 165.673 425.082 165.673C425.611 165.673 425.991 165.591 426.224 165.427C426.456 165.259 426.572 165.035 426.572 164.757C426.572 164.593 426.524 164.448 426.429 164.32C426.338 164.188 426.164 164.053 425.909 163.917C425.659 163.775 425.289 163.607 424.802 163.411C424.323 163.219 423.92 163.028 423.592 162.837C423.264 162.645 423.015 162.415 422.847 162.146C422.678 161.873 422.594 161.524 422.594 161.1C422.594 160.43 422.858 159.922 423.387 159.576C423.92 159.225 424.624 159.049 425.499 159.049C425.964 159.049 426.401 159.097 426.812 159.193C427.226 159.284 427.632 159.419 428.028 159.596L427.522 160.806C427.181 160.656 426.837 160.533 426.49 160.437C426.148 160.337 425.8 160.287 425.444 160.287C425.03 160.287 424.713 160.351 424.494 160.478C424.28 160.606 424.173 160.788 424.173 161.025C424.173 161.203 424.225 161.353 424.33 161.476C424.435 161.599 424.615 161.722 424.87 161.845C425.13 161.968 425.49 162.121 425.95 162.303C426.401 162.477 426.791 162.659 427.119 162.85C427.452 163.037 427.707 163.267 427.885 163.541C428.062 163.814 428.151 164.167 428.151 164.6ZM432.902 159.049C433.577 159.049 434.156 159.188 434.639 159.466C435.122 159.744 435.493 160.139 435.753 160.649C436.013 161.159 436.143 161.77 436.143 162.481V163.342H431.091C431.109 164.076 431.305 164.641 431.679 165.038C432.057 165.434 432.586 165.632 433.265 165.632C433.748 165.632 434.181 165.587 434.563 165.496C434.951 165.4 435.35 165.261 435.76 165.079V166.384C435.382 166.562 434.996 166.692 434.604 166.774C434.213 166.856 433.743 166.897 433.196 166.897C432.453 166.897 431.799 166.754 431.234 166.466C430.674 166.175 430.234 165.742 429.915 165.168C429.601 164.593 429.443 163.88 429.443 163.028C429.443 162.18 429.587 161.46 429.874 160.868C430.161 160.275 430.564 159.824 431.084 159.514C431.604 159.204 432.21 159.049 432.902 159.049ZM432.902 160.259C432.396 160.259 431.986 160.423 431.672 160.752C431.362 161.08 431.18 161.561 431.125 162.194H434.57C434.566 161.816 434.502 161.481 434.379 161.189C434.26 160.897 434.078 160.67 433.832 160.505C433.59 160.341 433.281 160.259 432.902 160.259ZM448.188 159.193V166.76H446.923L446.704 165.742H446.615C446.456 166.002 446.253 166.218 446.007 166.391C445.761 166.56 445.487 166.685 445.187 166.767C444.886 166.854 444.569 166.897 444.236 166.897C443.667 166.897 443.179 166.801 442.773 166.61C442.372 166.414 442.065 166.113 441.851 165.708C441.636 165.302 441.529 164.778 441.529 164.135V159.193H443.143V163.835C443.143 164.422 443.261 164.862 443.498 165.154C443.74 165.446 444.113 165.591 444.619 165.591C445.107 165.591 445.494 165.491 445.781 165.291C446.068 165.09 446.271 164.794 446.39 164.402C446.513 164.01 446.574 163.529 446.574 162.96V159.193H448.188ZM454.436 159.049C455.288 159.049 455.951 159.27 456.425 159.713C456.903 160.15 457.143 160.854 457.143 161.825V166.76H455.536V162.126C455.536 161.538 455.415 161.098 455.174 160.806C454.932 160.51 454.559 160.362 454.053 160.362C453.319 160.362 452.809 160.588 452.521 161.039C452.239 161.49 452.098 162.144 452.098 163.001V166.76H450.491V159.193H451.742L451.968 160.218H452.057C452.221 159.954 452.424 159.738 452.665 159.569C452.911 159.396 453.185 159.266 453.485 159.179C453.791 159.093 454.107 159.049 454.436 159.049ZM460.998 159.193V166.76H459.392V159.193H460.998ZM460.205 156.295C460.451 156.295 460.663 156.361 460.841 156.493C461.023 156.625 461.114 156.853 461.114 157.176C461.114 157.495 461.023 157.723 460.841 157.86C460.663 157.992 460.451 158.058 460.205 158.058C459.95 158.058 459.733 157.992 459.556 157.86C459.382 157.723 459.296 157.495 459.296 157.176C459.296 156.853 459.382 156.625 459.556 156.493C459.733 156.361 459.95 156.295 460.205 156.295ZM466.118 165.598C466.328 165.598 466.535 165.58 466.74 165.544C466.945 165.503 467.132 165.455 467.301 165.4V166.617C467.123 166.694 466.893 166.76 466.61 166.815C466.328 166.87 466.034 166.897 465.729 166.897C465.3 166.897 464.915 166.826 464.573 166.685C464.231 166.539 463.96 166.291 463.76 165.94C463.559 165.589 463.459 165.104 463.459 164.484V160.417H462.427V159.699L463.534 159.131L464.061 157.511H465.072V159.193H467.239V160.417H465.072V164.464C465.072 164.846 465.168 165.131 465.359 165.318C465.551 165.505 465.804 165.598 466.118 165.598ZM473.925 164.6C473.925 165.097 473.804 165.516 473.562 165.858C473.321 166.2 472.968 166.46 472.503 166.637C472.043 166.811 471.478 166.897 470.808 166.897C470.279 166.897 469.823 166.858 469.44 166.781C469.062 166.708 468.704 166.594 468.367 166.439V165.051C468.727 165.22 469.131 165.366 469.577 165.489C470.028 165.612 470.454 165.673 470.855 165.673C471.384 165.673 471.765 165.591 471.997 165.427C472.229 165.259 472.346 165.035 472.346 164.757C472.346 164.593 472.298 164.448 472.202 164.32C472.111 164.188 471.938 164.053 471.683 163.917C471.432 163.775 471.063 163.607 470.575 163.411C470.097 163.219 469.693 163.028 469.365 162.837C469.037 162.645 468.789 162.415 468.62 162.146C468.451 161.873 468.367 161.524 468.367 161.1C468.367 160.43 468.632 159.922 469.16 159.576C469.693 159.225 470.397 159.049 471.272 159.049C471.737 159.049 472.175 159.097 472.585 159.193C473 159.284 473.405 159.419 473.802 159.596L473.296 160.806C472.954 160.656 472.61 160.533 472.264 160.437C471.922 160.337 471.573 160.287 471.218 160.287C470.803 160.287 470.486 160.351 470.268 160.478C470.053 160.606 469.946 160.788 469.946 161.025C469.946 161.203 469.999 161.353 470.104 161.476C470.208 161.599 470.388 161.722 470.644 161.845C470.903 161.968 471.263 162.121 471.724 162.303C472.175 162.477 472.564 162.659 472.893 162.85C473.225 163.037 473.48 163.267 473.658 163.541C473.836 163.814 473.925 164.167 473.925 164.6Z" fill="#1E1E1E"/>
<path opacity="0.2" d="M432.963 119.613C449.336 119.613 462.609 117.572 462.609 115.054C462.609 112.536 449.336 110.495 432.963 110.495C416.59 110.495 403.316 112.536 403.316 115.054C403.316 117.572 416.59 119.613 432.963 119.613Z" fill="url(#paint3_radial_536_3838)"/>
<path fill-rule="evenodd" clip-rule="evenodd" d="M459.509 58.0767C459.927 58.0767 460.267 57.728 460.267 57.2989V21.9781C460.267 10.2582 450.956 0.697144 439.514 0.697144C428.123 0.697144 418.76 10.2582 418.76 21.9781V57.2989C418.76 57.728 419.1 58.0767 419.518 58.0767H459.522H459.509Z" fill="#D13F4F"/>
<g style="mix-blend-mode:overlay" opacity="0.3">
<path fill-rule="evenodd" clip-rule="evenodd" d="M454.16 90.1793V25.9743C454.16 24.459 452.983 23.2387 451.492 23.2387C450.067 23.2387 448.824 24.4456 448.824 25.9743V90.1793C448.824 91.6945 450.053 92.9148 451.492 92.9148C452.97 92.9148 454.16 91.708 454.16 90.1793Z" fill="white"/>
</g>
<path fill-rule="evenodd" clip-rule="evenodd" d="M459.246 94.1753V58.0767H419.766V94.1753C419.766 105.909 428.671 115.456 439.512 115.456C450.393 115.456 459.246 105.895 459.246 94.1753Z" fill="#D7D8D8"/>
<path fill-rule="evenodd" clip-rule="evenodd" d="M459.248 94.1753V58.0767H423.154V92.5527C423.154 103.669 431.589 112.828 441.96 112.828C447.308 112.828 452.134 110.401 455.56 106.512C457.901 103.026 459.261 98.7747 459.261 94.1753H459.248Z" fill="#EAEBEB"/>
<path fill-rule="evenodd" clip-rule="evenodd" d="M454.16 58.0767H448.838V90.1792C448.838 91.6945 450.067 92.9148 451.506 92.9148C452.983 92.9148 454.173 91.7079 454.173 90.1792V58.0767H454.16Z" fill="white"/>
<g style="mix-blend-mode:overlay" opacity="0.3">
<path fill-rule="evenodd" clip-rule="evenodd" d="M454.553 12.6853C453.716 14.4554 451.44 11.8808 448.001 10.1107C444.496 8.39427 441.148 8.13949 441.985 6.42307C442.822 4.653 446.275 4.653 449.779 6.42307C453.232 8.13949 455.35 10.9689 454.566 12.6853H454.553Z" fill="white"/>
</g>
<path d="M428.477 94.9127H427.156V91.2653H442.156V92.794H428.477V94.9127Z" fill="#231F20"/>
<path d="M428.412 78.0301V85.8881H433.773C433.29 85.526 432.884 85.003 432.57 84.3192C432.256 83.6353 432.1 82.8843 432.1 82.0932C432.1 80.9265 432.335 79.9611 432.806 79.2235C433.276 78.486 433.878 77.9362 434.623 77.6144C435.369 77.2791 436.167 77.1182 437.017 77.1182C437.997 77.1182 438.874 77.306 439.658 77.6814C440.443 78.0569 441.071 78.6335 441.528 79.4247C441.986 80.2024 442.221 81.1679 442.221 82.3345C442.221 83.8096 441.842 85.003 441.097 85.9149C440.351 86.8267 439.344 87.39 438.076 87.5911V86.116C438.991 85.9283 439.711 85.4992 440.207 84.8287C440.704 84.1582 440.966 83.3269 440.966 82.3345C440.966 81.0875 440.613 80.1488 439.894 79.5185C439.174 78.8883 438.22 78.5665 437.043 78.5665C435.866 78.5665 434.977 78.8883 434.336 79.5319C433.682 80.1756 433.368 81.1009 433.368 82.2943C433.368 83.1257 433.551 83.8498 433.93 84.4801C434.31 85.1103 434.82 85.5797 435.46 85.8747V87.2961H427.156V78.0435H428.438L428.412 78.0301Z" fill="#231F20"/>
<path d="M442.158 65.9749L435.397 72.4785H442.158V73.9804H427.537V72.4785H434.377L427.537 65.9749V64.0707L434.834 71.0839L442.158 64.0037V65.9749Z" fill="#231F20"/>
<g style="mix-blend-mode:overlay" opacity="0.47">
<path fill-rule="evenodd" clip-rule="evenodd" d="M426.201 7.26783C429.732 3.32542 434.675 0.81783 440.168 0.710553C439.972 0.710553 439.776 0.697144 439.566 0.697144C428.176 0.697144 418.812 10.2582 418.812 21.9781V57.2989C418.812 57.728 419.153 58.0767 419.571 58.0767H422.317V20.2483C422.317 15.4208 423.743 10.9286 426.214 7.26783H426.201Z" fill="#231F20"/>
</g>
<defs>
<radialGradient id="paint0_radial_536_3838" cx="0" cy="0" r="1" gradientUnits="userSpaceOnUse" gradientTransform="translate(60.9835 115.496) rotate(180) scale(30.3995 4.55992)">
<stop/>
<stop offset="1" stop-color="white"/>
</radialGradient>
<radialGradient id="paint1_radial_536_3838" cx="0" cy="0" r="1" gradientUnits="userSpaceOnUse" gradientTransform="translate(184.48 115.496) rotate(180) scale(29.6464 4.55992)">
<stop/>
<stop offset="1" stop-color="white"/>
</radialGradient>
<radialGradient id="paint2_radial_536_3838" cx="0" cy="0" r="1" gradientUnits="userSpaceOnUse" gradientTransform="translate(308.74 115.496) rotate(180) scale(29.6464 4.55992)">
<stop/>
<stop offset="1" stop-color="white"/>
</radialGradient>
<radialGradient id="paint3_radial_536_3838" cx="0" cy="0" r="1" gradientUnits="userSpaceOnUse" gradientTransform="translate(432.963 115.496) rotate(180) scale(29.6464 4.55992)">
<stop/>
<stop offset="1" stop-color="white"/>
</radialGradient>
<clipPath id="clip0_536_3838">
<rect width="60.799" height="118.916" fill="white" transform="translate(30.584 0.697144)"/>
</clipPath>
</defs>
</svg>
