<svg width="278" height="151" viewBox="0 0 278 151" fill="none" xmlns="http://www.w3.org/2000/svg">
<path d="M29.7394 111H28.1261V104.567C28.1261 104.353 28.1284 104.139 28.1329 103.925C28.1375 103.711 28.142 103.501 28.1466 103.296C28.1557 103.091 28.1671 102.895 28.1808 102.708C28.0851 102.813 27.9666 102.927 27.8253 103.05C27.6886 103.173 27.5427 103.3 27.3878 103.433L26.2394 104.349L25.4327 103.33L28.3995 101.006H29.7394V111ZM36.4249 104.752C37.0675 104.752 37.6326 104.868 38.1202 105.101C38.6124 105.328 38.9952 105.666 39.2687 106.112C39.5421 106.554 39.6788 107.097 39.6788 107.739C39.6788 108.441 39.5307 109.047 39.2345 109.558C38.9382 110.063 38.503 110.453 37.9288 110.727C37.3546 111 36.655 111.137 35.8302 111.137C35.3061 111.137 34.8162 111.091 34.3604 111C33.9093 110.909 33.5196 110.772 33.1915 110.59V109.141C33.5333 109.332 33.9435 109.489 34.422 109.612C34.9005 109.731 35.3585 109.79 35.796 109.79C36.2608 109.79 36.6596 109.722 36.9923 109.585C37.325 109.448 37.5802 109.239 37.7579 108.956C37.9402 108.674 38.0313 108.316 38.0313 107.883C38.0313 107.309 37.8468 106.867 37.4776 106.557C37.1131 106.242 36.5411 106.085 35.7618 106.085C35.4884 106.085 35.1967 106.11 34.8868 106.16C34.5815 106.206 34.3263 106.256 34.1212 106.311L33.4171 105.894L33.7931 101.006H38.9884V102.421H35.2081L34.9894 104.909C35.1534 104.873 35.3494 104.839 35.5772 104.807C35.8051 104.77 36.0877 104.752 36.4249 104.752ZM43.1788 109.373L43.2745 109.53C43.1925 109.858 43.0877 110.212 42.9601 110.59C42.8325 110.968 42.6935 111.346 42.5431 111.725C42.3927 112.107 42.24 112.467 42.0851 112.805H40.9093C41.005 112.436 41.0961 112.048 41.1827 111.643C41.2739 111.242 41.3559 110.845 41.4288 110.453C41.5063 110.057 41.5678 109.697 41.6134 109.373H43.1788ZM51.6212 105.996C51.6212 106.803 51.5574 107.525 51.4298 108.163C51.3067 108.797 51.1108 109.334 50.8419 109.776C50.573 110.218 50.2221 110.556 49.7892 110.788C49.3562 111.021 48.8321 111.137 48.2169 111.137C47.4467 111.137 46.811 110.934 46.3097 110.528C45.8084 110.118 45.4369 109.53 45.1954 108.765C44.9539 107.994 44.8331 107.072 44.8331 105.996C44.8331 104.921 44.9425 104 45.1612 103.234C45.3845 102.464 45.7446 101.874 46.2413 101.464C46.7381 101.054 47.3966 100.849 48.2169 100.849C48.9916 100.849 49.6297 101.054 50.131 101.464C50.6368 101.869 51.0105 102.457 51.252 103.228C51.4981 103.993 51.6212 104.916 51.6212 105.996ZM46.4532 105.996C46.4532 106.839 46.5079 107.543 46.6173 108.108C46.7312 108.674 46.9181 109.097 47.1778 109.38C47.4376 109.658 47.7839 109.797 48.2169 109.797C48.6498 109.797 48.9962 109.658 49.256 109.38C49.5157 109.102 49.7026 108.68 49.8165 108.115C49.935 107.55 49.9942 106.844 49.9942 105.996C49.9942 105.158 49.9373 104.456 49.8233 103.891C49.7094 103.326 49.5226 102.902 49.2628 102.619C49.003 102.332 48.6544 102.188 48.2169 102.188C47.7794 102.188 47.4308 102.332 47.171 102.619C46.9158 102.902 46.7312 103.326 46.6173 103.891C46.5079 104.456 46.4532 105.158 46.4532 105.996ZM59.6329 105.996C59.6329 106.803 59.5691 107.525 59.4415 108.163C59.3185 108.797 59.1225 109.334 58.8536 109.776C58.5847 110.218 58.2338 110.556 57.8009 110.788C57.3679 111.021 56.8438 111.137 56.2286 111.137C55.4584 111.137 54.8227 110.934 54.3214 110.528C53.8201 110.118 53.4487 109.53 53.2071 108.765C52.9656 107.994 52.8448 107.072 52.8448 105.996C52.8448 104.921 52.9542 104 53.1729 103.234C53.3963 102.464 53.7563 101.874 54.253 101.464C54.7498 101.054 55.4083 100.849 56.2286 100.849C57.0034 100.849 57.6414 101.054 58.1427 101.464C58.6485 101.869 59.0222 102.457 59.2638 103.228C59.5099 103.993 59.6329 104.916 59.6329 105.996ZM54.4649 105.996C54.4649 106.839 54.5196 107.543 54.629 108.108C54.7429 108.674 54.9298 109.097 55.1895 109.38C55.4493 109.658 55.7957 109.797 56.2286 109.797C56.6616 109.797 57.0079 109.658 57.2677 109.38C57.5274 109.102 57.7143 108.68 57.8282 108.115C57.9467 107.55 58.006 106.844 58.006 105.996C58.006 105.158 57.949 104.456 57.8351 103.891C57.7211 103.326 57.5343 102.902 57.2745 102.619C57.0147 102.332 56.6661 102.188 56.2286 102.188C55.7911 102.188 55.4425 102.332 55.1827 102.619C54.9275 102.902 54.7429 103.326 54.629 103.891C54.5196 104.456 54.4649 105.158 54.4649 105.996ZM67.6446 105.996C67.6446 106.803 67.5808 107.525 67.4532 108.163C67.3302 108.797 67.1342 109.334 66.8653 109.776C66.5964 110.218 66.2455 110.556 65.8126 110.788C65.3797 111.021 64.8556 111.137 64.2403 111.137C63.4701 111.137 62.8344 110.934 62.3331 110.528C61.8318 110.118 61.4604 109.53 61.2188 108.765C60.9773 107.994 60.8565 107.072 60.8565 105.996C60.8565 104.921 60.9659 104 61.1847 103.234C61.408 102.464 61.768 101.874 62.2647 101.464C62.7615 101.054 63.42 100.849 64.2403 100.849C65.0151 100.849 65.6531 101.054 66.1544 101.464C66.6603 101.869 67.0339 102.457 67.2755 103.228C67.5216 103.993 67.6446 104.916 67.6446 105.996ZM62.4767 105.996C62.4767 106.839 62.5313 107.543 62.6407 108.108C62.7547 108.674 62.9415 109.097 63.2013 109.38C63.461 109.658 63.8074 109.797 64.2403 109.797C64.6733 109.797 65.0196 109.658 65.2794 109.38C65.5392 109.102 65.726 108.68 65.8399 108.115C65.9584 107.55 66.0177 106.844 66.0177 105.996C66.0177 105.158 65.9607 104.456 65.8468 103.891C65.7328 103.326 65.546 102.902 65.2862 102.619C65.0265 102.332 64.6778 102.188 64.2403 102.188C63.8028 102.188 63.4542 102.332 63.1944 102.619C62.9392 102.902 62.7547 103.326 62.6407 103.891C62.5313 104.456 62.4767 105.158 62.4767 105.996ZM10.4552 128H8.84189V117.363H10.4552V128ZM14.3585 120.433V128H12.752V120.433H14.3585ZM13.5655 117.534C13.8116 117.534 14.0235 117.6 14.2013 117.732C14.3836 117.865 14.4747 118.092 14.4747 118.416C14.4747 118.735 14.3836 118.963 14.2013 119.1C14.0235 119.232 13.8116 119.298 13.5655 119.298C13.3103 119.298 13.0938 119.232 12.9161 119.1C12.7429 118.963 12.6563 118.735 12.6563 118.416C12.6563 118.092 12.7429 117.865 12.9161 117.732C13.0938 117.6 13.3103 117.534 13.5655 117.534ZM20.545 120.289C21.4428 120.289 22.1629 120.617 22.7052 121.273C23.252 121.93 23.5255 122.905 23.5255 124.199C23.5255 125.056 23.3979 125.778 23.1427 126.366C22.892 126.95 22.5388 127.392 22.0831 127.692C21.6319 127.989 21.1056 128.137 20.504 128.137C20.1212 128.137 19.7885 128.087 19.506 127.986C19.2234 127.886 18.9819 127.756 18.7813 127.597C18.5808 127.433 18.4122 127.255 18.2755 127.063H18.1798C18.2026 127.246 18.2231 127.449 18.2413 127.672C18.2641 127.891 18.2755 128.091 18.2755 128.273V131.356H16.6622V120.433H17.9747L18.2003 121.479H18.2755C18.4168 121.264 18.5877 121.066 18.7882 120.884C18.9933 120.701 19.2394 120.558 19.5265 120.453C19.8181 120.344 20.1576 120.289 20.545 120.289ZM20.1144 121.602C19.6723 121.602 19.3168 121.69 19.0479 121.868C18.7836 122.041 18.5899 122.303 18.4669 122.654C18.3484 123.005 18.2846 123.445 18.2755 123.974V124.199C18.2755 124.76 18.3325 125.236 18.4464 125.628C18.5649 126.015 18.7586 126.312 19.0274 126.517C19.3009 126.717 19.67 126.817 20.1349 126.817C20.5268 126.817 20.8504 126.71 21.1056 126.496C21.3653 126.282 21.559 125.977 21.6866 125.58C21.8142 125.184 21.878 124.716 21.878 124.179C21.878 123.363 21.7322 122.729 21.4405 122.278C21.1534 121.827 20.7114 121.602 20.1144 121.602ZM28.3517 120.289C29.3087 120.289 30.031 120.501 30.5187 120.925C31.0108 121.349 31.2569 122.009 31.2569 122.907V128H30.1153L29.8077 126.927H29.753C29.5388 127.2 29.3178 127.426 29.0899 127.604C28.8621 127.781 28.5978 127.913 28.297 128C28.0007 128.091 27.6384 128.137 27.2101 128.137C26.7589 128.137 26.3556 128.055 26.0001 127.891C25.6446 127.722 25.3644 127.467 25.1593 127.125C24.9542 126.783 24.8517 126.35 24.8517 125.826C24.8517 125.047 25.141 124.461 25.7198 124.069C26.3032 123.677 27.1827 123.461 28.3585 123.42L29.671 123.372V122.976C29.671 122.451 29.5479 122.078 29.3019 121.854C29.0603 121.631 28.7185 121.52 28.2765 121.52C27.8982 121.52 27.5313 121.574 27.1759 121.684C26.8204 121.793 26.4741 121.927 26.1368 122.087L25.6173 120.952C25.9864 120.756 26.4057 120.597 26.8751 120.474C27.3491 120.351 27.8412 120.289 28.3517 120.289ZM29.6642 124.384L28.6866 124.418C27.8845 124.445 27.3217 124.582 26.9981 124.828C26.6746 125.074 26.5128 125.411 26.5128 125.84C26.5128 126.214 26.6244 126.487 26.8478 126.66C27.0711 126.829 27.365 126.913 27.7296 126.913C28.2856 126.913 28.7459 126.756 29.1104 126.441C29.4796 126.122 29.6642 125.655 29.6642 125.04V124.384ZM38.5919 125.84C38.5919 126.337 38.4711 126.756 38.2296 127.098C37.9881 127.439 37.6349 127.699 37.17 127.877C36.7097 128.05 36.1446 128.137 35.4747 128.137C34.9461 128.137 34.4903 128.098 34.1075 128.021C33.7293 127.948 33.3715 127.834 33.0343 127.679V126.291C33.3943 126.46 33.7976 126.605 34.2442 126.729C34.6954 126.852 35.1215 126.913 35.5226 126.913C36.0512 126.913 36.4317 126.831 36.6642 126.667C36.8966 126.498 37.0128 126.275 37.0128 125.997C37.0128 125.833 36.9649 125.687 36.8692 125.56C36.7781 125.427 36.6049 125.293 36.3497 125.156C36.0991 125.015 35.7299 124.846 35.2423 124.65C34.7638 124.459 34.3604 124.268 34.0323 124.076C33.7042 123.885 33.4558 123.655 33.2872 123.386C33.1186 123.112 33.0343 122.764 33.0343 122.34C33.0343 121.67 33.2986 121.162 33.8272 120.815C34.3604 120.465 35.0645 120.289 35.9395 120.289C36.4044 120.289 36.8419 120.337 37.252 120.433C37.6668 120.524 38.0724 120.658 38.4688 120.836L37.963 122.046C37.6212 121.896 37.2771 121.772 36.9308 121.677C36.589 121.576 36.2403 121.526 35.8849 121.526C35.4701 121.526 35.1534 121.59 34.9347 121.718C34.7205 121.845 34.6134 122.028 34.6134 122.265C34.6134 122.442 34.6658 122.593 34.7706 122.716C34.8754 122.839 35.0554 122.962 35.3106 123.085C35.5704 123.208 35.9304 123.361 36.3907 123.543C36.8419 123.716 37.2315 123.898 37.5597 124.09C37.8923 124.277 38.1476 124.507 38.3253 124.78C38.503 125.054 38.5919 125.407 38.5919 125.84ZM43.3429 120.289C44.0173 120.289 44.5961 120.428 45.0792 120.706C45.5623 120.984 45.9337 121.378 46.1935 121.889C46.4532 122.399 46.5831 123.01 46.5831 123.721V124.582H41.5313C41.5496 125.316 41.7455 125.881 42.1192 126.277C42.4975 126.674 43.0261 126.872 43.7052 126.872C44.1882 126.872 44.6212 126.826 45.004 126.735C45.3914 126.64 45.7901 126.501 46.2003 126.318V127.624C45.822 127.802 45.4369 127.932 45.045 128.014C44.6531 128.096 44.1837 128.137 43.6368 128.137C42.894 128.137 42.24 127.993 41.6749 127.706C41.1144 127.414 40.6746 126.981 40.3556 126.407C40.0411 125.833 39.8839 125.12 39.8839 124.268C39.8839 123.42 40.0274 122.7 40.3145 122.107C40.6017 121.515 41.005 121.064 41.5245 120.754C42.044 120.444 42.6502 120.289 43.3429 120.289ZM43.3429 121.499C42.837 121.499 42.4269 121.663 42.1124 121.991C41.8025 122.319 41.6202 122.8 41.5655 123.434H45.0108C45.0063 123.055 44.9425 122.72 44.8194 122.429C44.7009 122.137 44.5187 121.909 44.2726 121.745C44.031 121.581 43.7211 121.499 43.3429 121.499ZM58.628 120.433V128H57.3634L57.1446 126.981H57.0558C56.8963 127.241 56.6935 127.458 56.4474 127.631C56.2013 127.799 55.9278 127.925 55.627 128.007C55.3263 128.093 55.0095 128.137 54.6769 128.137C54.1072 128.137 53.6196 128.041 53.214 127.85C52.8129 127.654 52.5053 127.353 52.2911 126.947C52.0769 126.542 51.9698 126.018 51.9698 125.375V120.433H53.5831V125.074C53.5831 125.662 53.7016 126.102 53.9386 126.394C54.1801 126.685 54.5538 126.831 55.0597 126.831C55.5473 126.831 55.9347 126.731 56.2218 126.53C56.5089 126.33 56.7117 126.034 56.8302 125.642C56.9532 125.25 57.0147 124.769 57.0147 124.199V120.433H58.628ZM64.8761 120.289C65.7283 120.289 66.3914 120.51 66.8653 120.952C67.3438 121.39 67.5831 122.094 67.5831 123.064V128H65.9767V123.365C65.9767 122.777 65.8559 122.338 65.6144 122.046C65.3728 121.75 64.9991 121.602 64.4933 121.602C63.7595 121.602 63.2491 121.827 62.962 122.278C62.6795 122.729 62.5382 123.383 62.5382 124.24V128H60.9317V120.433H62.1827L62.4083 121.458H62.4972C62.6612 121.194 62.864 120.977 63.1056 120.809C63.3517 120.635 63.6251 120.506 63.9259 120.419C64.2312 120.332 64.5479 120.289 64.8761 120.289ZM71.4386 120.433V128H69.8321V120.433H71.4386ZM70.6456 117.534C70.8917 117.534 71.1036 117.6 71.2813 117.732C71.4636 117.865 71.5548 118.092 71.5548 118.416C71.5548 118.735 71.4636 118.963 71.2813 119.1C71.1036 119.232 70.8917 119.298 70.6456 119.298C70.3904 119.298 70.1739 119.232 69.9962 119.1C69.823 118.963 69.7364 118.735 69.7364 118.416C69.7364 118.092 69.823 117.865 69.9962 117.732C70.1739 117.6 70.3904 117.534 70.6456 117.534ZM76.5587 126.838C76.7683 126.838 76.9757 126.82 77.1808 126.783C77.3858 126.742 77.5727 126.694 77.7413 126.64V127.856C77.5636 127.934 77.3334 128 77.0509 128.055C76.7683 128.109 76.4744 128.137 76.169 128.137C75.7407 128.137 75.3556 128.066 75.0138 127.925C74.672 127.779 74.4008 127.531 74.2003 127.18C73.9998 126.829 73.8995 126.343 73.8995 125.724V121.656H72.8673V120.938L73.9747 120.371L74.5011 118.751H75.5128V120.433H77.6798V121.656H75.5128V125.703C75.5128 126.086 75.6085 126.371 75.7999 126.558C75.9913 126.744 76.2442 126.838 76.5587 126.838ZM84.3653 125.84C84.3653 126.337 84.2446 126.756 84.003 127.098C83.7615 127.439 83.4083 127.699 82.9435 127.877C82.4832 128.05 81.9181 128.137 81.2481 128.137C80.7195 128.137 80.2638 128.098 79.881 128.021C79.5027 127.948 79.1449 127.834 78.8077 127.679V126.291C79.1677 126.46 79.5711 126.605 80.0177 126.729C80.4688 126.852 80.8949 126.913 81.296 126.913C81.8246 126.913 82.2052 126.831 82.4376 126.667C82.67 126.498 82.7862 126.275 82.7862 125.997C82.7862 125.833 82.7384 125.687 82.6427 125.56C82.5515 125.427 82.3783 125.293 82.1231 125.156C81.8725 125.015 81.5033 124.846 81.0157 124.65C80.5372 124.459 80.1339 124.268 79.8058 124.076C79.4776 123.885 79.2293 123.655 79.0606 123.386C78.892 123.112 78.8077 122.764 78.8077 122.34C78.8077 121.67 79.072 121.162 79.6007 120.815C80.1339 120.465 80.838 120.289 81.713 120.289C82.1778 120.289 82.6153 120.337 83.0255 120.433C83.4402 120.524 83.8458 120.658 84.2423 120.836L83.7364 122.046C83.3946 121.896 83.0505 121.772 82.7042 121.677C82.3624 121.576 82.0138 121.526 81.6583 121.526C81.2436 121.526 80.9268 121.59 80.7081 121.718C80.4939 121.845 80.3868 122.028 80.3868 122.265C80.3868 122.442 80.4392 122.593 80.544 122.716C80.6489 122.839 80.8289 122.962 81.0841 123.085C81.3438 123.208 81.7039 123.361 82.1642 123.543C82.6153 123.716 83.005 123.898 83.3331 124.09C83.6658 124.277 83.921 124.507 84.0987 124.78C84.2765 125.054 84.3653 125.407 84.3653 125.84Z" fill="#1E1E1E"/>
<path opacity="0.2" d="M44.5386 88.68C56.7487 88.68 66.647 87.1578 66.647 85.28C66.647 83.4022 56.7487 81.88 44.5386 81.88C32.3285 81.88 22.4302 83.4022 22.4302 85.28C22.4302 87.1578 32.3285 88.68 44.5386 88.68Z" fill="url(#paint0_radial_538_3841)"/>
<path fill-rule="evenodd" clip-rule="evenodd" d="M64.3359 42.79C64.6479 42.79 64.9015 42.53 64.9015 42.21V15.87C64.9015 7.13 57.9579 0 49.4246 0C40.9304 0 33.9478 7.13 33.9478 15.87V42.21C33.9478 42.53 34.2013 42.79 34.5134 42.79H64.3456H64.3359Z" fill="#D13F4F"/>
<g style="mix-blend-mode:overlay" opacity="0.3">
<path fill-rule="evenodd" clip-rule="evenodd" d="M60.3471 66.7301V18.8501C60.3471 17.7201 59.4694 16.8101 58.3576 16.8101C57.2946 16.8101 56.3682 17.7101 56.3682 18.8501V66.7301C56.3682 67.8601 57.2849 68.7701 58.3576 68.7701C59.4596 68.7701 60.3471 67.8701 60.3471 66.7301Z" fill="white"/>
</g>
<path fill-rule="evenodd" clip-rule="evenodd" d="M64.1409 69.71V42.79H34.6987V69.71C34.6987 78.46 41.34 85.58 49.4247 85.58C57.5386 85.58 64.1409 78.45 64.1409 69.71Z" fill="#D7D8D8"/>
<path fill-rule="evenodd" clip-rule="evenodd" d="M64.1409 69.71V42.79H37.2246V68.5C37.2246 76.79 43.5148 83.62 51.2484 83.62C55.2371 83.62 58.8357 81.81 61.3908 78.91C63.1364 76.31 64.1507 73.14 64.1507 69.71H64.1409Z" fill="#EAEBEB"/>
<path fill-rule="evenodd" clip-rule="evenodd" d="M60.3471 42.79H56.3779V66.73C56.3779 67.86 57.2946 68.77 58.3674 68.77C59.4694 68.77 60.3569 67.87 60.3569 66.73V42.79H60.3471Z" fill="white"/>
<g style="mix-blend-mode:overlay" opacity="0.3">
<path fill-rule="evenodd" clip-rule="evenodd" d="M60.6397 8.94003C60.0156 10.26 58.3187 8.34003 55.7538 7.02003C53.1402 5.74003 50.6436 5.55003 51.2678 4.27003C51.8919 2.95003 54.4665 2.95003 57.0801 4.27003C59.6547 5.55003 61.2346 7.66003 60.6495 8.94003H60.6397Z" fill="white"/>
</g>
<path d="M41.1935 70.26H40.2085V67.54H51.3944V68.68H41.1935V70.26Z" fill="#231F20"/>
<path d="M41.1447 57.67V63.53H45.1432C44.7823 63.26 44.48 62.87 44.2459 62.36C44.0119 61.85 43.8949 61.29 43.8949 60.7C43.8949 59.83 44.0704 59.11 44.4215 58.56C44.7726 58.01 45.2212 57.6 45.777 57.36C46.3329 57.11 46.9278 56.99 47.5617 56.99C48.2931 56.99 48.9465 57.13 49.5317 57.41C50.1168 57.69 50.5849 58.12 50.9263 58.71C51.2676 59.29 51.4431 60.01 51.4431 60.88C51.4431 61.98 51.1603 62.87 50.6044 63.55C50.0485 64.23 49.2976 64.65 48.3517 64.8V63.7C49.0343 63.56 49.5707 63.24 49.9413 62.74C50.3119 62.24 50.5069 61.62 50.5069 60.88C50.5069 59.95 50.2436 59.25 49.7072 58.78C49.1708 58.31 48.4589 58.07 47.5812 58.07C46.7035 58.07 46.0404 58.31 45.5625 58.79C45.0749 59.27 44.8408 59.96 44.8408 60.85C44.8408 61.47 44.9774 62.01 45.2602 62.48C45.543 62.95 45.9233 63.3 46.4012 63.52V64.58H40.2085V57.68H41.1642L41.1447 57.67Z" fill="#231F20"/>
<path d="M51.3943 48.68L46.3523 53.53H51.3943V54.65H40.4912V53.53H45.5917L40.4912 48.68V47.26L45.933 52.49L51.3943 47.21V48.68Z" fill="#231F20"/>
<g style="mix-blend-mode:overlay" opacity="0.47">
<path fill-rule="evenodd" clip-rule="evenodd" d="M39.4969 4.9C42.13 1.96 45.8163 0.09 49.9123 0.01C49.766 0.01 49.6197 0 49.4637 0C40.9694 0 33.9868 7.13 33.9868 15.87V42.21C33.9868 42.53 34.2404 42.79 34.5524 42.79H36.6004V14.58C36.6004 10.98 37.6634 7.63 39.5066 4.9H39.4969Z" fill="#231F20"/>
</g>
<path d="M124.43 111H117.663V109.79L120.254 107.165C120.755 106.655 121.167 106.215 121.491 105.846C121.814 105.472 122.054 105.119 122.209 104.786C122.368 104.453 122.448 104.091 122.448 103.699C122.448 103.216 122.309 102.852 122.031 102.605C121.753 102.355 121.386 102.229 120.93 102.229C120.497 102.229 120.096 102.316 119.727 102.489C119.363 102.658 118.984 102.899 118.592 103.214L117.711 102.154C117.989 101.917 118.285 101.701 118.599 101.505C118.918 101.309 119.274 101.154 119.666 101.04C120.058 100.922 120.504 100.862 121.005 100.862C121.639 100.862 122.186 100.976 122.646 101.204C123.106 101.427 123.46 101.74 123.706 102.141C123.956 102.542 124.082 103.009 124.082 103.542C124.082 104.08 123.975 104.576 123.76 105.032C123.546 105.488 123.241 105.939 122.844 106.386C122.448 106.828 121.976 107.309 121.429 107.828L119.7 109.517V109.592H124.43V111ZM132.442 105.996C132.442 106.803 132.378 107.525 132.251 108.163C132.128 108.797 131.932 109.334 131.663 109.776C131.394 110.218 131.043 110.556 130.61 110.788C130.177 111.021 129.653 111.137 129.038 111.137C128.268 111.137 127.632 110.934 127.13 110.528C126.629 110.118 126.258 109.53 126.016 108.765C125.775 107.994 125.654 107.072 125.654 105.996C125.654 104.921 125.763 104 125.982 103.234C126.205 102.464 126.565 101.874 127.062 101.464C127.559 101.054 128.217 100.849 129.038 100.849C129.812 100.849 130.45 101.054 130.952 101.464C131.458 101.869 131.831 102.457 132.073 103.228C132.319 103.993 132.442 104.916 132.442 105.996ZM127.274 105.996C127.274 106.839 127.329 107.543 127.438 108.108C127.552 108.674 127.739 109.097 127.999 109.38C128.258 109.658 128.605 109.797 129.038 109.797C129.471 109.797 129.817 109.658 130.077 109.38C130.337 109.102 130.523 108.68 130.637 108.115C130.756 107.55 130.815 106.844 130.815 105.996C130.815 105.158 130.758 104.456 130.644 103.891C130.53 103.326 130.343 102.902 130.084 102.619C129.824 102.332 129.475 102.188 129.038 102.188C128.6 102.188 128.252 102.332 127.992 102.619C127.737 102.902 127.552 103.326 127.438 103.891C127.329 104.456 127.274 105.158 127.274 105.996ZM135.826 109.373L135.921 109.53C135.839 109.858 135.735 110.212 135.607 110.59C135.479 110.968 135.34 111.346 135.19 111.725C135.04 112.107 134.887 112.467 134.732 112.805H133.556C133.652 112.436 133.743 112.048 133.83 111.643C133.921 111.242 134.003 110.845 134.076 110.453C134.153 110.057 134.215 109.697 134.26 109.373H135.826ZM144.268 105.996C144.268 106.803 144.204 107.525 144.077 108.163C143.954 108.797 143.758 109.334 143.489 109.776C143.22 110.218 142.869 110.556 142.436 110.788C142.003 111.021 141.479 111.137 140.864 111.137C140.094 111.137 139.458 110.934 138.957 110.528C138.455 110.118 138.084 109.53 137.842 108.765C137.601 107.994 137.48 107.072 137.48 105.996C137.48 104.921 137.589 104 137.808 103.234C138.032 102.464 138.392 101.874 138.888 101.464C139.385 101.054 140.044 100.849 140.864 100.849C141.639 100.849 142.277 101.054 142.778 101.464C143.284 101.869 143.657 102.457 143.899 103.228C144.145 103.993 144.268 104.916 144.268 105.996ZM139.1 105.996C139.1 106.839 139.155 107.543 139.264 108.108C139.378 108.674 139.565 109.097 139.825 109.38C140.085 109.658 140.431 109.797 140.864 109.797C141.297 109.797 141.643 109.658 141.903 109.38C142.163 109.102 142.35 108.68 142.463 108.115C142.582 107.55 142.641 106.844 142.641 105.996C142.641 105.158 142.584 104.456 142.47 103.891C142.356 103.326 142.17 102.902 141.91 102.619C141.65 102.332 141.301 102.188 140.864 102.188C140.426 102.188 140.078 102.332 139.818 102.619C139.563 102.902 139.378 103.326 139.264 103.891C139.155 104.456 139.1 105.158 139.1 105.996ZM152.28 105.996C152.28 106.803 152.216 107.525 152.088 108.163C151.965 108.797 151.769 109.334 151.501 109.776C151.232 110.218 150.881 110.556 150.448 110.788C150.015 111.021 149.491 111.137 148.876 111.137C148.105 111.137 147.47 110.934 146.968 110.528C146.467 110.118 146.096 109.53 145.854 108.765C145.613 107.994 145.492 107.072 145.492 105.996C145.492 104.921 145.601 104 145.82 103.234C146.043 102.464 146.403 101.874 146.9 101.464C147.397 101.054 148.055 100.849 148.876 100.849C149.65 100.849 150.288 101.054 150.79 101.464C151.296 101.869 151.669 102.457 151.911 103.228C152.157 103.993 152.28 104.916 152.28 105.996ZM147.112 105.996C147.112 106.839 147.167 107.543 147.276 108.108C147.39 108.674 147.577 109.097 147.837 109.38C148.096 109.658 148.443 109.797 148.876 109.797C149.309 109.797 149.655 109.658 149.915 109.38C150.174 109.102 150.361 108.68 150.475 108.115C150.594 107.55 150.653 106.844 150.653 105.996C150.653 105.158 150.596 104.456 150.482 103.891C150.368 103.326 150.181 102.902 149.921 102.619C149.662 102.332 149.313 102.188 148.876 102.188C148.438 102.188 148.089 102.332 147.83 102.619C147.574 102.902 147.39 103.326 147.276 103.891C147.167 104.456 147.112 105.158 147.112 105.996ZM160.292 105.996C160.292 106.803 160.228 107.525 160.1 108.163C159.977 108.797 159.781 109.334 159.512 109.776C159.243 110.218 158.893 110.556 158.46 110.788C158.027 111.021 157.503 111.137 156.887 111.137C156.117 111.137 155.481 110.934 154.98 110.528C154.479 110.118 154.107 109.53 153.866 108.765C153.624 107.994 153.504 107.072 153.504 105.996C153.504 104.921 153.613 104 153.832 103.234C154.055 102.464 154.415 101.874 154.912 101.464C155.408 101.054 156.067 100.849 156.887 100.849C157.662 100.849 158.3 101.054 158.801 101.464C159.307 101.869 159.681 102.457 159.922 103.228C160.169 103.993 160.292 104.916 160.292 105.996ZM155.124 105.996C155.124 106.839 155.178 107.543 155.288 108.108C155.402 108.674 155.588 109.097 155.848 109.38C156.108 109.658 156.454 109.797 156.887 109.797C157.32 109.797 157.667 109.658 157.926 109.38C158.186 109.102 158.373 108.68 158.487 108.115C158.605 107.55 158.665 106.844 158.665 105.996C158.665 105.158 158.608 104.456 158.494 103.891C158.38 103.326 158.193 102.902 157.933 102.619C157.673 102.332 157.325 102.188 156.887 102.188C156.45 102.188 156.101 102.332 155.841 102.619C155.586 102.902 155.402 103.326 155.288 103.891C155.178 104.456 155.124 105.158 155.124 105.996ZM103.102 128H101.489V117.363H103.102V128ZM107.005 120.433V128H105.399V120.433H107.005ZM106.212 117.534C106.459 117.534 106.671 117.6 106.848 117.732C107.031 117.865 107.122 118.092 107.122 118.416C107.122 118.735 107.031 118.963 106.848 119.1C106.671 119.232 106.459 119.298 106.212 119.298C105.957 119.298 105.741 119.232 105.563 119.1C105.39 118.963 105.303 118.735 105.303 118.416C105.303 118.092 105.39 117.865 105.563 117.732C105.741 117.6 105.957 117.534 106.212 117.534ZM113.192 120.289C114.09 120.289 114.81 120.617 115.352 121.273C115.899 121.93 116.172 122.905 116.172 124.199C116.172 125.056 116.045 125.778 115.79 126.366C115.539 126.95 115.186 127.392 114.73 127.692C114.279 127.989 113.753 128.137 113.151 128.137C112.768 128.137 112.435 128.087 112.153 127.986C111.87 127.886 111.629 127.756 111.428 127.597C111.228 127.433 111.059 127.255 110.922 127.063H110.827C110.85 127.246 110.87 127.449 110.888 127.672C110.911 127.891 110.922 128.091 110.922 128.273V131.356H109.309V120.433H110.622L110.847 121.479H110.922C111.064 121.264 111.235 121.066 111.435 120.884C111.64 120.701 111.886 120.558 112.173 120.453C112.465 120.344 112.805 120.289 113.192 120.289ZM112.761 121.602C112.319 121.602 111.964 121.69 111.695 121.868C111.431 122.041 111.237 122.303 111.114 122.654C110.995 123.005 110.932 123.445 110.922 123.974V124.199C110.922 124.76 110.979 125.236 111.093 125.628C111.212 126.015 111.406 126.312 111.674 126.517C111.948 126.717 112.317 126.817 112.782 126.817C113.174 126.817 113.497 126.71 113.753 126.496C114.012 126.282 114.206 125.977 114.334 125.58C114.461 125.184 114.525 124.716 114.525 124.179C114.525 123.363 114.379 122.729 114.087 122.278C113.8 121.827 113.358 121.602 112.761 121.602ZM120.999 120.289C121.956 120.289 122.678 120.501 123.166 120.925C123.658 121.349 123.904 122.009 123.904 122.907V128H122.762L122.455 126.927H122.4C122.186 127.2 121.965 127.426 121.737 127.604C121.509 127.781 121.245 127.913 120.944 128C120.648 128.091 120.285 128.137 119.857 128.137C119.406 128.137 119.003 128.055 118.647 127.891C118.292 127.722 118.011 127.467 117.806 127.125C117.601 126.783 117.499 126.35 117.499 125.826C117.499 125.047 117.788 124.461 118.367 124.069C118.95 123.677 119.83 123.461 121.005 123.42L122.318 123.372V122.976C122.318 122.451 122.195 122.078 121.949 121.854C121.707 121.631 121.365 121.52 120.923 121.52C120.545 121.52 120.178 121.574 119.823 121.684C119.467 121.793 119.121 121.927 118.784 122.087L118.264 120.952C118.633 120.756 119.053 120.597 119.522 120.474C119.996 120.351 120.488 120.289 120.999 120.289ZM122.311 124.384L121.334 124.418C120.532 124.445 119.969 124.582 119.645 124.828C119.322 125.074 119.16 125.411 119.16 125.84C119.16 126.214 119.271 126.487 119.495 126.66C119.718 126.829 120.012 126.913 120.377 126.913C120.933 126.913 121.393 126.756 121.757 126.441C122.127 126.122 122.311 125.655 122.311 125.04V124.384ZM131.239 125.84C131.239 126.337 131.118 126.756 130.877 127.098C130.635 127.439 130.282 127.699 129.817 127.877C129.357 128.05 128.792 128.137 128.122 128.137C127.593 128.137 127.137 128.098 126.754 128.021C126.376 127.948 126.018 127.834 125.681 127.679V126.291C126.041 126.46 126.445 126.605 126.891 126.729C127.342 126.852 127.768 126.913 128.17 126.913C128.698 126.913 129.079 126.831 129.311 126.667C129.544 126.498 129.66 126.275 129.66 125.997C129.66 125.833 129.612 125.687 129.516 125.56C129.425 125.427 129.252 125.293 128.997 125.156C128.746 125.015 128.377 124.846 127.889 124.65C127.411 124.459 127.007 124.268 126.679 124.076C126.351 123.885 126.103 123.655 125.934 123.386C125.766 123.112 125.681 122.764 125.681 122.34C125.681 121.67 125.946 121.162 126.474 120.815C127.007 120.465 127.712 120.289 128.587 120.289C129.051 120.289 129.489 120.337 129.899 120.433C130.314 120.524 130.719 120.658 131.116 120.836L130.61 122.046C130.268 121.896 129.924 121.772 129.578 121.677C129.236 121.576 128.887 121.526 128.532 121.526C128.117 121.526 127.8 121.59 127.582 121.718C127.367 121.845 127.26 122.028 127.26 122.265C127.26 122.442 127.313 122.593 127.418 122.716C127.522 122.839 127.702 122.962 127.958 123.085C128.217 123.208 128.577 123.361 129.038 123.543C129.489 123.716 129.879 123.898 130.207 124.09C130.539 124.277 130.795 124.507 130.972 124.78C131.15 125.054 131.239 125.407 131.239 125.84ZM135.99 120.289C136.664 120.289 137.243 120.428 137.726 120.706C138.209 120.984 138.581 121.378 138.84 121.889C139.1 122.399 139.23 123.01 139.23 123.721V124.582H134.178C134.197 125.316 134.393 125.881 134.766 126.277C135.144 126.674 135.673 126.872 136.352 126.872C136.835 126.872 137.268 126.826 137.651 126.735C138.038 126.64 138.437 126.501 138.847 126.318V127.624C138.469 127.802 138.084 127.932 137.692 128.014C137.3 128.096 136.831 128.137 136.284 128.137C135.541 128.137 134.887 127.993 134.322 127.706C133.761 127.414 133.322 126.981 133.003 126.407C132.688 125.833 132.531 125.12 132.531 124.268C132.531 123.42 132.674 122.7 132.962 122.107C133.249 121.515 133.652 121.064 134.171 120.754C134.691 120.444 135.297 120.289 135.99 120.289ZM135.99 121.499C135.484 121.499 135.074 121.663 134.759 121.991C134.449 122.319 134.267 122.8 134.212 123.434H137.658C137.653 123.055 137.589 122.72 137.466 122.429C137.348 122.137 137.166 121.909 136.92 121.745C136.678 121.581 136.368 121.499 135.99 121.499ZM151.275 120.433V128H150.01L149.792 126.981H149.703C149.543 127.241 149.34 127.458 149.094 127.631C148.848 127.799 148.575 127.925 148.274 128.007C147.973 128.093 147.657 128.137 147.324 128.137C146.754 128.137 146.267 128.041 145.861 127.85C145.46 127.654 145.152 127.353 144.938 126.947C144.724 126.542 144.617 126.018 144.617 125.375V120.433H146.23V125.074C146.23 125.662 146.349 126.102 146.586 126.394C146.827 126.685 147.201 126.831 147.707 126.831C148.194 126.831 148.582 126.731 148.869 126.53C149.156 126.33 149.359 126.034 149.477 125.642C149.6 125.25 149.662 124.769 149.662 124.199V120.433H151.275ZM157.523 120.289C158.375 120.289 159.038 120.51 159.512 120.952C159.991 121.39 160.23 122.094 160.23 123.064V128H158.624V123.365C158.624 122.777 158.503 122.338 158.261 122.046C158.02 121.75 157.646 121.602 157.14 121.602C156.407 121.602 155.896 121.827 155.609 122.278C155.326 122.729 155.185 123.383 155.185 124.24V128H153.579V120.433H154.83L155.055 121.458H155.144C155.308 121.194 155.511 120.977 155.753 120.809C155.999 120.635 156.272 120.506 156.573 120.419C156.878 120.332 157.195 120.289 157.523 120.289ZM164.086 120.433V128H162.479V120.433H164.086ZM163.293 117.534C163.539 117.534 163.751 117.6 163.928 117.732C164.111 117.865 164.202 118.092 164.202 118.416C164.202 118.735 164.111 118.963 163.928 119.1C163.751 119.232 163.539 119.298 163.293 119.298C163.037 119.298 162.821 119.232 162.643 119.1C162.47 118.963 162.383 118.735 162.383 118.416C162.383 118.092 162.47 117.865 162.643 117.732C162.821 117.6 163.037 117.534 163.293 117.534ZM169.206 126.838C169.415 126.838 169.623 126.82 169.828 126.783C170.033 126.742 170.22 126.694 170.388 126.64V127.856C170.211 127.934 169.98 128 169.698 128.055C169.415 128.109 169.121 128.137 168.816 128.137C168.388 128.137 168.003 128.066 167.661 127.925C167.319 127.779 167.048 127.531 166.847 127.18C166.647 126.829 166.546 126.343 166.546 125.724V121.656H165.514V120.938L166.622 120.371L167.148 118.751H168.16V120.433H170.327V121.656H168.16V125.703C168.16 126.086 168.255 126.371 168.447 126.558C168.638 126.744 168.891 126.838 169.206 126.838ZM177.012 125.84C177.012 126.337 176.892 126.756 176.65 127.098C176.408 127.439 176.055 127.699 175.59 127.877C175.13 128.05 174.565 128.137 173.895 128.137C173.366 128.137 172.911 128.098 172.528 128.021C172.15 127.948 171.792 127.834 171.455 127.679V126.291C171.815 126.46 172.218 126.605 172.665 126.729C173.116 126.852 173.542 126.913 173.943 126.913C174.472 126.913 174.852 126.831 175.085 126.667C175.317 126.498 175.433 126.275 175.433 125.997C175.433 125.833 175.385 125.687 175.29 125.56C175.198 125.427 175.025 125.293 174.77 125.156C174.519 125.015 174.15 124.846 173.663 124.65C173.184 124.459 172.781 124.268 172.453 124.076C172.125 123.885 171.876 123.655 171.708 123.386C171.539 123.112 171.455 122.764 171.455 122.34C171.455 121.67 171.719 121.162 172.248 120.815C172.781 120.465 173.485 120.289 174.36 120.289C174.825 120.289 175.262 120.337 175.672 120.433C176.087 120.524 176.493 120.658 176.889 120.836L176.383 122.046C176.042 121.896 175.698 121.772 175.351 121.677C175.009 121.576 174.661 121.526 174.305 121.526C173.891 121.526 173.574 121.59 173.355 121.718C173.141 121.845 173.034 122.028 173.034 122.265C173.034 122.442 173.086 122.593 173.191 122.716C173.296 122.839 173.476 122.962 173.731 123.085C173.991 123.208 174.351 123.361 174.811 123.543C175.262 123.716 175.652 123.898 175.98 124.09C176.313 124.277 176.568 124.507 176.746 124.78C176.923 125.054 177.012 125.407 177.012 125.84Z" fill="#1E1E1E"/>
<path opacity="0.2" d="M137.186 88.68C149.396 88.68 159.294 87.1578 159.294 85.28C159.294 83.4022 149.396 81.88 137.186 81.88C124.975 81.88 115.077 83.4022 115.077 85.28C115.077 87.1578 124.975 88.68 137.186 88.68Z" fill="url(#paint1_radial_538_3841)"/>
<path fill-rule="evenodd" clip-rule="evenodd" d="M156.983 42.79C157.295 42.79 157.548 42.53 157.548 42.21V15.87C157.548 7.13 150.605 0 142.072 0C133.577 0 126.595 7.13 126.595 15.87V42.21C126.595 42.53 126.848 42.79 127.16 42.79H156.993H156.983Z" fill="#0D7572"/>
<g style="mix-blend-mode:overlay" opacity="0.3">
<path fill-rule="evenodd" clip-rule="evenodd" d="M152.994 66.7301V18.8501C152.994 17.7201 152.116 16.8101 151.005 16.8101C149.942 16.8101 149.015 17.7101 149.015 18.8501V66.7301C149.015 67.8601 149.932 68.7701 151.005 68.7701C152.107 68.7701 152.994 67.8701 152.994 66.7301Z" fill="white"/>
</g>
<path fill-rule="evenodd" clip-rule="evenodd" d="M156.788 69.71V42.79H127.346V69.71C127.346 78.46 133.987 85.58 142.072 85.58C150.186 85.58 156.788 78.45 156.788 69.71Z" fill="#D7D8D8"/>
<path fill-rule="evenodd" clip-rule="evenodd" d="M156.787 69.71V42.79H129.871V68.5C129.871 76.79 136.161 83.62 143.895 83.62C147.884 83.62 151.482 81.81 154.037 78.91C155.783 76.31 156.797 73.14 156.797 69.71H156.787Z" fill="#EAEBEB"/>
<path fill-rule="evenodd" clip-rule="evenodd" d="M152.994 42.79H149.025V66.73C149.025 67.86 149.942 68.77 151.014 68.77C152.116 68.77 153.004 67.87 153.004 66.73V42.79H152.994Z" fill="white"/>
<g style="mix-blend-mode:overlay" opacity="0.3">
<path fill-rule="evenodd" clip-rule="evenodd" d="M153.287 8.94003C152.663 10.26 150.966 8.34003 148.401 7.02003C145.787 5.74003 143.291 5.55003 143.915 4.27003C144.539 2.95003 147.113 2.95003 149.727 4.27003C152.302 5.55003 153.882 7.66003 153.296 8.94003H153.287Z" fill="white"/>
</g>
<path d="M139.321 69.92C138.18 68.85 137.069 68.31 135.976 68.31C135.255 68.31 134.679 68.49 134.25 68.86C133.821 69.23 133.607 69.83 133.607 70.66C133.607 71.49 133.85 72.1 134.348 72.54C134.845 72.98 135.499 73.23 136.318 73.28V74.37C135.167 74.31 134.27 73.94 133.626 73.27C132.982 72.6 132.67 71.73 132.67 70.65C132.67 69.57 132.953 68.78 133.519 68.14C134.084 67.5 134.894 67.18 135.928 67.18C137.186 67.18 138.405 67.72 139.585 68.79C140.765 69.86 141.916 71.18 143.037 72.75V66.83H143.954V74.46H143.174C141.74 72.5 140.453 70.98 139.312 69.91L139.321 69.92Z" fill="#231F20"/>
<path d="M134.182 64.0999C133.197 63.5299 132.7 62.5199 132.7 61.0599C132.7 59.5999 133.197 58.5899 134.182 58.0199C135.167 57.4499 136.562 57.1699 138.346 57.1699C140.131 57.1699 141.574 57.4499 142.579 58.0199C143.583 58.5899 144.081 59.5999 144.081 61.0599C144.081 62.5199 143.583 63.5499 142.579 64.1099C141.584 64.6699 140.17 64.9499 138.346 64.9499C136.523 64.9499 135.167 64.6699 134.182 64.0999ZM135.898 58.4799C135.235 58.6199 134.699 58.8899 134.289 59.2999C133.88 59.7099 133.685 60.2899 133.685 61.0599C133.685 61.8299 133.889 62.4099 134.289 62.8199C134.689 63.2299 135.235 63.4999 135.898 63.6399C136.562 63.7799 137.381 63.8499 138.346 63.8499C139.312 63.8499 140.18 63.7799 140.853 63.6399C141.526 63.4999 142.062 63.2299 142.471 62.8199C142.881 62.4099 143.076 61.8299 143.076 61.0599C143.076 60.2899 142.871 59.7099 142.471 59.2999C142.062 58.8999 141.526 58.6199 140.853 58.4799C140.18 58.3399 139.351 58.2699 138.346 58.2699C137.342 58.2699 136.562 58.3399 135.898 58.4799Z" fill="#231F20"/>
<path d="M144.042 48.68L139 53.53H144.042V54.65H133.139V53.53H138.239L133.139 48.68V47.26L138.58 52.49L144.042 47.21V48.68Z" fill="#231F20"/>
<g style="mix-blend-mode:overlay" opacity="0.47">
<path fill-rule="evenodd" clip-rule="evenodd" d="M132.144 4.9C134.777 1.96 138.463 0.09 142.559 0.01C142.413 0.01 142.267 0 142.111 0C133.616 0 126.634 7.13 126.634 15.87V42.21C126.634 42.53 126.887 42.79 127.199 42.79H129.247V14.58C129.247 10.98 130.31 7.63 132.154 4.9H132.144Z" fill="#231F20"/>
</g>
<path d="M217.077 111H210.309V109.79L212.9 107.165C213.401 106.655 213.814 106.215 214.137 105.846C214.461 105.472 214.7 105.119 214.855 104.786C215.015 104.453 215.094 104.091 215.094 103.699C215.094 103.216 214.955 102.852 214.677 102.605C214.399 102.355 214.032 102.229 213.577 102.229C213.144 102.229 212.743 102.316 212.374 102.489C212.009 102.658 211.631 102.899 211.239 103.214L210.357 102.154C210.635 101.917 210.931 101.701 211.246 101.505C211.565 101.309 211.92 101.154 212.312 101.04C212.704 100.922 213.151 100.862 213.652 100.862C214.285 100.862 214.832 100.976 215.293 101.204C215.753 101.427 216.106 101.74 216.352 102.141C216.603 102.542 216.728 103.009 216.728 103.542C216.728 104.08 216.621 104.576 216.407 105.032C216.193 105.488 215.887 105.939 215.491 106.386C215.094 106.828 214.623 107.309 214.076 107.828L212.346 109.517V109.592H217.077V111ZM221.718 104.752C222.361 104.752 222.926 104.868 223.414 105.101C223.906 105.328 224.289 105.666 224.562 106.112C224.836 106.554 224.972 107.097 224.972 107.739C224.972 108.441 224.824 109.047 224.528 109.558C224.232 110.063 223.796 110.453 223.222 110.727C222.648 111 221.949 111.137 221.124 111.137C220.6 111.137 220.11 111.091 219.654 111C219.203 110.909 218.813 110.772 218.485 110.59V109.141C218.827 109.332 219.237 109.489 219.715 109.612C220.194 109.731 220.652 109.79 221.089 109.79C221.554 109.79 221.953 109.722 222.286 109.585C222.618 109.448 222.874 109.239 223.051 108.956C223.234 108.674 223.325 108.316 223.325 107.883C223.325 107.309 223.14 106.867 222.771 106.557C222.407 106.242 221.835 106.085 221.055 106.085C220.782 106.085 220.49 106.11 220.18 106.16C219.875 106.206 219.62 106.256 219.415 106.311L218.711 105.894L219.087 101.006H224.282V102.421H220.502L220.283 104.909C220.447 104.873 220.643 104.839 220.871 104.807C221.099 104.77 221.381 104.752 221.718 104.752ZM228.472 109.373L228.568 109.53C228.486 109.858 228.381 110.212 228.254 110.59C228.126 110.968 227.987 111.346 227.837 111.725C227.686 112.107 227.533 112.467 227.379 112.805H226.203C226.298 112.436 226.39 112.048 226.476 111.643C226.567 111.242 226.649 110.845 226.722 110.453C226.8 110.057 226.861 109.697 226.907 109.373H228.472ZM236.915 105.996C236.915 106.803 236.851 107.525 236.723 108.163C236.6 108.797 236.404 109.334 236.135 109.776C235.866 110.218 235.516 110.556 235.083 110.788C234.65 111.021 234.126 111.137 233.51 111.137C232.74 111.137 232.104 110.934 231.603 110.528C231.102 110.118 230.73 109.53 230.489 108.765C230.247 107.994 230.127 107.072 230.127 105.996C230.127 104.921 230.236 104 230.455 103.234C230.678 102.464 231.038 101.874 231.535 101.464C232.032 101.054 232.69 100.849 233.51 100.849C234.285 100.849 234.923 101.054 235.424 101.464C235.93 101.869 236.304 102.457 236.546 103.228C236.792 103.993 236.915 104.916 236.915 105.996ZM231.747 105.996C231.747 106.839 231.801 107.543 231.911 108.108C232.025 108.674 232.212 109.097 232.471 109.38C232.731 109.658 233.077 109.797 233.51 109.797C233.943 109.797 234.29 109.658 234.549 109.38C234.809 109.102 234.996 108.68 235.11 108.115C235.228 107.55 235.288 106.844 235.288 105.996C235.288 105.158 235.231 104.456 235.117 103.891C235.003 103.326 234.816 102.902 234.556 102.619C234.296 102.332 233.948 102.188 233.51 102.188C233.073 102.188 232.724 102.332 232.464 102.619C232.209 102.902 232.025 103.326 231.911 103.891C231.801 104.456 231.747 105.158 231.747 105.996ZM244.926 105.996C244.926 106.803 244.863 107.525 244.735 108.163C244.612 108.797 244.416 109.334 244.147 109.776C243.878 110.218 243.527 110.556 243.094 110.788C242.661 111.021 242.137 111.137 241.522 111.137C240.752 111.137 240.116 110.934 239.615 110.528C239.114 110.118 238.742 109.53 238.501 108.765C238.259 107.994 238.138 107.072 238.138 105.996C238.138 104.921 238.248 104 238.466 103.234C238.69 102.464 239.05 101.874 239.546 101.464C240.043 101.054 240.702 100.849 241.522 100.849C242.297 100.849 242.935 101.054 243.436 101.464C243.942 101.869 244.316 102.457 244.557 103.228C244.803 103.993 244.926 104.916 244.926 105.996ZM239.758 105.996C239.758 106.839 239.813 107.543 239.922 108.108C240.036 108.674 240.223 109.097 240.483 109.38C240.743 109.658 241.089 109.797 241.522 109.797C241.955 109.797 242.301 109.658 242.561 109.38C242.821 109.102 243.008 108.68 243.122 108.115C243.24 107.55 243.299 106.844 243.299 105.996C243.299 105.158 243.242 104.456 243.129 103.891C243.015 103.326 242.828 102.902 242.568 102.619C242.308 102.332 241.96 102.188 241.522 102.188C241.085 102.188 240.736 102.332 240.476 102.619C240.221 102.902 240.036 103.326 239.922 103.891C239.813 104.456 239.758 105.158 239.758 105.996ZM252.938 105.996C252.938 106.803 252.874 107.525 252.747 108.163C252.624 108.797 252.428 109.334 252.159 109.776C251.89 110.218 251.539 110.556 251.106 110.788C250.673 111.021 250.149 111.137 249.534 111.137C248.764 111.137 248.128 110.934 247.627 110.528C247.125 110.118 246.754 109.53 246.512 108.765C246.271 107.994 246.15 107.072 246.15 105.996C246.15 104.921 246.259 104 246.478 103.234C246.701 102.464 247.061 101.874 247.558 101.464C248.055 101.054 248.713 100.849 249.534 100.849C250.309 100.849 250.947 101.054 251.448 101.464C251.954 101.869 252.327 102.457 252.569 103.228C252.815 103.993 252.938 104.916 252.938 105.996ZM247.77 105.996C247.77 106.839 247.825 107.543 247.934 108.108C248.048 108.674 248.235 109.097 248.495 109.38C248.754 109.658 249.101 109.797 249.534 109.797C249.967 109.797 250.313 109.658 250.573 109.38C250.833 109.102 251.019 108.68 251.133 108.115C251.252 107.55 251.311 106.844 251.311 105.996C251.311 105.158 251.254 104.456 251.14 103.891C251.026 103.326 250.839 102.902 250.58 102.619C250.32 102.332 249.971 102.188 249.534 102.188C249.096 102.188 248.748 102.332 248.488 102.619C248.233 102.902 248.048 103.326 247.934 103.891C247.825 104.456 247.77 105.158 247.77 105.996ZM195.749 128H194.135V117.363H195.749V128ZM199.652 120.433V128H198.046V120.433H199.652ZM198.859 117.534C199.105 117.534 199.317 117.6 199.495 117.732C199.677 117.865 199.768 118.092 199.768 118.416C199.768 118.735 199.677 118.963 199.495 119.1C199.317 119.232 199.105 119.298 198.859 119.298C198.604 119.298 198.387 119.232 198.21 119.1C198.036 118.963 197.95 118.735 197.95 118.416C197.95 118.092 198.036 117.865 198.21 117.732C198.387 117.6 198.604 117.534 198.859 117.534ZM205.838 120.289C206.736 120.289 207.456 120.617 207.999 121.273C208.546 121.93 208.819 122.905 208.819 124.199C208.819 125.056 208.691 125.778 208.436 126.366C208.185 126.95 207.832 127.392 207.377 127.692C206.925 127.989 206.399 128.137 205.797 128.137C205.415 128.137 205.082 128.087 204.799 127.986C204.517 127.886 204.275 127.756 204.075 127.597C203.874 127.433 203.706 127.255 203.569 127.063H203.473C203.496 127.246 203.517 127.449 203.535 127.672C203.558 127.891 203.569 128.091 203.569 128.273V131.356H201.956V120.433H203.268L203.494 121.479H203.569C203.71 121.264 203.881 121.066 204.082 120.884C204.287 120.701 204.533 120.558 204.82 120.453C205.112 120.344 205.451 120.289 205.838 120.289ZM205.408 121.602C204.966 121.602 204.61 121.69 204.341 121.868C204.077 122.041 203.883 122.303 203.76 122.654C203.642 123.005 203.578 123.445 203.569 123.974V124.199C203.569 124.76 203.626 125.236 203.74 125.628C203.858 126.015 204.052 126.312 204.321 126.517C204.594 126.717 204.963 126.817 205.428 126.817C205.82 126.817 206.144 126.71 206.399 126.496C206.659 126.282 206.852 125.977 206.98 125.58C207.108 125.184 207.171 124.716 207.171 124.179C207.171 123.363 207.026 122.729 206.734 122.278C206.447 121.827 206.005 121.602 205.408 121.602ZM213.645 120.289C214.602 120.289 215.324 120.501 215.812 120.925C216.304 121.349 216.55 122.009 216.55 122.907V128H215.409L215.101 126.927H215.046C214.832 127.2 214.611 127.426 214.383 127.604C214.156 127.781 213.891 127.913 213.59 128C213.294 128.091 212.932 128.137 212.504 128.137C212.052 128.137 211.649 128.055 211.294 127.891C210.938 127.722 210.658 127.467 210.453 127.125C210.248 126.783 210.145 126.35 210.145 125.826C210.145 125.047 210.435 124.461 211.013 124.069C211.597 123.677 212.476 123.461 213.652 123.42L214.964 123.372V122.976C214.964 122.451 214.841 122.078 214.595 121.854C214.354 121.631 214.012 121.52 213.57 121.52C213.192 121.52 212.825 121.574 212.469 121.684C212.114 121.793 211.768 121.927 211.43 122.087L210.911 120.952C211.28 120.756 211.699 120.597 212.169 120.474C212.643 120.351 213.135 120.289 213.645 120.289ZM214.958 124.384L213.98 124.418C213.178 124.445 212.615 124.582 212.292 124.828C211.968 125.074 211.806 125.411 211.806 125.84C211.806 126.214 211.918 126.487 212.141 126.66C212.365 126.829 212.658 126.913 213.023 126.913C213.579 126.913 214.039 126.756 214.404 126.441C214.773 126.122 214.958 125.655 214.958 125.04V124.384ZM223.885 125.84C223.885 126.337 223.765 126.756 223.523 127.098C223.282 127.439 222.928 127.699 222.463 127.877C222.003 128.05 221.438 128.137 220.768 128.137C220.24 128.137 219.784 128.098 219.401 128.021C219.023 127.948 218.665 127.834 218.328 127.679V126.291C218.688 126.46 219.091 126.605 219.538 126.729C219.989 126.852 220.415 126.913 220.816 126.913C221.345 126.913 221.725 126.831 221.958 126.667C222.19 126.498 222.306 126.275 222.306 125.997C222.306 125.833 222.258 125.687 222.163 125.56C222.072 125.427 221.898 125.293 221.643 125.156C221.393 125.015 221.023 124.846 220.536 124.65C220.057 124.459 219.654 124.268 219.326 124.076C218.998 123.885 218.749 123.655 218.581 123.386C218.412 123.112 218.328 122.764 218.328 122.34C218.328 121.67 218.592 121.162 219.121 120.815C219.654 120.465 220.358 120.289 221.233 120.289C221.698 120.289 222.135 120.337 222.546 120.433C222.96 120.524 223.366 120.658 223.762 120.836L223.256 122.046C222.915 121.896 222.571 121.772 222.224 121.677C221.882 121.576 221.534 121.526 221.178 121.526C220.764 121.526 220.447 121.59 220.228 121.718C220.014 121.845 219.907 122.028 219.907 122.265C219.907 122.442 219.959 122.593 220.064 122.716C220.169 122.839 220.349 122.962 220.604 123.085C220.864 123.208 221.224 123.361 221.684 123.543C222.135 123.716 222.525 123.898 222.853 124.09C223.186 124.277 223.441 124.507 223.619 124.78C223.796 125.054 223.885 125.407 223.885 125.84ZM228.636 120.289C229.311 120.289 229.89 120.428 230.373 120.706C230.856 120.984 231.227 121.378 231.487 121.889C231.747 122.399 231.877 123.01 231.877 123.721V124.582H226.825C226.843 125.316 227.039 125.881 227.413 126.277C227.791 126.674 228.32 126.872 228.999 126.872C229.482 126.872 229.915 126.826 230.297 126.735C230.685 126.64 231.084 126.501 231.494 126.318V127.624C231.115 127.802 230.73 127.932 230.338 128.014C229.947 128.096 229.477 128.137 228.93 128.137C228.187 128.137 227.533 127.993 226.968 127.706C226.408 127.414 225.968 126.981 225.649 126.407C225.335 125.833 225.177 125.12 225.177 124.268C225.177 123.42 225.321 122.7 225.608 122.107C225.895 121.515 226.298 121.064 226.818 120.754C227.337 120.444 227.944 120.289 228.636 120.289ZM228.636 121.499C228.13 121.499 227.72 121.663 227.406 121.991C227.096 122.319 226.914 122.8 226.859 123.434H230.304C230.3 123.055 230.236 122.72 230.113 122.429C229.994 122.137 229.812 121.909 229.566 121.745C229.324 121.581 229.015 121.499 228.636 121.499ZM243.921 120.433V128H242.657L242.438 126.981H242.349C242.19 127.241 241.987 127.458 241.741 127.631C241.495 127.799 241.221 127.925 240.921 128.007C240.62 128.093 240.303 128.137 239.97 128.137C239.401 128.137 238.913 128.041 238.507 127.85C238.106 127.654 237.799 127.353 237.585 126.947C237.37 126.542 237.263 126.018 237.263 125.375V120.433H238.877V125.074C238.877 125.662 238.995 126.102 239.232 126.394C239.474 126.685 239.847 126.831 240.353 126.831C240.841 126.831 241.228 126.731 241.515 126.53C241.802 126.33 242.005 126.034 242.124 125.642C242.247 125.25 242.308 124.769 242.308 124.199V120.433H243.921ZM250.17 120.289C251.022 120.289 251.685 120.51 252.159 120.952C252.637 121.39 252.877 122.094 252.877 123.064V128H251.27V123.365C251.27 122.777 251.149 122.338 250.908 122.046C250.666 121.75 250.293 121.602 249.787 121.602C249.053 121.602 248.543 121.827 248.255 122.278C247.973 122.729 247.832 123.383 247.832 124.24V128H246.225V120.433H247.476L247.702 121.458H247.791C247.955 121.194 248.157 120.977 248.399 120.809C248.645 120.635 248.919 120.506 249.219 120.419C249.525 120.332 249.841 120.289 250.17 120.289ZM256.732 120.433V128H255.126V120.433H256.732ZM255.939 117.534C256.185 117.534 256.397 117.6 256.575 117.732C256.757 117.865 256.848 118.092 256.848 118.416C256.848 118.735 256.757 118.963 256.575 119.1C256.397 119.232 256.185 119.298 255.939 119.298C255.684 119.298 255.467 119.232 255.29 119.1C255.116 118.963 255.03 118.735 255.03 118.416C255.03 118.092 255.116 117.865 255.29 117.732C255.467 117.6 255.684 117.534 255.939 117.534ZM261.852 126.838C262.062 126.838 262.269 126.82 262.474 126.783C262.679 126.742 262.866 126.694 263.035 126.64V127.856C262.857 127.934 262.627 128 262.344 128.055C262.062 128.109 261.768 128.137 261.462 128.137C261.034 128.137 260.649 128.066 260.307 127.925C259.965 127.779 259.694 127.531 259.494 127.18C259.293 126.829 259.193 126.343 259.193 125.724V121.656H258.161V120.938L259.268 120.371L259.795 118.751H260.806V120.433H262.973V121.656H260.806V125.703C260.806 126.086 260.902 126.371 261.093 126.558C261.285 126.744 261.538 126.838 261.852 126.838ZM269.659 125.84C269.659 126.337 269.538 126.756 269.296 127.098C269.055 127.439 268.702 127.699 268.237 127.877C267.777 128.05 267.212 128.137 266.542 128.137C266.013 128.137 265.557 128.098 265.174 128.021C264.796 127.948 264.438 127.834 264.101 127.679V126.291C264.461 126.46 264.865 126.605 265.311 126.729C265.762 126.852 266.188 126.913 266.589 126.913C267.118 126.913 267.499 126.831 267.731 126.667C267.963 126.498 268.08 126.275 268.08 125.997C268.08 125.833 268.032 125.687 267.936 125.56C267.845 125.427 267.672 125.293 267.417 125.156C267.166 125.015 266.797 124.846 266.309 124.65C265.831 124.459 265.427 124.268 265.099 124.076C264.771 123.885 264.523 123.655 264.354 123.386C264.185 123.112 264.101 122.764 264.101 122.34C264.101 121.67 264.365 121.162 264.894 120.815C265.427 120.465 266.131 120.289 267.006 120.289C267.471 120.289 267.909 120.337 268.319 120.433C268.734 120.524 269.139 120.658 269.536 120.836L269.03 122.046C268.688 121.896 268.344 121.772 267.998 121.677C267.656 121.576 267.307 121.526 266.952 121.526C266.537 121.526 266.22 121.59 266.002 121.718C265.787 121.845 265.68 122.028 265.68 122.265C265.68 122.442 265.733 122.593 265.837 122.716C265.942 122.839 266.122 122.962 266.378 123.085C266.637 123.208 266.997 123.361 267.458 123.543C267.909 123.716 268.298 123.898 268.627 124.09C268.959 124.277 269.214 124.507 269.392 124.78C269.57 125.054 269.659 125.407 269.659 125.84Z" fill="#1E1E1E"/>
<path opacity="0.2" d="M229.832 88.68C242.042 88.68 251.94 87.1578 251.94 85.28C251.94 83.4022 242.042 81.88 229.832 81.88C217.622 81.88 207.724 83.4022 207.724 85.28C207.724 87.1578 217.622 88.68 229.832 88.68Z" fill="url(#paint2_radial_538_3841)"/>
<path fill-rule="evenodd" clip-rule="evenodd" d="M249.629 42.79C249.941 42.79 250.195 42.53 250.195 42.21V15.87C250.195 7.13 243.251 0 234.718 0C226.224 0 219.241 7.13 219.241 15.87V42.21C219.241 42.53 219.495 42.79 219.807 42.79H249.639H249.629Z" fill="#2B4F72"/>
<g style="mix-blend-mode:overlay" opacity="0.3">
<path fill-rule="evenodd" clip-rule="evenodd" d="M245.641 66.7301V18.8501C245.641 17.7201 244.763 16.8101 243.651 16.8101C242.588 16.8101 241.662 17.7101 241.662 18.8501V66.7301C241.662 67.8601 242.578 68.7701 243.651 68.7701C244.753 68.7701 245.641 67.8701 245.641 66.7301Z" fill="white"/>
</g>
<path fill-rule="evenodd" clip-rule="evenodd" d="M249.434 69.71V42.79H219.992V69.71C219.992 78.46 226.633 85.58 234.718 85.58C242.832 85.58 249.434 78.45 249.434 69.71Z" fill="#D7D8D8"/>
<path fill-rule="evenodd" clip-rule="evenodd" d="M249.434 69.71V42.79H222.518V68.5C222.518 76.79 228.808 83.62 236.541 83.62C240.53 83.62 244.129 81.81 246.684 78.91C248.429 76.31 249.444 73.14 249.444 69.71H249.434Z" fill="#EAEBEB"/>
<path fill-rule="evenodd" clip-rule="evenodd" d="M245.641 42.79H241.671V66.73C241.671 67.86 242.588 68.77 243.661 68.77C244.763 68.77 245.65 67.87 245.65 66.73V42.79H245.641Z" fill="white"/>
<g style="mix-blend-mode:overlay" opacity="0.3">
<path fill-rule="evenodd" clip-rule="evenodd" d="M245.933 8.94003C245.309 10.26 243.612 8.34003 241.047 7.02003C238.434 5.74003 235.937 5.55003 236.561 4.27003C237.185 2.95003 239.76 2.95003 242.374 4.27003C244.948 5.55003 246.528 7.66003 245.943 8.94003H245.933Z" fill="white"/>
</g>
<path d="M231.968 69.87C230.827 68.8 229.715 68.26 228.623 68.26C227.901 68.26 227.326 68.44 226.897 68.81C226.468 69.18 226.253 69.78 226.253 70.61C226.253 71.44 226.497 72.05 226.994 72.49C227.492 72.93 228.145 73.18 228.964 73.23V74.32C227.813 74.26 226.916 73.89 226.273 73.22C225.629 72.55 225.317 71.68 225.317 70.6C225.317 69.52 225.6 68.73 226.165 68.09C226.731 67.45 227.54 67.13 228.574 67.13C229.832 67.13 231.051 67.67 232.231 68.74C233.411 69.81 234.562 71.13 235.684 72.7V66.78H236.6V74.41H235.82C234.387 72.45 233.099 70.93 231.958 69.86L231.968 69.87Z" fill="#231F20"/>
<path d="M226.439 57.67V63.53H230.437C230.076 63.26 229.774 62.87 229.54 62.36C229.306 61.85 229.189 61.29 229.189 60.7C229.189 59.83 229.364 59.11 229.715 58.56C230.067 58.01 230.515 57.6 231.071 57.36C231.627 57.11 232.222 56.99 232.856 56.99C233.587 56.99 234.24 57.13 234.826 57.41C235.411 57.69 235.879 58.12 236.22 58.71C236.562 59.29 236.737 60.01 236.737 60.88C236.737 61.98 236.454 62.87 235.898 63.55C235.342 64.23 234.592 64.65 233.646 64.8V63.7C234.328 63.56 234.865 63.24 235.235 62.74C235.606 62.24 235.801 61.62 235.801 60.88C235.801 59.95 235.538 59.25 235.001 58.78C234.465 58.31 233.753 58.07 232.875 58.07C231.997 58.07 231.334 58.31 230.856 58.79C230.369 59.27 230.135 59.96 230.135 60.85C230.135 61.47 230.271 62.01 230.554 62.48C230.837 62.95 231.217 63.3 231.695 63.52V64.58H225.502V57.68H226.458L226.439 57.67Z" fill="#231F20"/>
<path d="M236.688 48.68L231.646 53.53H236.688V54.65H225.785V53.53H230.886L225.785 48.68V47.26L231.227 52.49L236.688 47.21V48.68Z" fill="#231F20"/>
<g style="mix-blend-mode:overlay" opacity="0.47">
<path fill-rule="evenodd" clip-rule="evenodd" d="M224.79 4.9C227.423 1.96 231.11 0.09 235.206 0.01C235.059 0.01 234.913 0 234.757 0C226.263 0 219.28 7.13 219.28 15.87V42.21C219.28 42.53 219.534 42.79 219.846 42.79H221.894V14.58C221.894 10.98 222.957 7.63 224.8 4.9H224.79Z" fill="#231F20"/>
</g>
<defs>
<radialGradient id="paint0_radial_538_3841" cx="0" cy="0" r="1" gradientUnits="userSpaceOnUse" gradientTransform="translate(44.5386 85.6095) rotate(-180) scale(22.1084 3.4005)">
<stop/>
<stop offset="1" stop-color="white"/>
</radialGradient>
<radialGradient id="paint1_radial_538_3841" cx="0" cy="0" r="1" gradientUnits="userSpaceOnUse" gradientTransform="translate(137.195 85.6095) rotate(-180) scale(22.1084 3.4005)">
<stop/>
<stop offset="1" stop-color="white"/>
</radialGradient>
<radialGradient id="paint2_radial_538_3841" cx="0" cy="0" r="1" gradientUnits="userSpaceOnUse" gradientTransform="translate(229.832 85.6095) rotate(-180) scale(22.1084 3.4005)">
<stop/>
<stop offset="1" stop-color="white"/>
</radialGradient>
</defs>
</svg>
