<svg width="278" height="151" viewBox="0 0 278 151" fill="none" xmlns="http://www.w3.org/2000/svg">
<path d="M35.4664 103.289C35.4664 103.74 35.3753 104.132 35.193 104.465C35.0107 104.798 34.76 105.071 34.441 105.285C34.1266 105.495 33.762 105.645 33.3473 105.736V105.784C34.1448 105.884 34.7464 106.135 35.152 106.536C35.5621 106.937 35.7672 107.468 35.7672 108.129C35.7672 108.708 35.6282 109.225 35.3502 109.681C35.0722 110.132 34.6461 110.487 34.0719 110.747C33.4977 111.007 32.7594 111.137 31.857 111.137C31.3147 111.137 30.8111 111.093 30.3463 111.007C29.886 110.92 29.4485 110.781 29.0338 110.59V109.161C29.4576 109.371 29.9088 109.533 30.3873 109.646C30.8658 109.76 31.3193 109.817 31.7477 109.817C32.5816 109.817 33.1764 109.662 33.5318 109.353C33.8873 109.038 34.065 108.605 34.065 108.054C34.065 107.698 33.9716 107.407 33.7848 107.179C33.6025 106.951 33.3176 106.78 32.9303 106.666C32.5475 106.552 32.053 106.495 31.4469 106.495H30.565V105.203H31.4537C32.0325 105.203 32.4973 105.135 32.8482 104.998C33.1992 104.857 33.4521 104.663 33.607 104.417C33.7665 104.171 33.8463 103.884 33.8463 103.556C33.8463 103.127 33.7073 102.795 33.4293 102.558C33.1513 102.316 32.7389 102.195 32.192 102.195C31.8548 102.195 31.5471 102.234 31.2691 102.312C30.9957 102.389 30.7428 102.487 30.5103 102.605C30.2779 102.724 30.0569 102.852 29.8473 102.988L29.0748 101.874C29.4531 101.591 29.9042 101.352 30.4283 101.156C30.9524 100.96 31.5631 100.862 32.2603 100.862C33.2857 100.862 34.0764 101.083 34.6324 101.525C35.1884 101.963 35.4664 102.551 35.4664 103.289ZM39.233 109.373L39.3287 109.53C39.2467 109.858 39.1419 110.212 39.0143 110.59C38.8867 110.968 38.7477 111.346 38.5973 111.725C38.4469 112.107 38.2942 112.467 38.1393 112.805H36.9635C37.0592 112.436 37.1503 112.048 37.2369 111.643C37.3281 111.242 37.4101 110.845 37.483 110.453C37.5605 110.057 37.622 109.697 37.6676 109.373H39.233ZM47.6754 105.996C47.6754 106.803 47.6116 107.525 47.484 108.163C47.3609 108.797 47.165 109.334 46.8961 109.776C46.6272 110.218 46.2763 110.556 45.8434 110.788C45.4104 111.021 44.8863 111.137 44.2711 111.137C43.5009 111.137 42.8652 110.934 42.3639 110.528C41.8626 110.118 41.4911 109.53 41.2496 108.765C41.0081 107.994 40.8873 107.072 40.8873 105.996C40.8873 104.921 40.9967 104 41.2154 103.234C41.4387 102.464 41.7988 101.874 42.2955 101.464C42.7923 101.054 43.4508 100.849 44.2711 100.849C45.0458 100.849 45.6839 101.054 46.1852 101.464C46.691 101.869 47.0647 102.457 47.3062 103.228C47.5523 103.993 47.6754 104.916 47.6754 105.996ZM42.5074 105.996C42.5074 106.839 42.5621 107.543 42.6715 108.108C42.7854 108.674 42.9723 109.097 43.232 109.38C43.4918 109.658 43.8381 109.797 44.2711 109.797C44.704 109.797 45.0504 109.658 45.3102 109.38C45.5699 109.102 45.7568 108.68 45.8707 108.115C45.9892 107.55 46.0484 106.844 46.0484 105.996C46.0484 105.158 45.9915 104.456 45.8775 103.891C45.7636 103.326 45.5768 102.902 45.317 102.619C45.0572 102.332 44.7086 102.188 44.2711 102.188C43.8336 102.188 43.485 102.332 43.2252 102.619C42.97 102.902 42.7854 103.326 42.6715 103.891C42.5621 104.456 42.5074 105.158 42.5074 105.996ZM55.6871 105.996C55.6871 106.803 55.6233 107.525 55.4957 108.163C55.3727 108.797 55.1767 109.334 54.9078 109.776C54.6389 110.218 54.288 110.556 53.8551 110.788C53.4221 111.021 52.898 111.137 52.2828 111.137C51.5126 111.137 50.8769 110.934 50.3756 110.528C49.8743 110.118 49.5029 109.53 49.2613 108.765C49.0198 107.994 48.899 107.072 48.899 105.996C48.899 104.921 49.0084 104 49.2271 103.234C49.4505 102.464 49.8105 101.874 50.3072 101.464C50.804 101.054 51.4625 100.849 52.2828 100.849C53.0575 100.849 53.6956 101.054 54.1969 101.464C54.7027 101.869 55.0764 102.457 55.318 103.228C55.5641 103.993 55.6871 104.916 55.6871 105.996ZM50.5191 105.996C50.5191 106.839 50.5738 107.543 50.6832 108.108C50.7971 108.674 50.984 109.097 51.2437 109.38C51.5035 109.658 51.8499 109.797 52.2828 109.797C52.7158 109.797 53.0621 109.658 53.3219 109.38C53.5816 109.102 53.7685 108.68 53.8824 108.115C54.0009 107.55 54.0602 106.844 54.0602 105.996C54.0602 105.158 54.0032 104.456 53.8893 103.891C53.7753 103.326 53.5885 102.902 53.3287 102.619C53.0689 102.332 52.7203 102.188 52.2828 102.188C51.8453 102.188 51.4967 102.332 51.2369 102.619C50.9817 102.902 50.7971 103.326 50.6832 103.891C50.5738 104.456 50.5191 105.158 50.5191 105.996ZM63.6988 105.996C63.6988 106.803 63.635 107.525 63.5074 108.163C63.3844 108.797 63.1884 109.334 62.9195 109.776C62.6506 110.218 62.2997 110.556 61.8668 110.788C61.4339 111.021 60.9098 111.137 60.2945 111.137C59.5243 111.137 58.8886 110.934 58.3873 110.528C57.886 110.118 57.5146 109.53 57.273 108.765C57.0315 107.994 56.9107 107.072 56.9107 105.996C56.9107 104.921 57.0201 104 57.2389 103.234C57.4622 102.464 57.8222 101.874 58.3189 101.464C58.8157 101.054 59.4742 100.849 60.2945 100.849C61.0693 100.849 61.7073 101.054 62.2086 101.464C62.7145 101.869 63.0881 102.457 63.3297 103.228C63.5758 103.993 63.6988 104.916 63.6988 105.996ZM58.5309 105.996C58.5309 106.839 58.5855 107.543 58.6949 108.108C58.8089 108.674 58.9957 109.097 59.2555 109.38C59.5152 109.658 59.8616 109.797 60.2945 109.797C60.7275 109.797 61.0738 109.658 61.3336 109.38C61.5934 109.102 61.7802 108.68 61.8941 108.115C62.0126 107.55 62.0719 106.844 62.0719 105.996C62.0719 105.158 62.0149 104.456 61.901 103.891C61.787 103.326 61.6002 102.902 61.3404 102.619C61.0807 102.332 60.732 102.188 60.2945 102.188C59.857 102.188 59.5084 102.332 59.2486 102.619C58.9934 102.902 58.8089 103.326 58.6949 103.891C58.5855 104.456 58.5309 105.158 58.5309 105.996ZM10.5152 128H8.90195V117.363H10.5152V128ZM14.4186 120.433V128H12.8121V120.433H14.4186ZM13.6256 117.534C13.8717 117.534 14.0836 117.6 14.2613 117.732C14.4436 117.865 14.5348 118.092 14.5348 118.416C14.5348 118.735 14.4436 118.963 14.2613 119.1C14.0836 119.232 13.8717 119.298 13.6256 119.298C13.3704 119.298 13.1539 119.232 12.9762 119.1C12.803 118.963 12.7164 118.735 12.7164 118.416C12.7164 118.092 12.803 117.865 12.9762 117.732C13.1539 117.6 13.3704 117.534 13.6256 117.534ZM20.6051 120.289C21.5029 120.289 22.2229 120.617 22.7652 121.273C23.3121 121.93 23.5855 122.905 23.5855 124.199C23.5855 125.056 23.4579 125.778 23.2027 126.366C22.9521 126.95 22.5989 127.392 22.1432 127.692C21.692 127.989 21.1656 128.137 20.5641 128.137C20.1812 128.137 19.8486 128.087 19.566 127.986C19.2835 127.886 19.0419 127.756 18.8414 127.597C18.6409 127.433 18.4723 127.255 18.3355 127.063H18.2398C18.2626 127.246 18.2831 127.449 18.3014 127.672C18.3242 127.891 18.3355 128.091 18.3355 128.273V131.356H16.7223V120.433H18.0348L18.2603 121.479H18.3355C18.4768 121.264 18.6477 121.066 18.8482 120.884C19.0533 120.701 19.2994 120.558 19.5865 120.453C19.8782 120.344 20.2177 120.289 20.6051 120.289ZM20.1744 121.602C19.7324 121.602 19.3769 121.69 19.108 121.868C18.8437 122.041 18.65 122.303 18.527 122.654C18.4085 123.005 18.3447 123.445 18.3355 123.974V124.199C18.3355 124.76 18.3925 125.236 18.5064 125.628C18.6249 126.015 18.8186 126.312 19.0875 126.517C19.3609 126.717 19.7301 126.817 20.1949 126.817C20.5868 126.817 20.9104 126.71 21.1656 126.496C21.4254 126.282 21.6191 125.977 21.7467 125.58C21.8743 125.184 21.9381 124.716 21.9381 124.179C21.9381 123.363 21.7923 122.729 21.5006 122.278C21.2135 121.827 20.7714 121.602 20.1744 121.602ZM28.4117 120.289C29.3687 120.289 30.0911 120.501 30.5787 120.925C31.0709 121.349 31.317 122.009 31.317 122.907V128H30.1754L29.8678 126.927H29.8131C29.5989 127.2 29.3779 127.426 29.15 127.604C28.9221 127.781 28.6578 127.913 28.357 128C28.0608 128.091 27.6985 128.137 27.2701 128.137C26.8189 128.137 26.4156 128.055 26.0602 127.891C25.7047 127.722 25.4244 127.467 25.2193 127.125C25.0143 126.783 24.9117 126.35 24.9117 125.826C24.9117 125.047 25.2011 124.461 25.7799 124.069C26.3632 123.677 27.2428 123.461 28.4186 123.42L29.7311 123.372V122.976C29.7311 122.451 29.608 122.078 29.3619 121.854C29.1204 121.631 28.7786 121.52 28.3365 121.52C27.9583 121.52 27.5914 121.574 27.2359 121.684C26.8805 121.793 26.5341 121.927 26.1969 122.087L25.6773 120.952C26.0465 120.756 26.4658 120.597 26.9352 120.474C27.4091 120.351 27.9013 120.289 28.4117 120.289ZM29.7242 124.384L28.7467 124.418C27.9446 124.445 27.3818 124.582 27.0582 124.828C26.7346 125.074 26.5728 125.411 26.5728 125.84C26.5728 126.214 26.6845 126.487 26.9078 126.66C27.1311 126.829 27.4251 126.913 27.7896 126.913C28.3456 126.913 28.8059 126.756 29.1705 126.441C29.5396 126.122 29.7242 125.655 29.7242 125.04V124.384ZM38.652 125.84C38.652 126.337 38.5312 126.756 38.2896 127.098C38.0481 127.439 37.6949 127.699 37.2301 127.877C36.7698 128.05 36.2047 128.137 35.5348 128.137C35.0061 128.137 34.5504 128.098 34.1676 128.021C33.7893 127.948 33.4316 127.834 33.0943 127.679V126.291C33.4544 126.46 33.8577 126.605 34.3043 126.729C34.7555 126.852 35.1816 126.913 35.5826 126.913C36.1113 126.913 36.4918 126.831 36.7242 126.667C36.9566 126.498 37.0728 126.275 37.0728 125.997C37.0728 125.833 37.025 125.687 36.9293 125.56C36.8381 125.427 36.665 125.293 36.4098 125.156C36.1591 125.015 35.79 124.846 35.3023 124.65C34.8238 124.459 34.4205 124.268 34.0924 124.076C33.7643 123.885 33.5159 123.655 33.3473 123.386C33.1786 123.112 33.0943 122.764 33.0943 122.34C33.0943 121.67 33.3587 121.162 33.8873 120.815C34.4205 120.465 35.1246 120.289 35.9996 120.289C36.4645 120.289 36.902 120.337 37.3121 120.433C37.7268 120.524 38.1324 120.658 38.5289 120.836L38.023 122.046C37.6812 121.896 37.3372 121.772 36.9908 121.677C36.649 121.576 36.3004 121.526 35.9449 121.526C35.5302 121.526 35.2135 121.59 34.9947 121.718C34.7805 121.845 34.6734 122.028 34.6734 122.265C34.6734 122.442 34.7258 122.593 34.8307 122.716C34.9355 122.839 35.1155 122.962 35.3707 123.085C35.6305 123.208 35.9905 123.361 36.4508 123.543C36.902 123.716 37.2916 123.898 37.6197 124.09C37.9524 124.277 38.2076 124.507 38.3853 124.78C38.5631 125.054 38.652 125.407 38.652 125.84ZM43.4029 120.289C44.0774 120.289 44.6562 120.428 45.1393 120.706C45.6223 120.984 45.9937 121.378 46.2535 121.889C46.5133 122.399 46.6432 123.01 46.6432 123.721V124.582H41.5914C41.6096 125.316 41.8056 125.881 42.1793 126.277C42.5575 126.674 43.0862 126.872 43.7652 126.872C44.2483 126.872 44.6812 126.826 45.0641 126.735C45.4514 126.64 45.8502 126.501 46.2603 126.318V127.624C45.8821 127.802 45.497 127.932 45.1051 128.014C44.7131 128.096 44.2437 128.137 43.6969 128.137C42.954 128.137 42.3001 127.993 41.735 127.706C41.1744 127.414 40.7346 126.981 40.4156 126.407C40.1012 125.833 39.9439 125.12 39.9439 124.268C39.9439 123.42 40.0875 122.7 40.3746 122.107C40.6617 121.515 41.065 121.064 41.5846 120.754C42.1041 120.444 42.7102 120.289 43.4029 120.289ZM43.4029 121.499C42.8971 121.499 42.4869 121.663 42.1725 121.991C41.8626 122.319 41.6803 122.8 41.6256 123.434H45.0709C45.0663 123.055 45.0025 122.72 44.8795 122.429C44.761 122.137 44.5787 121.909 44.3326 121.745C44.0911 121.581 43.7812 121.499 43.4029 121.499ZM58.6881 120.433V128H57.4234L57.2047 126.981H57.1158C56.9563 127.241 56.7535 127.458 56.5074 127.631C56.2613 127.799 55.9879 127.925 55.6871 128.007C55.3863 128.093 55.0696 128.137 54.7369 128.137C54.1673 128.137 53.6796 128.041 53.274 127.85C52.873 127.654 52.5654 127.353 52.3512 126.947C52.137 126.542 52.0299 126.018 52.0299 125.375V120.433H53.6432V125.074C53.6432 125.662 53.7617 126.102 53.9986 126.394C54.2402 126.685 54.6139 126.831 55.1197 126.831C55.6074 126.831 55.9947 126.731 56.2818 126.53C56.5689 126.33 56.7717 126.034 56.8902 125.642C57.0133 125.25 57.0748 124.769 57.0748 124.199V120.433H58.6881ZM64.9361 120.289C65.7883 120.289 66.4514 120.51 66.9254 120.952C67.4039 121.39 67.6432 122.094 67.6432 123.064V128H66.0367V123.365C66.0367 122.777 65.9159 122.338 65.6744 122.046C65.4329 121.75 65.0592 121.602 64.5533 121.602C63.8196 121.602 63.3092 121.827 63.0221 122.278C62.7395 122.729 62.5982 123.383 62.5982 124.24V128H60.9918V120.433H62.2428L62.4684 121.458H62.5572C62.7213 121.194 62.9241 120.977 63.1656 120.809C63.4117 120.635 63.6852 120.506 63.9859 120.419C64.2913 120.332 64.608 120.289 64.9361 120.289ZM71.4986 120.433V128H69.8922V120.433H71.4986ZM70.7057 117.534C70.9518 117.534 71.1637 117.6 71.3414 117.732C71.5237 117.865 71.6148 118.092 71.6148 118.416C71.6148 118.735 71.5237 118.963 71.3414 119.1C71.1637 119.232 70.9518 119.298 70.7057 119.298C70.4504 119.298 70.234 119.232 70.0562 119.1C69.8831 118.963 69.7965 118.735 69.7965 118.416C69.7965 118.092 69.8831 117.865 70.0562 117.732C70.234 117.6 70.4504 117.534 70.7057 117.534ZM76.6187 126.838C76.8284 126.838 77.0357 126.82 77.2408 126.783C77.4459 126.742 77.6327 126.694 77.8014 126.64V127.856C77.6236 127.934 77.3935 128 77.1109 128.055C76.8284 128.109 76.5344 128.137 76.2291 128.137C75.8007 128.137 75.4156 128.066 75.0738 127.925C74.732 127.779 74.4609 127.531 74.2603 127.18C74.0598 126.829 73.9596 126.343 73.9596 125.724V121.656H72.9273V120.938L74.0348 120.371L74.5611 118.751H75.5728V120.433H77.7398V121.656H75.5728V125.703C75.5728 126.086 75.6685 126.371 75.86 126.558C76.0514 126.744 76.3043 126.838 76.6187 126.838ZM84.4254 125.84C84.4254 126.337 84.3046 126.756 84.0631 127.098C83.8215 127.439 83.4684 127.699 83.0035 127.877C82.5432 128.05 81.9781 128.137 81.3082 128.137C80.7796 128.137 80.3238 128.098 79.941 128.021C79.5628 127.948 79.205 127.834 78.8678 127.679V126.291C79.2278 126.46 79.6311 126.605 80.0777 126.729C80.5289 126.852 80.955 126.913 81.356 126.913C81.8847 126.913 82.2652 126.831 82.4977 126.667C82.7301 126.498 82.8463 126.275 82.8463 125.997C82.8463 125.833 82.7984 125.687 82.7027 125.56C82.6116 125.427 82.4384 125.293 82.1832 125.156C81.9325 125.015 81.5634 124.846 81.0758 124.65C80.5973 124.459 80.1939 124.268 79.8658 124.076C79.5377 123.885 79.2893 123.655 79.1207 123.386C78.9521 123.112 78.8678 122.764 78.8678 122.34C78.8678 121.67 79.1321 121.162 79.6607 120.815C80.1939 120.465 80.898 120.289 81.773 120.289C82.2379 120.289 82.6754 120.337 83.0855 120.433C83.5003 120.524 83.9059 120.658 84.3023 120.836L83.7965 122.046C83.4547 121.896 83.1106 121.772 82.7643 121.677C82.4225 121.576 82.0738 121.526 81.7184 121.526C81.3036 121.526 80.9869 121.59 80.7682 121.718C80.554 121.845 80.4469 122.028 80.4469 122.265C80.4469 122.442 80.4993 122.593 80.6041 122.716C80.7089 122.839 80.8889 122.962 81.1441 123.085C81.4039 123.208 81.7639 123.361 82.2242 123.543C82.6754 123.716 83.065 123.898 83.3932 124.09C83.7258 124.277 83.981 124.507 84.1588 124.78C84.3365 125.054 84.4254 125.407 84.4254 125.84Z" fill="#1E1E1E"/>
<g clip-path="url(#clip0_538_3840)">
<path opacity="0.2" d="M45.1602 88.68C57.6805 88.68 67.8302 87.1578 67.8302 85.28C67.8302 83.4022 57.6805 81.88 45.1602 81.88C32.6399 81.88 22.4902 83.4022 22.4902 85.28C22.4902 87.1578 32.6399 88.68 45.1602 88.68Z" fill="url(#paint0_radial_538_3840)"/>
<path fill-rule="evenodd" clip-rule="evenodd" d="M65.4603 42.79C65.7803 42.79 66.0403 42.53 66.0403 42.21V15.87C66.0403 7.13 58.9203 0 50.1703 0C41.4603 0 34.3003 7.13 34.3003 15.87V42.21C34.3003 42.53 34.5603 42.79 34.8803 42.79H65.4703H65.4603Z" fill="#BBBBBC"/>
<g style="mix-blend-mode:overlay" opacity="0.3">
<path fill-rule="evenodd" clip-rule="evenodd" d="M61.37 66.73V18.85C61.37 17.72 60.47 16.81 59.33 16.81C58.24 16.81 57.29 17.71 57.29 18.85V66.73C57.29 67.86 58.23 68.77 59.33 68.77C60.46 68.77 61.37 67.87 61.37 66.73Z" fill="white"/>
</g>
<path fill-rule="evenodd" clip-rule="evenodd" d="M65.2603 69.71V42.79H35.0703V69.71C35.0703 78.46 41.8803 85.58 50.1703 85.58C58.4903 85.58 65.2603 78.45 65.2603 69.71Z" fill="#D7D8D8"/>
<path fill-rule="evenodd" clip-rule="evenodd" d="M65.2602 69.71V42.79H37.6602V68.5C37.6602 76.79 44.1102 83.62 52.0402 83.62C56.1302 83.62 59.8202 81.81 62.4402 78.91C64.2302 76.31 65.2702 73.14 65.2702 69.71H65.2602Z" fill="#EAEBEB"/>
<path fill-rule="evenodd" clip-rule="evenodd" d="M61.3703 42.79H57.3003V66.73C57.3003 67.86 58.2403 68.77 59.3403 68.77C60.4703 68.77 61.3803 67.87 61.3803 66.73V42.79H61.3703Z" fill="white"/>
<g style="mix-blend-mode:overlay" opacity="0.3">
<path fill-rule="evenodd" clip-rule="evenodd" d="M61.6703 8.94C61.0303 10.26 59.2903 8.34 56.6603 7.02C53.9803 5.74 51.4203 5.55 52.0603 4.27C52.7003 2.95 55.3403 2.95 58.0203 4.27C60.6603 5.55 62.2803 7.66 61.6803 8.94H61.6703Z" fill="white"/>
</g>
<path d="M41.3503 63.31C40.7903 62.63 40.5103 61.76 40.5103 60.68C40.5103 59.97 40.6403 59.35 40.8903 58.84C41.1403 58.33 41.5003 57.94 41.9403 57.68C42.3803 57.42 42.8803 57.29 43.4403 57.29C44.1103 57.29 44.6903 57.49 45.1803 57.88C45.6703 58.27 45.9703 58.83 46.0903 59.56H46.1703C46.3203 58.8 46.6503 58.2 47.1503 57.75C47.6603 57.3 48.3203 57.08 49.1403 57.08C50.0603 57.08 50.8103 57.39 51.3903 58C51.9703 58.61 52.2603 59.5 52.2603 60.66C52.2603 61.82 51.9703 62.68 51.3903 63.4C50.8103 64.11 49.9803 64.53 48.9203 64.63V63.54C49.6303 63.44 50.2103 63.15 50.6603 62.64C51.1003 62.14 51.3203 61.48 51.3203 60.66C51.3203 59.84 51.1103 59.23 50.6803 58.8C50.2503 58.37 49.7103 58.15 49.0503 58.15C47.4303 58.15 46.6203 59.32 46.6203 61.65V62H45.6803V61.63C45.6803 59.45 44.9703 58.37 43.5503 58.37C42.9303 58.37 42.4303 58.57 42.0503 58.98C41.6703 59.39 41.4803 59.96 41.4803 60.71C41.4803 61.46 41.6703 62.04 42.0503 62.51C42.4303 62.98 42.9603 63.26 43.6403 63.35V64.44C42.6703 64.37 41.9003 63.99 41.3403 63.31H41.3503Z" fill="#231F20"/>
<path d="M52.1903 48.68L47.0203 53.53H52.1903V54.65H41.0103V53.53H46.2403L41.0103 48.68V47.26L46.5903 52.49L52.1903 47.21V48.68Z" fill="#231F20"/>
<g style="mix-blend-mode:overlay" opacity="0.47">
<path fill-rule="evenodd" clip-rule="evenodd" d="M39.9903 4.9C42.6903 1.96 46.4703 0.09 50.6703 0.01C50.5203 0.01 50.3703 0 50.2103 0C41.5003 0 34.3403 7.13 34.3403 15.87V42.21C34.3403 42.53 34.6003 42.79 34.9203 42.79H37.0203V14.58C37.0203 10.98 38.1103 7.63 40.0003 4.9H39.9903Z" fill="#231F20"/>
</g>
</g>
<path d="M125.126 104.752C125.768 104.752 126.333 104.868 126.821 105.101C127.313 105.328 127.696 105.666 127.969 106.112C128.243 106.554 128.379 107.097 128.379 107.739C128.379 108.441 128.231 109.047 127.935 109.558C127.639 110.063 127.204 110.453 126.629 110.727C126.055 111 125.356 111.137 124.531 111.137C124.007 111.137 123.517 111.091 123.061 111C122.61 110.909 122.22 110.772 121.892 110.59V109.141C122.234 109.332 122.644 109.489 123.123 109.612C123.601 109.731 124.059 109.79 124.497 109.79C124.962 109.79 125.36 109.722 125.693 109.585C126.026 109.448 126.281 109.239 126.459 108.956C126.641 108.674 126.732 108.316 126.732 107.883C126.732 107.309 126.547 106.867 126.178 106.557C125.814 106.242 125.242 106.085 124.462 106.085C124.189 106.085 123.897 106.11 123.587 106.16C123.282 106.206 123.027 106.256 122.822 106.311L122.118 105.894L122.494 101.006H127.689V102.421H123.909L123.69 104.909C123.854 104.873 124.05 104.839 124.278 104.807C124.506 104.77 124.788 104.752 125.126 104.752ZM131.879 109.373L131.975 109.53C131.893 109.858 131.788 110.212 131.661 110.59C131.533 110.968 131.394 111.346 131.244 111.725C131.093 112.107 130.941 112.467 130.786 112.805H129.61C129.706 112.436 129.797 112.048 129.883 111.643C129.975 111.242 130.057 110.845 130.129 110.453C130.207 110.057 130.268 109.697 130.314 109.373H131.879ZM140.322 105.996C140.322 106.803 140.258 107.525 140.13 108.163C140.007 108.797 139.811 109.334 139.543 109.776C139.274 110.218 138.923 110.556 138.49 110.788C138.057 111.021 137.533 111.137 136.918 111.137C136.147 111.137 135.512 110.934 135.01 110.528C134.509 110.118 134.138 109.53 133.896 108.765C133.655 107.994 133.534 107.072 133.534 105.996C133.534 104.921 133.643 104 133.862 103.234C134.085 102.464 134.445 101.874 134.942 101.464C135.439 101.054 136.097 100.849 136.918 100.849C137.692 100.849 138.33 101.054 138.832 101.464C139.337 101.869 139.711 102.457 139.953 103.228C140.199 103.993 140.322 104.916 140.322 105.996ZM135.154 105.996C135.154 106.839 135.209 107.543 135.318 108.108C135.432 108.674 135.619 109.097 135.879 109.38C136.138 109.658 136.485 109.797 136.918 109.797C137.351 109.797 137.697 109.658 137.957 109.38C138.216 109.102 138.403 108.68 138.517 108.115C138.636 107.55 138.695 106.844 138.695 105.996C138.695 105.158 138.638 104.456 138.524 103.891C138.41 103.326 138.223 102.902 137.963 102.619C137.704 102.332 137.355 102.188 136.918 102.188C136.48 102.188 136.131 102.332 135.872 102.619C135.616 102.902 135.432 103.326 135.318 103.891C135.209 104.456 135.154 105.158 135.154 105.996ZM148.334 105.996C148.334 106.803 148.27 107.525 148.142 108.163C148.019 108.797 147.823 109.334 147.554 109.776C147.285 110.218 146.935 110.556 146.502 110.788C146.069 111.021 145.545 111.137 144.929 111.137C144.159 111.137 143.523 110.934 143.022 110.528C142.521 110.118 142.149 109.53 141.908 108.765C141.666 107.994 141.546 107.072 141.546 105.996C141.546 104.921 141.655 104 141.874 103.234C142.097 102.464 142.457 101.874 142.954 101.464C143.45 101.054 144.109 100.849 144.929 100.849C145.704 100.849 146.342 101.054 146.843 101.464C147.349 101.869 147.723 102.457 147.964 103.228C148.211 103.993 148.334 104.916 148.334 105.996ZM143.166 105.996C143.166 106.839 143.22 107.543 143.33 108.108C143.444 108.674 143.63 109.097 143.89 109.38C144.15 109.658 144.496 109.797 144.929 109.797C145.362 109.797 145.709 109.658 145.968 109.38C146.228 109.102 146.415 108.68 146.529 108.115C146.647 107.55 146.707 106.844 146.707 105.996C146.707 105.158 146.65 104.456 146.536 103.891C146.422 103.326 146.235 102.902 145.975 102.619C145.715 102.332 145.367 102.188 144.929 102.188C144.492 102.188 144.143 102.332 143.883 102.619C143.628 102.902 143.444 103.326 143.33 103.891C143.22 104.456 143.166 105.158 143.166 105.996ZM156.345 105.996C156.345 106.803 156.282 107.525 156.154 108.163C156.031 108.797 155.835 109.334 155.566 109.776C155.297 110.218 154.946 110.556 154.513 110.788C154.08 111.021 153.556 111.137 152.941 111.137C152.171 111.137 151.535 110.934 151.034 110.528C150.532 110.118 150.161 109.53 149.92 108.765C149.678 107.994 149.557 107.072 149.557 105.996C149.557 104.921 149.667 104 149.885 103.234C150.109 102.464 150.469 101.874 150.965 101.464C151.462 101.054 152.121 100.849 152.941 100.849C153.716 100.849 154.354 101.054 154.855 101.464C155.361 101.869 155.735 102.457 155.976 103.228C156.222 103.993 156.345 104.916 156.345 105.996ZM151.177 105.996C151.177 106.839 151.232 107.543 151.341 108.108C151.455 108.674 151.642 109.097 151.902 109.38C152.162 109.658 152.508 109.797 152.941 109.797C153.374 109.797 153.72 109.658 153.98 109.38C154.24 109.102 154.427 108.68 154.541 108.115C154.659 107.55 154.718 106.844 154.718 105.996C154.718 105.158 154.661 104.456 154.547 103.891C154.434 103.326 154.247 102.902 153.987 102.619C153.727 102.332 153.379 102.188 152.941 102.188C152.504 102.188 152.155 102.332 151.895 102.619C151.64 102.902 151.455 103.326 151.341 103.891C151.232 104.456 151.177 105.158 151.177 105.996ZM103.162 128H101.548V117.363H103.162V128ZM107.065 120.433V128H105.459V120.433H107.065ZM106.272 117.534C106.518 117.534 106.73 117.6 106.908 117.732C107.09 117.865 107.181 118.092 107.181 118.416C107.181 118.735 107.09 118.963 106.908 119.1C106.73 119.232 106.518 119.298 106.272 119.298C106.017 119.298 105.8 119.232 105.623 119.1C105.449 118.963 105.363 118.735 105.363 118.416C105.363 118.092 105.449 117.865 105.623 117.732C105.8 117.6 106.017 117.534 106.272 117.534ZM113.252 120.289C114.149 120.289 114.869 120.617 115.412 121.273C115.959 121.93 116.232 122.905 116.232 124.199C116.232 125.056 116.104 125.778 115.849 126.366C115.599 126.95 115.245 127.392 114.79 127.692C114.338 127.989 113.812 128.137 113.211 128.137C112.828 128.137 112.495 128.087 112.212 127.986C111.93 127.886 111.688 127.756 111.488 127.597C111.287 127.433 111.119 127.255 110.982 127.063H110.886C110.909 127.246 110.93 127.449 110.948 127.672C110.971 127.891 110.982 128.091 110.982 128.273V131.356H109.369V120.433H110.681L110.907 121.479H110.982C111.123 121.264 111.294 121.066 111.495 120.884C111.7 120.701 111.946 120.558 112.233 120.453C112.525 120.344 112.864 120.289 113.252 120.289ZM112.821 121.602C112.379 121.602 112.023 121.69 111.754 121.868C111.49 122.041 111.296 122.303 111.173 122.654C111.055 123.005 110.991 123.445 110.982 123.974V124.199C110.982 124.76 111.039 125.236 111.153 125.628C111.271 126.015 111.465 126.312 111.734 126.517C112.007 126.717 112.377 126.817 112.841 126.817C113.233 126.817 113.557 126.71 113.812 126.496C114.072 126.282 114.266 125.977 114.393 125.58C114.521 125.184 114.585 124.716 114.585 124.179C114.585 123.363 114.439 122.729 114.147 122.278C113.86 121.827 113.418 121.602 112.821 121.602ZM121.058 120.289C122.015 120.289 122.738 120.501 123.225 120.925C123.717 121.349 123.963 122.009 123.963 122.907V128H122.822L122.514 126.927H122.46C122.245 127.2 122.024 127.426 121.796 127.604C121.569 127.781 121.304 127.913 121.004 128C120.707 128.091 120.345 128.137 119.917 128.137C119.465 128.137 119.062 128.055 118.707 127.891C118.351 127.722 118.071 127.467 117.866 127.125C117.661 126.783 117.558 126.35 117.558 125.826C117.558 125.047 117.848 124.461 118.426 124.069C119.01 123.677 119.889 123.461 121.065 123.42L122.378 123.372V122.976C122.378 122.451 122.254 122.078 122.008 121.854C121.767 121.631 121.425 121.52 120.983 121.52C120.605 121.52 120.238 121.574 119.882 121.684C119.527 121.793 119.181 121.927 118.843 122.087L118.324 120.952C118.693 120.756 119.112 120.597 119.582 120.474C120.056 120.351 120.548 120.289 121.058 120.289ZM122.371 124.384L121.393 124.418C120.591 124.445 120.028 124.582 119.705 124.828C119.381 125.074 119.219 125.411 119.219 125.84C119.219 126.214 119.331 126.487 119.554 126.66C119.778 126.829 120.072 126.913 120.436 126.913C120.992 126.913 121.452 126.756 121.817 126.441C122.186 126.122 122.371 125.655 122.371 125.04V124.384ZM131.298 125.84C131.298 126.337 131.178 126.756 130.936 127.098C130.695 127.439 130.341 127.699 129.877 127.877C129.416 128.05 128.851 128.137 128.181 128.137C127.653 128.137 127.197 128.098 126.814 128.021C126.436 127.948 126.078 127.834 125.741 127.679V126.291C126.101 126.46 126.504 126.605 126.951 126.729C127.402 126.852 127.828 126.913 128.229 126.913C128.758 126.913 129.138 126.831 129.371 126.667C129.603 126.498 129.719 126.275 129.719 125.997C129.719 125.833 129.671 125.687 129.576 125.56C129.485 125.427 129.311 125.293 129.056 125.156C128.806 125.015 128.436 124.846 127.949 124.65C127.47 124.459 127.067 124.268 126.739 124.076C126.411 123.885 126.162 123.655 125.994 123.386C125.825 123.112 125.741 122.764 125.741 122.34C125.741 121.67 126.005 121.162 126.534 120.815C127.067 120.465 127.771 120.289 128.646 120.289C129.111 120.289 129.548 120.337 129.959 120.433C130.373 120.524 130.779 120.658 131.175 120.836L130.67 122.046C130.328 121.896 129.984 121.772 129.637 121.677C129.296 121.576 128.947 121.526 128.591 121.526C128.177 121.526 127.86 121.59 127.641 121.718C127.427 121.845 127.32 122.028 127.32 122.265C127.32 122.442 127.372 122.593 127.477 122.716C127.582 122.839 127.762 122.962 128.017 123.085C128.277 123.208 128.637 123.361 129.097 123.543C129.548 123.716 129.938 123.898 130.266 124.09C130.599 124.277 130.854 124.507 131.032 124.78C131.21 125.054 131.298 125.407 131.298 125.84ZM136.049 120.289C136.724 120.289 137.303 120.428 137.786 120.706C138.269 120.984 138.64 121.378 138.9 121.889C139.16 122.399 139.29 123.01 139.29 123.721V124.582H134.238C134.256 125.316 134.452 125.881 134.826 126.277C135.204 126.674 135.733 126.872 136.412 126.872C136.895 126.872 137.328 126.826 137.711 126.735C138.098 126.64 138.497 126.501 138.907 126.318V127.624C138.529 127.802 138.143 127.932 137.752 128.014C137.36 128.096 136.89 128.137 136.343 128.137C135.601 128.137 134.947 127.993 134.381 127.706C133.821 127.414 133.381 126.981 133.062 126.407C132.748 125.833 132.59 125.12 132.59 124.268C132.59 123.42 132.734 122.7 133.021 122.107C133.308 121.515 133.712 121.064 134.231 120.754C134.751 120.444 135.357 120.289 136.049 120.289ZM136.049 121.499C135.544 121.499 135.133 121.663 134.819 121.991C134.509 122.319 134.327 122.8 134.272 123.434H137.717C137.713 123.055 137.649 122.72 137.526 122.429C137.407 122.137 137.225 121.909 136.979 121.745C136.738 121.581 136.428 121.499 136.049 121.499ZM151.335 120.433V128H150.07L149.851 126.981H149.762C149.603 127.241 149.4 127.458 149.154 127.631C148.908 127.799 148.634 127.925 148.334 128.007C148.033 128.093 147.716 128.137 147.383 128.137C146.814 128.137 146.326 128.041 145.921 127.85C145.519 127.654 145.212 127.353 144.998 126.947C144.783 126.542 144.676 126.018 144.676 125.375V120.433H146.29V125.074C146.29 125.662 146.408 126.102 146.645 126.394C146.887 126.685 147.26 126.831 147.766 126.831C148.254 126.831 148.641 126.731 148.928 126.53C149.215 126.33 149.418 126.034 149.537 125.642C149.66 125.25 149.721 124.769 149.721 124.199V120.433H151.335ZM157.583 120.289C158.435 120.289 159.098 120.51 159.572 120.952C160.05 121.39 160.29 122.094 160.29 123.064V128H158.683V123.365C158.683 122.777 158.562 122.338 158.321 122.046C158.079 121.75 157.706 121.602 157.2 121.602C156.466 121.602 155.956 121.827 155.669 122.278C155.386 122.729 155.245 123.383 155.245 124.24V128H153.638V120.433H154.889L155.115 121.458H155.204C155.368 121.194 155.571 120.977 155.812 120.809C156.058 120.635 156.332 120.506 156.632 120.419C156.938 120.332 157.254 120.289 157.583 120.289ZM164.145 120.433V128H162.539V120.433H164.145ZM163.352 117.534C163.598 117.534 163.81 117.6 163.988 117.732C164.17 117.865 164.261 118.092 164.261 118.416C164.261 118.735 164.17 118.963 163.988 119.1C163.81 119.232 163.598 119.298 163.352 119.298C163.097 119.298 162.88 119.232 162.703 119.1C162.53 118.963 162.443 118.735 162.443 118.416C162.443 118.092 162.53 117.865 162.703 117.732C162.88 117.6 163.097 117.534 163.352 117.534ZM169.265 126.838C169.475 126.838 169.682 126.82 169.887 126.783C170.092 126.742 170.279 126.694 170.448 126.64V127.856C170.27 127.934 170.04 128 169.757 128.055C169.475 128.109 169.181 128.137 168.876 128.137C168.447 128.137 168.062 128.066 167.72 127.925C167.379 127.779 167.107 127.531 166.907 127.18C166.706 126.829 166.606 126.343 166.606 125.724V121.656H165.574V120.938L166.681 120.371L167.208 118.751H168.219V120.433H170.386V121.656H168.219V125.703C168.219 126.086 168.315 126.371 168.506 126.558C168.698 126.744 168.951 126.838 169.265 126.838ZM177.072 125.84C177.072 126.337 176.951 126.756 176.71 127.098C176.468 127.439 176.115 127.699 175.65 127.877C175.19 128.05 174.625 128.137 173.955 128.137C173.426 128.137 172.97 128.098 172.587 128.021C172.209 127.948 171.851 127.834 171.514 127.679V126.291C171.874 126.46 172.278 126.605 172.724 126.729C173.175 126.852 173.601 126.913 174.003 126.913C174.531 126.913 174.912 126.831 175.144 126.667C175.377 126.498 175.493 126.275 175.493 125.997C175.493 125.833 175.445 125.687 175.349 125.56C175.258 125.427 175.085 125.293 174.83 125.156C174.579 125.015 174.21 124.846 173.722 124.65C173.244 124.459 172.84 124.268 172.512 124.076C172.184 123.885 171.936 123.655 171.767 123.386C171.599 123.112 171.514 122.764 171.514 122.34C171.514 121.67 171.779 121.162 172.307 120.815C172.84 120.465 173.545 120.289 174.42 120.289C174.884 120.289 175.322 120.337 175.732 120.433C176.147 120.524 176.552 120.658 176.949 120.836L176.443 122.046C176.101 121.896 175.757 121.772 175.411 121.677C175.069 121.576 174.72 121.526 174.365 121.526C173.95 121.526 173.633 121.59 173.415 121.718C173.2 121.845 173.093 122.028 173.093 122.265C173.093 122.442 173.146 122.593 173.251 122.716C173.355 122.839 173.535 122.962 173.791 123.085C174.05 123.208 174.41 123.361 174.871 123.543C175.322 123.716 175.712 123.898 176.04 124.09C176.372 124.277 176.628 124.507 176.805 124.78C176.983 125.054 177.072 125.407 177.072 125.84Z" fill="#1E1E1E"/>
<path opacity="0.2" d="M137.245 88.68C149.455 88.68 159.354 87.1578 159.354 85.28C159.354 83.4022 149.455 81.88 137.245 81.88C125.035 81.88 115.137 83.4022 115.137 85.28C115.137 87.1578 125.035 88.68 137.245 88.68Z" fill="url(#paint1_radial_538_3840)"/>
<path fill-rule="evenodd" clip-rule="evenodd" d="M157.042 42.79C157.354 42.79 157.608 42.53 157.608 42.21V15.87C157.608 7.13 150.664 0 142.131 0C133.637 0 126.654 7.13 126.654 15.87V42.21C126.654 42.53 126.908 42.79 127.22 42.79H157.052H157.042Z" fill="#BBBBBC"/>
<g style="mix-blend-mode:overlay" opacity="0.3">
<path fill-rule="evenodd" clip-rule="evenodd" d="M153.054 66.7301V18.8501C153.054 17.7201 152.176 16.8101 151.064 16.8101C150.001 16.8101 149.075 17.7101 149.075 18.8501V66.7301C149.075 67.8601 149.991 68.7701 151.064 68.7701C152.166 68.7701 153.054 67.8701 153.054 66.7301Z" fill="white"/>
</g>
<path fill-rule="evenodd" clip-rule="evenodd" d="M156.847 69.71V42.79H127.405V69.71C127.405 78.46 134.047 85.58 142.131 85.58C150.245 85.58 156.847 78.45 156.847 69.71Z" fill="#D7D8D8"/>
<path fill-rule="evenodd" clip-rule="evenodd" d="M156.847 69.71V42.79H129.931V68.5C129.931 76.79 136.221 83.62 143.954 83.62C147.943 83.62 151.542 81.81 154.097 78.91C155.842 76.31 156.857 73.14 156.857 69.71H156.847Z" fill="#EAEBEB"/>
<path fill-rule="evenodd" clip-rule="evenodd" d="M153.054 42.79H149.084V66.73C149.084 67.86 150.001 68.77 151.074 68.77C152.176 68.77 153.063 67.87 153.063 66.73V42.79H153.054Z" fill="white"/>
<g style="mix-blend-mode:overlay" opacity="0.3">
<path fill-rule="evenodd" clip-rule="evenodd" d="M153.346 8.94003C152.722 10.26 151.025 8.34003 148.46 7.02003C145.847 5.74003 143.35 5.55003 143.974 4.27003C144.598 2.95003 147.173 2.95003 149.787 4.27003C152.361 5.55003 153.941 7.66003 153.356 8.94003H153.346Z" fill="white"/>
</g>
<path d="M133.851 57.73V63.59H137.85C137.489 63.32 137.187 62.93 136.952 62.42C136.718 61.91 136.601 61.35 136.601 60.76C136.601 59.89 136.777 59.17 137.128 58.62C137.479 58.07 137.928 57.66 138.484 57.42C139.039 57.17 139.634 57.05 140.268 57.05C141 57.05 141.653 57.19 142.238 57.47C142.823 57.75 143.291 58.18 143.633 58.77C143.974 59.35 144.15 60.07 144.15 60.94C144.15 62.04 143.867 62.93 143.311 63.61C142.755 64.29 142.004 64.71 141.058 64.86V63.76C141.741 63.62 142.277 63.3 142.648 62.8C143.018 62.3 143.213 61.68 143.213 60.94C143.213 60.01 142.95 59.31 142.414 58.84C141.877 58.37 141.165 58.13 140.288 58.13C139.41 58.13 138.747 58.37 138.269 58.85C137.781 59.33 137.547 60.02 137.547 60.91C137.547 61.53 137.684 62.07 137.967 62.54C138.25 63.01 138.63 63.36 139.108 63.58V64.64H132.915V57.74H133.871L133.851 57.73Z" fill="#231F20"/>
<path d="M144.101 48.68L139.059 53.53H144.101V54.65H133.198V53.53H138.298L133.198 48.68V47.26L138.64 52.49L144.101 47.21V48.68Z" fill="#231F20"/>
<g style="mix-blend-mode:overlay" opacity="0.47">
<path fill-rule="evenodd" clip-rule="evenodd" d="M132.203 4.9C134.837 1.96 138.523 0.09 142.619 0.01C142.473 0.01 142.326 0 142.17 0C133.676 0 126.693 7.13 126.693 15.87V42.21C126.693 42.53 126.947 42.79 127.259 42.79H129.307V14.58C129.307 10.98 130.37 7.63 132.213 4.9H132.203Z" fill="#231F20"/>
</g>
<path d="M215.093 111H213.48V104.567C213.48 104.353 213.482 104.139 213.486 103.925C213.491 103.711 213.496 103.501 213.5 103.296C213.509 103.091 213.521 102.895 213.534 102.708C213.439 102.813 213.32 102.927 213.179 103.05C213.042 103.173 212.896 103.3 212.741 103.433L211.593 104.349L210.786 103.33L213.753 101.006H215.093V111ZM225.149 105.996C225.149 106.803 225.085 107.525 224.957 108.163C224.834 108.797 224.638 109.334 224.369 109.776C224.1 110.218 223.749 110.556 223.317 110.788C222.884 111.021 222.359 111.137 221.744 111.137C220.974 111.137 220.338 110.934 219.837 110.528C219.336 110.118 218.964 109.53 218.723 108.765C218.481 107.994 218.36 107.072 218.36 105.996C218.36 104.921 218.47 104 218.689 103.234C218.912 102.464 219.272 101.874 219.769 101.464C220.265 101.054 220.924 100.849 221.744 100.849C222.519 100.849 223.157 101.054 223.658 101.464C224.164 101.869 224.538 102.457 224.779 103.228C225.025 103.993 225.149 104.916 225.149 105.996ZM219.981 105.996C219.981 106.839 220.035 107.543 220.145 108.108C220.259 108.674 220.445 109.097 220.705 109.38C220.965 109.658 221.311 109.797 221.744 109.797C222.177 109.797 222.524 109.658 222.783 109.38C223.043 109.102 223.23 108.68 223.344 108.115C223.462 107.55 223.522 106.844 223.522 105.996C223.522 105.158 223.465 104.456 223.351 103.891C223.237 103.326 223.05 102.902 222.79 102.619C222.53 102.332 222.182 102.188 221.744 102.188C221.307 102.188 220.958 102.332 220.698 102.619C220.443 102.902 220.259 103.326 220.145 103.891C220.035 104.456 219.981 105.158 219.981 105.996ZM228.532 109.373L228.628 109.53C228.546 109.858 228.441 110.212 228.314 110.59C228.186 110.968 228.047 111.346 227.897 111.725C227.746 112.107 227.594 112.467 227.439 112.805H226.263C226.358 112.436 226.45 112.048 226.536 111.643C226.627 111.242 226.709 110.845 226.782 110.453C226.86 110.057 226.921 109.697 226.967 109.373H228.532ZM236.975 105.996C236.975 106.803 236.911 107.525 236.783 108.163C236.66 108.797 236.464 109.334 236.195 109.776C235.927 110.218 235.576 110.556 235.143 110.788C234.71 111.021 234.186 111.137 233.57 111.137C232.8 111.137 232.164 110.934 231.663 110.528C231.162 110.118 230.79 109.53 230.549 108.765C230.307 107.994 230.187 107.072 230.187 105.996C230.187 104.921 230.296 104 230.515 103.234C230.738 102.464 231.098 101.874 231.595 101.464C232.092 101.054 232.75 100.849 233.57 100.849C234.345 100.849 234.983 101.054 235.484 101.464C235.99 101.869 236.364 102.457 236.606 103.228C236.852 103.993 236.975 104.916 236.975 105.996ZM231.807 105.996C231.807 106.839 231.861 107.543 231.971 108.108C232.085 108.674 232.272 109.097 232.531 109.38C232.791 109.658 233.137 109.797 233.57 109.797C234.003 109.797 234.35 109.658 234.609 109.38C234.869 109.102 235.056 108.68 235.17 108.115C235.289 107.55 235.348 106.844 235.348 105.996C235.348 105.158 235.291 104.456 235.177 103.891C235.063 103.326 234.876 102.902 234.616 102.619C234.357 102.332 234.008 102.188 233.57 102.188C233.133 102.188 232.784 102.332 232.525 102.619C232.269 102.902 232.085 103.326 231.971 103.891C231.861 104.456 231.807 105.158 231.807 105.996ZM244.986 105.996C244.986 106.803 244.923 107.525 244.795 108.163C244.672 108.797 244.476 109.334 244.207 109.776C243.938 110.218 243.587 110.556 243.154 110.788C242.721 111.021 242.197 111.137 241.582 111.137C240.812 111.137 240.176 110.934 239.675 110.528C239.174 110.118 238.802 109.53 238.561 108.765C238.319 107.994 238.198 107.072 238.198 105.996C238.198 104.921 238.308 104 238.526 103.234C238.75 102.464 239.11 101.874 239.607 101.464C240.103 101.054 240.762 100.849 241.582 100.849C242.357 100.849 242.995 101.054 243.496 101.464C244.002 101.869 244.376 102.457 244.617 103.228C244.863 103.993 244.986 104.916 244.986 105.996ZM239.818 105.996C239.818 106.839 239.873 107.543 239.983 108.108C240.096 108.674 240.283 109.097 240.543 109.38C240.803 109.658 241.149 109.797 241.582 109.797C242.015 109.797 242.361 109.658 242.621 109.38C242.881 109.102 243.068 108.68 243.182 108.115C243.3 107.55 243.359 106.844 243.359 105.996C243.359 105.158 243.303 104.456 243.189 103.891C243.075 103.326 242.888 102.902 242.628 102.619C242.368 102.332 242.02 102.188 241.582 102.188C241.145 102.188 240.796 102.332 240.536 102.619C240.281 102.902 240.096 103.326 239.983 103.891C239.873 104.456 239.818 105.158 239.818 105.996ZM252.998 105.996C252.998 106.803 252.934 107.525 252.807 108.163C252.684 108.797 252.488 109.334 252.219 109.776C251.95 110.218 251.599 110.556 251.166 110.788C250.733 111.021 250.209 111.137 249.594 111.137C248.824 111.137 248.188 110.934 247.687 110.528C247.185 110.118 246.814 109.53 246.572 108.765C246.331 107.994 246.21 107.072 246.21 105.996C246.21 104.921 246.319 104 246.538 103.234C246.761 102.464 247.122 101.874 247.618 101.464C248.115 101.054 248.774 100.849 249.594 100.849C250.369 100.849 251.007 101.054 251.508 101.464C252.014 101.869 252.387 102.457 252.629 103.228C252.875 103.993 252.998 104.916 252.998 105.996ZM247.83 105.996C247.83 106.839 247.885 107.543 247.994 108.108C248.108 108.674 248.295 109.097 248.555 109.38C248.815 109.658 249.161 109.797 249.594 109.797C250.027 109.797 250.373 109.658 250.633 109.38C250.893 109.102 251.08 108.68 251.193 108.115C251.312 107.55 251.371 106.844 251.371 105.996C251.371 105.158 251.314 104.456 251.2 103.891C251.086 103.326 250.9 102.902 250.64 102.619C250.38 102.332 250.031 102.188 249.594 102.188C249.156 102.188 248.808 102.332 248.548 102.619C248.293 102.902 248.108 103.326 247.994 103.891C247.885 104.456 247.83 105.158 247.83 105.996ZM195.809 128H194.195V117.363H195.809V128ZM199.712 120.433V128H198.106V120.433H199.712ZM198.919 117.534C199.165 117.534 199.377 117.6 199.555 117.732C199.737 117.865 199.828 118.092 199.828 118.416C199.828 118.735 199.737 118.963 199.555 119.1C199.377 119.232 199.165 119.298 198.919 119.298C198.664 119.298 198.447 119.232 198.27 119.1C198.096 118.963 198.01 118.735 198.01 118.416C198.01 118.092 198.096 117.865 198.27 117.732C198.447 117.6 198.664 117.534 198.919 117.534ZM205.899 120.289C206.796 120.289 207.516 120.617 208.059 121.273C208.606 121.93 208.879 122.905 208.879 124.199C208.879 125.056 208.751 125.778 208.496 126.366C208.246 126.95 207.892 127.392 207.437 127.692C206.985 127.989 206.459 128.137 205.858 128.137C205.475 128.137 205.142 128.087 204.859 127.986C204.577 127.886 204.335 127.756 204.135 127.597C203.934 127.433 203.766 127.255 203.629 127.063H203.533C203.556 127.246 203.577 127.449 203.595 127.672C203.618 127.891 203.629 128.091 203.629 128.273V131.356H202.016V120.433H203.328L203.554 121.479H203.629C203.77 121.264 203.941 121.066 204.142 120.884C204.347 120.701 204.593 120.558 204.88 120.453C205.172 120.344 205.511 120.289 205.899 120.289ZM205.468 121.602C205.026 121.602 204.67 121.69 204.401 121.868C204.137 122.041 203.943 122.303 203.82 122.654C203.702 123.005 203.638 123.445 203.629 123.974V124.199C203.629 124.76 203.686 125.236 203.8 125.628C203.918 126.015 204.112 126.312 204.381 126.517C204.654 126.717 205.024 126.817 205.488 126.817C205.88 126.817 206.204 126.71 206.459 126.496C206.719 126.282 206.913 125.977 207.04 125.58C207.168 125.184 207.232 124.716 207.232 124.179C207.232 123.363 207.086 122.729 206.794 122.278C206.507 121.827 206.065 121.602 205.468 121.602ZM213.705 120.289C214.662 120.289 215.385 120.501 215.872 120.925C216.364 121.349 216.61 122.009 216.61 122.907V128H215.469L215.161 126.927H215.107C214.892 127.2 214.671 127.426 214.443 127.604C214.216 127.781 213.951 127.913 213.65 128C213.354 128.091 212.992 128.137 212.564 128.137C212.112 128.137 211.709 128.055 211.354 127.891C210.998 127.722 210.718 127.467 210.513 127.125C210.308 126.783 210.205 126.35 210.205 125.826C210.205 125.047 210.495 124.461 211.073 124.069C211.657 123.677 212.536 123.461 213.712 123.42L215.025 123.372V122.976C215.025 122.451 214.901 122.078 214.655 121.854C214.414 121.631 214.072 121.52 213.63 121.52C213.252 121.52 212.885 121.574 212.529 121.684C212.174 121.793 211.828 121.927 211.49 122.087L210.971 120.952C211.34 120.756 211.759 120.597 212.229 120.474C212.703 120.351 213.195 120.289 213.705 120.289ZM215.018 124.384L214.04 124.418C213.238 124.445 212.675 124.582 212.352 124.828C212.028 125.074 211.866 125.411 211.866 125.84C211.866 126.214 211.978 126.487 212.201 126.66C212.425 126.829 212.719 126.913 213.083 126.913C213.639 126.913 214.099 126.756 214.464 126.441C214.833 126.122 215.018 125.655 215.018 125.04V124.384ZM223.945 125.84C223.945 126.337 223.825 126.756 223.583 127.098C223.342 127.439 222.988 127.699 222.524 127.877C222.063 128.05 221.498 128.137 220.828 128.137C220.3 128.137 219.844 128.098 219.461 128.021C219.083 127.948 218.725 127.834 218.388 127.679V126.291C218.748 126.46 219.151 126.605 219.598 126.729C220.049 126.852 220.475 126.913 220.876 126.913C221.405 126.913 221.785 126.831 222.018 126.667C222.25 126.498 222.366 126.275 222.366 125.997C222.366 125.833 222.318 125.687 222.223 125.56C222.132 125.427 221.958 125.293 221.703 125.156C221.453 125.015 221.083 124.846 220.596 124.65C220.117 124.459 219.714 124.268 219.386 124.076C219.058 123.885 218.809 123.655 218.641 123.386C218.472 123.112 218.388 122.764 218.388 122.34C218.388 121.67 218.652 121.162 219.181 120.815C219.714 120.465 220.418 120.289 221.293 120.289C221.758 120.289 222.195 120.337 222.606 120.433C223.02 120.524 223.426 120.658 223.822 120.836L223.317 122.046C222.975 121.896 222.631 121.772 222.284 121.677C221.942 121.576 221.594 121.526 221.238 121.526C220.824 121.526 220.507 121.59 220.288 121.718C220.074 121.845 219.967 122.028 219.967 122.265C219.967 122.442 220.019 122.593 220.124 122.716C220.229 122.839 220.409 122.962 220.664 123.085C220.924 123.208 221.284 123.361 221.744 123.543C222.195 123.716 222.585 123.898 222.913 124.09C223.246 124.277 223.501 124.507 223.679 124.78C223.857 125.054 223.945 125.407 223.945 125.84ZM228.696 120.289C229.371 120.289 229.95 120.428 230.433 120.706C230.916 120.984 231.287 121.378 231.547 121.889C231.807 122.399 231.937 123.01 231.937 123.721V124.582H226.885C226.903 125.316 227.099 125.881 227.473 126.277C227.851 126.674 228.38 126.872 229.059 126.872C229.542 126.872 229.975 126.826 230.358 126.735C230.745 126.64 231.144 126.501 231.554 126.318V127.624C231.176 127.802 230.79 127.932 230.399 128.014C230.007 128.096 229.537 128.137 228.99 128.137C228.247 128.137 227.594 127.993 227.028 127.706C226.468 127.414 226.028 126.981 225.709 126.407C225.395 125.833 225.237 125.12 225.237 124.268C225.237 123.42 225.381 122.7 225.668 122.107C225.955 121.515 226.358 121.064 226.878 120.754C227.398 120.444 228.004 120.289 228.696 120.289ZM228.696 121.499C228.191 121.499 227.78 121.663 227.466 121.991C227.156 122.319 226.974 122.8 226.919 123.434H230.364C230.36 123.055 230.296 122.72 230.173 122.429C230.054 122.137 229.872 121.909 229.626 121.745C229.385 121.581 229.075 121.499 228.696 121.499ZM243.982 120.433V128H242.717L242.498 126.981H242.409C242.25 127.241 242.047 127.458 241.801 127.631C241.555 127.799 241.281 127.925 240.981 128.007C240.68 128.093 240.363 128.137 240.03 128.137C239.461 128.137 238.973 128.041 238.567 127.85C238.166 127.654 237.859 127.353 237.645 126.947C237.43 126.542 237.323 126.018 237.323 125.375V120.433H238.937V125.074C238.937 125.662 239.055 126.102 239.292 126.394C239.534 126.685 239.907 126.831 240.413 126.831C240.901 126.831 241.288 126.731 241.575 126.53C241.862 126.33 242.065 126.034 242.184 125.642C242.307 125.25 242.368 124.769 242.368 124.199V120.433H243.982ZM250.23 120.289C251.082 120.289 251.745 120.51 252.219 120.952C252.697 121.39 252.937 122.094 252.937 123.064V128H251.33V123.365C251.33 122.777 251.209 122.338 250.968 122.046C250.726 121.75 250.353 121.602 249.847 121.602C249.113 121.602 248.603 121.827 248.316 122.278C248.033 122.729 247.892 123.383 247.892 124.24V128H246.285V120.433H247.536L247.762 121.458H247.851C248.015 121.194 248.218 120.977 248.459 120.809C248.705 120.635 248.979 120.506 249.279 120.419C249.585 120.332 249.901 120.289 250.23 120.289ZM256.792 120.433V128H255.186V120.433H256.792ZM255.999 117.534C256.245 117.534 256.457 117.6 256.635 117.732C256.817 117.865 256.908 118.092 256.908 118.416C256.908 118.735 256.817 118.963 256.635 119.1C256.457 119.232 256.245 119.298 255.999 119.298C255.744 119.298 255.527 119.232 255.35 119.1C255.177 118.963 255.09 118.735 255.09 118.416C255.09 118.092 255.177 117.865 255.35 117.732C255.527 117.6 255.744 117.534 255.999 117.534ZM261.912 126.838C262.122 126.838 262.329 126.82 262.534 126.783C262.739 126.742 262.926 126.694 263.095 126.64V127.856C262.917 127.934 262.687 128 262.404 128.055C262.122 128.109 261.828 128.137 261.523 128.137C261.094 128.137 260.709 128.066 260.367 127.925C260.025 127.779 259.754 127.531 259.554 127.18C259.353 126.829 259.253 126.343 259.253 125.724V121.656H258.221V120.938L259.328 120.371L259.855 118.751H260.866V120.433H263.033V121.656H260.866V125.703C260.866 126.086 260.962 126.371 261.153 126.558C261.345 126.744 261.598 126.838 261.912 126.838ZM269.719 125.84C269.719 126.337 269.598 126.756 269.357 127.098C269.115 127.439 268.762 127.699 268.297 127.877C267.837 128.05 267.272 128.137 266.602 128.137C266.073 128.137 265.617 128.098 265.234 128.021C264.856 127.948 264.498 127.834 264.161 127.679V126.291C264.521 126.46 264.925 126.605 265.371 126.729C265.822 126.852 266.248 126.913 266.65 126.913C267.178 126.913 267.559 126.831 267.791 126.667C268.024 126.498 268.14 126.275 268.14 125.997C268.14 125.833 268.092 125.687 267.996 125.56C267.905 125.427 267.732 125.293 267.477 125.156C267.226 125.015 266.857 124.846 266.369 124.65C265.891 124.459 265.487 124.268 265.159 124.076C264.831 123.885 264.583 123.655 264.414 123.386C264.246 123.112 264.161 122.764 264.161 122.34C264.161 121.67 264.426 121.162 264.954 120.815C265.487 120.465 266.191 120.289 267.066 120.289C267.531 120.289 267.969 120.337 268.379 120.433C268.794 120.524 269.199 120.658 269.596 120.836L269.09 122.046C268.748 121.896 268.404 121.772 268.058 121.677C267.716 121.576 267.367 121.526 267.012 121.526C266.597 121.526 266.28 121.59 266.062 121.718C265.847 121.845 265.74 122.028 265.74 122.265C265.74 122.442 265.793 122.593 265.898 122.716C266.002 122.839 266.182 122.962 266.438 123.085C266.697 123.208 267.057 123.361 267.518 123.543C267.969 123.716 268.358 123.898 268.687 124.09C269.019 124.277 269.275 124.507 269.452 124.78C269.63 125.054 269.719 125.407 269.719 125.84Z" fill="#1E1E1E"/>
<path opacity="0.2" d="M229.892 88.68C242.102 88.68 252.001 87.1578 252.001 85.28C252.001 83.4022 242.102 81.88 229.892 81.88C217.682 81.88 207.784 83.4022 207.784 85.28C207.784 87.1578 217.682 88.68 229.892 88.68Z" fill="url(#paint2_radial_538_3840)"/>
<path fill-rule="evenodd" clip-rule="evenodd" d="M249.689 42.79C250.001 42.79 250.255 42.53 250.255 42.21V15.87C250.255 7.13 243.311 0 234.778 0C226.284 0 219.301 7.13 219.301 15.87V42.21C219.301 42.53 219.555 42.79 219.867 42.79H249.699H249.689Z" fill="#EFC51A"/>
<g style="mix-blend-mode:overlay" opacity="0.3">
<path fill-rule="evenodd" clip-rule="evenodd" d="M245.701 66.7301V18.8501C245.701 17.7201 244.823 16.8101 243.711 16.8101C242.648 16.8101 241.722 17.7101 241.722 18.8501V66.7301C241.722 67.8601 242.638 68.7701 243.711 68.7701C244.813 68.7701 245.701 67.8701 245.701 66.7301Z" fill="white"/>
</g>
<path fill-rule="evenodd" clip-rule="evenodd" d="M249.494 69.71V42.79H220.052V69.71C220.052 78.46 226.694 85.58 234.778 85.58C242.892 85.58 249.494 78.45 249.494 69.71Z" fill="#D7D8D8"/>
<path fill-rule="evenodd" clip-rule="evenodd" d="M249.494 69.71V42.79H222.578V68.5C222.578 76.79 228.868 83.62 236.601 83.62C240.59 83.62 244.189 81.81 246.744 78.91C248.489 76.31 249.504 73.14 249.504 69.71H249.494Z" fill="#EAEBEB"/>
<path fill-rule="evenodd" clip-rule="evenodd" d="M245.701 42.79H241.731V66.73C241.731 67.86 242.648 68.77 243.721 68.77C244.823 68.77 245.71 67.87 245.71 66.73V42.79H245.701Z" fill="white"/>
<g style="mix-blend-mode:overlay" opacity="0.3">
<path fill-rule="evenodd" clip-rule="evenodd" d="M245.993 8.94003C245.369 10.26 243.672 8.34003 241.107 7.02003C238.494 5.74003 235.997 5.55003 236.621 4.27003C237.245 2.95003 239.82 2.95003 242.434 4.27003C245.008 5.55003 246.588 7.66003 246.003 8.94003H245.993Z" fill="white"/>
</g>
<path d="M226.547 70.31H225.562V67.59H236.748V68.73H226.547V70.31Z" fill="#231F20"/>
<path d="M226.889 64.1C225.904 63.53 225.406 62.52 225.406 61.06C225.406 59.6 225.904 58.59 226.889 58.02C227.874 57.45 229.268 57.17 231.053 57.17C232.837 57.17 234.281 57.45 235.285 58.02C236.29 58.59 236.787 59.6 236.787 61.06C236.787 62.52 236.29 63.55 235.285 64.11C234.291 64.67 232.876 64.95 231.053 64.95C229.229 64.95 227.874 64.67 226.889 64.1ZM228.605 58.49C227.942 58.63 227.405 58.9 226.996 59.31C226.586 59.72 226.391 60.3 226.391 61.07C226.391 61.84 226.596 62.42 226.996 62.83C227.396 63.24 227.942 63.51 228.605 63.65C229.268 63.79 230.087 63.86 231.053 63.86C232.018 63.86 232.886 63.79 233.559 63.65C234.232 63.51 234.768 63.24 235.178 62.83C235.588 62.42 235.783 61.84 235.783 61.07C235.783 60.3 235.578 59.72 235.178 59.31C234.768 58.91 234.232 58.63 233.559 58.49C232.886 58.35 232.057 58.28 231.053 58.28C230.048 58.28 229.268 58.35 228.605 58.49Z" fill="#231F20"/>
<path d="M236.748 48.68L231.706 53.53H236.748V54.65H225.845V53.53H230.946L225.845 48.68V47.26L231.287 52.49L236.748 47.21V48.68Z" fill="#231F20"/>
<g style="mix-blend-mode:overlay" opacity="0.47">
<path fill-rule="evenodd" clip-rule="evenodd" d="M224.85 4.9C227.483 1.96 231.17 0.09 235.266 0.01C235.12 0.01 234.973 0 234.817 0C226.323 0 219.34 7.13 219.34 15.87V42.21C219.34 42.53 219.594 42.79 219.906 42.79H221.954V14.58C221.954 10.98 223.017 7.63 224.86 4.9H224.85Z" fill="#231F20"/>
</g>
<defs>
<radialGradient id="paint0_radial_538_3840" cx="0" cy="0" r="1" gradientUnits="userSpaceOnUse" gradientTransform="translate(45.1602 85.6095) rotate(-180) scale(22.67 3.4005)">
<stop/>
<stop offset="1" stop-color="white"/>
</radialGradient>
<radialGradient id="paint1_radial_538_3840" cx="0" cy="0" r="1" gradientUnits="userSpaceOnUse" gradientTransform="translate(137.255 85.6095) rotate(-180) scale(22.1084 3.4005)">
<stop/>
<stop offset="1" stop-color="white"/>
</radialGradient>
<radialGradient id="paint2_radial_538_3840" cx="0" cy="0" r="1" gradientUnits="userSpaceOnUse" gradientTransform="translate(229.902 85.6095) rotate(-180) scale(22.1084 3.4005)">
<stop/>
<stop offset="1" stop-color="white"/>
</radialGradient>
<clipPath id="clip0_538_3840">
<rect width="45.34" height="88.68" fill="white" transform="translate(22.4902)"/>
</clipPath>
</defs>
</svg>
