<svg width="684" height="136" viewBox="0 0 684 136" fill="none" xmlns="http://www.w3.org/2000/svg">
<path d="M651.54 76.66C650.82 76.6 650.26 76.41 649.83 76.1C649.33 75.72 649.06 75.22 649.06 74.67V60.19C649.06 59.65 649.33 59.14 649.82 58.77C650.25 58.45 650.8 58.24 651.41 58.14C651.46 58.14 651.51 58.13 651.56 58.13H674.98C675.03 58.13 675.08 58.13 675.13 58.14C680.16 58.23 684.23 62.35 684.23 67.4C684.23 72.45 680.08 76.66 674.97 76.66H651.54Z" fill="#CEA2C8"/>
<path d="M674.98 59.13H674.97C679.53 59.14 683.23 62.84 683.23 67.4C683.23 71.96 679.53 75.66 674.97 75.66H651.54C651.07 75.62 650.68 75.48 650.42 75.29C650.17 75.1 650.06 74.88 650.06 74.67V60.19C650.06 59.98 650.17 59.76 650.43 59.56C650.7 59.36 651.09 59.2 651.56 59.13H674.98ZM674.98 57.13H651.56C651.46 57.13 651.36 57.13 651.27 57.15C650.5 57.27 649.8 57.54 649.24 57.95C648.47 58.54 648.06 59.33 648.06 60.19V74.67C648.06 75.52 648.48 76.33 649.21 76.88C649.81 77.32 650.55 77.58 651.37 77.65C651.43 77.65 651.48 77.65 651.54 77.65H674.97C680.63 77.65 685.23 73.05 685.23 67.39C685.23 61.73 680.75 57.26 675.2 57.13C675.13 57.13 675.05 57.12 674.98 57.12V57.13Z" fill="#6C015D"/>
<path d="M228.95 134.48C215.76 134.48 178.21 129.79 147.01 122.15C145.46 121.77 143.89 121.58 142.35 121.58H39.7301C31.5601 121.58 24.0801 116.78 20.6501 109.36L2.93009 70.87C0.690091 66 0.380091 60.52 2.08009 55.44L16.0401 13.52C18.4801 6.20003 25.3101 1.28003 33.0301 1.28003H563.1C573.97 1.28003 582.81 10.12 582.81 20.98V40.99C582.81 46.23 587.07 50.49 592.3 50.49H599.27C601.77 50.49 603.8 52.52 603.8 55.02C603.8 56.42 604.93 57.55 606.33 57.55H609.66C613.99 57.55 617.52 61.08 617.52 65.41V69.39C617.52 73.72 613.99 77.25 609.66 77.25H605.99C604.78 77.25 603.8 78.23 603.8 79.44C603.8 81.75 601.92 83.63 599.61 83.63H592.3C587.07 83.63 582.81 87.89 582.81 93.12V113.48C582.81 125.06 573.39 134.48 561.81 134.48H228.95ZM245.98 77.77C240.65 77.77 235.71 79.92 232.08 83.82C228.45 87.72 226.65 92.8 227.03 98.11L227.74 108.11C228.1 113.15 232.34 117.1 237.39 117.1H548.71C554.79 117.1 559.74 112.15 559.74 106.07V96.77C559.74 86.29 551.22 77.77 540.74 77.77H245.98ZM43.6001 83.63C40.9701 83.63 38.5601 84.95 37.1401 87.16C35.7201 89.37 35.5301 92.11 36.6301 94.5L38.3101 98.16C39.9701 101.78 43.6301 104.13 47.6201 104.13H130.64V93.17C130.64 87.91 126.36 83.63 121.1 83.63H113.75C112.5 83.63 111.34 84.2 110.59 85.2C109.84 86.19 109.6 87.46 109.94 88.66C110.45 90.47 110.09 92.37 108.95 93.87C107.81 95.37 106.08 96.23 104.19 96.23H58.0801C56.2001 96.23 54.4301 95.4 53.2301 93.94C52.0301 92.48 51.5501 90.59 51.9201 88.74C52.1701 87.48 51.8501 86.19 51.0301 85.2C50.2101 84.2 49.0101 83.63 47.7201 83.63H43.6001ZM50.4001 29.84C42.2101 29.84 34.9701 35.06 32.3801 42.84L24.8201 65.53C24.4001 66.79 24.4701 68.15 25.0301 69.37C25.8801 71.21 27.7401 72.41 29.7701 72.41H146.99L147.06 66.46C147.11 62.17 150.63 58.68 154.92 58.68H545.4C553.35 58.68 559.81 52.21 559.81 44.26C559.81 36.31 553.35 29.85 545.4 29.85H50.4001V29.84Z" fill="#CEA2C8"/>
<path d="M563.1 2.28003C573.43 2.28003 581.81 10.65 581.81 20.98V40.99C581.81 46.79 586.5 51.49 592.3 51.49H599.27C601.22 51.49 602.8 53.07 602.8 55.02C602.8 56.97 604.38 58.55 606.33 58.55H609.66C613.45 58.55 616.52 61.62 616.52 65.41V69.39C616.52 73.18 613.45 76.25 609.66 76.25H605.99C604.23 76.25 602.8 77.68 602.8 79.44C602.8 81.2 601.37 82.63 599.61 82.63H592.3C586.51 82.63 581.81 87.32 581.81 93.12V113.48C581.81 124.53 572.85 133.48 561.81 133.48H228.95C215.08 133.48 177.19 128.51 147.25 121.18C145.65 120.79 144 120.58 142.35 120.58H39.7301C31.9201 120.58 24.8301 116.03 21.5601 108.94L3.84012 70.45C1.71012 65.83 1.42012 60.58 3.03012 55.76L16.9901 13.84C19.2901 6.94003 25.7501 2.28003 33.0301 2.28003H563.1ZM29.7701 73.4H148.06C148.01 73.4 147.98 73.32 147.98 73.32L148.06 66.46C148.1 62.7 151.16 59.67 154.92 59.67H545.41C553.92 59.66 560.82 52.76 560.82 44.25C560.82 35.74 553.92 28.84 545.41 28.84H50.4001C41.7901 28.84 34.1501 34.35 31.4301 42.52L23.8701 65.21C23.3701 66.71 23.4601 68.34 24.1201 69.78C25.1401 71.99 27.3401 73.4 29.7701 73.4ZM237.39 118.1H548.71C555.35 118.1 560.74 112.72 560.74 106.07V96.77C560.74 85.72 551.79 76.77 540.74 76.77H245.98C234.38 76.77 225.21 86.61 226.03 98.18L226.74 108.18C227.14 113.77 231.79 118.1 237.39 118.1ZM58.0801 95.23C54.7601 95.23 52.2601 92.19 52.9001 88.93C53.5501 85.67 51.0501 82.63 47.7201 82.63H43.6001C37.2801 82.63 33.0801 89.18 35.7201 94.92L37.4001 98.58C39.2301 102.57 43.2301 105.13 47.6201 105.13H131.56C131.61 105.13 131.64 105.05 131.64 105.05V93.17C131.64 87.35 126.92 82.63 121.1 82.63H113.75C110.46 82.63 108.08 85.76 108.97 88.93C109.86 92.09 107.48 95.23 104.19 95.23H58.0801ZM563.1 0.280029H33.0301C24.8801 0.280029 17.6701 5.48003 15.0901 13.21L1.13012 55.13C-0.649879 60.45 -0.329879 66.19 2.02012 71.29L19.7401 109.78C23.3301 117.56 31.1701 122.58 39.7301 122.58H142.35C143.81 122.58 145.3 122.76 146.78 123.12C178.05 130.78 215.72 135.48 228.95 135.48H561.81C573.94 135.48 583.81 125.61 583.81 113.48V93.12C583.81 88.44 587.62 84.63 592.3 84.63H599.61C602.47 84.63 604.8 82.3 604.8 79.44C604.8 78.78 605.33 78.25 605.99 78.25H609.66C614.55 78.25 618.52 74.28 618.52 69.39V65.41C618.52 60.52 614.55 56.55 609.66 56.55H606.33C605.49 56.55 604.8 55.86 604.8 55.02C604.8 51.97 602.32 49.49 599.27 49.49H592.3C587.62 49.49 583.81 45.68 583.81 40.99V20.98C583.81 9.57003 574.52 0.280029 563.1 0.280029ZM29.7701 71.4C28.1301 71.4 26.6301 70.44 25.9401 68.94C25.4901 67.96 25.4301 66.86 25.7701 65.84L33.3301 43.15C35.7801 35.79 42.6401 30.84 50.4001 30.84H545.4C552.79 30.84 558.81 36.86 558.81 44.25C558.81 51.64 552.79 57.66 545.4 57.66H540.6L154.91 57.67C150.08 57.67 146.1 61.6 146.05 66.44L145.99 71.4H29.7701ZM237.39 116.1C232.86 116.1 229.06 112.56 228.73 108.04L228.02 98.04C227.66 93.01 229.36 88.2 232.8 84.5C236.24 80.8 240.92 78.77 245.97 78.77H540.73C550.66 78.77 558.73 86.84 558.73 96.77V106.07C558.73 111.6 554.23 116.1 548.7 116.1H237.39ZM58.0801 97.23H104.19C106.39 97.23 108.42 96.22 109.74 94.47C111.07 92.72 111.49 90.5 110.89 88.39C110.64 87.49 110.82 86.55 111.38 85.8C111.94 85.05 112.81 84.63 113.75 84.63H121.1C125.81 84.63 129.64 88.46 129.64 93.17V103.13H47.6201C44.0201 103.13 40.7201 101.02 39.2201 97.75L37.5401 94.09C36.5901 92.02 36.7501 89.63 37.9801 87.71C39.2101 85.79 41.3101 84.64 43.6001 84.64H47.7201C48.7101 84.64 49.6301 85.08 50.2601 85.84C50.8801 86.6 51.1301 87.59 50.9401 88.55C50.5201 90.7 51.0701 92.9 52.4601 94.59C53.8501 96.28 55.9001 97.25 58.0801 97.25V97.23Z" fill="#6C015D"/>
</svg>
