<svg width="446" height="87" viewBox="0 0 446 87" fill="none" xmlns="http://www.w3.org/2000/svg">
<path d="M423.733 49.6255H423.688C423.146 49.5864 422.664 49.4169 422.279 49.1365C421.79 48.778 421.51 48.2499 421.51 47.6827V38.2424C421.51 37.6817 421.777 37.1667 422.266 36.7951C422.625 36.5213 423.088 36.3387 423.609 36.2605L423.701 36.2474H439.061C442.751 36.2474 445.75 39.2464 445.75 42.9365C445.75 46.6265 442.751 49.6255 439.061 49.6255H423.74H423.733Z" fill="#6C015D"/>
<path d="M439.054 37.5448H423.785C423.479 37.5905 423.225 37.6948 423.049 37.8252C422.879 37.9556 422.807 38.099 422.807 38.2359V47.6762C422.807 47.8131 422.879 47.9565 423.042 48.0804C423.212 48.2042 423.466 48.2955 423.772 48.3216H439.048C442.02 48.3216 444.433 45.9094 444.433 42.9365C444.433 39.9636 442.02 37.5514 439.048 37.5514L439.054 37.5448Z" fill="#CEA2C8"/>
<path d="M20.5336 0.481354C15.7874 0.481354 11.5757 3.51945 10.0763 8.01792L0.975012 35.3477C-0.07463 38.4901 0.114436 41.9129 1.50309 44.9249L13.0557 70.0185C15.1876 74.6409 19.8099 77.6072 24.9016 77.6072H91.8049C92.8806 77.6072 93.9564 77.7441 94.9995 77.9984C114.519 82.7772 139.221 86.0174 148.264 86.0174H365.273C372.47 86.0174 378.312 80.1825 378.312 72.9784V59.7047C378.312 55.9233 381.376 52.8657 385.151 52.8657H389.916C391.064 52.8657 391.996 51.9334 391.996 50.786C391.996 49.6385 392.928 48.7062 394.076 48.7062H396.468C398.939 48.7062 400.941 46.7047 400.941 44.2338V41.6391C400.941 39.1682 398.939 37.1667 396.468 37.1667H394.297C393.026 37.1667 391.996 36.1366 391.996 34.8653C391.996 33.594 390.966 32.5639 389.695 32.5639H385.151C381.369 32.5639 378.312 29.4997 378.312 25.7184V12.6729C378.312 5.93819 372.848 0.481354 366.114 0.481354H20.5336ZM84.8225 67.4824C84.8225 67.4824 84.803 67.5346 84.7704 67.5346H30.0455C27.1835 67.5346 24.5757 65.8656 23.3826 63.2643L22.2873 60.8782C20.5662 57.136 23.3044 52.8657 27.4247 52.8657H30.1107C32.2817 52.8657 33.9116 54.8476 33.4878 56.973C33.0706 59.0983 34.7005 61.0803 36.865 61.0803H66.9265C69.0714 61.0803 70.623 59.0331 70.0428 56.973C69.4625 54.9063 71.0142 52.8657 73.1591 52.8657H77.951C81.7453 52.8657 84.8225 55.9429 84.8225 59.7372V67.4824ZM153.766 75.9904C150.115 75.9904 147.084 73.1674 146.823 69.523L146.36 63.0035C145.826 55.4604 151.804 49.0452 159.367 49.0452H351.536C358.74 49.0452 364.575 54.8802 364.575 62.0843V68.1474C364.575 72.4829 361.061 75.9904 356.732 75.9904H153.766ZM354.581 37.8969H100C97.5486 37.8969 95.5536 39.8723 95.5276 42.3236L95.4754 46.796C95.4754 46.796 95.495 46.8482 95.5276 46.8482H18.4082C16.824 46.8482 15.3897 45.9289 14.7247 44.4881C14.2944 43.5493 14.2357 42.4866 14.5617 41.5087L19.4904 26.7159C21.2637 21.3894 26.2447 17.7972 31.858 17.7972H354.574C360.122 17.7972 364.621 22.2957 364.621 27.8438C364.621 33.3919 360.122 37.8903 354.574 37.8903L354.581 37.8969Z" fill="#CEA2C8"/>
</svg>
