<svg width="498" height="172" viewBox="0 0 498 172" fill="none" xmlns="http://www.w3.org/2000/svg">
<path d="M48.3428 149.76H41.5752V148.55L44.166 145.925C44.6673 145.415 45.0798 144.975 45.4033 144.606C45.7269 144.232 45.9661 143.879 46.1211 143.547C46.2806 143.214 46.3604 142.852 46.3604 142.46C46.3604 141.977 46.2214 141.612 45.9434 141.366C45.6654 141.115 45.2985 140.99 44.8428 140.99C44.4098 140.99 44.0088 141.076 43.6396 141.25C43.2751 141.418 42.8968 141.66 42.5049 141.974L41.623 140.915C41.901 140.678 42.1973 140.461 42.5117 140.265C42.8307 140.069 43.1862 139.914 43.5781 139.8C43.9701 139.682 44.4167 139.623 44.918 139.623C45.5514 139.623 46.0983 139.737 46.5586 139.964C47.0189 140.188 47.3721 140.5 47.6182 140.901C47.8688 141.302 47.9941 141.769 47.9941 142.302C47.9941 142.84 47.887 143.337 47.6729 143.793C47.4587 144.248 47.1533 144.7 46.7568 145.146C46.3604 145.588 45.8887 146.069 45.3418 146.589L43.6123 148.277V148.352H48.3428V149.76ZM56.3545 144.756C56.3545 145.563 56.2907 146.285 56.1631 146.923C56.04 147.557 55.8441 148.095 55.5752 148.537C55.3063 148.979 54.9554 149.316 54.5225 149.548C54.0895 149.781 53.5654 149.897 52.9502 149.897C52.18 149.897 51.5443 149.694 51.043 149.289C50.5417 148.879 50.1702 148.291 49.9287 147.525C49.6872 146.755 49.5664 145.832 49.5664 144.756C49.5664 143.681 49.6758 142.76 49.8945 141.995C50.1178 141.225 50.4779 140.634 50.9746 140.224C51.4714 139.814 52.1299 139.609 52.9502 139.609C53.7249 139.609 54.363 139.814 54.8643 140.224C55.3701 140.63 55.7438 141.218 55.9854 141.988C56.2314 142.754 56.3545 143.676 56.3545 144.756ZM51.1865 144.756C51.1865 145.6 51.2412 146.304 51.3506 146.869C51.4645 147.434 51.6514 147.858 51.9111 148.14C52.1709 148.418 52.5173 148.557 52.9502 148.557C53.3831 148.557 53.7295 148.418 53.9893 148.14C54.249 147.862 54.4359 147.441 54.5498 146.876C54.6683 146.311 54.7275 145.604 54.7275 144.756C54.7275 143.918 54.6706 143.216 54.5566 142.651C54.4427 142.086 54.2559 141.662 53.9961 141.38C53.7363 141.092 53.3877 140.949 52.9502 140.949C52.5127 140.949 52.1641 141.092 51.9043 141.38C51.6491 141.662 51.4645 142.086 51.3506 142.651C51.2412 143.216 51.1865 143.918 51.1865 144.756ZM59.7383 148.133L59.834 148.291C59.752 148.619 59.6471 148.972 59.5195 149.35C59.3919 149.728 59.2529 150.107 59.1025 150.485C58.9521 150.868 58.7995 151.228 58.6445 151.565H57.4688C57.5645 151.196 57.6556 150.809 57.7422 150.403C57.8333 150.002 57.9154 149.605 57.9883 149.214C58.0658 148.817 58.1273 148.457 58.1729 148.133H59.7383ZM68.1807 144.756C68.1807 145.563 68.1169 146.285 67.9893 146.923C67.8662 147.557 67.6702 148.095 67.4014 148.537C67.1325 148.979 66.7816 149.316 66.3486 149.548C65.9157 149.781 65.3916 149.897 64.7764 149.897C64.0062 149.897 63.3704 149.694 62.8691 149.289C62.3678 148.879 61.9964 148.291 61.7549 147.525C61.5133 146.755 61.3926 145.832 61.3926 144.756C61.3926 143.681 61.502 142.76 61.7207 141.995C61.944 141.225 62.304 140.634 62.8008 140.224C63.2975 139.814 63.9561 139.609 64.7764 139.609C65.5511 139.609 66.1891 139.814 66.6904 140.224C67.1963 140.63 67.57 141.218 67.8115 141.988C68.0576 142.754 68.1807 143.676 68.1807 144.756ZM63.0127 144.756C63.0127 145.6 63.0674 146.304 63.1768 146.869C63.2907 147.434 63.4775 147.858 63.7373 148.14C63.9971 148.418 64.3434 148.557 64.7764 148.557C65.2093 148.557 65.5557 148.418 65.8154 148.14C66.0752 147.862 66.262 147.441 66.376 146.876C66.4945 146.311 66.5537 145.604 66.5537 144.756C66.5537 143.918 66.4967 143.216 66.3828 142.651C66.2689 142.086 66.082 141.662 65.8223 141.38C65.5625 141.092 65.2139 140.949 64.7764 140.949C64.3389 140.949 63.9902 141.092 63.7305 141.38C63.4753 141.662 63.2907 142.086 63.1768 142.651C63.0674 143.216 63.0127 143.918 63.0127 144.756ZM76.1924 144.756C76.1924 145.563 76.1286 146.285 76.001 146.923C75.8779 147.557 75.682 148.095 75.4131 148.537C75.1442 148.979 74.7933 149.316 74.3604 149.548C73.9274 149.781 73.4033 149.897 72.7881 149.897C72.0179 149.897 71.3822 149.694 70.8809 149.289C70.3796 148.879 70.0081 148.291 69.7666 147.525C69.5251 146.755 69.4043 145.832 69.4043 144.756C69.4043 143.681 69.5137 142.76 69.7324 141.995C69.9557 141.225 70.3158 140.634 70.8125 140.224C71.3092 139.814 71.9678 139.609 72.7881 139.609C73.5628 139.609 74.2008 139.814 74.7021 140.224C75.208 140.63 75.5817 141.218 75.8232 141.988C76.0693 142.754 76.1924 143.676 76.1924 144.756ZM71.0244 144.756C71.0244 145.6 71.0791 146.304 71.1885 146.869C71.3024 147.434 71.4893 147.858 71.749 148.14C72.0088 148.418 72.3551 148.557 72.7881 148.557C73.221 148.557 73.5674 148.418 73.8271 148.14C74.0869 147.862 74.2738 147.441 74.3877 146.876C74.5062 146.311 74.5654 145.604 74.5654 144.756C74.5654 143.918 74.5085 143.216 74.3945 142.651C74.2806 142.086 74.0938 141.662 73.834 141.38C73.5742 141.092 73.2256 140.949 72.7881 140.949C72.3506 140.949 72.002 141.092 71.7422 141.38C71.487 141.662 71.3024 142.086 71.1885 142.651C71.0791 143.216 71.0244 143.918 71.0244 144.756ZM84.2041 144.756C84.2041 145.563 84.1403 146.285 84.0127 146.923C83.8896 147.557 83.6937 148.095 83.4248 148.537C83.1559 148.979 82.805 149.316 82.3721 149.548C81.9391 149.781 81.415 149.897 80.7998 149.897C80.0296 149.897 79.3939 149.694 78.8926 149.289C78.3913 148.879 78.0199 148.291 77.7783 147.525C77.5368 146.755 77.416 145.832 77.416 144.756C77.416 143.681 77.5254 142.76 77.7441 141.995C77.9674 141.225 78.3275 140.634 78.8242 140.224C79.321 139.814 79.9795 139.609 80.7998 139.609C81.5745 139.609 82.2126 139.814 82.7139 140.224C83.2197 140.63 83.5934 141.218 83.835 141.988C84.0811 142.754 84.2041 143.676 84.2041 144.756ZM79.0361 144.756C79.0361 145.6 79.0908 146.304 79.2002 146.869C79.3141 147.434 79.501 147.858 79.7607 148.14C80.0205 148.418 80.3669 148.557 80.7998 148.557C81.2327 148.557 81.5791 148.418 81.8389 148.14C82.0986 147.862 82.2855 147.441 82.3994 146.876C82.5179 146.311 82.5771 145.604 82.5771 144.756C82.5771 143.918 82.5202 143.216 82.4062 142.651C82.2923 142.086 82.1055 141.662 81.8457 141.38C81.5859 141.092 81.2373 140.949 80.7998 140.949C80.3623 140.949 80.0137 141.092 79.7539 141.38C79.4987 141.662 79.3141 142.086 79.2002 142.651C79.0908 143.216 79.0361 143.918 79.0361 144.756ZM27.0146 166.76H25.4014V156.124H27.0146V166.76ZM30.918 159.193V166.76H29.3115V159.193H30.918ZM30.125 156.295C30.3711 156.295 30.583 156.361 30.7607 156.493C30.943 156.625 31.0342 156.853 31.0342 157.176C31.0342 157.495 30.943 157.723 30.7607 157.86C30.583 157.992 30.3711 158.058 30.125 158.058C29.8698 158.058 29.6533 157.992 29.4756 157.86C29.3024 157.723 29.2158 157.495 29.2158 157.176C29.2158 156.853 29.3024 156.625 29.4756 156.493C29.6533 156.361 29.8698 156.295 30.125 156.295ZM37.1045 159.049C38.0023 159.049 38.7223 159.378 39.2646 160.034C39.8115 160.69 40.085 161.665 40.085 162.96C40.085 163.816 39.9574 164.539 39.7021 165.127C39.4515 165.71 39.0983 166.152 38.6426 166.453C38.1914 166.749 37.665 166.897 37.0635 166.897C36.6807 166.897 36.348 166.847 36.0654 166.747C35.7829 166.646 35.5413 166.517 35.3408 166.357C35.1403 166.193 34.9717 166.015 34.835 165.824H34.7393C34.762 166.006 34.7826 166.209 34.8008 166.432C34.8236 166.651 34.835 166.852 34.835 167.034V170.117H33.2217V159.193H34.5342L34.7598 160.239H34.835C34.9762 160.025 35.1471 159.826 35.3477 159.644C35.5527 159.462 35.7988 159.318 36.0859 159.214C36.3776 159.104 36.7171 159.049 37.1045 159.049ZM36.6738 160.362C36.2318 160.362 35.8763 160.451 35.6074 160.629C35.3431 160.802 35.1494 161.064 35.0264 161.415C34.9079 161.766 34.8441 162.205 34.835 162.734V162.96C34.835 163.52 34.8919 163.996 35.0059 164.388C35.1243 164.776 35.318 165.072 35.5869 165.277C35.8604 165.477 36.2295 165.578 36.6943 165.578C37.0863 165.578 37.4098 165.471 37.665 165.256C37.9248 165.042 38.1185 164.737 38.2461 164.34C38.3737 163.944 38.4375 163.477 38.4375 162.939C38.4375 162.123 38.2917 161.49 38 161.039C37.7129 160.588 37.2708 160.362 36.6738 160.362ZM44.9111 159.049C45.8682 159.049 46.5905 159.261 47.0781 159.685C47.5703 160.109 47.8164 160.77 47.8164 161.668V166.76H46.6748L46.3672 165.687H46.3125C46.0983 165.961 45.8773 166.186 45.6494 166.364C45.4215 166.542 45.1572 166.674 44.8564 166.76C44.5602 166.852 44.1979 166.897 43.7695 166.897C43.3184 166.897 42.915 166.815 42.5596 166.651C42.2041 166.482 41.9238 166.227 41.7188 165.885C41.5137 165.544 41.4111 165.111 41.4111 164.587C41.4111 163.807 41.7005 163.222 42.2793 162.83C42.8626 162.438 43.7422 162.221 44.918 162.18L46.2305 162.132V161.736C46.2305 161.212 46.1074 160.838 45.8613 160.615C45.6198 160.392 45.278 160.28 44.8359 160.28C44.4577 160.28 44.0908 160.335 43.7354 160.444C43.3799 160.553 43.0335 160.688 42.6963 160.847L42.1768 159.713C42.5459 159.517 42.9652 159.357 43.4346 159.234C43.9085 159.111 44.4007 159.049 44.9111 159.049ZM46.2236 163.144L45.2461 163.178C44.444 163.206 43.8812 163.342 43.5576 163.589C43.234 163.835 43.0723 164.172 43.0723 164.6C43.0723 164.974 43.1839 165.247 43.4072 165.421C43.6305 165.589 43.9245 165.673 44.2891 165.673C44.8451 165.673 45.3053 165.516 45.6699 165.202C46.0391 164.883 46.2236 164.416 46.2236 163.8V163.144ZM55.1514 164.6C55.1514 165.097 55.0306 165.516 54.7891 165.858C54.5475 166.2 54.1943 166.46 53.7295 166.637C53.2692 166.811 52.7041 166.897 52.0342 166.897C51.5055 166.897 51.0498 166.858 50.667 166.781C50.2887 166.708 49.931 166.594 49.5938 166.439V165.051C49.9538 165.22 50.3571 165.366 50.8037 165.489C51.2549 165.612 51.681 165.673 52.082 165.673C52.6107 165.673 52.9912 165.591 53.2236 165.427C53.4561 165.259 53.5723 165.035 53.5723 164.757C53.5723 164.593 53.5244 164.448 53.4287 164.32C53.3376 164.188 53.1644 164.053 52.9092 163.917C52.6585 163.775 52.2894 163.607 51.8018 163.411C51.3232 163.219 50.9199 163.028 50.5918 162.837C50.2637 162.645 50.0153 162.415 49.8467 162.146C49.6781 161.873 49.5938 161.524 49.5938 161.1C49.5938 160.43 49.8581 159.922 50.3867 159.576C50.9199 159.225 51.624 159.049 52.499 159.049C52.9639 159.049 53.4014 159.097 53.8115 159.193C54.2262 159.284 54.6318 159.419 55.0283 159.596L54.5225 160.806C54.1807 160.656 53.8366 160.533 53.4902 160.437C53.1484 160.337 52.7998 160.287 52.4443 160.287C52.0296 160.287 51.7129 160.351 51.4941 160.478C51.2799 160.606 51.1729 160.788 51.1729 161.025C51.1729 161.203 51.2253 161.353 51.3301 161.476C51.4349 161.599 51.6149 161.722 51.8701 161.845C52.1299 161.968 52.4899 162.121 52.9502 162.303C53.4014 162.477 53.791 162.659 54.1191 162.85C54.4518 163.037 54.707 163.267 54.8848 163.541C55.0625 163.814 55.1514 164.167 55.1514 164.6ZM59.9023 159.049C60.5768 159.049 61.1556 159.188 61.6387 159.466C62.1217 159.744 62.4932 160.139 62.7529 160.649C63.0127 161.159 63.1426 161.77 63.1426 162.481V163.342H58.0908C58.109 164.076 58.305 164.641 58.6787 165.038C59.057 165.434 59.5856 165.632 60.2646 165.632C60.7477 165.632 61.1807 165.587 61.5635 165.496C61.9508 165.4 62.3496 165.261 62.7598 165.079V166.384C62.3815 166.562 61.9964 166.692 61.6045 166.774C61.2126 166.856 60.7432 166.897 60.1963 166.897C59.4535 166.897 58.7995 166.754 58.2344 166.466C57.6738 166.175 57.234 165.742 56.915 165.168C56.6006 164.593 56.4434 163.88 56.4434 163.028C56.4434 162.18 56.5869 161.46 56.874 160.868C57.1611 160.275 57.5645 159.824 58.084 159.514C58.6035 159.204 59.2096 159.049 59.9023 159.049ZM59.9023 160.259C59.3965 160.259 58.9863 160.423 58.6719 160.752C58.362 161.08 58.1797 161.561 58.125 162.194H61.5703C61.5658 161.816 61.502 161.481 61.3789 161.189C61.2604 160.897 61.0781 160.67 60.832 160.505C60.5905 160.341 60.2806 160.259 59.9023 160.259ZM75.1875 159.193V166.76H73.9229L73.7041 165.742H73.6152C73.4557 166.002 73.2529 166.218 73.0068 166.391C72.7607 166.56 72.4873 166.685 72.1865 166.767C71.8857 166.854 71.569 166.897 71.2363 166.897C70.6667 166.897 70.179 166.801 69.7734 166.61C69.3724 166.414 69.0648 166.113 68.8506 165.708C68.6364 165.302 68.5293 164.778 68.5293 164.135V159.193H70.1426V163.835C70.1426 164.422 70.2611 164.862 70.498 165.154C70.7396 165.446 71.1133 165.591 71.6191 165.591C72.1068 165.591 72.4941 165.491 72.7812 165.291C73.0684 165.09 73.2712 164.794 73.3896 164.402C73.5127 164.01 73.5742 163.529 73.5742 162.96V159.193H75.1875ZM81.4355 159.049C82.2878 159.049 82.9508 159.27 83.4248 159.713C83.9033 160.15 84.1426 160.854 84.1426 161.825V166.76H82.5361V162.126C82.5361 161.538 82.4154 161.098 82.1738 160.806C81.9323 160.51 81.5586 160.362 81.0527 160.362C80.319 160.362 79.8086 160.588 79.5215 161.039C79.2389 161.49 79.0977 162.144 79.0977 163.001V166.76H77.4912V159.193H78.7422L78.9678 160.218H79.0566C79.2207 159.954 79.4235 159.738 79.665 159.569C79.9111 159.396 80.1846 159.266 80.4854 159.179C80.7907 159.093 81.1074 159.049 81.4355 159.049ZM87.998 159.193V166.76H86.3916V159.193H87.998ZM87.2051 156.295C87.4512 156.295 87.6631 156.361 87.8408 156.493C88.0231 156.625 88.1143 156.853 88.1143 157.176C88.1143 157.495 88.0231 157.723 87.8408 157.86C87.6631 157.992 87.4512 158.058 87.2051 158.058C86.9499 158.058 86.7334 157.992 86.5557 157.86C86.3825 157.723 86.2959 157.495 86.2959 157.176C86.2959 156.853 86.3825 156.625 86.5557 156.493C86.7334 156.361 86.9499 156.295 87.2051 156.295ZM93.1182 165.598C93.3278 165.598 93.5352 165.58 93.7402 165.544C93.9453 165.503 94.1322 165.455 94.3008 165.4V166.617C94.123 166.694 93.8929 166.76 93.6104 166.815C93.3278 166.87 93.0339 166.897 92.7285 166.897C92.3001 166.897 91.915 166.826 91.5732 166.685C91.2314 166.539 90.9603 166.291 90.7598 165.94C90.5592 165.589 90.459 165.104 90.459 164.484V160.417H89.4268V159.699L90.5342 159.131L91.0605 157.511H92.0723V159.193H94.2393V160.417H92.0723V164.464C92.0723 164.846 92.168 165.131 92.3594 165.318C92.5508 165.505 92.8037 165.598 93.1182 165.598ZM100.925 164.6C100.925 165.097 100.804 165.516 100.562 165.858C100.321 166.2 99.9678 166.46 99.5029 166.637C99.0426 166.811 98.4775 166.897 97.8076 166.897C97.279 166.897 96.8232 166.858 96.4404 166.781C96.0622 166.708 95.7044 166.594 95.3672 166.439V165.051C95.7272 165.22 96.1305 165.366 96.5771 165.489C97.0283 165.612 97.4544 165.673 97.8555 165.673C98.3841 165.673 98.7646 165.591 98.9971 165.427C99.2295 165.259 99.3457 165.035 99.3457 164.757C99.3457 164.593 99.2979 164.448 99.2021 164.32C99.111 164.188 98.9378 164.053 98.6826 163.917C98.432 163.775 98.0628 163.607 97.5752 163.411C97.0967 163.219 96.6934 163.028 96.3652 162.837C96.0371 162.645 95.7887 162.415 95.6201 162.146C95.4515 161.873 95.3672 161.524 95.3672 161.1C95.3672 160.43 95.6315 159.922 96.1602 159.576C96.6934 159.225 97.3975 159.049 98.2725 159.049C98.7373 159.049 99.1748 159.097 99.585 159.193C99.9997 159.284 100.405 159.419 100.802 159.596L100.296 160.806C99.9541 160.656 99.61 160.533 99.2637 160.437C98.9219 160.337 98.5732 160.287 98.2178 160.287C97.8031 160.287 97.4863 160.351 97.2676 160.478C97.0534 160.606 96.9463 160.788 96.9463 161.025C96.9463 161.203 96.9987 161.353 97.1035 161.476C97.2083 161.599 97.3883 161.722 97.6436 161.845C97.9033 161.968 98.2633 162.121 98.7236 162.303C99.1748 162.477 99.5645 162.659 99.8926 162.85C100.225 163.037 100.48 163.267 100.658 163.541C100.836 163.814 100.925 164.167 100.925 164.6Z" fill="#1E1E1E"/>
<path opacity="0.2" d="M60.1972 119.613C76.5705 119.613 89.8436 117.572 89.8436 115.054C89.8436 112.536 76.5705 110.495 60.1972 110.495C43.8239 110.495 30.5508 112.536 30.5508 115.054C30.5508 117.572 43.8239 119.613 60.1972 119.613Z" fill="url(#paint0_radial_536_3839)"/>
<path fill-rule="evenodd" clip-rule="evenodd" d="M86.7452 58.0767C87.1637 58.0767 87.5037 57.728 87.5037 57.2989V21.9781C87.5037 10.2582 78.1926 0.697144 66.7499 0.697144C55.3595 0.697144 45.9961 10.2582 45.9961 21.9781V57.2989C45.9961 57.728 46.3361 58.0767 46.7546 58.0767H86.7583H86.7452Z" fill="#0D7572"/>
<g style="mix-blend-mode:overlay" opacity="0.3">
<path fill-rule="evenodd" clip-rule="evenodd" d="M81.3942 90.1793V25.9743C81.3942 24.459 80.2172 23.2387 78.7264 23.2387C77.3009 23.2387 76.0586 24.4456 76.0586 25.9743V90.1793C76.0586 91.6945 77.2879 92.9148 78.7264 92.9148C80.2041 92.9148 81.3942 91.708 81.3942 90.1793Z" fill="white"/>
</g>
<path fill-rule="evenodd" clip-rule="evenodd" d="M86.4806 94.1753V58.0767H47V94.1753C47 105.909 55.9057 115.456 66.7468 115.456C77.6272 115.456 86.4806 105.895 86.4806 94.1753Z" fill="#D7D8D8"/>
<path fill-rule="evenodd" clip-rule="evenodd" d="M86.4842 94.1753V58.0767H50.3906V92.5527C50.3906 103.669 58.8255 112.828 69.1959 112.828C74.5446 112.828 79.3701 110.401 82.7964 106.512C85.1372 103.026 86.4973 98.7747 86.4973 94.1753H86.4842Z" fill="#EAEBEB"/>
<path fill-rule="evenodd" clip-rule="evenodd" d="M81.3948 58.0767H76.0723V90.1792C76.0723 91.6945 77.3015 92.9148 78.74 92.9148C80.2178 92.9148 81.4078 91.7079 81.4078 90.1792V58.0767H81.3948Z" fill="white"/>
<g style="mix-blend-mode:overlay" opacity="0.3">
<path fill-rule="evenodd" clip-rule="evenodd" d="M81.7871 12.6853C80.9501 14.4554 78.6747 11.8808 75.2353 10.1107C71.7306 8.39427 68.3828 8.13949 69.2197 6.42307C70.0567 4.653 73.5091 4.653 77.0139 6.42307C80.4663 8.13949 82.5848 10.9689 81.8002 12.6853H81.7871Z" fill="white"/>
</g>
<path d="M63.0614 94.4568C61.5313 93.022 60.0405 92.2978 58.5758 92.2978C57.6081 92.2978 56.8365 92.5392 56.2611 93.0354C55.6857 93.5315 55.398 94.3361 55.398 95.4491C55.398 96.5621 55.7249 97.3801 56.3919 97.9701C57.0588 98.5601 57.935 98.8953 59.0335 98.9624V100.424C57.4904 100.344 56.2873 99.8474 55.4242 98.949C54.5611 98.0505 54.1426 96.8839 54.1426 95.4357C54.1426 93.9875 54.5218 92.9281 55.2803 92.0699C56.0388 91.2117 57.1242 90.7826 58.5104 90.7826C60.1974 90.7826 61.8321 91.5067 63.4144 92.9415C64.9968 94.3763 66.5399 96.1464 68.0438 98.2517V90.3132H69.2731V100.545H68.2269C66.3045 97.9165 64.5783 95.8782 63.0483 94.4434L63.0614 94.4568Z" fill="#231F20"/>
<path d="M56.1694 86.6524C54.8486 85.888 54.1816 84.5337 54.1816 82.5759C54.1816 80.6181 54.8486 79.2637 56.1694 78.4994C57.4902 77.735 59.3603 77.3596 61.7534 77.3596C64.1466 77.3596 66.0821 77.735 67.429 78.4994C68.776 79.2637 69.4429 80.6181 69.4429 82.5759C69.4429 84.5337 68.776 85.9149 67.429 86.6658C66.0951 87.4167 64.1989 87.7922 61.7534 87.7922C59.308 87.7922 57.4902 87.4167 56.1694 86.6524ZM58.471 79.1162C57.5818 79.3039 56.8625 79.666 56.3133 80.2158C55.764 80.7656 55.5025 81.5433 55.5025 82.5759C55.5025 83.6084 55.7771 84.3862 56.3133 84.936C56.8494 85.4858 57.5818 85.8478 58.471 86.0355C59.3603 86.2233 60.4588 86.3171 61.7534 86.3171C63.0481 86.3171 64.212 86.2233 65.1143 86.0355C66.0167 85.8478 66.7359 85.4858 67.2852 84.936C67.8344 84.3862 68.096 83.6084 68.096 82.5759C68.096 81.5433 67.8214 80.7656 67.2852 80.2158C66.7359 79.6794 66.0167 79.3039 65.1143 79.1162C64.212 78.9285 63.1004 78.8346 61.7534 78.8346C60.4065 78.8346 59.3603 78.9285 58.471 79.1162Z" fill="#231F20"/>
<path d="M69.392 65.9749L62.631 72.4785H69.392V73.9804H54.7715V72.4785H61.611L54.7715 65.9749V64.0707L62.0687 71.0839L69.392 64.0037V65.9749Z" fill="#231F20"/>
<g style="mix-blend-mode:overlay" opacity="0.47">
<path fill-rule="evenodd" clip-rule="evenodd" d="M53.4356 7.26783C56.9665 3.32542 61.9097 0.81783 67.4022 0.710553C67.2061 0.710553 67.0099 0.697144 66.8007 0.697144C55.4103 0.697144 46.0469 10.2582 46.0469 21.9781V57.2989C46.0469 57.728 46.3869 58.0767 46.8054 58.0767H49.5516V20.2483C49.5516 15.4208 50.977 10.9286 53.4487 7.26783H53.4356Z" fill="#231F20"/>
</g>
<path d="M172.343 149.76H165.575V148.55L168.166 145.925C168.667 145.415 169.08 144.975 169.403 144.606C169.727 144.232 169.966 143.879 170.121 143.547C170.281 143.214 170.36 142.852 170.36 142.46C170.36 141.977 170.221 141.612 169.943 141.366C169.665 141.115 169.299 140.99 168.843 140.99C168.41 140.99 168.009 141.076 167.64 141.25C167.275 141.418 166.897 141.66 166.505 141.974L165.623 140.915C165.901 140.678 166.197 140.461 166.512 140.265C166.831 140.069 167.186 139.914 167.578 139.8C167.97 139.682 168.417 139.623 168.918 139.623C169.551 139.623 170.098 139.737 170.559 139.964C171.019 140.188 171.372 140.5 171.618 140.901C171.869 141.302 171.994 141.769 171.994 142.302C171.994 142.84 171.887 143.337 171.673 143.793C171.459 144.248 171.153 144.7 170.757 145.146C170.36 145.588 169.889 146.069 169.342 146.589L167.612 148.277V148.352H172.343V149.76ZM176.984 143.512C177.627 143.512 178.192 143.629 178.68 143.861C179.172 144.089 179.555 144.426 179.828 144.873C180.102 145.315 180.238 145.857 180.238 146.5C180.238 147.201 180.09 147.808 179.794 148.318C179.498 148.824 179.062 149.214 178.488 149.487C177.914 149.76 177.215 149.897 176.39 149.897C175.866 149.897 175.376 149.852 174.92 149.76C174.469 149.669 174.079 149.533 173.751 149.35V147.901C174.093 148.092 174.503 148.25 174.981 148.373C175.46 148.491 175.918 148.55 176.355 148.55C176.82 148.55 177.219 148.482 177.552 148.345C177.884 148.209 178.14 147.999 178.317 147.716C178.5 147.434 178.591 147.076 178.591 146.643C178.591 146.069 178.406 145.627 178.037 145.317C177.673 145.003 177.101 144.845 176.321 144.845C176.048 144.845 175.756 144.87 175.446 144.921C175.141 144.966 174.886 145.016 174.681 145.071L173.977 144.654L174.353 139.766H179.548V141.181H175.768L175.549 143.67C175.713 143.633 175.909 143.599 176.137 143.567C176.365 143.531 176.647 143.512 176.984 143.512ZM183.738 148.133L183.834 148.291C183.752 148.619 183.647 148.972 183.52 149.35C183.392 149.728 183.253 150.107 183.103 150.485C182.952 150.868 182.799 151.228 182.645 151.565H181.469C181.564 151.196 181.656 150.809 181.742 150.403C181.833 150.002 181.915 149.605 181.988 149.214C182.066 148.817 182.127 148.457 182.173 148.133H183.738ZM192.181 144.756C192.181 145.563 192.117 146.285 191.989 146.923C191.866 147.557 191.67 148.095 191.401 148.537C191.132 148.979 190.782 149.316 190.349 149.548C189.916 149.781 189.392 149.897 188.776 149.897C188.006 149.897 187.37 149.694 186.869 149.289C186.368 148.879 185.996 148.291 185.755 147.525C185.513 146.755 185.393 145.832 185.393 144.756C185.393 143.681 185.502 142.76 185.721 141.995C185.944 141.225 186.304 140.634 186.801 140.224C187.298 139.814 187.956 139.609 188.776 139.609C189.551 139.609 190.189 139.814 190.69 140.224C191.196 140.63 191.57 141.218 191.812 141.988C192.058 142.754 192.181 143.676 192.181 144.756ZM187.013 144.756C187.013 145.6 187.067 146.304 187.177 146.869C187.291 147.434 187.478 147.858 187.737 148.14C187.997 148.418 188.343 148.557 188.776 148.557C189.209 148.557 189.556 148.418 189.815 148.14C190.075 147.862 190.262 147.441 190.376 146.876C190.494 146.311 190.554 145.604 190.554 144.756C190.554 143.918 190.497 143.216 190.383 142.651C190.269 142.086 190.082 141.662 189.822 141.38C189.562 141.092 189.214 140.949 188.776 140.949C188.339 140.949 187.99 141.092 187.73 141.38C187.475 141.662 187.291 142.086 187.177 142.651C187.067 143.216 187.013 143.918 187.013 144.756ZM200.192 144.756C200.192 145.563 200.129 146.285 200.001 146.923C199.878 147.557 199.682 148.095 199.413 148.537C199.144 148.979 198.793 149.316 198.36 149.548C197.927 149.781 197.403 149.897 196.788 149.897C196.018 149.897 195.382 149.694 194.881 149.289C194.38 148.879 194.008 148.291 193.767 147.525C193.525 146.755 193.404 145.832 193.404 144.756C193.404 143.681 193.514 142.76 193.732 141.995C193.956 141.225 194.316 140.634 194.812 140.224C195.309 139.814 195.968 139.609 196.788 139.609C197.563 139.609 198.201 139.814 198.702 140.224C199.208 140.63 199.582 141.218 199.823 141.988C200.069 142.754 200.192 143.676 200.192 144.756ZM195.024 144.756C195.024 145.6 195.079 146.304 195.188 146.869C195.302 147.434 195.489 147.858 195.749 148.14C196.009 148.418 196.355 148.557 196.788 148.557C197.221 148.557 197.567 148.418 197.827 148.14C198.087 147.862 198.274 147.441 198.388 146.876C198.506 146.311 198.565 145.604 198.565 144.756C198.565 143.918 198.508 143.216 198.395 142.651C198.281 142.086 198.094 141.662 197.834 141.38C197.574 141.092 197.226 140.949 196.788 140.949C196.351 140.949 196.002 141.092 195.742 141.38C195.487 141.662 195.302 142.086 195.188 142.651C195.079 143.216 195.024 143.918 195.024 144.756ZM208.204 144.756C208.204 145.563 208.14 146.285 208.013 146.923C207.89 147.557 207.694 148.095 207.425 148.537C207.156 148.979 206.805 149.316 206.372 149.548C205.939 149.781 205.415 149.897 204.8 149.897C204.03 149.897 203.394 149.694 202.893 149.289C202.391 148.879 202.02 148.291 201.778 147.525C201.537 146.755 201.416 145.832 201.416 144.756C201.416 143.681 201.525 142.76 201.744 141.995C201.967 141.225 202.327 140.634 202.824 140.224C203.321 139.814 203.979 139.609 204.8 139.609C205.575 139.609 206.213 139.814 206.714 140.224C207.22 140.63 207.593 141.218 207.835 141.988C208.081 142.754 208.204 143.676 208.204 144.756ZM203.036 144.756C203.036 145.6 203.091 146.304 203.2 146.869C203.314 147.434 203.501 147.858 203.761 148.14C204.021 148.418 204.367 148.557 204.8 148.557C205.233 148.557 205.579 148.418 205.839 148.14C206.099 147.862 206.285 147.441 206.399 146.876C206.518 146.311 206.577 145.604 206.577 144.756C206.577 143.918 206.52 143.216 206.406 142.651C206.292 142.086 206.105 141.662 205.846 141.38C205.586 141.092 205.237 140.949 204.8 140.949C204.362 140.949 204.014 141.092 203.754 141.38C203.499 141.662 203.314 142.086 203.2 142.651C203.091 143.216 203.036 143.918 203.036 144.756ZM151.015 166.76H149.401V156.124H151.015V166.76ZM154.918 159.193V166.76H153.312V159.193H154.918ZM154.125 156.295C154.371 156.295 154.583 156.361 154.761 156.493C154.943 156.625 155.034 156.853 155.034 157.176C155.034 157.495 154.943 157.723 154.761 157.86C154.583 157.992 154.371 158.058 154.125 158.058C153.87 158.058 153.653 157.992 153.476 157.86C153.302 157.723 153.216 157.495 153.216 157.176C153.216 156.853 153.302 156.625 153.476 156.493C153.653 156.361 153.87 156.295 154.125 156.295ZM161.104 159.049C162.002 159.049 162.722 159.378 163.265 160.034C163.812 160.69 164.085 161.665 164.085 162.96C164.085 163.816 163.957 164.539 163.702 165.127C163.451 165.71 163.098 166.152 162.643 166.453C162.191 166.749 161.665 166.897 161.063 166.897C160.681 166.897 160.348 166.847 160.065 166.747C159.783 166.646 159.541 166.517 159.341 166.357C159.14 166.193 158.972 166.015 158.835 165.824H158.739C158.762 166.006 158.783 166.209 158.801 166.432C158.824 166.651 158.835 166.852 158.835 167.034V170.117H157.222V159.193H158.534L158.76 160.239H158.835C158.976 160.025 159.147 159.826 159.348 159.644C159.553 159.462 159.799 159.318 160.086 159.214C160.378 159.104 160.717 159.049 161.104 159.049ZM160.674 160.362C160.232 160.362 159.876 160.451 159.607 160.629C159.343 160.802 159.149 161.064 159.026 161.415C158.908 161.766 158.844 162.205 158.835 162.734V162.96C158.835 163.52 158.892 163.996 159.006 164.388C159.124 164.776 159.318 165.072 159.587 165.277C159.86 165.477 160.229 165.578 160.694 165.578C161.086 165.578 161.41 165.471 161.665 165.256C161.925 165.042 162.118 164.737 162.246 164.34C162.374 163.944 162.438 163.477 162.438 162.939C162.438 162.123 162.292 161.49 162 161.039C161.713 160.588 161.271 160.362 160.674 160.362ZM168.911 159.049C169.868 159.049 170.59 159.261 171.078 159.685C171.57 160.109 171.816 160.77 171.816 161.668V166.76H170.675L170.367 165.687H170.312C170.098 165.961 169.877 166.186 169.649 166.364C169.422 166.542 169.157 166.674 168.856 166.76C168.56 166.852 168.198 166.897 167.77 166.897C167.318 166.897 166.915 166.815 166.56 166.651C166.204 166.482 165.924 166.227 165.719 165.885C165.514 165.544 165.411 165.111 165.411 164.587C165.411 163.807 165.701 163.222 166.279 162.83C166.863 162.438 167.742 162.221 168.918 162.18L170.23 162.132V161.736C170.23 161.212 170.107 160.838 169.861 160.615C169.62 160.392 169.278 160.28 168.836 160.28C168.458 160.28 168.091 160.335 167.735 160.444C167.38 160.553 167.034 160.688 166.696 160.847L166.177 159.713C166.546 159.517 166.965 159.357 167.435 159.234C167.909 159.111 168.401 159.049 168.911 159.049ZM170.224 163.144L169.246 163.178C168.444 163.206 167.881 163.342 167.558 163.589C167.234 163.835 167.072 164.172 167.072 164.6C167.072 164.974 167.184 165.247 167.407 165.421C167.631 165.589 167.924 165.673 168.289 165.673C168.845 165.673 169.305 165.516 169.67 165.202C170.039 164.883 170.224 164.416 170.224 163.8V163.144ZM179.151 164.6C179.151 165.097 179.031 165.516 178.789 165.858C178.548 166.2 178.194 166.46 177.729 166.637C177.269 166.811 176.704 166.897 176.034 166.897C175.506 166.897 175.05 166.858 174.667 166.781C174.289 166.708 173.931 166.594 173.594 166.439V165.051C173.954 165.22 174.357 165.366 174.804 165.489C175.255 165.612 175.681 165.673 176.082 165.673C176.611 165.673 176.991 165.591 177.224 165.427C177.456 165.259 177.572 165.035 177.572 164.757C177.572 164.593 177.524 164.448 177.429 164.32C177.338 164.188 177.164 164.053 176.909 163.917C176.659 163.775 176.289 163.607 175.802 163.411C175.323 163.219 174.92 163.028 174.592 162.837C174.264 162.645 174.015 162.415 173.847 162.146C173.678 161.873 173.594 161.524 173.594 161.1C173.594 160.43 173.858 159.922 174.387 159.576C174.92 159.225 175.624 159.049 176.499 159.049C176.964 159.049 177.401 159.097 177.812 159.193C178.226 159.284 178.632 159.419 179.028 159.596L178.522 160.806C178.181 160.656 177.837 160.533 177.49 160.437C177.148 160.337 176.8 160.287 176.444 160.287C176.03 160.287 175.713 160.351 175.494 160.478C175.28 160.606 175.173 160.788 175.173 161.025C175.173 161.203 175.225 161.353 175.33 161.476C175.435 161.599 175.615 161.722 175.87 161.845C176.13 161.968 176.49 162.121 176.95 162.303C177.401 162.477 177.791 162.659 178.119 162.85C178.452 163.037 178.707 163.267 178.885 163.541C179.062 163.814 179.151 164.167 179.151 164.6ZM183.902 159.049C184.577 159.049 185.156 159.188 185.639 159.466C186.122 159.744 186.493 160.139 186.753 160.649C187.013 161.159 187.143 161.77 187.143 162.481V163.342H182.091C182.109 164.076 182.305 164.641 182.679 165.038C183.057 165.434 183.586 165.632 184.265 165.632C184.748 165.632 185.181 165.587 185.563 165.496C185.951 165.4 186.35 165.261 186.76 165.079V166.384C186.382 166.562 185.996 166.692 185.604 166.774C185.213 166.856 184.743 166.897 184.196 166.897C183.453 166.897 182.799 166.754 182.234 166.466C181.674 166.175 181.234 165.742 180.915 165.168C180.601 164.593 180.443 163.88 180.443 163.028C180.443 162.18 180.587 161.46 180.874 160.868C181.161 160.275 181.564 159.824 182.084 159.514C182.604 159.204 183.21 159.049 183.902 159.049ZM183.902 160.259C183.396 160.259 182.986 160.423 182.672 160.752C182.362 161.08 182.18 161.561 182.125 162.194H185.57C185.566 161.816 185.502 161.481 185.379 161.189C185.26 160.897 185.078 160.67 184.832 160.505C184.59 160.341 184.281 160.259 183.902 160.259ZM199.188 159.193V166.76H197.923L197.704 165.742H197.615C197.456 166.002 197.253 166.218 197.007 166.391C196.761 166.56 196.487 166.685 196.187 166.767C195.886 166.854 195.569 166.897 195.236 166.897C194.667 166.897 194.179 166.801 193.773 166.61C193.372 166.414 193.065 166.113 192.851 165.708C192.636 165.302 192.529 164.778 192.529 164.135V159.193H194.143V163.835C194.143 164.422 194.261 164.862 194.498 165.154C194.74 165.446 195.113 165.591 195.619 165.591C196.107 165.591 196.494 165.491 196.781 165.291C197.068 165.09 197.271 164.794 197.39 164.402C197.513 164.01 197.574 163.529 197.574 162.96V159.193H199.188ZM205.436 159.049C206.288 159.049 206.951 159.27 207.425 159.713C207.903 160.15 208.143 160.854 208.143 161.825V166.76H206.536V162.126C206.536 161.538 206.415 161.098 206.174 160.806C205.932 160.51 205.559 160.362 205.053 160.362C204.319 160.362 203.809 160.588 203.521 161.039C203.239 161.49 203.098 162.144 203.098 163.001V166.76H201.491V159.193H202.742L202.968 160.218H203.057C203.221 159.954 203.424 159.738 203.665 159.569C203.911 159.396 204.185 159.266 204.485 159.179C204.791 159.093 205.107 159.049 205.436 159.049ZM211.998 159.193V166.76H210.392V159.193H211.998ZM211.205 156.295C211.451 156.295 211.663 156.361 211.841 156.493C212.023 156.625 212.114 156.853 212.114 157.176C212.114 157.495 212.023 157.723 211.841 157.86C211.663 157.992 211.451 158.058 211.205 158.058C210.95 158.058 210.733 157.992 210.556 157.86C210.382 157.723 210.296 157.495 210.296 157.176C210.296 156.853 210.382 156.625 210.556 156.493C210.733 156.361 210.95 156.295 211.205 156.295ZM217.118 165.598C217.328 165.598 217.535 165.58 217.74 165.544C217.945 165.503 218.132 165.455 218.301 165.4V166.617C218.123 166.694 217.893 166.76 217.61 166.815C217.328 166.87 217.034 166.897 216.729 166.897C216.3 166.897 215.915 166.826 215.573 166.685C215.231 166.539 214.96 166.291 214.76 165.94C214.559 165.589 214.459 165.104 214.459 164.484V160.417H213.427V159.699L214.534 159.131L215.061 157.511H216.072V159.193H218.239V160.417H216.072V164.464C216.072 164.846 216.168 165.131 216.359 165.318C216.551 165.505 216.804 165.598 217.118 165.598ZM224.925 164.6C224.925 165.097 224.804 165.516 224.562 165.858C224.321 166.2 223.968 166.46 223.503 166.637C223.043 166.811 222.478 166.897 221.808 166.897C221.279 166.897 220.823 166.858 220.44 166.781C220.062 166.708 219.704 166.594 219.367 166.439V165.051C219.727 165.22 220.131 165.366 220.577 165.489C221.028 165.612 221.454 165.673 221.855 165.673C222.384 165.673 222.765 165.591 222.997 165.427C223.229 165.259 223.346 165.035 223.346 164.757C223.346 164.593 223.298 164.448 223.202 164.32C223.111 164.188 222.938 164.053 222.683 163.917C222.432 163.775 222.063 163.607 221.575 163.411C221.097 163.219 220.693 163.028 220.365 162.837C220.037 162.645 219.789 162.415 219.62 162.146C219.451 161.873 219.367 161.524 219.367 161.1C219.367 160.43 219.632 159.922 220.16 159.576C220.693 159.225 221.397 159.049 222.272 159.049C222.737 159.049 223.175 159.097 223.585 159.193C224 159.284 224.405 159.419 224.802 159.596L224.296 160.806C223.954 160.656 223.61 160.533 223.264 160.437C222.922 160.337 222.573 160.287 222.218 160.287C221.803 160.287 221.486 160.351 221.268 160.478C221.053 160.606 220.946 160.788 220.946 161.025C220.946 161.203 220.999 161.353 221.104 161.476C221.208 161.599 221.388 161.722 221.644 161.845C221.903 161.968 222.263 162.121 222.724 162.303C223.175 162.477 223.564 162.659 223.893 162.85C224.225 163.037 224.48 163.267 224.658 163.541C224.836 163.814 224.925 164.167 224.925 164.6Z" fill="#1E1E1E"/>
<path opacity="0.2" d="M184.43 119.613C200.803 119.613 214.076 117.572 214.076 115.054C214.076 112.536 200.803 110.495 184.43 110.495C168.056 110.495 154.783 112.536 154.783 115.054C154.783 117.572 168.056 119.613 184.43 119.613Z" fill="url(#paint1_radial_536_3839)"/>
<path fill-rule="evenodd" clip-rule="evenodd" d="M210.978 58.0767C211.396 58.0767 211.736 57.728 211.736 57.2989V21.9781C211.736 10.2582 202.425 0.697144 190.982 0.697144C179.592 0.697144 170.229 10.2582 170.229 21.9781V57.2989C170.229 57.728 170.569 58.0767 170.987 58.0767H210.991H210.978Z" fill="#2B4F72"/>
<g style="mix-blend-mode:overlay" opacity="0.3">
<path fill-rule="evenodd" clip-rule="evenodd" d="M205.629 90.1793V25.9743C205.629 24.459 204.452 23.2387 202.961 23.2387C201.535 23.2387 200.293 24.4456 200.293 25.9743V90.1793C200.293 91.6945 201.522 92.9148 202.961 92.9148C204.439 92.9148 205.629 91.708 205.629 90.1793Z" fill="white"/>
</g>
<path fill-rule="evenodd" clip-rule="evenodd" d="M210.715 94.1753V58.0767H171.234V94.1753C171.234 105.909 180.14 115.456 190.981 115.456C201.862 115.456 210.715 105.895 210.715 94.1753Z" fill="#D7D8D8"/>
<path fill-rule="evenodd" clip-rule="evenodd" d="M210.717 94.1753V58.0767H174.623V92.5527C174.623 103.669 183.058 112.828 193.428 112.828C198.777 112.828 203.603 110.401 207.029 106.512C209.37 103.026 210.73 98.7747 210.73 94.1753H210.717Z" fill="#EAEBEB"/>
<path fill-rule="evenodd" clip-rule="evenodd" d="M205.627 58.0767H200.305V90.1792C200.305 91.6945 201.534 92.9148 202.972 92.9148C204.45 92.9148 205.64 91.7079 205.64 90.1792V58.0767H205.627Z" fill="white"/>
<g style="mix-blend-mode:overlay" opacity="0.3">
<path fill-rule="evenodd" clip-rule="evenodd" d="M206.02 12.6853C205.183 14.4554 202.907 11.8808 199.468 10.1107C195.963 8.39427 192.615 8.13949 193.452 6.42307C194.289 4.653 197.742 4.653 201.246 6.42307C204.699 8.13949 206.817 10.9689 206.033 12.6853H206.02Z" fill="white"/>
</g>
<path d="M187.296 94.3898C185.766 92.955 184.275 92.2308 182.81 92.2308C181.842 92.2308 181.071 92.4722 180.495 92.9684C179.92 93.4645 179.632 94.2691 179.632 95.3821C179.632 96.4951 179.959 97.3131 180.626 97.9031C181.293 98.4931 182.169 98.8283 183.268 98.8954V100.357C181.725 100.277 180.522 99.7804 179.659 98.882C178.795 97.9835 178.377 96.8169 178.377 95.3687C178.377 93.9204 178.756 92.8611 179.515 92.0029C180.273 91.1447 181.359 90.7155 182.745 90.7155C184.432 90.7155 186.066 91.4397 187.649 92.8745C189.231 94.3093 190.774 96.0794 192.278 98.1847V90.2462H193.507V100.478H192.461C190.539 97.8494 188.813 95.8112 187.283 94.3764L187.296 94.3898Z" fill="#231F20"/>
<path d="M179.88 78.0301V85.8881H185.242C184.758 85.526 184.353 85.003 184.039 84.3192C183.725 83.6353 183.568 82.8843 183.568 82.0932C183.568 80.9265 183.804 79.9611 184.274 79.2235C184.745 78.486 185.347 77.9362 186.092 77.6144C186.838 77.2791 187.635 77.1182 188.485 77.1182C189.466 77.1182 190.342 77.306 191.127 77.6814C191.912 78.0569 192.539 78.6335 192.997 79.4247C193.455 80.2024 193.69 81.1679 193.69 82.3345C193.69 83.8096 193.311 85.003 192.565 85.9149C191.82 86.8267 190.813 87.39 189.545 87.5911V86.116C190.46 85.9283 191.179 85.4992 191.676 84.8287C192.173 84.1582 192.435 83.3269 192.435 82.3345C192.435 81.0875 192.082 80.1488 191.362 79.5185C190.643 78.8883 189.688 78.5665 188.512 78.5665C187.335 78.5665 186.445 78.8883 185.804 79.5319C185.151 80.1756 184.837 81.1009 184.837 82.2943C184.837 83.1257 185.02 83.8498 185.399 84.4801C185.778 85.1103 186.288 85.5797 186.929 85.8747V87.2961H178.625V78.0435H179.907L179.88 78.0301Z" fill="#231F20"/>
<path d="M193.624 65.9749L186.863 72.4785H193.624V73.9804H179.004V72.4785H185.843L179.004 65.9749V64.0707L186.301 71.0839L193.624 64.0037V65.9749Z" fill="#231F20"/>
<g style="mix-blend-mode:overlay" opacity="0.47">
<path fill-rule="evenodd" clip-rule="evenodd" d="M177.67 7.26783C181.201 3.32542 186.144 0.81783 191.637 0.710553C191.44 0.710553 191.244 0.697144 191.035 0.697144C179.645 0.697144 170.281 10.2582 170.281 21.9781V57.2989C170.281 57.728 170.621 58.0767 171.04 58.0767H173.786V20.2483C173.786 15.4208 175.211 10.9286 177.683 7.26783H177.67Z" fill="#231F20"/>
</g>
<path d="M297.205 147.566H295.852V149.76H294.266V147.566H289.72V146.349L294.286 139.739H295.852V146.233H297.205V147.566ZM294.266 146.233V143.752C294.266 143.547 294.268 143.339 294.272 143.13C294.282 142.915 294.291 142.71 294.3 142.514C294.309 142.318 294.318 142.138 294.327 141.974C294.336 141.806 294.343 141.667 294.348 141.557H294.293C294.206 141.74 294.111 141.926 294.006 142.118C293.901 142.305 293.789 142.487 293.671 142.665L291.21 146.233H294.266ZM304.854 144.756C304.854 145.563 304.791 146.285 304.663 146.923C304.54 147.557 304.344 148.095 304.075 148.537C303.806 148.979 303.455 149.316 303.022 149.548C302.59 149.781 302.065 149.897 301.45 149.897C300.68 149.897 300.044 149.694 299.543 149.289C299.042 148.879 298.67 148.291 298.429 147.525C298.187 146.755 298.066 145.832 298.066 144.756C298.066 143.681 298.176 142.76 298.395 141.995C298.618 141.225 298.978 140.634 299.475 140.224C299.971 139.814 300.63 139.609 301.45 139.609C302.225 139.609 302.863 139.814 303.364 140.224C303.87 140.63 304.244 141.218 304.485 141.988C304.731 142.754 304.854 143.676 304.854 144.756ZM299.687 144.756C299.687 145.6 299.741 146.304 299.851 146.869C299.965 147.434 300.151 147.858 300.411 148.14C300.671 148.418 301.017 148.557 301.45 148.557C301.883 148.557 302.229 148.418 302.489 148.14C302.749 147.862 302.936 147.441 303.05 146.876C303.168 146.311 303.228 145.604 303.228 144.756C303.228 143.918 303.171 143.216 303.057 142.651C302.943 142.086 302.756 141.662 302.496 141.38C302.236 141.092 301.888 140.949 301.45 140.949C301.013 140.949 300.664 141.092 300.404 141.38C300.149 141.662 299.965 142.086 299.851 142.651C299.741 143.216 299.687 143.918 299.687 144.756ZM308.238 148.133L308.334 148.291C308.252 148.619 308.147 148.972 308.02 149.35C307.892 149.728 307.753 150.107 307.603 150.485C307.452 150.868 307.299 151.228 307.145 151.565H305.969C306.064 151.196 306.156 150.809 306.242 150.403C306.333 150.002 306.415 149.605 306.488 149.214C306.566 148.817 306.627 148.457 306.673 148.133H308.238ZM316.681 144.756C316.681 145.563 316.617 146.285 316.489 146.923C316.366 147.557 316.17 148.095 315.901 148.537C315.632 148.979 315.282 149.316 314.849 149.548C314.416 149.781 313.892 149.897 313.276 149.897C312.506 149.897 311.87 149.694 311.369 149.289C310.868 148.879 310.496 148.291 310.255 147.525C310.013 146.755 309.893 145.832 309.893 144.756C309.893 143.681 310.002 142.76 310.221 141.995C310.444 141.225 310.804 140.634 311.301 140.224C311.798 139.814 312.456 139.609 313.276 139.609C314.051 139.609 314.689 139.814 315.19 140.224C315.696 140.63 316.07 141.218 316.312 141.988C316.558 142.754 316.681 143.676 316.681 144.756ZM311.513 144.756C311.513 145.6 311.567 146.304 311.677 146.869C311.791 147.434 311.978 147.858 312.237 148.14C312.497 148.418 312.843 148.557 313.276 148.557C313.709 148.557 314.056 148.418 314.315 148.14C314.575 147.862 314.762 147.441 314.876 146.876C314.994 146.311 315.054 145.604 315.054 144.756C315.054 143.918 314.997 143.216 314.883 142.651C314.769 142.086 314.582 141.662 314.322 141.38C314.062 141.092 313.714 140.949 313.276 140.949C312.839 140.949 312.49 141.092 312.23 141.38C311.975 141.662 311.791 142.086 311.677 142.651C311.567 143.216 311.513 143.918 311.513 144.756ZM324.692 144.756C324.692 145.563 324.629 146.285 324.501 146.923C324.378 147.557 324.182 148.095 323.913 148.537C323.644 148.979 323.293 149.316 322.86 149.548C322.427 149.781 321.903 149.897 321.288 149.897C320.518 149.897 319.882 149.694 319.381 149.289C318.88 148.879 318.508 148.291 318.267 147.525C318.025 146.755 317.904 145.832 317.904 144.756C317.904 143.681 318.014 142.76 318.232 141.995C318.456 141.225 318.816 140.634 319.312 140.224C319.809 139.814 320.468 139.609 321.288 139.609C322.063 139.609 322.701 139.814 323.202 140.224C323.708 140.63 324.082 141.218 324.323 141.988C324.569 142.754 324.692 143.676 324.692 144.756ZM319.524 144.756C319.524 145.6 319.579 146.304 319.688 146.869C319.802 147.434 319.989 147.858 320.249 148.14C320.509 148.418 320.855 148.557 321.288 148.557C321.721 148.557 322.067 148.418 322.327 148.14C322.587 147.862 322.774 147.441 322.888 146.876C323.006 146.311 323.065 145.604 323.065 144.756C323.065 143.918 323.008 143.216 322.895 142.651C322.781 142.086 322.594 141.662 322.334 141.38C322.074 141.092 321.726 140.949 321.288 140.949C320.851 140.949 320.502 141.092 320.242 141.38C319.987 141.662 319.802 142.086 319.688 142.651C319.579 143.216 319.524 143.918 319.524 144.756ZM332.704 144.756C332.704 145.563 332.64 146.285 332.513 146.923C332.39 147.557 332.194 148.095 331.925 148.537C331.656 148.979 331.305 149.316 330.872 149.548C330.439 149.781 329.915 149.897 329.3 149.897C328.53 149.897 327.894 149.694 327.393 149.289C326.891 148.879 326.52 148.291 326.278 147.525C326.037 146.755 325.916 145.832 325.916 144.756C325.916 143.681 326.025 142.76 326.244 141.995C326.467 141.225 326.827 140.634 327.324 140.224C327.821 139.814 328.479 139.609 329.3 139.609C330.075 139.609 330.713 139.814 331.214 140.224C331.72 140.63 332.093 141.218 332.335 141.988C332.581 142.754 332.704 143.676 332.704 144.756ZM327.536 144.756C327.536 145.6 327.591 146.304 327.7 146.869C327.814 147.434 328.001 147.858 328.261 148.14C328.521 148.418 328.867 148.557 329.3 148.557C329.733 148.557 330.079 148.418 330.339 148.14C330.599 147.862 330.785 147.441 330.899 146.876C331.018 146.311 331.077 145.604 331.077 144.756C331.077 143.918 331.02 143.216 330.906 142.651C330.792 142.086 330.605 141.662 330.346 141.38C330.086 141.092 329.737 140.949 329.3 140.949C328.862 140.949 328.514 141.092 328.254 141.38C327.999 141.662 327.814 142.086 327.7 142.651C327.591 143.216 327.536 143.918 327.536 144.756ZM275.515 166.76H273.901V156.124H275.515V166.76ZM279.418 159.193V166.76H277.812V159.193H279.418ZM278.625 156.295C278.871 156.295 279.083 156.361 279.261 156.493C279.443 156.625 279.534 156.853 279.534 157.176C279.534 157.495 279.443 157.723 279.261 157.86C279.083 157.992 278.871 158.058 278.625 158.058C278.37 158.058 278.153 157.992 277.976 157.86C277.802 157.723 277.716 157.495 277.716 157.176C277.716 156.853 277.802 156.625 277.976 156.493C278.153 156.361 278.37 156.295 278.625 156.295ZM285.604 159.049C286.502 159.049 287.222 159.378 287.765 160.034C288.312 160.69 288.585 161.665 288.585 162.96C288.585 163.816 288.457 164.539 288.202 165.127C287.951 165.71 287.598 166.152 287.143 166.453C286.691 166.749 286.165 166.897 285.563 166.897C285.181 166.897 284.848 166.847 284.565 166.747C284.283 166.646 284.041 166.517 283.841 166.357C283.64 166.193 283.472 166.015 283.335 165.824H283.239C283.262 166.006 283.283 166.209 283.301 166.432C283.324 166.651 283.335 166.852 283.335 167.034V170.117H281.722V159.193H283.034L283.26 160.239H283.335C283.476 160.025 283.647 159.826 283.848 159.644C284.053 159.462 284.299 159.318 284.586 159.214C284.878 159.104 285.217 159.049 285.604 159.049ZM285.174 160.362C284.732 160.362 284.376 160.451 284.107 160.629C283.843 160.802 283.649 161.064 283.526 161.415C283.408 161.766 283.344 162.205 283.335 162.734V162.96C283.335 163.52 283.392 163.996 283.506 164.388C283.624 164.776 283.818 165.072 284.087 165.277C284.36 165.477 284.729 165.578 285.194 165.578C285.586 165.578 285.91 165.471 286.165 165.256C286.425 165.042 286.618 164.737 286.746 164.34C286.874 163.944 286.938 163.477 286.938 162.939C286.938 162.123 286.792 161.49 286.5 161.039C286.213 160.588 285.771 160.362 285.174 160.362ZM293.411 159.049C294.368 159.049 295.09 159.261 295.578 159.685C296.07 160.109 296.316 160.77 296.316 161.668V166.76H295.175L294.867 165.687H294.812C294.598 165.961 294.377 166.186 294.149 166.364C293.922 166.542 293.657 166.674 293.356 166.76C293.06 166.852 292.698 166.897 292.27 166.897C291.818 166.897 291.415 166.815 291.06 166.651C290.704 166.482 290.424 166.227 290.219 165.885C290.014 165.544 289.911 165.111 289.911 164.587C289.911 163.807 290.201 163.222 290.779 162.83C291.363 162.438 292.242 162.221 293.418 162.18L294.73 162.132V161.736C294.73 161.212 294.607 160.838 294.361 160.615C294.12 160.392 293.778 160.28 293.336 160.28C292.958 160.28 292.591 160.335 292.235 160.444C291.88 160.553 291.534 160.688 291.196 160.847L290.677 159.713C291.046 159.517 291.465 159.357 291.935 159.234C292.409 159.111 292.901 159.049 293.411 159.049ZM294.724 163.144L293.746 163.178C292.944 163.206 292.381 163.342 292.058 163.589C291.734 163.835 291.572 164.172 291.572 164.6C291.572 164.974 291.684 165.247 291.907 165.421C292.131 165.589 292.424 165.673 292.789 165.673C293.345 165.673 293.805 165.516 294.17 165.202C294.539 164.883 294.724 164.416 294.724 163.8V163.144ZM303.651 164.6C303.651 165.097 303.531 165.516 303.289 165.858C303.048 166.2 302.694 166.46 302.229 166.637C301.769 166.811 301.204 166.897 300.534 166.897C300.006 166.897 299.55 166.858 299.167 166.781C298.789 166.708 298.431 166.594 298.094 166.439V165.051C298.454 165.22 298.857 165.366 299.304 165.489C299.755 165.612 300.181 165.673 300.582 165.673C301.111 165.673 301.491 165.591 301.724 165.427C301.956 165.259 302.072 165.035 302.072 164.757C302.072 164.593 302.024 164.448 301.929 164.32C301.838 164.188 301.664 164.053 301.409 163.917C301.159 163.775 300.789 163.607 300.302 163.411C299.823 163.219 299.42 163.028 299.092 162.837C298.764 162.645 298.515 162.415 298.347 162.146C298.178 161.873 298.094 161.524 298.094 161.1C298.094 160.43 298.358 159.922 298.887 159.576C299.42 159.225 300.124 159.049 300.999 159.049C301.464 159.049 301.901 159.097 302.312 159.193C302.726 159.284 303.132 159.419 303.528 159.596L303.022 160.806C302.681 160.656 302.337 160.533 301.99 160.437C301.648 160.337 301.3 160.287 300.944 160.287C300.53 160.287 300.213 160.351 299.994 160.478C299.78 160.606 299.673 160.788 299.673 161.025C299.673 161.203 299.725 161.353 299.83 161.476C299.935 161.599 300.115 161.722 300.37 161.845C300.63 161.968 300.99 162.121 301.45 162.303C301.901 162.477 302.291 162.659 302.619 162.85C302.952 163.037 303.207 163.267 303.385 163.541C303.562 163.814 303.651 164.167 303.651 164.6ZM308.402 159.049C309.077 159.049 309.656 159.188 310.139 159.466C310.622 159.744 310.993 160.139 311.253 160.649C311.513 161.159 311.643 161.77 311.643 162.481V163.342H306.591C306.609 164.076 306.805 164.641 307.179 165.038C307.557 165.434 308.086 165.632 308.765 165.632C309.248 165.632 309.681 165.587 310.063 165.496C310.451 165.4 310.85 165.261 311.26 165.079V166.384C310.882 166.562 310.496 166.692 310.104 166.774C309.713 166.856 309.243 166.897 308.696 166.897C307.953 166.897 307.299 166.754 306.734 166.466C306.174 166.175 305.734 165.742 305.415 165.168C305.101 164.593 304.943 163.88 304.943 163.028C304.943 162.18 305.087 161.46 305.374 160.868C305.661 160.275 306.064 159.824 306.584 159.514C307.104 159.204 307.71 159.049 308.402 159.049ZM308.402 160.259C307.896 160.259 307.486 160.423 307.172 160.752C306.862 161.08 306.68 161.561 306.625 162.194H310.07C310.066 161.816 310.002 161.481 309.879 161.189C309.76 160.897 309.578 160.67 309.332 160.505C309.09 160.341 308.781 160.259 308.402 160.259ZM323.688 159.193V166.76H322.423L322.204 165.742H322.115C321.956 166.002 321.753 166.218 321.507 166.391C321.261 166.56 320.987 166.685 320.687 166.767C320.386 166.854 320.069 166.897 319.736 166.897C319.167 166.897 318.679 166.801 318.273 166.61C317.872 166.414 317.565 166.113 317.351 165.708C317.136 165.302 317.029 164.778 317.029 164.135V159.193H318.643V163.835C318.643 164.422 318.761 164.862 318.998 165.154C319.24 165.446 319.613 165.591 320.119 165.591C320.607 165.591 320.994 165.491 321.281 165.291C321.568 165.09 321.771 164.794 321.89 164.402C322.013 164.01 322.074 163.529 322.074 162.96V159.193H323.688ZM329.936 159.049C330.788 159.049 331.451 159.27 331.925 159.713C332.403 160.15 332.643 160.854 332.643 161.825V166.76H331.036V162.126C331.036 161.538 330.915 161.098 330.674 160.806C330.432 160.51 330.059 160.362 329.553 160.362C328.819 160.362 328.309 160.588 328.021 161.039C327.739 161.49 327.598 162.144 327.598 163.001V166.76H325.991V159.193H327.242L327.468 160.218H327.557C327.721 159.954 327.924 159.738 328.165 159.569C328.411 159.396 328.685 159.266 328.985 159.179C329.291 159.093 329.607 159.049 329.936 159.049ZM336.498 159.193V166.76H334.892V159.193H336.498ZM335.705 156.295C335.951 156.295 336.163 156.361 336.341 156.493C336.523 156.625 336.614 156.853 336.614 157.176C336.614 157.495 336.523 157.723 336.341 157.86C336.163 157.992 335.951 158.058 335.705 158.058C335.45 158.058 335.233 157.992 335.056 157.86C334.882 157.723 334.796 157.495 334.796 157.176C334.796 156.853 334.882 156.625 335.056 156.493C335.233 156.361 335.45 156.295 335.705 156.295ZM341.618 165.598C341.828 165.598 342.035 165.58 342.24 165.544C342.445 165.503 342.632 165.455 342.801 165.4V166.617C342.623 166.694 342.393 166.76 342.11 166.815C341.828 166.87 341.534 166.897 341.229 166.897C340.8 166.897 340.415 166.826 340.073 166.685C339.731 166.539 339.46 166.291 339.26 165.94C339.059 165.589 338.959 165.104 338.959 164.484V160.417H337.927V159.699L339.034 159.131L339.561 157.511H340.572V159.193H342.739V160.417H340.572V164.464C340.572 164.846 340.668 165.131 340.859 165.318C341.051 165.505 341.304 165.598 341.618 165.598ZM349.425 164.6C349.425 165.097 349.304 165.516 349.062 165.858C348.821 166.2 348.468 166.46 348.003 166.637C347.543 166.811 346.978 166.897 346.308 166.897C345.779 166.897 345.323 166.858 344.94 166.781C344.562 166.708 344.204 166.594 343.867 166.439V165.051C344.227 165.22 344.631 165.366 345.077 165.489C345.528 165.612 345.954 165.673 346.355 165.673C346.884 165.673 347.265 165.591 347.497 165.427C347.729 165.259 347.846 165.035 347.846 164.757C347.846 164.593 347.798 164.448 347.702 164.32C347.611 164.188 347.438 164.053 347.183 163.917C346.932 163.775 346.563 163.607 346.075 163.411C345.597 163.219 345.193 163.028 344.865 162.837C344.537 162.645 344.289 162.415 344.12 162.146C343.951 161.873 343.867 161.524 343.867 161.1C343.867 160.43 344.132 159.922 344.66 159.576C345.193 159.225 345.897 159.049 346.772 159.049C347.237 159.049 347.675 159.097 348.085 159.193C348.5 159.284 348.905 159.419 349.302 159.596L348.796 160.806C348.454 160.656 348.11 160.533 347.764 160.437C347.422 160.337 347.073 160.287 346.718 160.287C346.303 160.287 345.986 160.351 345.768 160.478C345.553 160.606 345.446 160.788 345.446 161.025C345.446 161.203 345.499 161.353 345.604 161.476C345.708 161.599 345.888 161.722 346.144 161.845C346.403 161.968 346.763 162.121 347.224 162.303C347.675 162.477 348.064 162.659 348.393 162.85C348.725 163.037 348.98 163.267 349.158 163.541C349.336 163.814 349.425 164.167 349.425 164.6Z" fill="#1E1E1E"/>
<path opacity="0.2" d="M308.666 119.613C325.039 119.613 338.312 117.572 338.312 115.054C338.312 112.536 325.039 110.495 308.666 110.495C292.293 110.495 279.02 112.536 279.02 115.054C279.02 117.572 292.293 119.613 308.666 119.613Z" fill="url(#paint2_radial_536_3839)"/>
<path fill-rule="evenodd" clip-rule="evenodd" d="M335.214 58.0767C335.632 58.0767 335.972 57.728 335.972 57.2989V21.9781C335.972 10.2582 326.661 0.697144 315.219 0.697144C303.828 0.697144 294.465 10.2582 294.465 21.9781V57.2989C294.465 57.728 294.805 58.0767 295.223 58.0767H335.227H335.214Z" fill="#FBB03A"/>
<g style="mix-blend-mode:overlay" opacity="0.3">
<path fill-rule="evenodd" clip-rule="evenodd" d="M329.865 90.1793V25.9743C329.865 24.459 328.688 23.2387 327.197 23.2387C325.772 23.2387 324.529 24.4456 324.529 25.9743V90.1793C324.529 91.6945 325.759 92.9148 327.197 92.9148C328.675 92.9148 329.865 91.708 329.865 90.1793Z" fill="white"/>
</g>
<path fill-rule="evenodd" clip-rule="evenodd" d="M334.951 94.1753V58.0767H295.471V94.1753C295.471 105.909 304.376 115.456 315.218 115.456C326.098 115.456 334.951 105.895 334.951 94.1753Z" fill="#D7D8D8"/>
<path fill-rule="evenodd" clip-rule="evenodd" d="M334.953 94.1753V58.0767H298.859V92.5527C298.859 103.669 307.294 112.828 317.665 112.828C323.013 112.828 327.839 110.401 331.265 106.512C333.606 103.026 334.966 98.7747 334.966 94.1753H334.953Z" fill="#EAEBEB"/>
<path fill-rule="evenodd" clip-rule="evenodd" d="M329.865 58.0767H324.543V90.1792C324.543 91.6945 325.772 92.9148 327.211 92.9148C328.688 92.9148 329.879 91.7079 329.879 90.1792V58.0767H329.865Z" fill="white"/>
<g style="mix-blend-mode:overlay" opacity="0.3">
<path fill-rule="evenodd" clip-rule="evenodd" d="M330.258 12.6853C329.421 14.4554 327.145 11.8808 323.706 10.1107C320.201 8.39427 316.853 8.13949 317.69 6.42307C318.527 4.653 321.98 4.653 325.485 6.42307C328.937 8.13949 331.056 10.9689 330.271 12.6853H330.258Z" fill="white"/>
</g>
<path d="M314.304 101.805H313.192L302.939 94.0008V92.2174H313.022V89.9243H314.304V92.2174H317.861V93.6924H314.304V101.805ZM304.548 93.6254L313.022 100.062V93.6254H304.548Z" fill="#231F20"/>
<path d="M304.64 86.6524C303.319 85.8881 302.652 84.5337 302.652 82.5759C302.652 80.6181 303.319 79.2638 304.64 78.4994C305.961 77.7351 307.831 77.3596 310.224 77.3596C312.617 77.3596 314.553 77.7351 315.9 78.4994C317.247 79.2638 317.914 80.6181 317.914 82.5759C317.914 84.5337 317.247 85.9149 315.9 86.6659C314.566 87.4168 312.67 87.7923 310.224 87.7923C307.779 87.7923 305.961 87.4168 304.64 86.6524ZM306.942 79.1297C306.052 79.3174 305.333 79.6795 304.784 80.2293C304.235 80.7791 303.973 81.5568 303.973 82.5894C303.973 83.6219 304.248 84.3996 304.784 84.9494C305.32 85.4992 306.052 85.8613 306.942 86.049C307.831 86.2368 308.929 86.3306 310.224 86.3306C311.519 86.3306 312.683 86.2368 313.585 86.049C314.487 85.8613 315.207 85.4992 315.756 84.9494C316.305 84.3996 316.567 83.6219 316.567 82.5894C316.567 81.5568 316.292 80.7791 315.756 80.2293C315.207 79.6929 314.487 79.3174 313.585 79.1297C312.683 78.942 311.571 78.8481 310.224 78.8481C308.877 78.8481 307.831 78.942 306.942 79.1297Z" fill="#231F20"/>
<path d="M317.863 65.9749L311.102 72.4785H317.863V73.9804H303.242V72.4785H310.082L303.242 65.9749V64.0707L310.539 71.0839L317.863 64.0037V65.9749Z" fill="#231F20"/>
<g style="mix-blend-mode:overlay" opacity="0.47">
<path fill-rule="evenodd" clip-rule="evenodd" d="M301.906 7.26783C305.437 3.32542 310.38 0.81783 315.873 0.710553C315.677 0.710553 315.481 0.697144 315.271 0.697144C303.881 0.697144 294.518 10.2582 294.518 21.9781V57.2989C294.518 57.728 294.858 58.0767 295.276 58.0767H298.022V20.2483C298.022 15.4208 299.448 10.9286 301.919 7.26783H301.906Z" fill="#231F20"/>
</g>
<path d="M414.589 145.502C414.589 144.914 414.63 144.335 414.712 143.765C414.799 143.196 414.944 142.662 415.149 142.166C415.354 141.669 415.637 141.231 415.997 140.853C416.362 140.475 416.82 140.179 417.371 139.964C417.923 139.746 418.586 139.636 419.36 139.636C419.561 139.636 419.786 139.645 420.037 139.664C420.288 139.682 420.495 139.712 420.659 139.753V141.086C420.481 141.035 420.285 140.997 420.071 140.969C419.862 140.942 419.652 140.928 419.442 140.928C418.604 140.928 417.95 141.088 417.48 141.407C417.011 141.721 416.676 142.154 416.476 142.706C416.275 143.253 416.159 143.879 416.127 144.586H416.209C416.346 144.358 416.517 144.155 416.722 143.977C416.927 143.799 417.177 143.658 417.474 143.553C417.77 143.444 418.114 143.389 418.506 143.389C419.089 143.389 419.597 143.512 420.03 143.758C420.463 144 420.796 144.351 421.028 144.811C421.265 145.271 421.384 145.83 421.384 146.486C421.384 147.192 421.249 147.801 420.98 148.311C420.716 148.822 420.338 149.214 419.846 149.487C419.358 149.76 418.777 149.897 418.103 149.897C417.606 149.897 417.143 149.806 416.715 149.624C416.291 149.441 415.92 149.168 415.601 148.803C415.282 148.439 415.033 147.983 414.855 147.436C414.678 146.885 414.589 146.24 414.589 145.502ZM418.075 148.571C418.595 148.571 419.012 148.402 419.326 148.065C419.645 147.723 419.805 147.201 419.805 146.5C419.805 145.93 419.663 145.479 419.381 145.146C419.103 144.813 418.684 144.647 418.123 144.647C417.74 144.647 417.405 144.729 417.118 144.893C416.831 145.057 416.608 145.265 416.448 145.515C416.293 145.766 416.216 146.021 416.216 146.281C416.216 146.545 416.255 146.812 416.332 147.081C416.41 147.35 416.526 147.598 416.681 147.826C416.836 148.049 417.029 148.229 417.262 148.366C417.494 148.503 417.765 148.571 418.075 148.571ZM429.354 144.756C429.354 145.563 429.291 146.285 429.163 146.923C429.04 147.557 428.844 148.095 428.575 148.537C428.306 148.979 427.955 149.316 427.522 149.548C427.09 149.781 426.565 149.897 425.95 149.897C425.18 149.897 424.544 149.694 424.043 149.289C423.542 148.879 423.17 148.291 422.929 147.525C422.687 146.755 422.566 145.832 422.566 144.756C422.566 143.681 422.676 142.76 422.895 141.995C423.118 141.225 423.478 140.634 423.975 140.224C424.471 139.814 425.13 139.609 425.95 139.609C426.725 139.609 427.363 139.814 427.864 140.224C428.37 140.63 428.744 141.218 428.985 141.988C429.231 142.754 429.354 143.676 429.354 144.756ZM424.187 144.756C424.187 145.6 424.241 146.304 424.351 146.869C424.465 147.434 424.651 147.858 424.911 148.14C425.171 148.418 425.517 148.557 425.95 148.557C426.383 148.557 426.729 148.418 426.989 148.14C427.249 147.862 427.436 147.441 427.55 146.876C427.668 146.311 427.728 145.604 427.728 144.756C427.728 143.918 427.671 143.216 427.557 142.651C427.443 142.086 427.256 141.662 426.996 141.38C426.736 141.092 426.388 140.949 425.95 140.949C425.513 140.949 425.164 141.092 424.904 141.38C424.649 141.662 424.465 142.086 424.351 142.651C424.241 143.216 424.187 143.918 424.187 144.756ZM432.738 148.133L432.834 148.291C432.752 148.619 432.647 148.972 432.52 149.35C432.392 149.728 432.253 150.107 432.103 150.485C431.952 150.868 431.799 151.228 431.645 151.565H430.469C430.564 151.196 430.656 150.809 430.742 150.403C430.833 150.002 430.915 149.605 430.988 149.214C431.066 148.817 431.127 148.457 431.173 148.133H432.738ZM441.181 144.756C441.181 145.563 441.117 146.285 440.989 146.923C440.866 147.557 440.67 148.095 440.401 148.537C440.132 148.979 439.782 149.316 439.349 149.548C438.916 149.781 438.392 149.897 437.776 149.897C437.006 149.897 436.37 149.694 435.869 149.289C435.368 148.879 434.996 148.291 434.755 147.525C434.513 146.755 434.393 145.832 434.393 144.756C434.393 143.681 434.502 142.76 434.721 141.995C434.944 141.225 435.304 140.634 435.801 140.224C436.298 139.814 436.956 139.609 437.776 139.609C438.551 139.609 439.189 139.814 439.69 140.224C440.196 140.63 440.57 141.218 440.812 141.988C441.058 142.754 441.181 143.676 441.181 144.756ZM436.013 144.756C436.013 145.6 436.067 146.304 436.177 146.869C436.291 147.434 436.478 147.858 436.737 148.14C436.997 148.418 437.343 148.557 437.776 148.557C438.209 148.557 438.556 148.418 438.815 148.14C439.075 147.862 439.262 147.441 439.376 146.876C439.494 146.311 439.554 145.604 439.554 144.756C439.554 143.918 439.497 143.216 439.383 142.651C439.269 142.086 439.082 141.662 438.822 141.38C438.562 141.092 438.214 140.949 437.776 140.949C437.339 140.949 436.99 141.092 436.73 141.38C436.475 141.662 436.291 142.086 436.177 142.651C436.067 143.216 436.013 143.918 436.013 144.756ZM449.192 144.756C449.192 145.563 449.129 146.285 449.001 146.923C448.878 147.557 448.682 148.095 448.413 148.537C448.144 148.979 447.793 149.316 447.36 149.548C446.927 149.781 446.403 149.897 445.788 149.897C445.018 149.897 444.382 149.694 443.881 149.289C443.38 148.879 443.008 148.291 442.767 147.525C442.525 146.755 442.404 145.832 442.404 144.756C442.404 143.681 442.514 142.76 442.732 141.995C442.956 141.225 443.316 140.634 443.812 140.224C444.309 139.814 444.968 139.609 445.788 139.609C446.563 139.609 447.201 139.814 447.702 140.224C448.208 140.63 448.582 141.218 448.823 141.988C449.069 142.754 449.192 143.676 449.192 144.756ZM444.024 144.756C444.024 145.6 444.079 146.304 444.188 146.869C444.302 147.434 444.489 147.858 444.749 148.14C445.009 148.418 445.355 148.557 445.788 148.557C446.221 148.557 446.567 148.418 446.827 148.14C447.087 147.862 447.274 147.441 447.388 146.876C447.506 146.311 447.565 145.604 447.565 144.756C447.565 143.918 447.508 143.216 447.395 142.651C447.281 142.086 447.094 141.662 446.834 141.38C446.574 141.092 446.226 140.949 445.788 140.949C445.351 140.949 445.002 141.092 444.742 141.38C444.487 141.662 444.302 142.086 444.188 142.651C444.079 143.216 444.024 143.918 444.024 144.756ZM457.204 144.756C457.204 145.563 457.14 146.285 457.013 146.923C456.89 147.557 456.694 148.095 456.425 148.537C456.156 148.979 455.805 149.316 455.372 149.548C454.939 149.781 454.415 149.897 453.8 149.897C453.03 149.897 452.394 149.694 451.893 149.289C451.391 148.879 451.02 148.291 450.778 147.525C450.537 146.755 450.416 145.832 450.416 144.756C450.416 143.681 450.525 142.76 450.744 141.995C450.967 141.225 451.327 140.634 451.824 140.224C452.321 139.814 452.979 139.609 453.8 139.609C454.575 139.609 455.213 139.814 455.714 140.224C456.22 140.63 456.593 141.218 456.835 141.988C457.081 142.754 457.204 143.676 457.204 144.756ZM452.036 144.756C452.036 145.6 452.091 146.304 452.2 146.869C452.314 147.434 452.501 147.858 452.761 148.14C453.021 148.418 453.367 148.557 453.8 148.557C454.233 148.557 454.579 148.418 454.839 148.14C455.099 147.862 455.285 147.441 455.399 146.876C455.518 146.311 455.577 145.604 455.577 144.756C455.577 143.918 455.52 143.216 455.406 142.651C455.292 142.086 455.105 141.662 454.846 141.38C454.586 141.092 454.237 140.949 453.8 140.949C453.362 140.949 453.014 141.092 452.754 141.38C452.499 141.662 452.314 142.086 452.2 142.651C452.091 143.216 452.036 143.918 452.036 144.756ZM400.015 166.76H398.401V156.124H400.015V166.76ZM403.918 159.193V166.76H402.312V159.193H403.918ZM403.125 156.295C403.371 156.295 403.583 156.361 403.761 156.493C403.943 156.625 404.034 156.853 404.034 157.176C404.034 157.495 403.943 157.723 403.761 157.86C403.583 157.992 403.371 158.058 403.125 158.058C402.87 158.058 402.653 157.992 402.476 157.86C402.302 157.723 402.216 157.495 402.216 157.176C402.216 156.853 402.302 156.625 402.476 156.493C402.653 156.361 402.87 156.295 403.125 156.295ZM410.104 159.049C411.002 159.049 411.722 159.378 412.265 160.034C412.812 160.69 413.085 161.665 413.085 162.96C413.085 163.816 412.957 164.539 412.702 165.127C412.451 165.71 412.098 166.152 411.643 166.453C411.191 166.749 410.665 166.897 410.063 166.897C409.681 166.897 409.348 166.847 409.065 166.747C408.783 166.646 408.541 166.517 408.341 166.357C408.14 166.193 407.972 166.015 407.835 165.824H407.739C407.762 166.006 407.783 166.209 407.801 166.432C407.824 166.651 407.835 166.852 407.835 167.034V170.117H406.222V159.193H407.534L407.76 160.239H407.835C407.976 160.025 408.147 159.826 408.348 159.644C408.553 159.462 408.799 159.318 409.086 159.214C409.378 159.104 409.717 159.049 410.104 159.049ZM409.674 160.362C409.232 160.362 408.876 160.451 408.607 160.629C408.343 160.802 408.149 161.064 408.026 161.415C407.908 161.766 407.844 162.205 407.835 162.734V162.96C407.835 163.52 407.892 163.996 408.006 164.388C408.124 164.776 408.318 165.072 408.587 165.277C408.86 165.477 409.229 165.578 409.694 165.578C410.086 165.578 410.41 165.471 410.665 165.256C410.925 165.042 411.118 164.737 411.246 164.34C411.374 163.944 411.438 163.477 411.438 162.939C411.438 162.123 411.292 161.49 411 161.039C410.713 160.588 410.271 160.362 409.674 160.362ZM417.911 159.049C418.868 159.049 419.59 159.261 420.078 159.685C420.57 160.109 420.816 160.77 420.816 161.668V166.76H419.675L419.367 165.687H419.312C419.098 165.961 418.877 166.186 418.649 166.364C418.422 166.542 418.157 166.674 417.856 166.76C417.56 166.852 417.198 166.897 416.77 166.897C416.318 166.897 415.915 166.815 415.56 166.651C415.204 166.482 414.924 166.227 414.719 165.885C414.514 165.544 414.411 165.111 414.411 164.587C414.411 163.807 414.701 163.222 415.279 162.83C415.863 162.438 416.742 162.221 417.918 162.18L419.23 162.132V161.736C419.23 161.212 419.107 160.838 418.861 160.615C418.62 160.392 418.278 160.28 417.836 160.28C417.458 160.28 417.091 160.335 416.735 160.444C416.38 160.553 416.034 160.688 415.696 160.847L415.177 159.713C415.546 159.517 415.965 159.357 416.435 159.234C416.909 159.111 417.401 159.049 417.911 159.049ZM419.224 163.144L418.246 163.178C417.444 163.206 416.881 163.342 416.558 163.589C416.234 163.835 416.072 164.172 416.072 164.6C416.072 164.974 416.184 165.247 416.407 165.421C416.631 165.589 416.924 165.673 417.289 165.673C417.845 165.673 418.305 165.516 418.67 165.202C419.039 164.883 419.224 164.416 419.224 163.8V163.144ZM428.151 164.6C428.151 165.097 428.031 165.516 427.789 165.858C427.548 166.2 427.194 166.46 426.729 166.637C426.269 166.811 425.704 166.897 425.034 166.897C424.506 166.897 424.05 166.858 423.667 166.781C423.289 166.708 422.931 166.594 422.594 166.439V165.051C422.954 165.22 423.357 165.366 423.804 165.489C424.255 165.612 424.681 165.673 425.082 165.673C425.611 165.673 425.991 165.591 426.224 165.427C426.456 165.259 426.572 165.035 426.572 164.757C426.572 164.593 426.524 164.448 426.429 164.32C426.338 164.188 426.164 164.053 425.909 163.917C425.659 163.775 425.289 163.607 424.802 163.411C424.323 163.219 423.92 163.028 423.592 162.837C423.264 162.645 423.015 162.415 422.847 162.146C422.678 161.873 422.594 161.524 422.594 161.1C422.594 160.43 422.858 159.922 423.387 159.576C423.92 159.225 424.624 159.049 425.499 159.049C425.964 159.049 426.401 159.097 426.812 159.193C427.226 159.284 427.632 159.419 428.028 159.596L427.522 160.806C427.181 160.656 426.837 160.533 426.49 160.437C426.148 160.337 425.8 160.287 425.444 160.287C425.03 160.287 424.713 160.351 424.494 160.478C424.28 160.606 424.173 160.788 424.173 161.025C424.173 161.203 424.225 161.353 424.33 161.476C424.435 161.599 424.615 161.722 424.87 161.845C425.13 161.968 425.49 162.121 425.95 162.303C426.401 162.477 426.791 162.659 427.119 162.85C427.452 163.037 427.707 163.267 427.885 163.541C428.062 163.814 428.151 164.167 428.151 164.6ZM432.902 159.049C433.577 159.049 434.156 159.188 434.639 159.466C435.122 159.744 435.493 160.139 435.753 160.649C436.013 161.159 436.143 161.77 436.143 162.481V163.342H431.091C431.109 164.076 431.305 164.641 431.679 165.038C432.057 165.434 432.586 165.632 433.265 165.632C433.748 165.632 434.181 165.587 434.563 165.496C434.951 165.4 435.35 165.261 435.76 165.079V166.384C435.382 166.562 434.996 166.692 434.604 166.774C434.213 166.856 433.743 166.897 433.196 166.897C432.453 166.897 431.799 166.754 431.234 166.466C430.674 166.175 430.234 165.742 429.915 165.168C429.601 164.593 429.443 163.88 429.443 163.028C429.443 162.18 429.587 161.46 429.874 160.868C430.161 160.275 430.564 159.824 431.084 159.514C431.604 159.204 432.21 159.049 432.902 159.049ZM432.902 160.259C432.396 160.259 431.986 160.423 431.672 160.752C431.362 161.08 431.18 161.561 431.125 162.194H434.57C434.566 161.816 434.502 161.481 434.379 161.189C434.26 160.897 434.078 160.67 433.832 160.505C433.59 160.341 433.281 160.259 432.902 160.259ZM448.188 159.193V166.76H446.923L446.704 165.742H446.615C446.456 166.002 446.253 166.218 446.007 166.391C445.761 166.56 445.487 166.685 445.187 166.767C444.886 166.854 444.569 166.897 444.236 166.897C443.667 166.897 443.179 166.801 442.773 166.61C442.372 166.414 442.065 166.113 441.851 165.708C441.636 165.302 441.529 164.778 441.529 164.135V159.193H443.143V163.835C443.143 164.422 443.261 164.862 443.498 165.154C443.74 165.446 444.113 165.591 444.619 165.591C445.107 165.591 445.494 165.491 445.781 165.291C446.068 165.09 446.271 164.794 446.39 164.402C446.513 164.01 446.574 163.529 446.574 162.96V159.193H448.188ZM454.436 159.049C455.288 159.049 455.951 159.27 456.425 159.713C456.903 160.15 457.143 160.854 457.143 161.825V166.76H455.536V162.126C455.536 161.538 455.415 161.098 455.174 160.806C454.932 160.51 454.559 160.362 454.053 160.362C453.319 160.362 452.809 160.588 452.521 161.039C452.239 161.49 452.098 162.144 452.098 163.001V166.76H450.491V159.193H451.742L451.968 160.218H452.057C452.221 159.954 452.424 159.738 452.665 159.569C452.911 159.396 453.185 159.266 453.485 159.179C453.791 159.093 454.107 159.049 454.436 159.049ZM460.998 159.193V166.76H459.392V159.193H460.998ZM460.205 156.295C460.451 156.295 460.663 156.361 460.841 156.493C461.023 156.625 461.114 156.853 461.114 157.176C461.114 157.495 461.023 157.723 460.841 157.86C460.663 157.992 460.451 158.058 460.205 158.058C459.95 158.058 459.733 157.992 459.556 157.86C459.382 157.723 459.296 157.495 459.296 157.176C459.296 156.853 459.382 156.625 459.556 156.493C459.733 156.361 459.95 156.295 460.205 156.295ZM466.118 165.598C466.328 165.598 466.535 165.58 466.74 165.544C466.945 165.503 467.132 165.455 467.301 165.4V166.617C467.123 166.694 466.893 166.76 466.61 166.815C466.328 166.87 466.034 166.897 465.729 166.897C465.3 166.897 464.915 166.826 464.573 166.685C464.231 166.539 463.96 166.291 463.76 165.94C463.559 165.589 463.459 165.104 463.459 164.484V160.417H462.427V159.699L463.534 159.131L464.061 157.511H465.072V159.193H467.239V160.417H465.072V164.464C465.072 164.846 465.168 165.131 465.359 165.318C465.551 165.505 465.804 165.598 466.118 165.598ZM473.925 164.6C473.925 165.097 473.804 165.516 473.562 165.858C473.321 166.2 472.968 166.46 472.503 166.637C472.043 166.811 471.478 166.897 470.808 166.897C470.279 166.897 469.823 166.858 469.44 166.781C469.062 166.708 468.704 166.594 468.367 166.439V165.051C468.727 165.22 469.131 165.366 469.577 165.489C470.028 165.612 470.454 165.673 470.855 165.673C471.384 165.673 471.765 165.591 471.997 165.427C472.229 165.259 472.346 165.035 472.346 164.757C472.346 164.593 472.298 164.448 472.202 164.32C472.111 164.188 471.938 164.053 471.683 163.917C471.432 163.775 471.063 163.607 470.575 163.411C470.097 163.219 469.693 163.028 469.365 162.837C469.037 162.645 468.789 162.415 468.62 162.146C468.451 161.873 468.367 161.524 468.367 161.1C468.367 160.43 468.632 159.922 469.16 159.576C469.693 159.225 470.397 159.049 471.272 159.049C471.737 159.049 472.175 159.097 472.585 159.193C473 159.284 473.405 159.419 473.802 159.596L473.296 160.806C472.954 160.656 472.61 160.533 472.264 160.437C471.922 160.337 471.573 160.287 471.218 160.287C470.803 160.287 470.486 160.351 470.268 160.478C470.053 160.606 469.946 160.788 469.946 161.025C469.946 161.203 469.999 161.353 470.104 161.476C470.208 161.599 470.388 161.722 470.644 161.845C470.903 161.968 471.263 162.121 471.724 162.303C472.175 162.477 472.564 162.659 472.893 162.85C473.225 163.037 473.48 163.267 473.658 163.541C473.836 163.814 473.925 164.167 473.925 164.6Z" fill="#1E1E1E"/>
<path opacity="0.2" d="M432.902 119.613C449.276 119.613 462.549 117.572 462.549 115.054C462.549 112.536 449.276 110.495 432.902 110.495C416.529 110.495 403.256 112.536 403.256 115.054C403.256 117.572 416.529 119.613 432.902 119.613Z" fill="url(#paint3_radial_536_3839)"/>
<path fill-rule="evenodd" clip-rule="evenodd" d="M459.448 58.0767C459.867 58.0767 460.207 57.728 460.207 57.2989V21.9781C460.207 10.2582 450.896 0.697144 439.453 0.697144C428.063 0.697144 418.699 10.2582 418.699 21.9781V57.2989C418.699 57.728 419.039 58.0767 419.458 58.0767H459.461H459.448Z" fill="#169ECF"/>
<g style="mix-blend-mode:overlay" opacity="0.3">
<path fill-rule="evenodd" clip-rule="evenodd" d="M454.099 90.1793V25.9743C454.099 24.459 452.922 23.2387 451.431 23.2387C450.006 23.2387 448.764 24.4456 448.764 25.9743V90.1793C448.764 91.6945 449.993 92.9148 451.431 92.9148C452.909 92.9148 454.099 91.708 454.099 90.1793Z" fill="white"/>
</g>
<path fill-rule="evenodd" clip-rule="evenodd" d="M459.186 94.1753V58.0767H419.705V94.1753C419.705 105.909 428.611 115.456 439.452 115.456C450.332 115.456 459.186 105.895 459.186 94.1753Z" fill="#D7D8D8"/>
<path fill-rule="evenodd" clip-rule="evenodd" d="M459.187 94.1753V58.0767H423.094V92.5527C423.094 103.669 431.529 112.828 441.899 112.828C447.248 112.828 452.073 110.401 455.5 106.512C457.84 103.026 459.2 98.7747 459.2 94.1753H459.187Z" fill="#EAEBEB"/>
<path fill-rule="evenodd" clip-rule="evenodd" d="M454.1 58.0767H448.777V90.1792C448.777 91.6945 450.007 92.9148 451.445 92.9148C452.923 92.9148 454.113 91.7079 454.113 90.1792V58.0767H454.1Z" fill="white"/>
<g style="mix-blend-mode:overlay" opacity="0.3">
<path fill-rule="evenodd" clip-rule="evenodd" d="M454.492 12.6853C453.655 14.4554 451.38 11.8808 447.94 10.1107C444.436 8.39427 441.088 8.13949 441.925 6.42307C442.762 4.653 446.214 4.653 449.719 6.42307C453.171 8.13949 455.29 10.9689 454.505 12.6853H454.492Z" fill="white"/>
</g>
<path d="M428.038 95.8782C428.038 97.2728 428.574 98.3322 429.633 99.0295C430.693 99.7268 432.432 100.049 434.838 99.995C434.001 99.7134 433.347 99.1636 432.863 98.359C432.38 97.5544 432.144 96.6292 432.144 95.5832C432.144 94.0814 432.589 92.8879 433.491 92.0163C434.393 91.1312 435.623 90.7021 437.205 90.7021C438.121 90.7021 438.957 90.8899 439.703 91.2519C440.448 91.614 441.05 92.1772 441.494 92.9281C441.939 93.6791 442.161 94.6177 442.161 95.7307C442.161 97.8629 441.494 99.3379 440.174 100.142C438.853 100.947 436.97 101.349 434.55 101.349C429.385 101.349 426.809 99.539 426.809 95.9051C426.809 94.5373 427.175 93.4511 427.907 92.6599C428.639 91.8688 429.594 91.4129 430.758 91.2653V92.6599C428.94 92.9684 428.038 94.0545 428.038 95.9051V95.8782ZM433.792 97.769C434.053 98.3724 434.459 98.8552 434.995 99.244C435.531 99.6195 436.198 99.8072 436.97 99.8072C438.094 99.8072 439.036 99.4586 439.794 98.7747C440.553 98.0908 440.919 97.0851 440.919 95.771C440.919 94.6714 440.592 93.7863 439.938 93.1293C439.284 92.4722 438.395 92.137 437.257 92.137C436.041 92.137 435.1 92.4588 434.407 93.1025C433.727 93.7461 433.387 94.658 433.387 95.8514C433.387 96.5219 433.517 97.1656 433.779 97.7556L433.792 97.769Z" fill="#231F20"/>
<path d="M428.874 86.6524C427.554 85.888 426.887 84.5337 426.887 82.5759C426.887 80.6181 427.554 79.2637 428.874 78.4994C430.195 77.735 432.065 77.3596 434.459 77.3596C436.852 77.3596 438.787 77.735 440.134 78.4994C441.481 79.2637 442.148 80.6181 442.148 82.5759C442.148 84.5337 441.481 85.9149 440.134 86.6658C438.8 87.4167 436.904 87.7922 434.459 87.7922C432.013 87.7922 430.195 87.4167 428.874 86.6524ZM431.176 79.1162C430.287 79.3039 429.568 79.666 429.018 80.2158C428.469 80.7656 428.208 81.5433 428.208 82.5759C428.208 83.6084 428.482 84.3862 429.018 84.936C429.555 85.4858 430.287 85.8478 431.176 86.0355C432.065 86.2233 433.164 86.3171 434.459 86.3171C435.753 86.3171 436.917 86.2233 437.819 86.0355C438.722 85.8478 439.441 85.4858 439.99 84.936C440.54 84.3862 440.801 83.6084 440.801 82.5759C440.801 81.5433 440.526 80.7656 439.99 80.2158C439.441 79.6794 438.722 79.3039 437.819 79.1162C436.917 78.9285 435.805 78.8346 434.459 78.8346C433.112 78.8346 432.065 78.9285 431.176 79.1162Z" fill="#231F20"/>
<path d="M442.097 65.9749L435.336 72.4785H442.097V73.9804H427.477V72.4785H434.316L427.477 65.9749V64.0707L434.774 71.0839L442.097 64.0037V65.9749Z" fill="#231F20"/>
<g style="mix-blend-mode:multiply" opacity="0.5">
<path d="M418.738 52.4446H460.089" stroke="#231F20" stroke-width="2.68191" stroke-miterlimit="10"/>
</g>
<g style="mix-blend-mode:multiply" opacity="0.5">
<path d="M418.738 41.194H460.089" stroke="#231F20" stroke-width="2.68191" stroke-miterlimit="10"/>
</g>
<g style="mix-blend-mode:overlay" opacity="0.47">
<path fill-rule="evenodd" clip-rule="evenodd" d="M426.141 7.26783C429.672 3.32542 434.615 0.81783 440.107 0.710553C439.911 0.710553 439.715 0.697144 439.506 0.697144C428.115 0.697144 418.752 10.2582 418.752 21.9781V57.2989C418.752 57.728 419.092 58.0767 419.51 58.0767H422.257V20.2483C422.257 15.4208 423.682 10.9286 426.154 7.26783H426.141Z" fill="#231F20"/>
</g>
<defs>
<radialGradient id="paint0_radial_536_3839" cx="0" cy="0" r="1" gradientUnits="userSpaceOnUse" gradientTransform="translate(60.2103 115.496) rotate(180) scale(29.6464 4.55992)">
<stop/>
<stop offset="1" stop-color="white"/>
</radialGradient>
<radialGradient id="paint1_radial_536_3839" cx="0" cy="0" r="1" gradientUnits="userSpaceOnUse" gradientTransform="translate(184.43 115.496) rotate(180) scale(29.6464 4.55992)">
<stop/>
<stop offset="1" stop-color="white"/>
</radialGradient>
<radialGradient id="paint2_radial_536_3839" cx="0" cy="0" r="1" gradientUnits="userSpaceOnUse" gradientTransform="translate(308.666 115.496) rotate(180) scale(29.6464 4.55992)">
<stop/>
<stop offset="1" stop-color="white"/>
</radialGradient>
<radialGradient id="paint3_radial_536_3839" cx="0" cy="0" r="1" gradientUnits="userSpaceOnUse" gradientTransform="translate(432.915 115.496) rotate(180) scale(29.6464 4.55992)">
<stop/>
<stop offset="1" stop-color="white"/>
</radialGradient>
</defs>
</svg>
