<svg width="416" height="295" viewBox="0 0 416 295" fill="none" xmlns="http://www.w3.org/2000/svg">
<path d="M407.492 1.28673C411.632 1.28673 414.996 4.64428 414.996 8.7907V49.153C414.996 51.4479 414.422 53.7102 413.321 55.7247L372.841 129.741C372.626 130.132 372.495 130.556 372.456 130.999C372.274 133.014 370.781 134.663 368.799 135.048L230.233 162.078C229.594 162.201 228.968 162.397 228.368 162.664C225.265 164.053 223.264 167.137 223.264 170.533V280.309C223.264 287.872 217.135 294 209.573 294H166.615C159.053 294 152.925 287.872 152.925 280.309V170.533C152.925 167.13 150.923 164.046 147.82 162.664C147.226 162.397 146.601 162.201 145.955 162.078L14.0979 136.352C8.13907 135.191 3.65364 130.243 3.08644 124.193L0.895884 100.879C0.687259 98.6688 2.42797 96.7585 4.65113 96.7585C12.2594 96.7976 54.4081 96.9672 75.7791 97.0519C82.3964 97.078 87.8467 91.895 88.1792 85.2777L90.9565 29.3337C91.3216 22.0449 97.3326 16.3207 104.628 16.3207H129.806C137.043 16.3207 143.028 21.9536 143.471 29.1772L146.92 85.5645C147.318 92.1036 152.735 97.1953 159.281 97.1953H287.005L366.81 96.7977C371.296 96.7716 375.423 94.3268 377.594 90.3955L398.45 52.6149C399.46 50.7829 399.995 48.7227 399.995 46.63V8.78418C399.995 4.64428 403.352 1.28021 407.499 1.28021L407.492 1.28673Z" fill="white" stroke="#6C015D" stroke-width="1.3039"/>
</svg>
