<svg width="24" height="38" viewBox="0 0 24 38" fill="none" xmlns="http://www.w3.org/2000/svg">
<path d="M17.7826 1C20.612 1 22.9069 3.37962 22.9069 6.30689V31.2766C22.9069 34.2104 20.612 36.5835 17.7826 36.5835H6.15827C3.3288 36.5835 1.03394 34.2039 1.03394 31.2766V6.30689C1.03394 3.42526 3.32228 1 6.15827 1H17.7826ZM7.36438 12.9633C7.00581 12.9633 6.71243 13.2567 6.71243 13.6153V22.723C6.71243 23.0816 7.00581 23.375 7.36438 23.375H16.7134C17.0719 23.375 17.3653 23.0816 17.3653 22.723V13.6153C17.3653 13.2567 17.0719 12.9633 16.7134 12.9633H16.1723C16.0353 12.9633 15.905 13.0024 15.8006 13.0807L13.1211 14.9583C12.4496 15.4277 11.5499 15.4277 10.8784 14.9583L8.19888 13.0807C8.08805 13.0024 7.95765 12.9633 7.82726 12.9633H7.37741H7.36438Z" fill="white" stroke="#6C015D" stroke-width="1.3039"/>
</svg>
