<svg width="34" height="47" viewBox="0 0 34 47" fill="none" xmlns="http://www.w3.org/2000/svg">
<path d="M26.8597 0.854156C30.2563 0.854156 33.151 3.44892 33.151 6.7804V39.6648C33.151 42.9898 30.3085 45.5911 26.8597 45.5911H7.28156C3.8849 45.5911 0.990234 42.9963 0.990234 39.6648V6.51962C1.17278 3.33809 3.98922 0.906313 7.27506 0.854156H26.8597ZM8.39642 14.2844C8.03784 14.2844 7.74446 14.5777 7.74446 14.9363V25.7978C7.74446 26.1564 8.03784 26.4498 8.39642 26.4498H25.7448C26.1034 26.4498 26.3968 26.1564 26.3968 25.7978V14.9363C26.3968 14.5777 26.1034 14.2844 25.7448 14.2844H22.133C21.944 14.2844 21.7679 14.3626 21.6441 14.4995L18.267 18.2873C17.4911 19.161 16.122 19.161 15.3462 18.2873L11.9691 14.4995C11.8452 14.3626 11.6692 14.2844 11.4801 14.2844H8.38989H8.39642Z" fill="white" stroke="#6C015D" stroke-width="1.3039"/>
</svg>
