<svg width="166" height="95" viewBox="0 0 166 95" fill="none" xmlns="http://www.w3.org/2000/svg">
<g clip-path="url(#clip0_298_924)">
<path d="M20.2742 82.9896H23.0181C24.6118 82.9896 26.0184 83.3872 26.9192 84.6966C27.5774 85.6563 27.9655 87.0411 27.9655 88.892C27.9655 93.4027 25.7412 94.7943 23.0458 94.7943H20.2742V82.9896ZM21.4798 93.6975H22.9488C25.7551 93.6975 26.739 91.9288 26.739 88.8988C26.739 87.2536 26.4826 86.0745 25.9006 85.293C25.3047 84.4635 24.3346 84.0933 22.9142 84.0933H21.4798V93.6975Z" fill="white"/>
<path d="M29.6146 85.718H33.9176V86.568H30.5431V89.7352H33.9176V90.5852H30.5431V93.958H33.9176V94.8081H29.6146V85.7249V85.718Z" fill="white"/>
<path d="M35.241 85.718H36.1695V93.9511H39.0936V94.8012H35.2341V85.718H35.241Z" fill="white"/>
<path d="M40.6526 94.7943H39.6964L42.3156 85.7111H43.2302L45.8841 94.7943H44.9417L44.1587 92.1071H41.4079L40.6526 94.7943ZM42.7868 86.9039L41.6573 91.2707H43.9162L42.7868 86.9039Z" fill="white"/>
<path d="M47.6233 91.497L45.2674 85.718H46.2375L48.0945 90.6126L49.9445 85.718H50.9146L48.5587 91.497V94.7943H47.6302V91.497H47.6233Z" fill="white"/>
<path d="M51.8362 85.718H56.1391V86.568H52.7647V89.7352H56.1391V90.5852H52.7647V93.958H56.1391V94.8081H51.8362V85.7249V85.718Z" fill="white"/>
<path d="M57.4488 85.718H59.5552C60.7817 85.718 61.8626 86.0265 62.5555 87.0342C63.0613 87.7677 63.3593 88.8371 63.3593 90.263C63.3593 93.7318 61.6478 94.8012 59.576 94.8012H57.4418V85.718H57.4488ZM58.3773 93.9511H59.5067C61.6686 93.9511 62.4239 92.587 62.4239 90.2562C62.4239 88.9948 62.2229 88.0831 61.7794 87.4798C61.3221 86.8423 60.5738 86.5612 59.4859 86.5612H58.3842V93.9443L58.3773 93.9511Z" fill="white"/>
<path d="M67.981 89.8037V90.8731H64.5649V89.8037H67.981Z" fill="white"/>
<path d="M69.6994 82.9896H71.9721C73.746 82.9896 74.4736 83.2912 74.9239 83.6888C75.7 84.3127 76.1643 85.2998 76.1643 86.5475C76.1643 87.281 76.0326 88.0488 75.6307 88.6863C75.1665 89.4198 74.4528 89.9134 73.5658 90.0437L75.9495 94.7943H74.5913L71.9306 89.3101C72.0899 89.3101 72.2077 89.3101 72.3463 89.2964C73.1709 89.2827 73.746 89.0908 74.2172 88.6589C74.7161 88.179 74.9101 87.4592 74.9101 86.664C74.9101 85.8688 74.7161 85.0188 74.0093 84.4909C73.4965 84.107 72.672 84.0933 71.9306 84.0933H70.8981V94.7943H69.6855V82.9896H69.6994Z" fill="white"/>
<path d="M77.6194 85.718H81.9224V86.568H78.5479V89.7352H81.9224V90.5852H78.5479V93.958H81.9224V94.8081H77.6194V85.7249V85.718Z" fill="white"/>
<path d="M83.2458 85.718H84.1743V93.9511H87.0984V94.8012H83.2389V85.718H83.2458Z" fill="white"/>
<path d="M88.1378 85.718H92.4407V86.568H89.0663V89.7352H92.4407V90.5852H89.0663V93.958H92.4407V94.8081H88.1378V85.7249V85.718Z" fill="white"/>
<path d="M94.2561 94.7943H93.2999L95.9191 85.7111H96.8338L99.4876 94.7943H98.5452L97.7623 92.1071H95.0114L94.2561 94.7943ZM96.3903 86.9039L95.2609 91.2707H97.5197L96.3903 86.9039Z" fill="white"/>
<path d="M100.853 92.2922C100.964 93.7044 101.809 94.1431 102.502 94.1431C103.479 94.1431 104.241 93.4918 104.241 92.3744C104.241 91.0377 103.098 90.7429 102.197 90.4481C101.414 90.1808 100.104 89.7215 100.104 88.0899C100.09 86.4926 101.095 85.5398 102.523 85.5398C103.95 85.5398 104.768 86.239 104.975 87.8431H104.082C103.998 87.1713 103.673 86.3213 102.543 86.3213C101.615 86.3213 101.04 86.9862 101.04 87.9254C101.04 89.1182 101.954 89.3993 103.132 89.7763C103.839 90.0231 105.176 90.5098 105.176 92.3196C105.176 93.9237 104.012 94.9452 102.523 94.9452C101.033 94.9452 99.9934 94.0882 99.9449 92.2853H100.853V92.2922Z" fill="white"/>
<path d="M106.458 85.718H110.761V86.568H107.387V89.7352H110.761V90.5852H107.387V93.958H110.761V94.8081H106.458V85.7249V85.718Z" fill="white"/>
<path d="M124.003 90.9485C124.003 92.9914 122.79 95 120.275 95C117.76 95 116.131 92.8817 116.131 88.892C116.131 85.1559 117.531 82.784 120.275 82.784C122.79 82.784 124.017 84.8611 124.003 87.089H122.811C122.776 85.5398 122.167 83.9014 120.344 83.9014C118.265 83.9014 117.379 85.8962 117.379 89.0085C117.379 92.3607 118.64 93.8895 120.344 93.8895C122.18 93.8895 122.749 92.3744 122.811 90.9554H124.003V90.9485Z" fill="white"/>
<path d="M125.423 94.7943H124.467L127.086 85.7111H128.001L130.655 94.7943H129.712L128.929 92.1071H126.178L125.423 94.7943ZM127.55 86.9039L126.421 91.2707H128.68L127.55 86.9039Z" fill="white"/>
<path d="M133.322 85.718C134.376 85.718 135.034 85.8757 135.616 86.3418C136.149 86.7737 136.51 87.5689 136.51 88.4258C136.51 89.2827 136.149 90.0916 135.616 90.5235C135.034 90.9897 134.362 91.1474 133.322 91.1474H132.519V94.7943H131.59V85.7111H133.329L133.322 85.718ZM132.519 90.3041H133.322C134.154 90.3041 134.577 90.2287 135.006 89.8723C135.339 89.6118 135.56 89.0496 135.56 88.4395C135.56 87.8294 135.325 87.2467 134.992 86.9794C134.597 86.6503 134.161 86.5612 133.315 86.5612H132.512V90.3041H132.519Z" fill="white"/>
<path d="M138.214 92.2922C138.325 93.7044 139.171 94.1431 139.863 94.1431C140.84 94.1431 141.603 93.4918 141.603 92.3744C141.603 91.0377 140.459 90.7429 139.559 90.4481C138.776 90.1808 137.466 89.7215 137.466 88.0899C137.452 86.4926 138.457 85.5398 139.884 85.5398C141.312 85.5398 142.129 86.239 142.337 87.8431H141.443C141.36 87.1713 141.034 86.3213 139.905 86.3213C138.977 86.3213 138.401 86.9862 138.401 87.9254C138.401 89.1182 139.316 89.3993 140.494 89.7763C141.201 90.0231 142.538 90.5098 142.538 92.3196C142.538 93.9237 141.374 94.9452 139.884 94.9452C138.395 94.9452 137.355 94.0882 137.307 92.2853H138.214V92.2922Z" fill="white"/>
<path d="M144.679 85.718V92.347C144.679 92.8749 144.755 93.341 145.136 93.7112C145.448 94.0197 145.919 94.1157 146.377 94.1157C146.834 94.1157 147.305 94.0197 147.631 93.7112C148.012 93.341 148.088 92.8749 148.088 92.347V85.718H149.017V92.4019C149.017 93.2588 148.816 93.8277 148.372 94.2665C147.936 94.7052 147.285 94.952 146.391 94.952C145.497 94.952 144.832 94.7052 144.381 94.2665C143.945 93.8277 143.751 93.2588 143.751 92.4019V85.718H144.679Z" fill="white"/>
<path d="M150.687 85.718H151.615V93.9511H154.539V94.8012H150.68V85.718H150.687Z" fill="white"/>
<path d="M155.579 85.718H159.882V86.568H156.507V89.7352H159.882V90.5852H156.507V93.958H159.882V94.8081H155.579V85.7249V85.718Z" fill="white"/>
<path d="M161.676 92.2922C161.787 93.7044 162.632 94.1431 163.325 94.1431C164.302 94.1431 165.065 93.4918 165.065 92.3744C165.065 91.0377 163.921 90.7429 163.021 90.4481C162.238 90.1808 160.928 89.7215 160.928 88.0899C160.914 86.4926 161.919 85.5398 163.346 85.5398C164.774 85.5398 165.591 86.239 165.799 87.8431H164.905C164.822 87.1713 164.496 86.3213 163.367 86.3213C162.438 86.3213 161.863 86.9862 161.863 87.9254C161.863 89.1182 162.778 89.3993 163.956 89.7763C164.663 90.0231 166 90.5098 166 92.3196C166 93.9237 164.836 94.9452 163.346 94.9452C161.856 94.9452 160.817 94.0882 160.769 92.2853H161.676V92.2922Z" fill="white"/>
<path d="M20.683 36.7304C20.683 36.7304 20.6275 36.6961 20.5998 36.7098C18.6181 37.6833 16.3661 39.0201 14.0726 40.5351C16.3454 37.2514 18.3756 33.9883 19.7822 31.1708C19.796 31.1434 19.7822 31.1091 19.7614 31.0885C19.7337 31.068 19.699 31.0748 19.6713 31.0885C17.7242 32.9737 15.5901 35.3936 13.4767 38.0329C14.9457 33.1451 16.1167 28.3602 16.7057 24.3773C16.7057 24.343 16.6918 24.3156 16.6572 24.3019C16.6225 24.2881 16.5879 24.3019 16.574 24.3361C15.112 27.0988 13.643 30.4647 12.2572 34.0706C12.0701 28.0859 11.5989 22.3618 10.7951 17.6797C10.7813 17.6111 10.6704 17.618 10.6635 17.6797C9.46476 24.672 9.01437 34.0157 9.12523 43.0578C9.00051 43.4623 8.86886 43.8667 8.74413 44.2712C5.63297 46.6088 2.77125 49.0013 0.796458 50.9276C0.775671 50.9482 0.768742 50.9893 0.789529 51.0167C0.803387 51.0373 0.824174 51.0442 0.844962 51.0442C0.851891 51.0442 0.865749 51.0442 0.872678 51.0373C2.45251 50.2284 4.32337 49.1384 6.30509 47.877C4.44809 50.6808 2.84054 53.3475 1.69031 55.5549C1.67645 55.5823 1.69031 55.6235 1.7111 55.6372C1.72496 55.644 1.73882 55.6509 1.75267 55.6509C1.77346 55.6509 1.78732 55.6509 1.80118 55.6303C3.40873 54.0193 5.27266 51.9285 7.19894 49.5909C6.11801 53.5669 5.26573 57.2824 4.76683 60.2919C4.76683 60.3262 4.78069 60.3536 4.81533 60.3673C4.82226 60.3673 4.82919 60.3673 4.83612 60.3673C4.86384 60.3673 4.88463 60.3536 4.89848 60.333C6.29816 57.5704 7.83642 54.0262 9.33311 50.1256C9.58255 55.7057 10.0468 60.8746 10.6704 64.9329C10.6704 64.9672 10.7051 64.9877 10.7397 64.9877C10.7744 64.9877 10.8021 64.9672 10.809 64.9329C11.6613 59.3664 12.2156 51.7091 12.3403 43.7707C15.5139 41.4537 18.5211 38.9926 20.683 36.8058C20.7038 36.7853 20.7107 36.7441 20.683 36.7167V36.7304Z" fill="white"/>
<g style="mix-blend-mode:multiply">
<path d="M16.6572 24.3087C16.6572 24.3087 16.5879 24.3087 16.574 24.343C11.495 33.9335 6.36747 50.6808 4.76685 60.3056C4.76685 60.3399 4.7807 60.3673 4.81535 60.381C4.82228 60.381 4.82921 60.381 4.83614 60.381C4.86385 60.381 4.88464 60.3673 4.8985 60.3467C9.31233 51.6337 15.112 35.1057 16.7057 24.3841C16.7057 24.3498 16.6918 24.3224 16.6572 24.3087Z" fill="white"/>
</g>
<g style="mix-blend-mode:multiply">
<path d="M19.7544 31.0817C19.7544 31.0817 19.6921 31.068 19.6643 31.0817C13.4143 37.128 5.32805 48.6174 1.69027 55.5549C1.67641 55.5823 1.69027 55.6235 1.71106 55.6372C1.72492 55.644 1.73877 55.6509 1.75263 55.6509C1.77342 55.6509 1.78728 55.6509 1.80114 55.6303C7.33748 50.0776 15.8811 38.9172 19.7683 31.1571C19.7821 31.1297 19.7683 31.0954 19.7475 31.0748L19.7544 31.0817Z" fill="white"/>
</g>
<path d="M84.396 60.7238V81.55H88.3179V68.9912C89.1424 69.759 90.0294 70.3828 90.9925 70.849C92.4545 71.5551 94.0344 71.9115 95.7459 71.9115H95.7736C98.7877 71.9115 101.428 70.7941 103.555 68.6347C105.689 66.4685 106.784 63.7675 106.777 60.6826C106.784 57.6526 105.682 54.9791 103.52 52.8402C101.372 50.674 98.7046 49.5703 95.6766 49.5771C93.9374 49.5771 92.2536 49.8719 90.7915 50.6397C89.378 51.3801 87.7289 52.5386 86.7865 53.7246C85.8858 54.8694 84.3891 57.0562 84.4029 60.7306L84.396 60.7238ZM90.258 55.5138C91.6854 54.0879 93.3692 53.3955 95.4548 53.3818C96.7922 53.3818 97.9909 53.704 99.1134 54.3484C100.236 54.9928 101.116 55.884 101.788 57.0631C102.453 58.2353 102.786 59.4624 102.786 60.7718C102.786 62.0811 102.453 63.2876 101.774 64.4736C101.102 65.6596 100.208 66.5782 99.0857 67.2225C97.9493 67.8806 96.7714 68.2028 95.4687 68.2028C94.166 68.2028 92.9396 67.8806 91.7616 67.2225C90.5906 66.5782 89.7037 65.7144 89.0801 64.6038C88.4564 63.4933 88.1377 62.2525 88.1377 60.8403C88.1377 58.6809 88.8375 56.9534 90.2511 55.5138H90.258Z" fill="white"/>
<path d="M134.736 60.7238V81.55H138.651V68.9912C139.475 69.759 140.376 70.3828 141.339 70.849C142.794 71.5551 144.381 71.9115 146.072 71.9115H146.107C149.114 71.9115 151.761 70.7941 153.874 68.6347C156.022 66.4685 157.117 63.7675 157.117 60.6826C157.117 57.5978 156.008 54.9791 153.853 52.8402C151.712 50.674 149.031 49.5703 146.003 49.5771C144.27 49.5771 142.593 49.8719 141.118 50.6397C139.711 51.3801 138.062 52.5386 137.119 53.7246C136.212 54.8694 134.722 57.0562 134.736 60.7306V60.7238ZM140.591 55.5138C142.018 54.0879 143.702 53.3955 145.788 53.3818C147.132 53.3818 148.324 53.704 149.453 54.3484C150.569 54.9928 151.449 55.884 152.135 57.0631C152.793 58.2353 153.119 59.4624 153.119 60.7718C153.119 62.0811 152.793 63.2876 152.121 64.4736C151.435 65.6596 150.548 66.5782 149.426 67.2225C148.303 67.8806 147.097 68.2028 145.815 68.2028C144.534 68.2028 143.286 67.8806 142.108 67.2225C140.93 66.5782 140.05 65.7144 139.42 64.6038C138.796 63.4933 138.491 62.2525 138.491 60.8403C138.491 58.6809 139.184 56.9534 140.598 55.5138H140.591Z" fill="white"/>
<path d="M79.7604 54.177C79.1507 52.7785 78.2014 51.6406 76.9195 50.8179C75.6307 49.9816 74.1479 49.5703 72.5265 49.5703C72.3879 49.5703 72.083 49.5634 72.083 49.5634C70.4477 49.5634 68.7224 49.9679 67.4059 50.8179C66.124 51.6474 65.1678 52.7785 64.5649 54.177C63.9413 55.6235 63.6711 57.6732 63.6711 60.429C63.6711 60.429 63.6711 60.4496 63.6711 60.4975V71.3974H67.6415V70.7256C67.6415 70.7256 67.6345 61.9988 67.6345 61.1968C67.6207 60.4633 67.7385 57.3167 67.8909 56.7477C68.1819 55.5206 68.6808 54.698 69.3876 54.1359C70.1636 53.5395 70.7388 53.2927 72.0068 53.2721C73.2748 53.279 74.2172 53.5806 74.9309 54.1359C75.6307 54.6843 76.1365 55.5206 76.4137 56.7409C76.58 57.3853 76.6909 58.914 76.6909 61.1968V71.3974H80.6404V60.4496C80.6404 57.6869 80.3702 55.6235 79.7535 54.177H79.7604Z" fill="white"/>
<path d="M55.2522 64.9397C54.788 65.5841 54.3514 66.0983 53.9703 66.4273C53.3537 66.9483 52.6053 67.3871 51.6976 67.7093C50.8037 68.0383 49.8752 68.2028 48.926 68.2028C46.9581 68.1891 45.3783 67.531 44.0479 66.1874C42.8699 64.9672 42.1909 63.4727 42.0176 61.6149H60.158V60.9363C60.1303 58.0982 59.3404 55.644 57.7744 53.6903C55.6125 50.955 52.6122 49.5497 48.9952 49.5703C45.4753 49.5497 42.5581 50.9345 40.4586 53.6012C38.7956 55.6852 37.9503 58.1188 37.9572 60.7923C37.9572 63.6372 38.955 66.2285 40.909 68.477C42.8907 70.753 45.697 71.9047 49.113 71.9047H49.1546C50.7137 71.9047 52.1203 71.6716 53.3883 71.1849C54.6425 70.7119 55.7788 70.0126 56.7836 69.094C57.8021 68.1823 58.6683 66.9826 59.4166 65.5293L59.7215 64.9329H59.7007L55.2592 64.926L55.2522 64.9397ZM44.3805 55.0888C45.697 53.9371 47.2006 53.3749 49.0438 53.3749C50.1455 53.3749 51.1918 53.6012 52.1965 54.0605C53.2081 54.5266 53.9842 55.123 54.5732 55.8497C55.0236 56.4118 55.4185 57.1453 55.7165 58.0502H42.5027C42.9808 56.7409 43.6183 55.7606 44.3805 55.0888Z" fill="white"/>
<path d="M126.767 64.9397C126.31 65.5841 125.867 66.0983 125.486 66.4273C124.876 66.9483 124.12 67.3871 123.213 67.7093C122.312 68.0383 121.397 68.2028 120.441 68.2028C118.473 68.1891 116.9 67.531 115.563 66.1874C114.378 64.9672 113.713 63.4727 113.54 61.6149H131.673V60.9363C131.645 58.0982 130.863 55.644 129.297 53.6903C127.135 50.955 124.127 49.5497 120.517 49.5703C117.004 49.5497 114.08 50.9345 111.981 53.6012C110.325 55.6852 109.479 58.1188 109.486 60.7923C109.486 63.6372 110.477 66.2285 112.431 68.477C114.413 70.753 117.219 71.9047 120.628 71.9047H120.677C122.229 71.9047 123.642 71.6716 124.903 71.1849C126.158 70.7119 127.294 70.0126 128.299 69.094C129.31 68.1823 130.183 66.9826 130.925 65.5293L131.23 64.9329H131.202L126.754 64.926L126.767 64.9397ZM115.903 55.0888C117.212 53.9371 118.716 53.3749 120.552 53.3749C121.661 53.3749 122.707 53.6012 123.712 54.0605C124.723 54.5266 125.499 55.123 126.088 55.8497C126.546 56.4118 126.934 57.1453 127.239 58.0502H114.025C114.51 56.7409 115.147 55.7606 115.903 55.0888Z" fill="white"/>
<path d="M25.5818 67.7641L36.3704 45.5874H20.2672V49.1727H30.453L19.5327 71.3837H36.3635V67.7641H25.5818Z" fill="white"/>
<path d="M160.207 54.0742C158.558 54.0742 157.214 52.7717 157.214 51.1264C157.214 49.4812 158.551 48.1718 160.207 48.1718C161.863 48.1718 163.201 49.4949 163.201 51.1264C163.201 52.758 161.849 54.0742 160.207 54.0742ZM160.207 48.7751C158.912 48.7751 157.831 49.8034 157.831 51.1333C157.831 52.3878 158.877 53.4435 160.207 53.4435C161.538 53.4435 162.584 52.4152 162.584 51.1333C162.584 49.8513 161.517 48.7751 160.207 48.7751ZM158.967 49.5154H160.415C160.72 49.5154 160.983 49.5154 161.233 49.7005C161.461 49.8788 161.572 50.1324 161.572 50.4683C161.572 50.9002 161.364 51.0647 161.184 51.195C161.33 51.2772 161.489 51.3801 161.503 51.7434C161.545 52.5318 161.51 52.6072 161.704 52.758H160.886C160.644 52.141 161.018 51.5035 160.38 51.5035H159.688V52.758H158.96V49.5223L158.967 49.5154ZM159.688 50.1324V50.9002H160.29C160.554 50.9002 160.859 50.9071 160.859 50.5163C160.859 50.1256 160.568 50.1324 160.29 50.1324H159.688Z" fill="white"/>
<path d="M20.2672 5.14143H22.5053V7.57505C23.1982 5.71727 24.4108 4.81238 26.1777 4.81238C29.1087 4.81238 31.1805 7.71215 31.1805 12.7096C31.1805 17.7071 29.3305 20.552 26.1777 20.552C24.5217 20.552 23.2467 19.5649 22.6716 18.0087C22.6993 18.5846 22.6993 19.2084 22.6993 20.223V25.5289H20.2672V5.14143ZM28.7484 12.6548C28.7484 9.29571 27.7021 7.19115 25.7066 7.19115C24.7088 7.19115 24.0505 7.71215 23.5239 8.52792C22.9141 9.4054 22.6924 10.5776 22.6924 12.6822C22.6924 14.7868 22.9141 15.9659 23.5239 16.8365C24.0505 17.6865 24.7088 18.1733 25.7066 18.1733C27.6952 18.1733 28.7484 16.0961 28.7484 12.6822V12.6548Z" fill="white"/>
<path d="M44.0271 20.223H41.789V17.8168C41.1238 19.5923 39.8835 20.552 38.1166 20.552C35.1856 20.552 33.1138 17.6523 33.1138 12.7096C33.1138 7.76699 34.9638 4.81238 38.1166 4.81238C39.6618 4.81238 41.103 5.52533 41.789 7.62989V5.14143H44.0271V20.2298V20.223ZM35.5459 12.7096C35.5459 16.0961 36.6199 18.1733 38.5878 18.1733C39.6341 18.1733 40.327 17.6797 40.8536 16.8365C41.4356 15.959 41.6019 14.7868 41.6019 12.6822C41.6019 10.5776 41.4356 9.4054 40.8536 8.52792C40.327 7.70529 39.641 7.19115 38.5878 7.19115C36.6268 7.19115 35.5459 9.29571 35.5459 12.6822V12.7096Z" fill="white"/>
<path d="M47.5124 5.14143H49.6674C49.6674 5.8818 49.6674 6.56047 49.6397 7.35568C50.3603 5.58017 51.7946 4.81238 53.5892 4.81238C56.1322 4.81238 57.816 6.25884 57.816 9.70703V20.2298H55.3839V10.5022C55.3839 9.11062 55.1621 7.19801 52.924 7.19801C51.1294 7.19801 49.9376 8.39768 49.9376 10.941V20.2367H47.5055V5.14143H47.5124Z" fill="white"/>
<path d="M71.2654 14.8964C71.0436 17.9813 69.4153 20.552 66.2626 20.552C62.3407 20.552 60.3798 17.1107 60.3798 12.7096C60.3798 7.73272 62.701 4.81238 66.2071 4.81238C69.4084 4.81238 71.1268 7.35568 71.2099 10.5228H68.7224C68.5007 7.92466 67.3712 7.08147 66.0963 7.08147C65.1539 7.08147 64.3571 7.41052 63.775 8.47308C63.2207 9.50822 62.9435 10.797 62.9435 12.6822C62.9435 16.48 64.1007 18.3104 66.0893 18.3104C67.7177 18.3104 68.5492 16.9187 68.7432 14.8964H71.2584H71.2654Z" fill="white"/>
<path d="M73.5312 5.14144H75.7693C75.7693 6.31368 75.7693 7.10889 75.7416 7.93152C76.4345 5.33338 78.1737 4.84666 79.7466 4.81924V7.69159C79.414 7.47222 79.0814 7.41738 78.7557 7.41738C77.46 7.41738 75.9633 8.83641 75.9633 11.9281V20.2367H73.5312V5.14144Z" fill="white"/>
<path d="M83.2042 13.4774C83.2042 16.0755 84.2297 18.3172 86.4955 18.3172C88.0407 18.3172 89.0662 17.2821 89.3988 15.6917H91.8032C91.526 17.4123 90.7777 18.6737 89.8145 19.462C88.8445 20.2298 87.6596 20.552 86.5024 20.552C82.3588 20.552 80.6473 16.7268 80.6473 12.7096C80.6473 8.11661 82.7469 4.81238 86.447 4.81238C88.3248 4.81238 89.7383 5.60759 90.646 7.02663C91.8309 8.85698 91.9972 11.2632 91.9418 13.4774H83.2111H83.2042ZM89.5027 11.4003C89.4473 8.99408 88.5327 6.83468 86.4123 6.83468C84.5068 6.83468 83.2596 8.66503 83.2042 11.4003H89.5027Z" fill="white"/>
<path d="M94.9976 0H97.4297V20.223H94.9976V0Z" fill="white"/>
<path d="M101.49 0H103.922V2.79009H101.49V0ZM101.49 5.14143H103.922V20.2298H101.49V5.14143Z" fill="white"/>
<path d="M107.706 5.14143H109.944V7.57505C110.637 5.71727 111.849 4.81238 113.616 4.81238C116.547 4.81238 118.619 7.71215 118.619 12.7096C118.619 17.7071 116.769 20.552 113.616 20.552C111.96 20.552 110.685 19.5649 110.11 18.0087C110.138 18.5846 110.138 19.2084 110.138 20.223V25.5289H107.706V5.14143ZM116.187 12.6548C116.187 9.29571 115.14 7.19115 113.145 7.19115C112.154 7.19115 111.489 7.71215 110.962 8.52792C110.352 9.4054 110.131 10.5776 110.131 12.6822C110.131 14.7868 110.352 15.9659 110.962 16.8365C111.489 17.6865 112.147 18.1733 113.145 18.1733C115.134 18.1733 116.187 16.0961 116.187 12.6822V12.6548Z" fill="white"/>
<path d="M131.465 20.223H129.227V17.8168C128.562 19.5923 127.322 20.552 125.555 20.552C122.624 20.552 120.552 17.6523 120.552 12.7096C120.552 7.76699 122.402 4.81238 125.555 4.81238C127.1 4.81238 128.541 5.52533 129.227 7.62989V5.14143H131.465V20.2298V20.223ZM122.984 12.7096C122.984 16.0961 124.058 18.1733 126.026 18.1733C127.072 18.1733 127.765 17.6797 128.292 16.8365C128.874 15.959 129.04 14.7868 129.04 12.6822C129.04 10.5776 128.874 9.4054 128.292 8.52792C127.765 7.70529 127.079 7.19115 126.026 7.19115C124.065 7.19115 122.984 9.29571 122.984 12.6822V12.7096Z" fill="white"/>
<path d="M140.972 9.24087C140.944 7.57505 140.113 6.91694 138.789 6.91694C137.632 6.91694 136.856 7.68473 136.856 8.82956C136.856 10.3857 138.401 10.8244 140.203 11.3729C141.887 11.8938 143.764 12.9016 143.764 15.9384C143.764 18.6463 141.72 20.5589 138.956 20.5589C136.191 20.5589 134.147 18.9479 133.953 15.6642H136.357C136.385 17.4123 137.466 18.3721 138.983 18.3721C140.501 18.3721 141.221 17.3575 141.221 16.103C141.221 14.4371 139.787 13.9161 137.854 13.2855C136.004 12.6822 134.32 11.7019 134.32 8.91182C134.32 6.45079 136.087 4.81238 138.879 4.81238C141.672 4.81238 143.273 6.39594 143.383 9.24087H140.979H140.972Z" fill="white"/>
<path d="M148.317 13.4774C148.317 16.0755 149.342 18.3172 151.608 18.3172C153.153 18.3172 154.179 17.2821 154.512 15.6917H156.916C156.639 17.4123 155.89 18.6737 154.927 19.462C153.957 20.2298 152.772 20.552 151.615 20.552C147.472 20.552 145.76 16.7268 145.76 12.7096C145.76 8.11661 147.86 4.81238 151.56 4.81238C153.438 4.81238 154.851 5.60759 155.759 7.02663C156.944 8.85698 157.11 11.2632 157.055 13.4774H148.324H148.317ZM154.615 11.4003C154.56 8.99408 153.645 6.83468 151.525 6.83468C149.62 6.83468 148.372 8.66503 148.317 11.4003H154.615Z" fill="white"/>
<path d="M10.8021 17.6934C10.7882 17.6248 10.6773 17.6317 10.6704 17.6934C8.3838 31.0337 8.82726 52.8951 10.6704 64.9466C10.6704 64.9809 10.705 65.0014 10.7397 65.0014C10.7743 65.0014 10.8021 64.9809 10.809 64.9466C12.6591 52.8951 13.1025 31.0337 10.809 17.6934H10.8021Z" fill="white"/>
<g style="mix-blend-mode:multiply">
<path d="M16.6571 24.3087C16.6571 24.3087 16.5878 24.3087 16.574 24.343C11.4949 33.9335 6.36741 50.6808 4.76678 60.3056C4.76678 60.3399 4.78064 60.3673 4.81529 60.381C4.82222 60.381 4.82915 60.381 4.83608 60.381C4.86379 60.381 4.88458 60.3673 4.89844 60.3467C9.31227 51.6337 15.1119 35.1057 16.7056 24.3841C16.7056 24.3498 16.6918 24.3224 16.6571 24.3087Z" fill="white"/>
</g>
<g style="mix-blend-mode:multiply">
<path d="M19.7544 31.0817C19.7544 31.0817 19.6921 31.068 19.6643 31.0817C13.4143 37.128 5.32805 48.6174 1.69027 55.5549C1.67641 55.5823 1.69027 55.6235 1.71106 55.6372C1.72492 55.644 1.73877 55.6509 1.75263 55.6509C1.77342 55.6509 1.78728 55.6509 1.80114 55.6303C7.33748 50.0776 15.8811 38.9172 19.7683 31.1571C19.7821 31.1297 19.7683 31.0954 19.7475 31.0748L19.7544 31.0817Z" fill="white"/>
</g>
<g style="mix-blend-mode:multiply">
<path d="M20.5929 36.7098C14.3151 39.7878 5.29341 46.554 0.803355 50.9345C0.782568 50.955 0.775639 50.9962 0.796426 51.0236C0.810284 51.0442 0.831071 51.051 0.851859 51.051C0.858788 51.051 0.872646 51.051 0.879575 51.0442C6.47829 48.1787 15.7633 41.7759 20.6691 36.8195C20.6899 36.799 20.6968 36.7578 20.6691 36.7304C20.6483 36.703 20.6136 36.6961 20.5859 36.7098H20.5929Z" fill="white"/>
</g>
</g>
<defs>
<clipPath id="clip0_298_924">
<rect width="165.217" height="95" fill="white" transform="translate(0.782593)"/>
</clipPath>
</defs>
</svg>
