<svg width="125" height="74" viewBox="0 0 125 74" fill="none" xmlns="http://www.w3.org/2000/svg">
<g clip-path="url(#clip0_549_6208)">
<path d="M15.5879 64.5558H17.6542C18.8543 64.5558 19.9136 64.86 20.5919 65.8616C21.0876 66.5958 21.3798 67.6552 21.3798 69.0711C21.3798 72.5218 19.7049 73.5863 17.6751 73.5863H15.5879V64.5558ZM16.4958 72.7473H17.602C19.7153 72.7473 20.4562 71.3943 20.4562 69.0763C20.4562 67.8177 20.2632 66.9157 19.8249 66.3179C19.3761 65.6833 18.6456 65.4002 17.5759 65.4002H16.4958V72.7473Z" fill="white"/>
<path d="M22.623 66.6436H25.8634V67.2938H23.3223V69.7166H25.8634V70.3669H23.3223V72.9471H25.8634V73.5973H22.623V66.6488V66.6436Z" fill="white"/>
<path d="M26.8587 66.6434H27.5579V72.9416H29.7599V73.5919H26.8535V66.6434H26.8587Z" fill="white"/>
<path d="M30.9388 73.5862H30.2188L32.1911 66.6376H32.8799L34.8784 73.5862H34.1687L33.5791 71.5305H31.5076L30.9388 73.5862ZM32.5407 67.5501L31.6902 70.8907H33.3913L32.5407 67.5501Z" fill="white"/>
<path d="M36.1843 71.0644L34.4102 66.6436H35.1407L36.5391 70.3879L37.9323 66.6436H38.6628L36.8887 71.0644V73.5869H36.1895V71.0644H36.1843Z" fill="white"/>
<path d="M39.3613 66.6436H42.6017V67.2938H40.0605V69.7166H42.6017V70.3669H40.0605V72.9471H42.6017V73.5973H39.3613V66.6488V66.6436Z" fill="white"/>
<path d="M43.5833 66.6434H45.1696C46.0932 66.6434 46.9072 66.8794 47.429 67.6503C47.8099 68.2114 48.0343 69.0295 48.0343 70.1203C48.0343 72.7738 46.7454 73.5919 45.1853 73.5919H43.5781V66.6434H43.5833ZM44.2878 72.9416H45.1383C46.7663 72.9416 47.335 71.898 47.335 70.115C47.335 69.1501 47.1837 68.4526 46.8498 67.9911C46.5054 67.5034 45.9419 67.2884 45.1226 67.2884H44.293V72.9364L44.2878 72.9416Z" fill="white"/>
<path d="M51.5139 69.7689V70.587H48.9414V69.7689H51.5139Z" fill="white"/>
<path d="M52.8073 64.5558H54.5188C55.8546 64.5558 56.4025 64.7866 56.7416 65.0908C57.3261 65.568 57.6757 66.3231 57.6757 67.2776C57.6757 67.8387 57.5765 68.4261 57.2739 68.9138C56.9243 69.4749 56.3868 69.8525 55.7189 69.9521L57.5139 73.5863H56.4912L54.4875 69.391C54.6075 69.391 54.6962 69.391 54.8006 69.3805C55.4215 69.37 55.8546 69.2232 56.2094 68.8928C56.5851 68.5257 56.7312 67.9751 56.7312 67.3667C56.7312 66.7584 56.5851 66.1081 56.0529 65.7043C55.6667 65.4106 55.0458 65.4002 54.4875 65.4002H53.71V73.5863H52.7969V64.5558H52.8073Z" fill="white"/>
<path d="M58.7715 66.6436H62.0118V67.2938H59.4707V69.7166H62.0118V70.3669H59.4707V72.9471H62.0118V73.5973H58.7715V66.6488V66.6436Z" fill="white"/>
<path d="M63.0091 66.6434H63.7083V72.9416H65.9103V73.5919H63.0039V66.6434H63.0091Z" fill="white"/>
<path d="M66.6992 66.6436H69.9396V67.2938H67.3984V69.7166H69.9396V70.3669H67.3984V72.9471H69.9396V73.5973H66.6992V66.6488V66.6436Z" fill="white"/>
<path d="M71.306 73.5861H70.5859L72.5583 66.6376H73.2471L75.2456 73.5861H74.5359L73.9463 71.5304H71.8748L71.306 73.5861ZM72.9079 67.5501L72.0574 70.8906H73.7584L72.9079 67.5501Z" fill="white"/>
<path d="M76.2675 71.6721C76.351 72.7524 76.9876 73.088 77.5094 73.088C78.2451 73.088 78.8191 72.5898 78.8191 71.735C78.8191 70.7124 77.9582 70.4869 77.2798 70.2614C76.6902 70.0569 75.704 69.7055 75.704 68.4574C75.6936 67.2355 76.4502 66.5066 77.5251 66.5066C78.6 66.5066 79.2157 67.0415 79.3722 68.2686H78.6991C78.6365 67.7547 78.3912 67.1044 77.5407 67.1044C76.8415 67.1044 76.4084 67.6131 76.4084 68.3316C76.4084 69.2441 77.0972 69.4591 77.9842 69.7475C78.5165 69.9363 79.5235 70.3086 79.5235 71.6931C79.5235 72.9202 78.6469 73.7016 77.5251 73.7016C76.4032 73.7016 75.6205 73.0461 75.584 71.6669H76.2675V71.6721Z" fill="white"/>
<path d="M80.4883 66.6434H83.7286V67.2936H81.1875V69.7165H83.7286V70.3667H81.1875V72.9469H83.7286V73.5972H80.4883V66.6486V66.6434Z" fill="white"/>
<path d="M93.701 70.6446C93.701 72.2074 92.7879 73.7439 90.8938 73.7439C88.9997 73.7439 87.7734 72.1235 87.7734 69.0714C87.7734 66.2133 88.8275 64.3988 90.8938 64.3988C92.7879 64.3988 93.7115 65.9878 93.701 67.6921H92.8035C92.7774 66.507 92.3183 65.2536 90.946 65.2536C89.3806 65.2536 88.7127 66.7797 88.7127 69.1605C88.7127 71.7249 89.6623 72.8944 90.946 72.8944C92.3287 72.8944 92.7566 71.7354 92.8035 70.6499H93.701V70.6446Z" fill="white"/>
<path d="M94.7709 73.5862H94.0508L96.0232 66.6376H96.7119L98.7104 73.5862H98.0008L97.4111 71.5305H95.3396L94.7709 73.5862ZM96.378 67.5501L95.5275 70.8907H97.2285L96.378 67.5501Z" fill="white"/>
<path d="M100.721 66.6429C101.514 66.6429 102.009 66.7635 102.448 67.1201C102.849 67.4505 103.121 68.0588 103.121 68.7143C103.121 69.3699 102.849 69.9887 102.448 70.319C102.009 70.6757 101.503 70.7963 100.721 70.7963H100.115V73.5862H99.416V66.6376H100.726L100.721 66.6429ZM100.115 70.1512H100.721C101.347 70.1512 101.665 70.0935 101.988 69.8209C102.239 69.6216 102.406 69.1916 102.406 68.7248C102.406 68.2581 102.228 67.8123 101.978 67.6078C101.681 67.3561 101.352 67.2879 100.715 67.2879H100.11V70.1512H100.115Z" fill="white"/>
<path d="M104.404 71.6722C104.488 72.7525 105.124 73.0881 105.646 73.0881C106.382 73.0881 106.956 72.5899 106.956 71.7351C106.956 70.7125 106.095 70.487 105.417 70.2615C104.827 70.057 103.841 69.7056 103.841 68.4575C103.83 67.2356 104.587 66.5067 105.662 66.5067C106.737 66.5067 107.352 67.0416 107.509 68.2687H106.836C106.773 67.7548 106.528 67.1045 105.677 67.1045C104.978 67.1045 104.545 67.6132 104.545 68.3316C104.545 69.2441 105.234 69.4591 106.121 69.7476C106.653 69.9363 107.66 70.3087 107.66 71.6932C107.66 72.9203 106.784 73.7017 105.662 73.7017C104.54 73.7017 103.757 73.0461 103.721 71.6669H104.404V71.6722Z" fill="white"/>
<path d="M109.271 66.6434V71.7145C109.271 72.1183 109.329 72.4749 109.616 72.7581C109.851 72.9941 110.205 73.0675 110.55 73.0675C110.894 73.0675 111.249 72.9941 111.494 72.7581C111.781 72.4749 111.839 72.1183 111.839 71.7145V66.6434H112.538V71.7564C112.538 72.412 112.387 72.8472 112.053 73.1829C111.724 73.5185 111.233 73.7073 110.56 73.7073C109.887 73.7073 109.386 73.5185 109.047 73.1829C108.718 72.8472 108.572 72.412 108.572 71.7564V66.6434H109.271Z" fill="white"/>
<path d="M113.794 66.6434H114.493V72.9416H116.695V73.5919H113.789V66.6434H113.794Z" fill="white"/>
<path d="M117.479 66.6434H120.719V67.2936H118.178V69.7165H120.719V70.3667H118.178V72.9469H120.719V73.5972H117.479V66.6486V66.6434Z" fill="white"/>
<path d="M122.072 71.6721C122.156 72.7524 122.792 73.088 123.314 73.088C124.05 73.088 124.624 72.5898 124.624 71.735C124.624 70.7124 123.763 70.4869 123.085 70.2614C122.495 70.0569 121.509 69.7055 121.509 68.4574C121.498 67.2355 122.255 66.5066 123.33 66.5066C124.405 66.5066 125.02 67.0415 125.177 68.2686H124.504C124.441 67.7547 124.196 67.1044 123.345 67.1044C122.646 67.1044 122.213 67.6131 122.213 68.3316C122.213 69.2441 122.902 69.4591 123.789 69.7475C124.321 69.9363 125.328 70.3086 125.328 71.6931C125.328 72.9202 124.452 73.7016 123.33 73.7016C122.208 73.7016 121.425 73.0461 121.389 71.6669H122.072V71.6721Z" fill="white"/>
<path d="M15.8964 29.1682C15.8964 29.1682 15.8547 29.142 15.8338 29.1525C14.3415 29.8972 12.6456 30.9198 10.9185 32.0787C12.63 29.5668 14.1589 27.0705 15.2181 24.9152C15.2285 24.8942 15.2181 24.868 15.2024 24.8523C15.1816 24.8365 15.1555 24.8418 15.1346 24.8523C13.6684 26.2944 12.0612 28.1456 10.4698 30.1646C11.576 26.4255 12.4578 22.7651 12.9013 19.7182C12.9013 19.692 12.8909 19.671 12.8648 19.6605C12.8387 19.65 12.8126 19.6605 12.8022 19.6867C11.7012 21.8001 10.595 24.375 9.5514 27.1335C9.41052 22.5553 9.0557 18.1764 8.45042 14.5946C8.43998 14.5422 8.35649 14.5474 8.35128 14.5946C7.44857 19.9437 7.1094 27.0915 7.19289 34.0086C7.09897 34.318 6.99983 34.6274 6.9059 34.9368C4.56305 36.7251 2.40803 38.5553 0.92092 40.0289C0.905266 40.0446 0.900048 40.0761 0.915702 40.0971C0.926138 40.1128 0.941791 40.1181 0.957445 40.1181C0.962663 40.1181 0.973099 40.1181 0.978317 40.1128C2.16801 39.494 3.57685 38.6602 5.06919 37.6952C3.67078 39.8401 2.46021 41.8801 1.59403 43.5687C1.5836 43.5897 1.59403 43.6212 1.60969 43.6317C1.62012 43.6369 1.63056 43.6422 1.641 43.6422C1.65665 43.6422 1.66709 43.6422 1.67752 43.6264C2.88809 42.394 4.29171 40.7946 5.7423 39.0063C4.9283 42.0479 4.2865 44.8903 3.9108 47.1925C3.9108 47.2187 3.92124 47.2397 3.94733 47.2501C3.95255 47.2501 3.95776 47.2501 3.96298 47.2501C3.98385 47.2501 3.99951 47.2397 4.00994 47.2239C5.06397 45.1105 6.22235 42.3993 7.34943 39.4153C7.53728 43.6841 7.88688 47.6382 8.35649 50.7428C8.35649 50.769 8.38258 50.7847 8.40867 50.7847C8.43476 50.7847 8.45564 50.769 8.46085 50.7428C9.10266 46.4845 9.5201 40.6267 9.61402 34.554C12.0038 32.7815 14.2684 30.8988 15.8964 29.2259C15.9121 29.2102 15.9173 29.1787 15.8964 29.1577V29.1682Z" fill="white"/>
<g style="mix-blend-mode:multiply">
<path d="M12.8642 19.6656C12.8642 19.6656 12.812 19.6656 12.8015 19.6918C8.97678 27.0284 5.1155 39.8399 3.91016 47.2028C3.91016 47.229 3.92059 47.25 3.94668 47.2605C3.9519 47.2605 3.95712 47.2605 3.96234 47.2605C3.98321 47.2605 3.99886 47.25 4.0093 47.2342C7.33313 40.5689 11.7006 27.9252 12.9007 19.7233C12.9007 19.6971 12.8902 19.6761 12.8642 19.6656Z" fill="white"/>
</g>
<g style="mix-blend-mode:multiply">
<path d="M15.1972 24.8519C15.1972 24.8519 15.1503 24.8414 15.1294 24.8519C10.4228 29.4773 4.33347 38.2665 1.59404 43.5736C1.58361 43.5946 1.59404 43.6261 1.6097 43.6366C1.62013 43.6418 1.63057 43.6471 1.64101 43.6471C1.65666 43.6471 1.6671 43.6471 1.67753 43.6313C5.84667 39.3835 12.2804 30.846 15.2077 24.9096C15.2181 24.8886 15.2077 24.8624 15.192 24.8467L15.1972 24.8519Z" fill="white"/>
</g>
<path d="M63.877 47.5222V63.454H66.8303V53.8467C67.4512 54.434 68.1191 54.9112 68.8444 55.2678C69.9454 55.808 71.1351 56.0807 72.4239 56.0807H72.4448C74.7146 56.0807 76.7027 55.2259 78.3046 53.574C79.9117 51.9168 80.7361 49.8506 80.7309 47.4907C80.7361 45.1728 79.9065 43.1276 78.2785 41.4914C76.6609 39.8342 74.652 38.9899 72.3718 38.9951C71.0621 38.9951 69.7941 39.2206 68.6931 39.808C67.6287 40.3744 66.3868 41.2606 65.6771 42.1679C64.9988 43.0436 63.8717 44.7165 63.8822 47.5274L63.877 47.5222ZM68.2913 43.5366C69.3662 42.4458 70.6342 41.9162 72.2048 41.9057C73.2119 41.9057 74.1146 42.1521 74.9599 42.6451C75.8052 43.138 76.4679 43.8198 76.974 44.7218C77.4749 45.6185 77.7254 46.5572 77.7254 47.5589C77.7254 48.5605 77.4749 49.4835 76.9636 50.3907C76.4574 51.298 75.7843 52.0007 74.939 52.4937C74.0833 52.9971 73.1962 53.2436 72.2152 53.2436C71.2343 53.2436 70.3107 52.9971 69.4236 52.4937C68.5418 52.0007 67.8739 51.3399 67.4043 50.4904C66.9347 49.6408 66.6946 48.6916 66.6946 47.6113C66.6946 45.9594 67.2217 44.6379 68.2861 43.5366H68.2913Z" fill="white"/>
<path d="M101.785 47.5223V63.4541H104.733V53.8468C105.354 54.4341 106.033 54.9113 106.758 55.268C107.854 55.8081 109.049 56.0808 110.322 56.0808H110.348C112.612 56.0808 114.606 55.226 116.197 53.5741C117.815 51.9169 118.639 49.8507 118.639 47.4908C118.639 45.131 117.804 43.1277 116.182 41.4915C114.569 39.8343 112.55 38.99 110.27 38.9953C108.965 38.9953 107.702 39.2208 106.591 39.8081C105.532 40.3745 104.29 41.2608 103.58 42.168C102.897 43.0438 101.775 44.7167 101.785 47.5275V47.5223ZM106.2 43.5367C107.275 42.4459 108.542 41.9163 110.113 41.9058C111.125 41.9058 112.023 42.1523 112.873 42.6452C113.713 43.1382 114.376 43.8199 114.893 44.7219C115.388 45.6187 115.634 46.5574 115.634 47.559C115.634 48.5606 115.388 49.4836 114.882 50.3909C114.366 51.2981 113.698 52.0008 112.852 52.4938C112.007 52.9972 111.099 53.2437 110.134 53.2437C109.169 53.2437 108.229 52.9972 107.342 52.4938C106.455 52.0008 105.793 51.3401 105.318 50.4905C104.848 49.6409 104.619 48.6918 104.619 47.6115C104.619 45.9595 105.14 44.638 106.205 43.5367H106.2Z" fill="white"/>
<path d="M60.3915 42.5141C59.9323 41.4443 59.2174 40.5737 58.2521 39.9444C57.2816 39.3046 56.1649 38.99 54.9439 38.99C54.8396 38.99 54.61 38.9847 54.61 38.9847C53.3785 38.9847 52.0793 39.2941 51.0879 39.9444C50.1225 40.579 49.4025 41.4443 48.9485 42.5141C48.4789 43.6206 48.2754 45.1886 48.2754 47.2968C48.2754 47.2968 48.2754 47.3125 48.2754 47.3492V55.6875H51.2653V55.1735C51.2653 55.1735 51.2601 48.4977 51.2601 47.8841C51.2496 47.323 51.3383 44.9159 51.4531 44.4806C51.6723 43.5419 52.048 42.9126 52.5802 42.4826C53.1646 42.0264 53.5977 41.8376 54.5526 41.8218C55.5075 41.8271 56.2171 42.0578 56.7546 42.4826C57.2816 42.9021 57.6625 43.5419 57.8712 44.4754C57.9964 44.9684 58.0799 46.1378 58.0799 47.8841V55.6875H61.0541V47.3125C61.0541 45.1991 60.8506 43.6206 60.3862 42.5141H60.3915Z" fill="white"/>
<path d="M41.9303 50.7524C41.5807 51.2454 41.2519 51.6387 40.965 51.8904C40.5006 52.289 39.937 52.6246 39.2535 52.8711C38.5804 53.1228 37.8812 53.2487 37.1663 53.2487C35.6844 53.2382 34.4947 52.7347 33.4929 51.7069C32.6058 50.7734 32.0944 49.6302 31.964 48.209H45.6246V47.6898C45.6037 45.5187 45.0089 43.6413 43.8296 42.1467C42.2016 40.0543 39.9422 38.9793 37.2185 38.995C34.5678 38.9793 32.371 40.0386 30.79 42.0786C29.5377 43.6728 28.9011 45.5345 28.9063 47.5797C28.9063 49.756 29.6577 51.7383 31.1291 53.4584C32.6215 55.1995 34.7347 56.0805 37.3072 56.0805H37.3385C38.5125 56.0805 39.5718 55.9022 40.5266 55.5299C41.4711 55.168 42.3268 54.6331 43.0834 53.9304C43.8505 53.2329 44.5027 52.3152 45.0663 51.2034L45.2959 50.7472H45.2802L41.9355 50.7419L41.9303 50.7524ZM33.7433 43.2113C34.7347 42.3303 35.867 41.9003 37.255 41.9003C38.0847 41.9003 38.8726 42.0733 39.6292 42.4247C40.391 42.7813 40.9754 43.2375 41.4189 43.7934C41.7581 44.2234 42.0555 44.7846 42.2799 45.4768H32.3293C32.6893 44.4752 33.1693 43.7252 33.7433 43.2113Z" fill="white"/>
<path d="M95.7851 50.7524C95.4407 51.2454 95.1067 51.6387 94.8198 51.8904C94.3606 52.289 93.7918 52.6246 93.1083 52.8711C92.4299 53.1228 91.7412 53.2487 91.0211 53.2487C89.5392 53.2382 88.3547 52.7347 87.3477 51.7069C86.4554 50.7734 85.9545 49.6302 85.824 48.209H99.4794V47.6898C99.4585 45.5187 98.8689 43.6413 97.6896 42.1467C96.0616 40.0543 93.797 38.9793 91.0785 38.995C88.433 38.9793 86.231 40.0386 84.65 42.0786C83.4029 43.6728 82.7663 45.5345 82.7715 47.5797C82.7715 49.756 83.5177 51.7383 84.9891 53.4584C86.4815 55.1995 88.5947 56.0805 91.162 56.0805H91.1985C92.3673 56.0805 93.4318 55.9022 94.3814 55.5299C95.3259 55.168 96.1816 54.6331 96.9382 53.9304C97.7001 53.2329 98.3575 52.3152 98.9158 51.2034L99.1454 50.7472H99.1246L95.7746 50.7419L95.7851 50.7524ZM87.6033 43.2113C88.5895 42.3303 89.7218 41.9003 91.1046 41.9003C91.9394 41.9003 92.7274 42.0733 93.484 42.4247C94.2458 42.7813 94.8302 43.2375 95.2737 43.7934C95.6181 44.2234 95.9103 44.7846 96.1399 45.4768H86.1893C86.5545 44.4752 87.0346 43.7252 87.6033 43.2113Z" fill="white"/>
<path d="M19.5865 52.9078L27.7109 35.9429H15.5844V38.6908H23.2547L15.0312 55.6767H27.7056V52.9078H19.5865Z" fill="white"/>
<path d="M120.965 42.4353C119.723 42.4353 118.711 41.439 118.711 40.1803C118.711 38.9217 119.718 37.9201 120.965 37.9201C122.212 37.9201 123.219 38.9322 123.219 40.1803C123.219 41.4285 122.202 42.4353 120.965 42.4353ZM120.965 38.3868C119.989 38.3868 119.175 39.1735 119.175 40.1908C119.175 41.1505 119.963 41.9581 120.965 41.9581C121.967 41.9581 122.755 41.1715 122.755 40.1908C122.755 39.2102 121.951 38.3868 120.965 38.3868ZM120.031 38.948H121.122C121.351 38.948 121.55 38.948 121.737 39.0896C121.91 39.2259 121.993 39.4199 121.993 39.6769C121.993 40.0073 121.836 40.1332 121.701 40.2328C121.81 40.2957 121.93 40.3744 121.941 40.6523C121.972 41.2554 121.946 41.3131 122.092 41.4285H121.476C121.294 40.9565 121.576 40.4688 121.096 40.4688H120.574V41.4285H120.026V38.9532L120.031 38.948ZM120.574 39.4199V40.0073H121.028C121.226 40.0073 121.456 40.0125 121.456 39.7136C121.456 39.4147 121.236 39.4199 121.028 39.4199H120.574Z" fill="white"/>
<path d="M15.584 5.0027H17.2694V6.86438C17.7912 5.44321 18.7043 4.75098 20.0349 4.75098C22.2421 4.75098 23.8022 6.96926 23.8022 10.7923C23.8022 14.6153 22.4091 16.7916 20.0349 16.7916C18.7878 16.7916 17.8277 16.0365 17.3946 14.846C17.4155 15.2865 17.4155 15.7638 17.4155 16.5399V20.5989H15.584V5.0027ZM21.9708 10.7503C21.9708 8.18067 21.1828 6.57071 19.6801 6.57071C18.9287 6.57071 18.433 6.96926 18.0364 7.59332C17.5772 8.26458 17.4103 9.16133 17.4103 10.7713C17.4103 12.3813 17.5772 13.2833 18.0364 13.9493C18.433 14.5995 18.9287 14.9719 19.6801 14.9719C21.1776 14.9719 21.9708 13.3829 21.9708 10.7713V10.7503Z" fill="white"/>
<path d="M33.4761 16.5458H31.7907V14.7051C31.2898 16.0633 30.3557 16.7975 29.0252 16.7975C26.818 16.7975 25.2578 14.5792 25.2578 10.7982C25.2578 7.01714 26.651 4.7569 29.0252 4.7569C30.1888 4.7569 31.2741 5.30229 31.7907 6.91226V5.00862H33.4761V16.5511V16.5458ZM27.0893 10.7929C27.0893 13.3836 27.8981 14.9726 29.38 14.9726C30.1679 14.9726 30.6897 14.595 31.0863 13.9499C31.5246 13.2787 31.6498 12.3819 31.6498 10.772C31.6498 9.16201 31.5246 8.26525 31.0863 7.594C30.6897 6.9647 30.1731 6.57138 29.38 6.57138C27.9033 6.57138 27.0893 8.18135 27.0893 10.772V10.7929Z" fill="white"/>
<path d="M36.1009 5.0027H37.7237C37.7237 5.56907 37.7237 6.08824 37.7028 6.69657C38.2455 5.33832 39.3256 4.75098 40.6771 4.75098C42.592 4.75098 43.86 5.8575 43.86 8.49532V16.5451H42.0285V9.10365C42.0285 8.03908 41.8615 6.57595 40.1761 6.57595C38.8247 6.57595 37.9272 7.49368 37.9272 9.43927V16.5504H36.0957V5.0027H36.1009Z" fill="white"/>
<path d="M53.9923 12.4651C53.8253 14.825 52.5991 16.7916 50.225 16.7916C47.2716 16.7916 45.7949 14.159 45.7949 10.7922C45.7949 6.98494 47.5429 4.75092 50.1832 4.75092C52.5939 4.75092 53.888 6.69651 53.9506 9.11932H52.0773C51.9104 7.13177 51.0598 6.48674 50.0997 6.48674C49.3901 6.48674 48.79 6.73846 48.3517 7.55131C47.9343 8.34318 47.7256 9.32908 47.7256 10.7712C47.7256 13.6765 48.597 15.0767 50.0945 15.0767C51.3207 15.0767 51.9469 14.0121 52.093 12.4651H53.9871H53.9923Z" fill="white"/>
<path d="M55.6934 5.00313H57.3788C57.3788 5.89988 57.3788 6.50821 57.3579 7.13751C57.8797 5.14997 59.1894 4.77763 60.3739 4.75665V6.95396C60.1234 6.78615 59.8729 6.7442 59.6277 6.7442C58.6519 6.7442 57.5249 7.82974 57.5249 10.1949V16.5508H55.6934V5.00313Z" fill="white"/>
<path d="M62.9782 11.3796C62.9782 13.3671 63.7504 15.082 65.4567 15.082C66.6203 15.082 67.3925 14.2901 67.643 13.0734H69.4536C69.2449 14.3897 68.6814 15.3546 67.9561 15.9577C67.2256 16.5451 66.3333 16.7916 65.4619 16.7916C62.3416 16.7916 61.0527 13.8653 61.0527 10.7922C61.0527 7.27861 62.6338 4.75092 65.4202 4.75092C66.8342 4.75092 67.8987 5.35924 68.5822 6.44479C69.4745 7.84498 69.5997 9.68569 69.558 11.3796H62.9834H62.9782ZM67.7213 9.79057C67.6795 7.94987 66.9908 6.29795 65.3941 6.29795C63.9591 6.29795 63.0199 7.69814 62.9782 9.79057H67.7213Z" fill="white"/>
<path d="M71.8594 1.06982H73.6909V16.5402H71.8594V1.06982Z" fill="white"/>
<path d="M76.748 1.06964H78.5795V3.20402H76.748V1.06964ZM76.748 5.00278H78.5795V16.5452H76.748V5.00278Z" fill="white"/>
<path d="M81.4297 5.0027H83.1151V6.86438C83.6369 5.44321 84.55 4.75098 85.8806 4.75098C88.0878 4.75098 89.648 6.96926 89.648 10.7923C89.648 14.6153 88.2548 16.7916 85.8806 16.7916C84.6335 16.7916 83.6734 16.0365 83.2403 14.846C83.2612 15.2865 83.2612 15.7638 83.2612 16.5399V20.5989H81.4297V5.0027ZM87.8164 10.7503C87.8164 8.18067 87.0285 6.57071 85.5258 6.57071C84.7796 6.57071 84.2787 6.96926 83.8821 7.59332C83.4229 8.26458 83.256 9.16133 83.256 10.7713C83.256 12.3813 83.4229 13.2833 83.8821 13.9493C84.2787 14.5995 84.7744 14.9719 85.5258 14.9719C87.0233 14.9719 87.8164 13.3829 87.8164 10.7713V10.7503Z" fill="white"/>
<path d="M99.3218 16.5458H97.6364V14.7051C97.1355 16.0633 96.2014 16.7975 94.8709 16.7975C92.6637 16.7975 91.1035 14.5792 91.1035 10.7982C91.1035 7.01714 92.4967 4.7569 94.8709 4.7569C96.0345 4.7569 97.1198 5.30229 97.6364 6.91226V5.00862H99.3218V16.5511V16.5458ZM92.935 10.7929C92.935 13.3836 93.7438 14.9726 95.2257 14.9726C96.0136 14.9726 96.5354 14.595 96.932 13.9499C97.3703 13.2787 97.4955 12.3819 97.4955 10.772C97.4955 9.16201 97.3703 8.26525 96.932 7.594C96.5354 6.9647 96.0188 6.57138 95.2257 6.57138C93.749 6.57138 92.935 8.18135 92.935 10.772V10.7929Z" fill="white"/>
<path d="M106.481 8.13872C106.46 6.86438 105.834 6.36094 104.837 6.36094C103.966 6.36094 103.382 6.94829 103.382 7.82407C103.382 9.01449 104.545 9.35012 105.902 9.76966C107.17 10.1682 108.584 10.9391 108.584 13.2623C108.584 15.3337 107.045 16.7969 104.963 16.7969C102.881 16.7969 101.341 15.5645 101.195 13.0525H103.006C103.027 14.3898 103.841 15.124 104.984 15.124C106.126 15.124 106.669 14.3478 106.669 13.3881C106.669 12.1138 105.589 11.7152 104.133 11.2328C102.74 10.7713 101.472 10.0214 101.472 7.887C101.472 6.00434 102.802 4.75098 104.905 4.75098C107.008 4.75098 108.213 5.96238 108.297 8.13872H106.486H106.481Z" fill="white"/>
<path d="M112.011 11.3796C112.011 13.3671 112.784 15.082 114.49 15.082C115.653 15.082 116.426 14.2901 116.676 13.0734H118.487C118.278 14.3897 117.715 15.3546 116.989 15.9577C116.259 16.5451 115.366 16.7916 114.495 16.7916C111.375 16.7916 110.086 13.8653 110.086 10.7922C110.086 7.27861 111.667 4.75092 114.453 4.75092C115.867 4.75092 116.932 5.35924 117.615 6.44479C118.508 7.84498 118.633 9.68569 118.591 11.3796H112.017H112.011ZM116.754 9.79057C116.713 7.94987 116.024 6.29795 114.427 6.29795C112.992 6.29795 112.053 7.69814 112.011 9.79057H116.754Z" fill="white"/>
<path d="M8.45619 14.6043C8.44576 14.5519 8.36227 14.5571 8.35705 14.6043C6.63513 24.8095 6.96908 41.5332 8.35705 50.7525C8.35705 50.7787 8.38314 50.7944 8.40923 50.7944C8.43532 50.7944 8.45619 50.7787 8.46141 50.7525C9.8546 41.5332 10.1886 24.8095 8.46141 14.6043H8.45619Z" fill="white"/>
<g style="mix-blend-mode:multiply">
<path d="M12.8661 19.6649C12.8661 19.6649 12.8139 19.6649 12.8035 19.6911C8.97874 27.0277 5.11746 39.8393 3.91211 47.2021C3.91211 47.2283 3.92255 47.2493 3.94863 47.2598C3.95385 47.2598 3.95907 47.2598 3.96429 47.2598C3.98516 47.2598 4.00081 47.2493 4.01125 47.2336C7.33508 40.5682 11.7025 27.9245 12.9026 19.7226C12.9026 19.6964 12.8922 19.6754 12.8661 19.6649Z" fill="white"/>
</g>
<g style="mix-blend-mode:multiply">
<path d="M15.1972 24.8511C15.1972 24.8511 15.1503 24.8406 15.1294 24.8511C10.4228 29.4765 4.33347 38.2657 1.59404 43.5728C1.58361 43.5938 1.59404 43.6253 1.6097 43.6358C1.62013 43.641 1.63057 43.6463 1.64101 43.6463C1.65666 43.6463 1.6671 43.6463 1.67753 43.6305C5.84667 39.3827 12.2804 30.8452 15.2077 24.9088C15.2181 24.8878 15.2077 24.8616 15.192 24.8459L15.1972 24.8511Z" fill="white"/>
</g>
<g style="mix-blend-mode:multiply">
<path d="M15.8292 29.1522C11.1018 31.5069 4.30801 36.6829 0.926779 40.0339C0.911125 40.0496 0.905907 40.0811 0.921561 40.1021C0.931997 40.1178 0.947651 40.123 0.963305 40.123C0.968523 40.123 0.978959 40.123 0.984176 40.1178C5.20028 37.9257 12.1923 33.0277 15.8866 29.2361C15.9023 29.2204 15.9075 29.1889 15.8866 29.1679C15.871 29.147 15.8449 29.1417 15.824 29.1522H15.8292Z" fill="white"/>
</g>
</g>
<defs>
<clipPath id="clip0_549_6208">
<rect width="125" height="74" fill="white"/>
</clipPath>
</defs>
</svg>
