<svg width="90" height="50" viewBox="0 0 90 50" fill="none" xmlns="http://www.w3.org/2000/svg">
<path d="M0 0H89.8438L66.4062 50H0V0Z" fill="#0336FF"/>
<path d="M0 0H89.8438L66.4062 50H0V0Z" fill="url(#paint0_linear_34_542)" fill-opacity="0.59"/>
<path d="M36.5685 39.8438H27.6743C27.0072 39.8438 26.5625 39.399 26.5625 38.732V12.0493C26.5625 11.3822 27.0072 10.9375 27.6743 10.9375H36.5685C37.2356 10.9375 37.6803 11.3822 37.6803 12.0493C37.6803 12.7163 37.2356 13.1611 36.5685 13.1611H28.7861V37.6202H36.5685C37.2356 37.6202 37.6803 38.0649 37.6803 38.732C37.6803 39.399 37.2356 39.8438 36.5685 39.8438ZM46.5745 35.3966C46.241 35.3966 46.0186 35.2855 45.7963 35.0631C45.3516 34.6184 45.3516 33.9513 45.7963 33.5066L52.8005 26.5024H33.2332C32.5661 26.5024 32.1214 26.0577 32.1214 25.3906C32.1214 24.7236 32.5661 24.2788 33.2332 24.2788H52.8005L45.7963 17.2746C45.3516 16.8299 45.3516 16.1629 45.7963 15.7181C46.241 15.2734 46.9081 15.2734 47.3528 15.7181L56.247 24.6124C56.3582 24.7236 56.4694 24.8347 56.4694 24.9459C56.4694 25.0571 56.5805 25.1683 56.5805 25.3906C56.5805 25.5018 56.5805 25.7242 56.4694 25.8353C56.4694 25.9465 56.3582 26.0577 56.247 26.1689L47.3528 35.0631C47.1304 35.2855 46.9081 35.3966 46.5745 35.3966Z" fill="white"/>
<defs>
<linearGradient id="paint0_linear_34_542" x1="3.90625" y1="50" x2="78.125" y2="50" gradientUnits="userSpaceOnUse">
<stop stop-color="#0336FF"/>
<stop offset="1" stop-color="#001B70"/>
</linearGradient>
</defs>
</svg>
