<svg width="166" height="100" viewBox="0 0 166 100" fill="none" xmlns="http://www.w3.org/2000/svg">
<g clip-path="url(#clip0_34_551)">
<path d="M1.92535 66.3782C1.35907 64.7467 0.899386 62.7023 0.539632 60.2451C0.179877 57.7879 0 55.2308 0 52.5805C0 49.9301 0.186539 47.2066 0.552956 44.6694C0.919372 42.139 1.40571 40.0547 1.99864 38.4232C2.05859 38.27 2.15186 38.1968 2.27844 38.1968H2.98463C3.06457 38.1968 3.12453 38.2367 3.15784 38.31C3.19782 38.3832 3.19782 38.4698 3.17117 38.5564C2.67151 40.2544 2.25846 42.3521 1.92535 44.8492C1.59891 47.3531 1.43236 49.9035 1.43236 52.5139C1.43236 55.1243 1.59891 57.6214 1.92535 60.0653C2.2518 62.5092 2.67151 64.5736 3.17117 66.245C3.18449 66.265 3.19782 66.3116 3.19782 66.3782C3.19782 66.4448 3.17783 66.498 3.13786 66.5446C3.09789 66.5846 3.04459 66.6112 2.98463 66.6112H2.21182C2.08524 66.6112 1.99197 66.538 1.93201 66.3848L1.92535 66.3782Z" fill="white"/>
<path d="M6.08287 42.4587C5.82971 43.078 5.70979 44.0502 5.70979 45.3753V46.5474C5.70979 46.6339 5.74311 46.6805 5.80306 46.6805H7.72842C7.88165 46.6805 7.96159 46.7871 7.96159 47.0068V47.726C7.96159 47.9458 7.88165 48.0523 7.72842 48.0523H5.80306C5.74311 48.0523 5.70979 48.0989 5.70979 48.1855V62.7956C5.70979 63.0154 5.62985 63.1219 5.47662 63.1219H4.70381C4.55059 63.1219 4.47064 63.0154 4.47064 62.7956V48.1855C4.47064 48.0989 4.43733 48.0523 4.37737 48.0523H3.39138C3.23149 48.0523 3.1582 47.9458 3.1582 47.726V47.0068C3.1582 46.7871 3.23815 46.6805 3.39138 46.6805H4.37737C4.43733 46.6805 4.47064 46.6406 4.47064 46.5474V45.3421C4.47064 43.5175 4.69715 42.1723 5.15018 41.3133C5.6032 40.4543 6.36934 40.0281 7.45527 40.0281H7.80836C7.96159 40.0281 8.04154 40.1346 8.04154 40.3544L8.01489 41.2001C8.01489 41.4198 7.93494 41.5264 7.78171 41.5264H7.47526C6.80238 41.5264 6.3427 41.8394 6.08954 42.4587H6.08287Z" fill="white"/>
<path d="M15.3897 55.5238H9.98672C9.92676 55.5238 9.89345 55.5705 9.89345 55.657V58.4272C9.89345 59.4261 10.1 60.2518 10.513 60.8911C10.9261 61.5304 11.4657 61.85 12.1253 61.85C12.6716 61.85 13.1446 61.6236 13.5376 61.1641C13.9307 60.7046 14.1839 60.112 14.3104 59.3728C14.3571 59.1797 14.4437 59.0798 14.5703 59.0798L15.3231 59.1464C15.383 59.1464 15.443 59.1664 15.4896 59.213C15.5363 59.2596 15.5496 59.3195 15.5363 59.4061V59.5393C15.3764 60.7379 15.0033 61.6769 14.4104 62.3628C13.8174 63.0487 13.058 63.3883 12.1319 63.3883C11.0993 63.3883 10.2599 62.9354 9.6203 62.0365C8.98074 61.1375 8.6543 59.9655 8.6543 58.5271V51.3219C8.6543 49.8902 8.97408 48.7116 9.6203 47.7993C10.2599 46.887 11.0993 46.4275 12.1319 46.4275C13.1646 46.4275 14.024 46.887 14.6702 47.7993C15.3098 48.7116 15.6362 49.8836 15.6362 51.3219V55.2042C15.6362 55.424 15.5563 55.5305 15.403 55.5305L15.3897 55.5238ZM10.513 48.918C10.1 49.5573 9.89345 50.3897 9.89345 51.4152V53.8924C9.89345 53.9789 9.92676 54.0255 9.98672 54.0255H14.2838C14.3437 54.0255 14.3771 53.9856 14.3771 53.8924V51.4152C14.3771 50.3963 14.1705 49.5639 13.7575 48.918C13.3444 48.2787 12.7981 47.9591 12.1253 47.9591C11.4524 47.9591 10.9327 48.2787 10.513 48.918Z" fill="white"/>
<path d="M18.1011 62.0298C17.4682 61.1308 17.1484 59.9455 17.1484 58.4938V51.3219C17.1484 49.8902 17.4682 48.7116 18.1144 47.7993C18.754 46.887 19.5934 46.4275 20.6261 46.4275C21.3123 46.4275 21.9252 46.6273 22.4581 47.0335C22.9911 47.433 23.4042 47.9657 23.6906 48.6317C23.9838 49.2976 24.1237 50.0168 24.1237 50.8025V50.9956C24.1237 51.2154 24.0437 51.3219 23.8905 51.3219L23.1177 51.3885C22.9578 51.3885 22.8845 51.282 22.8845 51.0622V50.8691C22.8845 50.0833 22.6713 49.4041 22.2516 48.8314C21.8319 48.2587 21.2856 47.9657 20.6327 47.9657C19.9798 47.9657 19.4402 48.2854 19.0205 48.9247C18.6074 49.5639 18.4009 50.3963 18.4009 51.4218V58.4339C18.4009 59.4328 18.6074 60.2585 19.0205 60.8978C19.4335 61.537 19.9732 61.8567 20.6327 61.8567C21.2923 61.8567 21.8319 61.5703 22.2516 60.991C22.6713 60.4183 22.8845 59.7324 22.8845 58.9533V58.7935C22.8845 58.5737 22.9645 58.4672 23.1177 58.4672H23.8905C24.0504 58.4672 24.1237 58.5737 24.1237 58.7935V59.0532C24.1237 59.839 23.9771 60.5581 23.6906 61.2241C23.4042 61.89 22.9911 62.416 22.4581 62.8089C21.9252 63.2018 21.3123 63.3949 20.6261 63.3949C19.5734 63.3949 18.734 62.9421 18.1011 62.0431V62.0298Z" fill="white"/>
<path d="M31.7522 47.9058C32.3518 48.898 32.6582 50.2165 32.6582 51.8679V62.7956C32.6582 63.0153 32.5783 63.1219 32.425 63.1219H31.6522C31.4923 63.1219 31.4191 63.0153 31.4191 62.7956V61.6236C31.4191 61.557 31.4057 61.5237 31.3858 61.5104C31.3591 61.497 31.3325 61.5104 31.3058 61.557C30.7262 62.7756 29.8202 63.3816 28.581 63.3816C27.7482 63.3816 27.0287 63.042 26.4225 62.3694C25.8096 61.6968 25.5098 60.5115 25.5098 58.8134C25.5098 57.0088 25.8762 55.6836 26.6024 54.8313C27.3285 53.9855 28.2945 53.5594 29.5004 53.5594H31.3325C31.3924 53.5594 31.4257 53.5194 31.4257 53.4262V51.9279C31.4257 50.7093 31.2325 49.7437 30.8395 49.0245C30.4464 48.3053 29.9068 47.9457 29.2206 47.9457C28.6876 47.9457 28.2212 48.1855 27.8215 48.6649C27.4218 49.1444 27.1886 49.7637 27.1287 50.5228C27.1287 50.7426 27.0487 50.8491 26.8955 50.8491L26.0494 50.7825C25.9695 50.7825 25.9095 50.7492 25.8762 50.6826C25.8362 50.616 25.8229 50.5428 25.8429 50.4562C25.9361 49.2376 26.3026 48.2587 26.9488 47.5195C27.5883 46.7804 28.3678 46.4075 29.2739 46.4075C30.3398 46.4075 31.1726 46.9002 31.7788 47.8925L31.7522 47.9058ZM30.6463 60.9044C31.1526 60.2718 31.4124 59.3861 31.4124 58.2274V55.1309C31.4124 55.0443 31.3791 54.9977 31.3191 54.9977H29.487C28.6743 54.9977 28.0214 55.3107 27.5284 55.93C27.0354 56.5493 26.7889 57.4683 26.7889 58.6869C26.7889 59.7523 26.9754 60.5448 27.3552 61.0709C27.7283 61.5903 28.2212 61.8566 28.8342 61.8566C29.5403 61.8566 30.1466 61.5436 30.6529 60.911L30.6463 60.9044Z" fill="white"/>
<path d="M34.4629 62.7956V40.6207C34.4629 40.401 34.5428 40.2944 34.6961 40.2944H35.4689C35.6288 40.2944 35.702 40.401 35.702 40.6207V62.7956C35.702 63.0154 35.6221 63.1219 35.4689 63.1219H34.6961C34.5362 63.1219 34.4629 63.0154 34.4629 62.7956Z" fill="white"/>
<path d="M53.1828 47.8859C53.7025 48.8448 53.9556 50.15 53.9556 51.8014V62.789C53.9556 63.0087 53.8757 63.1153 53.7224 63.1153H52.9496C52.7897 63.1153 52.7165 63.0087 52.7165 62.789V51.9613C52.7165 50.7426 52.5299 49.7771 52.1635 49.0579C51.7971 48.3387 51.3041 47.9791 50.6978 47.9791C50.0383 47.9791 49.5186 48.3254 49.1389 49.0246C48.7525 49.7238 48.566 50.6761 48.566 51.8947V62.789C48.566 63.0087 48.486 63.1153 48.3328 63.1153H47.56C47.4001 63.1153 47.3268 63.0087 47.3268 62.789V51.9613C47.3268 50.7426 47.1403 49.7771 46.7605 49.0579C46.3874 48.3387 45.9011 47.9791 45.3015 47.9791C44.642 47.9791 44.1157 48.3254 43.7293 49.0246C43.3362 49.7238 43.143 50.6761 43.143 51.8947V62.789C43.143 63.0087 43.0631 63.1153 42.9098 63.1153H42.157C41.9971 63.1153 41.9238 63.0087 41.9238 62.789V47.0069C41.9238 46.7871 42.0038 46.6806 42.157 46.6806H42.9098C43.0631 46.6806 43.143 46.7871 43.143 47.0069V48.2122C43.143 48.2788 43.1563 48.3187 43.1896 48.3254C43.2229 48.3387 43.2429 48.3121 43.2629 48.2455C43.5427 47.6595 43.9025 47.2133 44.3289 46.907C44.7619 46.6007 45.2083 46.4475 45.6813 46.4475C46.2742 46.4475 46.7938 46.6673 47.2335 47.1001C47.6732 47.5329 48.0063 48.1522 48.2462 48.958C48.2795 49.0645 48.3195 49.0446 48.3661 48.8914C48.6326 48.0857 49.0057 47.4797 49.492 47.0668C49.9783 46.6539 50.5113 46.4475 51.0909 46.4475C51.9836 46.4475 52.6898 46.927 53.2028 47.8792L53.1828 47.8859Z" fill="white"/>
<path d="M55.5081 43.058C55.2882 42.8382 55.1816 42.5586 55.1816 42.2123C55.1816 41.866 55.2882 41.5863 55.5081 41.3666C55.7279 41.1468 56.0077 41.0403 56.3542 41.0403C56.7006 41.0403 56.9804 41.1468 57.2003 41.3666C57.4201 41.5863 57.5267 41.866 57.5267 42.2123C57.5267 42.5586 57.4134 42.8382 57.2003 43.058C56.9804 43.2777 56.7006 43.3843 56.3542 43.3843C56.0077 43.3843 55.7279 43.2777 55.5081 43.058ZM55.7479 62.7956V47.0135C55.7479 46.7938 55.8279 46.6872 55.9811 46.6872H56.7539C56.9071 46.6872 56.9871 46.7938 56.9871 47.0135V62.7956C56.9871 63.0154 56.9071 63.1219 56.7539 63.1219H55.9811C55.8212 63.1219 55.7479 63.0154 55.7479 62.7956Z" fill="white"/>
<path d="M59.7261 62.0298C59.0932 61.1308 58.7734 59.9455 58.7734 58.4938V51.3219C58.7734 49.8902 59.0932 48.7116 59.7394 47.7993C60.379 46.887 61.2184 46.4275 62.2511 46.4275C62.9373 46.4275 63.5502 46.6273 64.0831 47.0335C64.6161 47.433 65.0292 47.9657 65.3156 48.6317C65.6088 49.2976 65.7487 50.0168 65.7487 50.8025V50.9956C65.7487 51.2154 65.6687 51.3219 65.5155 51.3219L64.7427 51.3885C64.5828 51.3885 64.5095 51.282 64.5095 51.0622V50.8691C64.5095 50.0833 64.2963 49.4041 63.8766 48.8314C63.4569 48.2587 62.9106 47.9657 62.2577 47.9657C61.6048 47.9657 61.0652 48.2854 60.6455 48.9247C60.2324 49.5639 60.0259 50.3963 60.0259 51.4218V58.4339C60.0259 59.4328 60.2324 60.2585 60.6455 60.8978C61.0585 61.537 61.5982 61.8567 62.2577 61.8567C62.9173 61.8567 63.4569 61.5703 63.8766 60.991C64.2963 60.4183 64.5095 59.7324 64.5095 58.9533V58.7935C64.5095 58.5737 64.5895 58.4672 64.7427 58.4672H65.5155C65.6754 58.4672 65.7487 58.5737 65.7487 58.7935V59.0532C65.7487 59.839 65.6021 60.5581 65.3156 61.2241C65.0292 61.89 64.6161 62.416 64.0831 62.8089C63.5502 63.2018 62.9373 63.3949 62.2511 63.3949C61.1984 63.3949 60.359 62.9421 59.7261 62.0431V62.0298Z" fill="white"/>
<path d="M72.0704 46.8804C72.177 46.9669 72.217 47.1068 72.1903 47.3065L72.0038 48.4186C71.9572 48.6117 71.8572 48.6717 71.6974 48.5851C71.4442 48.4519 71.1444 48.3986 70.7846 48.4186C70.1584 48.4386 69.6454 48.8781 69.259 49.7238C68.8659 50.5695 68.6727 51.615 68.6727 52.8536V62.8023C68.6727 63.0221 68.5928 63.1286 68.4396 63.1286H67.6668C67.5069 63.1286 67.4336 63.0221 67.4336 62.8023V47.0202C67.4336 46.8005 67.5135 46.6939 67.6668 46.6939H68.4396C68.5928 46.6939 68.6727 46.8005 68.6727 47.0202V49.0446C68.6727 49.1112 68.6861 49.1445 68.7194 49.1445C68.7527 49.1445 68.7727 49.1112 68.7927 49.0446C69.0125 48.2588 69.3123 47.6528 69.6987 47.22C70.0851 46.7871 70.5381 46.5674 71.0711 46.5674C71.4642 46.5674 71.7973 46.6739 72.0837 46.8937L72.0704 46.8804Z" fill="white"/>
<path d="M73.7027 62.0298C73.0698 61.1308 72.75 59.9455 72.75 58.4938V51.3219C72.75 49.8902 73.0698 48.7116 73.716 47.7993C74.3556 46.887 75.195 46.4275 76.2276 46.4275C77.2603 46.4275 78.1463 46.8803 78.7859 47.7793C79.4254 48.6849 79.7519 49.8636 79.7519 51.3153V58.4872C79.7519 59.9455 79.4321 61.1242 78.7859 62.0231C78.1463 62.9221 77.2869 63.3749 76.2276 63.3749C75.1683 63.3749 74.3356 62.9221 73.7027 62.0231V62.0298ZM77.8732 60.8844C78.2929 60.2452 78.5061 59.4194 78.5061 58.4206V51.4085C78.5061 50.3897 78.2929 49.5573 77.8732 48.9113C77.4535 48.2721 76.9005 47.9524 76.2276 47.9524C75.5548 47.9524 75.0351 48.2721 74.6154 48.9113C74.2023 49.5506 73.9958 50.383 73.9958 51.4085V58.4206C73.9958 59.4194 74.2023 60.2452 74.6154 60.8844C75.0284 61.5237 75.5681 61.8434 76.2276 61.8434C76.8872 61.8434 77.4468 61.5237 77.8732 60.8844Z" fill="white"/>
<path d="M87.4 47.7727C87.9862 48.6783 88.2794 49.857 88.2794 51.3087V58.5139C88.2794 59.9522 87.9862 61.1176 87.4 62.0232C86.8137 62.9222 86.0342 63.375 85.0616 63.375C84.5885 63.375 84.1555 63.2418 83.7425 62.9821C83.3361 62.7224 82.9896 62.3428 82.7098 61.8434C82.6765 61.8035 82.6499 61.7835 82.6299 61.7968C82.6032 61.8101 82.5966 61.8368 82.5966 61.8767V62.789C82.5966 63.0088 82.5166 63.1153 82.3634 63.1153H81.5906C81.4307 63.1153 81.3574 63.0088 81.3574 62.789V40.6141C81.3574 40.3944 81.4374 40.2878 81.5906 40.2878H82.3634C82.5166 40.2878 82.5966 40.3944 82.5966 40.6141V47.9192C82.5966 47.9658 82.6099 47.9924 82.6432 47.9991C82.6765 48.0124 82.6965 47.9991 82.7165 47.9525C82.9963 47.4531 83.3427 47.0735 83.7491 46.8138C84.1555 46.5541 84.5952 46.4209 85.0682 46.4209C86.0409 46.4209 86.8204 46.8737 87.4066 47.7727H87.4ZM86.4273 48.9181C86.0076 48.2788 85.4546 47.9591 84.7818 47.9591C84.1089 47.9591 83.6159 48.2788 83.2095 48.9181C82.8031 49.5573 82.5966 50.3897 82.5966 51.4152V58.4273C82.5966 59.4528 82.8031 60.2785 83.2095 60.9045C83.6159 61.5371 84.1422 61.8501 84.7818 61.8501C85.4213 61.8501 86.0009 61.5304 86.4273 60.8912C86.847 60.2519 87.0602 59.4262 87.0602 58.4273V51.4152C87.0602 50.3964 86.847 49.564 86.4273 48.9181Z" fill="white"/>
<path d="M89.8577 43.058C89.6378 42.8382 89.5312 42.5586 89.5312 42.2123C89.5312 41.866 89.6378 41.5863 89.8577 41.3666C90.0775 41.1468 90.3573 41.0403 90.7038 41.0403C91.0502 41.0403 91.33 41.1468 91.5499 41.3666C91.7697 41.5863 91.8763 41.866 91.8763 42.2123C91.8763 42.5586 91.7631 42.8382 91.5499 43.058C91.33 43.2777 91.0502 43.3843 90.7038 43.3843C90.3573 43.3843 90.0775 43.2777 89.8577 43.058ZM90.0909 62.7956V47.0135C90.0909 46.7938 90.1708 46.6872 90.324 46.6872H91.0969C91.2501 46.6872 91.33 46.7938 91.33 47.0135V62.7956C91.33 63.0154 91.2501 63.1219 91.0969 63.1219H90.324C90.1642 63.1219 90.0909 63.0154 90.0909 62.7956Z" fill="white"/>
<path d="M94.0484 62.0298C93.4155 61.1308 93.0957 59.9455 93.0957 58.4938V51.3219C93.0957 49.8902 93.4155 48.7116 94.0617 47.7993C94.7013 46.887 95.5407 46.4275 96.5733 46.4275C97.606 46.4275 98.492 46.8803 99.1316 47.7793C99.7711 48.6849 100.098 49.8636 100.098 51.3153V58.4872C100.098 59.9455 99.7778 61.1242 99.1316 62.0231C98.492 62.9221 97.6326 63.3749 96.5733 63.3749C95.5141 63.3749 94.6813 62.9221 94.0484 62.0231V62.0298ZM98.2189 60.8844C98.6386 60.2452 98.8518 59.4194 98.8518 58.4206V51.4085C98.8518 50.3897 98.6386 49.5573 98.2189 48.9113C97.7991 48.2721 97.2462 47.9524 96.5733 47.9524C95.9005 47.9524 95.3808 48.2721 94.9611 48.9113C94.548 49.5506 94.3415 50.383 94.3415 51.4085V58.4206C94.3415 59.4194 94.548 60.2452 94.9611 60.8844C95.3741 61.5237 95.9138 61.8434 96.5733 61.8434C97.2329 61.8434 97.7925 61.5237 98.2189 60.8844Z" fill="white"/>
<path d="M105.176 48.0523H103.297C103.237 48.0523 103.204 48.0989 103.204 48.1855V58.6869C103.204 59.7724 103.337 60.5315 103.604 60.951C103.87 61.3772 104.29 61.5903 104.869 61.5903H105.103C105.256 61.5903 105.336 61.6968 105.336 61.9166V62.7956C105.336 63.0153 105.256 63.1219 105.103 63.1219H104.63C103.75 63.1219 103.091 62.8422 102.644 62.2762C102.198 61.7102 101.978 60.658 101.978 59.1131V48.1855C101.978 48.0989 101.945 48.0523 101.885 48.0523H100.919C100.759 48.0523 100.686 47.9458 100.686 47.726V47.0068C100.686 46.7871 100.765 46.6805 100.919 46.6805H101.885C101.945 46.6805 101.978 46.6406 101.978 46.5473V42.8915C101.978 42.6717 102.058 42.5652 102.211 42.5652H102.964C103.117 42.5652 103.197 42.6717 103.197 42.8915V46.5473C103.197 46.6339 103.23 46.6805 103.29 46.6805H105.169C105.322 46.6805 105.402 46.7871 105.402 47.0068V47.726C105.402 47.9458 105.322 48.0523 105.169 48.0523H105.176Z" fill="white"/>
<path d="M112.469 47.9058C113.069 48.898 113.375 50.2165 113.375 51.8679V62.7956C113.375 63.0153 113.295 63.1219 113.142 63.1219H112.369C112.209 63.1219 112.136 63.0153 112.136 62.7956V61.6236C112.136 61.557 112.123 61.5237 112.103 61.5104C112.076 61.497 112.049 61.5104 112.023 61.557C111.443 62.7756 110.537 63.3816 109.298 63.3816C108.465 63.3816 107.746 63.042 107.139 62.3694C106.526 61.6968 106.227 60.5115 106.227 58.8134C106.227 57.0088 106.593 55.6836 107.319 54.8313C108.045 53.9855 109.011 53.5594 110.217 53.5594H112.049C112.109 53.5594 112.143 53.5194 112.143 53.4262V51.9279C112.143 50.7093 111.949 49.7437 111.556 49.0245C111.163 48.3053 110.624 47.9457 109.937 47.9457C109.404 47.9457 108.938 48.1855 108.538 48.6649C108.139 49.1444 107.905 49.7637 107.845 50.5228C107.845 50.7426 107.766 50.8491 107.612 50.8491L106.766 50.7825C106.686 50.7825 106.626 50.7492 106.593 50.6826C106.553 50.616 106.54 50.5428 106.56 50.4562C106.653 49.2376 107.019 48.2587 107.666 47.5195C108.305 46.7804 109.085 46.4075 109.991 46.4075C111.057 46.4075 111.889 46.9002 112.496 47.8925L112.469 47.9058ZM111.363 60.9044C111.869 60.2718 112.129 59.3861 112.129 58.2274V55.1309C112.129 55.0443 112.096 54.9977 112.036 54.9977H110.204C109.391 54.9977 108.738 55.3107 108.245 55.93C107.752 56.5493 107.506 57.4683 107.506 58.6869C107.506 59.7523 107.692 60.5448 108.072 61.0709C108.445 61.5903 108.938 61.8566 109.551 61.8566C110.257 61.8566 110.863 61.5436 111.37 60.911L111.363 60.9044Z" fill="white"/>
<path d="M120.059 62.1229C119.439 61.3505 119.133 60.3582 119.133 59.1396V58.9465C119.133 58.7268 119.213 58.6202 119.366 58.6202H120.092C120.252 58.6202 120.325 58.7268 120.325 58.9465V59.1396C120.325 59.9254 120.525 60.5713 120.938 61.0974C121.351 61.6235 121.871 61.8832 122.511 61.8832C123.15 61.8832 123.643 61.6168 124.023 61.0841C124.409 60.5514 124.596 59.8588 124.596 59.0131C124.596 58.3805 124.489 57.8611 124.269 57.4482C124.049 57.0353 123.776 56.7024 123.45 56.456C123.123 56.203 122.677 55.9166 122.111 55.5903C121.498 55.244 120.998 54.8978 120.605 54.5648C120.212 54.2252 119.879 53.7591 119.606 53.1597C119.333 52.5604 119.193 51.8079 119.193 50.8956C119.193 49.5705 119.493 48.5117 120.085 47.7326C120.678 46.9534 121.471 46.5605 122.457 46.5605C123.443 46.5605 124.256 46.9601 124.856 47.7659C125.448 48.5716 125.748 49.6171 125.748 50.8956V50.9955C125.748 51.2153 125.668 51.3218 125.515 51.3218H124.809C124.656 51.3218 124.576 51.2153 124.576 50.9955V50.8357C124.576 50.0299 124.383 49.3574 123.989 48.8113C123.596 48.2653 123.09 47.9989 122.464 47.9989C121.838 47.9989 121.338 48.2653 120.958 48.798C120.585 49.3307 120.392 50.0233 120.392 50.869C120.392 51.455 120.492 51.9478 120.698 52.334C120.905 52.7269 121.158 53.0399 121.465 53.2796C121.771 53.5193 122.197 53.8123 122.744 54.1586C123.383 54.5315 123.916 54.8844 124.329 55.2174C124.742 55.557 125.102 56.0298 125.395 56.6358C125.695 57.2418 125.842 58.0142 125.842 58.9532C125.842 60.2584 125.535 61.3038 124.929 62.1029C124.316 62.8954 123.51 63.2949 122.511 63.2949C121.511 63.2949 120.672 62.9087 120.052 62.1362L120.059 62.1229Z" fill="white"/>
<path d="M133.069 47.7725C133.655 48.6782 133.948 49.8568 133.948 51.3085V58.4804C133.948 59.9387 133.655 61.1174 133.069 62.0164C132.483 62.9154 131.703 63.3682 130.731 63.3682C130.258 63.3682 129.825 63.235 129.418 62.9753C129.012 62.7156 128.665 62.336 128.386 61.8366C128.352 61.7966 128.326 61.7767 128.306 61.79C128.279 61.8033 128.272 61.8299 128.272 61.8699V69.1749C128.272 69.3947 128.192 69.5012 128.039 69.5012H127.266C127.106 69.5012 127.033 69.3947 127.033 69.1749V47.0001C127.033 46.7803 127.113 46.6738 127.266 46.6738H128.039C128.192 46.6738 128.272 46.7803 128.272 47.0001V47.9124C128.272 47.959 128.286 47.9856 128.319 47.9923C128.352 48.0056 128.372 47.9923 128.392 47.9457C128.672 47.4462 129.019 47.0667 129.425 46.807C129.831 46.5472 130.271 46.4141 130.737 46.4141C131.71 46.4141 132.489 46.8669 133.076 47.7659L133.069 47.7725ZM132.096 48.9179C131.677 48.2786 131.124 47.959 130.451 47.959C129.778 47.959 129.285 48.272 128.879 48.9046C128.472 49.5372 128.266 50.3629 128.266 51.3818V58.4271C128.266 59.4526 128.466 60.2784 128.879 60.9043C129.285 61.5369 129.811 61.8499 130.451 61.8499C131.09 61.8499 131.67 61.5303 132.096 60.891C132.516 60.2517 132.729 59.426 132.729 58.4271V51.3818C132.729 50.3829 132.516 49.5638 132.096 48.9179Z" fill="white"/>
<path d="M136.334 62.0298C135.701 61.1308 135.381 59.9455 135.381 58.4938V51.3219C135.381 49.8902 135.701 48.7116 136.347 47.7993C136.986 46.887 137.826 46.4275 138.858 46.4275C139.891 46.4275 140.777 46.8803 141.417 47.7793C142.056 48.6849 142.383 49.8636 142.383 51.3153V58.4872C142.383 59.9455 142.063 61.1242 141.417 62.0231C140.777 62.9221 139.918 63.3749 138.858 63.3749C137.799 63.3749 136.966 62.9221 136.334 62.0231V62.0298ZM140.504 60.8844C140.924 60.2452 141.137 59.4194 141.137 58.4206V51.4085C141.137 50.3897 140.924 49.5573 140.504 48.9113C140.084 48.2721 139.531 47.9524 138.858 47.9524C138.186 47.9524 137.666 48.2721 137.246 48.9113C136.833 49.5506 136.627 50.383 136.627 51.4085V58.4206C136.627 59.4194 136.833 60.2452 137.246 60.8844C137.659 61.5237 138.199 61.8434 138.858 61.8434C139.518 61.8434 140.078 61.5237 140.504 60.8844Z" fill="white"/>
<path d="M148.492 46.8804C148.599 46.9669 148.639 47.1068 148.612 47.3065L148.426 48.4186C148.379 48.6117 148.279 48.6717 148.119 48.5851C147.866 48.4519 147.566 48.3986 147.207 48.4186C146.58 48.4386 146.067 48.8781 145.681 49.7238C145.288 50.5695 145.095 51.615 145.095 52.8536V62.8023C145.095 63.0221 145.015 63.1286 144.861 63.1286H144.089C143.929 63.1286 143.855 63.0221 143.855 62.8023V47.0202C143.855 46.8005 143.935 46.6939 144.089 46.6939H144.861C145.015 46.6939 145.095 46.8005 145.095 47.0202V49.0446C145.095 49.1112 145.108 49.1445 145.141 49.1445C145.175 49.1445 145.195 49.1112 145.215 49.0446C145.434 48.2588 145.734 47.6528 146.121 47.22C146.507 46.7871 146.96 46.5674 147.493 46.5674C147.886 46.5674 148.219 46.6739 148.506 46.8937L148.492 46.8804Z" fill="white"/>
<path d="M155.606 55.5238H150.204C150.144 55.5238 150.11 55.5705 150.11 55.657V58.4272C150.11 59.4261 150.317 60.2518 150.73 60.8911C151.143 61.5304 151.683 61.85 152.342 61.85C152.888 61.85 153.361 61.6236 153.754 61.1641C154.147 60.7046 154.401 60.112 154.527 59.3728C154.574 59.1797 154.66 59.0798 154.787 59.0798L155.54 59.1464C155.6 59.1464 155.66 59.1664 155.706 59.213C155.753 59.2596 155.766 59.3195 155.753 59.4061V59.5393C155.593 60.7379 155.22 61.6769 154.627 62.3628C154.034 63.0487 153.275 63.3883 152.349 63.3883C151.316 63.3883 150.477 62.9354 149.837 62.0365C149.198 61.1375 148.871 59.9655 148.871 58.5271V51.3219C148.871 49.8902 149.191 48.7116 149.837 47.7993C150.477 46.887 151.316 46.4275 152.349 46.4275C153.381 46.4275 154.241 46.887 154.887 47.7993C155.527 48.7116 155.853 49.8836 155.853 51.3219V55.2042C155.853 55.424 155.773 55.5305 155.62 55.5305L155.606 55.5238ZM150.736 48.918C150.323 49.5573 150.117 50.3897 150.117 51.4152V53.8924C150.117 53.9789 150.15 54.0255 150.21 54.0255H154.507C154.567 54.0255 154.601 53.9856 154.601 53.8924V51.4152C154.601 50.3963 154.394 49.5639 153.981 48.918C153.568 48.2787 153.022 47.9591 152.349 47.9591C151.676 47.9591 151.156 48.2787 150.736 48.918Z" fill="white"/>
<path d="M157.973 62.1229C157.353 61.3505 157.047 60.3582 157.047 59.1396V58.9465C157.047 58.7268 157.127 58.6202 157.28 58.6202H158.006C158.166 58.6202 158.239 58.7268 158.239 58.9465V59.1396C158.239 59.9254 158.439 60.5713 158.852 61.0974C159.265 61.6235 159.785 61.8832 160.425 61.8832C161.064 61.8832 161.557 61.6168 161.937 61.0841C162.323 60.5514 162.51 59.8588 162.51 59.0131C162.51 58.3805 162.403 57.8611 162.183 57.4482C161.964 57.0353 161.69 56.7024 161.364 56.456C161.037 56.203 160.591 55.9166 160.025 55.5903C159.412 55.244 158.912 54.8978 158.519 54.5648C158.126 54.2252 157.793 53.7591 157.52 53.1597C157.247 52.5604 157.107 51.8079 157.107 50.8956C157.107 49.5705 157.407 48.5117 158 47.7326C158.592 46.9534 159.385 46.5605 160.371 46.5605C161.357 46.5605 162.17 46.9601 162.77 47.7659C163.363 48.5716 163.662 49.6171 163.662 50.8956V50.9955C163.662 51.2153 163.582 51.3218 163.429 51.3218H162.723C162.57 51.3218 162.49 51.2153 162.49 50.9955V50.8357C162.49 50.0299 162.297 49.3574 161.904 48.8113C161.511 48.2653 161.004 47.9989 160.378 47.9989C159.752 47.9989 159.252 48.2653 158.872 48.798C158.499 49.3307 158.306 50.0233 158.306 50.869C158.306 51.455 158.406 51.9478 158.612 52.334C158.819 52.7269 159.072 53.0399 159.379 53.2796C159.685 53.5193 160.111 53.8123 160.658 54.1586C161.297 54.5315 161.83 54.8844 162.243 55.2174C162.656 55.557 163.016 56.0298 163.309 56.6358C163.609 57.2418 163.756 58.0142 163.756 58.9532C163.756 60.2584 163.449 61.3038 162.843 62.1029C162.23 62.8954 161.424 63.2949 160.425 63.2949C159.425 63.2949 158.586 62.9087 157.966 62.1362L157.973 62.1229Z" fill="white"/>
<path d="M164.141 65.4326C164.095 65.366 164.081 65.2794 164.095 65.1729L164.894 58.3872C164.928 58.1941 165.001 58.0942 165.127 58.0942H165.787C165.867 58.0942 165.927 58.1275 165.96 58.1941C166 58.2607 166.013 58.3473 165.993 58.4538L165.007 65.2395C164.994 65.4326 164.908 65.5325 164.748 65.5325H164.301C164.241 65.5325 164.181 65.4992 164.135 65.4326H164.141Z" fill="white"/>
<path d="M17.3477 93.281V71.1061C17.3477 70.8863 17.4276 70.7798 17.5808 70.7798H18.3536C18.5135 70.7798 18.5868 70.8863 18.5868 71.1061V93.281C18.5868 93.5007 18.5069 93.6073 18.3536 93.6073H17.5808C17.4209 93.6073 17.3477 93.5007 17.3477 93.281Z" fill="white"/>
<path d="M20.1194 73.5433C19.8996 73.3236 19.793 73.0439 19.793 72.6976C19.793 72.3514 19.8996 72.0717 20.1194 71.8519C20.3393 71.6322 20.6191 71.5256 20.9655 71.5256C21.3119 71.5256 21.5917 71.6322 21.8116 71.8519C22.0314 72.0717 22.138 72.3514 22.138 72.6976C22.138 73.0439 22.0248 73.3236 21.8116 73.5433C21.5917 73.7631 21.3119 73.8696 20.9655 73.8696C20.6191 73.8696 20.3393 73.7631 20.1194 73.5433ZM20.3526 93.281V77.4989C20.3526 77.2791 20.4325 77.1726 20.5858 77.1726H21.3586C21.5118 77.1726 21.5917 77.2791 21.5917 77.4989V93.281C21.5917 93.5007 21.5118 93.6073 21.3586 93.6073H20.5858C20.4259 93.6073 20.3526 93.5007 20.3526 93.281Z" fill="white"/>
<path d="M25.9959 93.3143L23.0579 77.5322L23.0312 77.4323C23.0312 77.2592 23.1112 77.1726 23.2644 77.1726H24.1571C24.2971 77.1726 24.3837 77.2725 24.417 77.4656L26.6488 90.6773C26.6621 90.7439 26.6821 90.7772 26.6954 90.7772C26.7087 90.7772 26.7287 90.7439 26.742 90.6773L28.9739 77.4656C29.0072 77.2725 29.0938 77.1726 29.2337 77.1726L30.1464 77.2059C30.2263 77.2059 30.2863 77.2392 30.3196 77.3058C30.3596 77.3724 30.3596 77.459 30.3329 77.5655L27.4416 93.321C27.4282 93.5141 27.3416 93.614 27.1817 93.614H26.2424C26.1025 93.614 26.0159 93.5141 25.9826 93.321L25.9959 93.3143Z" fill="white"/>
<path d="M37.9542 86.0092H32.5512C32.4912 86.0092 32.4579 86.0558 32.4579 86.1424V88.9126C32.4579 89.9114 32.6644 90.7372 33.0775 91.3765C33.4905 92.0157 34.0302 92.3354 34.6897 92.3354C35.236 92.3354 35.709 92.109 36.1021 91.6495C36.4951 91.19 36.7483 90.5973 36.8749 89.8582C36.9215 89.6651 37.0081 89.5652 37.1347 89.5652L37.8875 89.6318C37.9475 89.6318 38.0074 89.6517 38.0541 89.6983C38.1007 89.745 38.114 89.8049 38.1007 89.8915V90.0247C37.9408 91.2233 37.5677 92.1622 36.9748 92.8481C36.3819 93.534 35.6224 93.8736 34.6964 93.8736C33.6637 93.8736 32.8243 93.4208 32.1848 92.5218C31.5452 91.6228 31.2188 90.4508 31.2188 89.0125V81.8073C31.2188 80.3756 31.5385 79.1969 32.1848 78.2846C32.8243 77.3723 33.6637 76.9128 34.6964 76.9128C35.729 76.9128 36.5884 77.3723 37.2346 78.2846C37.8742 79.1969 38.2006 80.3689 38.2006 81.8073V85.6896C38.2006 85.9093 38.1207 86.0159 37.9675 86.0159L37.9542 86.0092ZM33.0775 79.4034C32.6644 80.0426 32.4579 80.875 32.4579 81.9005V84.3777C32.4579 84.4643 32.4912 84.5109 32.5512 84.5109H36.8482C36.9082 84.5109 36.9415 84.4709 36.9415 84.3777V81.9005C36.9415 80.8817 36.735 80.0493 36.3219 79.4034C35.9089 78.7641 35.3626 78.4444 34.6897 78.4444C34.0168 78.4444 33.4972 78.7641 33.0775 79.4034Z" fill="white"/>
<path d="M39.2656 83.7917V82.9127C39.2656 82.693 39.3456 82.5864 39.4988 82.5864H44.6886C44.8418 82.5864 44.9218 82.693 44.9218 82.9127V83.7917C44.9218 84.0115 44.8418 84.118 44.6886 84.118H39.4988C39.3389 84.118 39.2656 84.0115 39.2656 83.7917Z" fill="white"/>
<path d="M52.7379 78.258C53.3241 79.1637 53.6173 80.3424 53.6173 81.794V88.9992C53.6173 90.4376 53.3241 91.6029 52.7379 92.5086C52.1516 93.4075 51.3721 93.8604 50.3995 93.8604C49.9264 93.8604 49.4934 93.7272 49.0804 93.4675C48.674 93.2078 48.3275 92.8282 48.0477 92.3288C48.0144 92.2888 47.9878 92.2688 47.9678 92.2822C47.9411 92.2955 47.9345 92.3221 47.9345 92.3621V93.2744C47.9345 93.4941 47.8545 93.6007 47.7013 93.6007H46.9285C46.7686 93.6007 46.6953 93.4941 46.6953 93.2744V71.0995C46.6953 70.8797 46.7753 70.7732 46.9285 70.7732H47.7013C47.8545 70.7732 47.9345 70.8797 47.9345 71.0995V78.4045C47.9345 78.4512 47.9478 78.4778 47.9811 78.4845C48.0144 78.4978 48.0344 78.4845 48.0544 78.4378C48.3342 77.9384 48.6806 77.5588 49.087 77.2991C49.4934 77.0394 49.9331 76.9062 50.4061 76.9062C51.3788 76.9062 52.1583 77.3591 52.7445 78.258H52.7379ZM51.7652 79.4034C51.3455 78.7641 50.7925 78.4445 50.1196 78.4445C49.4468 78.4445 48.9538 78.7641 48.5474 79.4034C48.141 80.0427 47.9345 80.8751 47.9345 81.9006V88.9126C47.9345 89.9381 48.141 90.7639 48.5474 91.3898C48.9538 92.0224 49.4801 92.3354 50.1196 92.3354C50.7592 92.3354 51.3388 92.0158 51.7652 91.3765C52.1849 90.7372 52.3981 89.9115 52.3981 88.9126V81.9006C52.3981 80.8817 52.1849 80.0493 51.7652 79.4034Z" fill="white"/>
<path d="M60.1525 77.3657C60.2591 77.4523 60.299 77.5921 60.2724 77.7919L60.0858 78.904C60.0392 79.0971 59.9393 79.157 59.7794 79.0704C59.5262 78.9373 59.2264 78.884 58.8667 78.904C58.2404 78.9239 57.7274 79.3634 57.341 80.2092C56.948 81.0549 56.7548 82.1003 56.7548 83.3389V93.2877C56.7548 93.5074 56.6748 93.614 56.5216 93.614H55.7488C55.5889 93.614 55.5156 93.5074 55.5156 93.2877V77.5056C55.5156 77.2858 55.5956 77.1793 55.7488 77.1793H56.5216C56.6748 77.1793 56.7548 77.2858 56.7548 77.5056V79.5299C56.7548 79.5965 56.7681 79.6298 56.8014 79.6298C56.8347 79.6298 56.8547 79.5965 56.8747 79.5299C57.0945 78.7442 57.3943 78.1382 57.7807 77.7053C58.1671 77.2725 58.6202 77.0527 59.1531 77.0527C59.5462 77.0527 59.8793 77.1593 60.1658 77.379L60.1525 77.3657Z" fill="white"/>
<path d="M67.6804 78.2581C68.2667 79.1638 68.5598 80.3424 68.5598 81.7941V88.966C68.5598 90.4243 68.2667 91.603 67.6804 92.502C67.0941 93.401 66.3147 93.8538 65.342 93.8538C64.869 93.8538 64.436 93.7206 64.0296 93.4609C63.6232 93.2012 63.2767 92.8216 62.9969 92.3222C62.9636 92.2822 62.937 92.2623 62.917 92.2756C62.8903 92.2889 62.8837 92.3155 62.8837 92.3555V99.6605C62.8837 99.8803 62.8037 99.9868 62.6505 99.9868H61.8777C61.7178 99.9868 61.6445 99.8803 61.6445 99.6605V77.4857C61.6445 77.2659 61.7245 77.1594 61.8777 77.1594H62.6505C62.8037 77.1594 62.8837 77.2659 62.8837 77.4857V78.398C62.8837 78.4446 62.897 78.4712 62.9303 78.4779C62.9636 78.4912 62.9836 78.4779 63.0036 78.4313C63.2834 77.9318 63.6298 77.5522 64.0362 77.2925C64.4426 77.0328 64.8823 76.8997 65.3487 76.8997C66.3213 76.8997 67.1008 77.3525 67.6871 78.2515L67.6804 78.2581ZM66.7077 79.4035C66.288 78.7642 65.7351 78.4446 65.0622 78.4446C64.3893 78.4446 63.8963 78.7576 63.4899 79.3902C63.0836 80.0228 62.877 80.8485 62.877 81.8674V88.9127C62.877 89.9382 63.0769 90.7639 63.4899 91.3899C63.8963 92.0225 64.4226 92.3355 65.0622 92.3355C65.7018 92.3355 66.2814 92.0159 66.7077 91.3766C67.1275 90.7373 67.3406 89.9116 67.3406 88.9127V81.8674C67.3406 80.8685 67.1275 80.0494 66.7077 79.4035Z" fill="white"/>
<path d="M70.4648 93.281V71.1061C70.4648 70.8863 70.5448 70.7798 70.698 70.7798H71.4708C71.6241 70.7798 71.704 70.8863 71.704 71.1061V84.8039C71.704 84.8505 71.7173 84.8771 71.7506 84.8838C71.7839 84.8971 71.8039 84.8838 71.8239 84.8372L75.7013 77.3657C75.7612 77.2325 75.8545 77.1725 75.9811 77.1725H76.8005C76.8938 77.1725 76.9537 77.2125 76.9871 77.2857C77.0204 77.359 77.0004 77.4522 76.9404 77.5654L74.662 82.0004C74.6287 82.047 74.622 82.1003 74.6353 82.1669L77.3868 93.2543L77.4134 93.3875C77.4134 93.5407 77.3401 93.6139 77.2002 93.6139H76.3808C76.2409 93.6139 76.1476 93.5273 76.101 93.3542L73.8692 83.6652C73.8559 83.532 73.8092 83.5253 73.7293 83.6319L71.7573 87.4143C71.724 87.4609 71.7107 87.5142 71.7107 87.5807V93.2876C71.7107 93.5074 71.6307 93.6139 71.4775 93.6139H70.7047C70.5448 93.6139 70.4715 93.5074 70.4715 93.2876L70.4648 93.281Z" fill="white"/>
<path d="M79.0861 68.9152C79.6524 70.5267 80.1121 72.5711 80.4718 75.0482C80.8316 77.5254 81.0115 80.0825 81.0115 82.7129C81.0115 85.3432 80.8316 88.0602 80.4718 90.6039C80.1121 93.1477 79.6324 95.232 79.0395 96.8635C78.9795 97.0167 78.8796 97.0899 78.7597 97.0899H78.0335C77.9536 97.0899 77.8936 97.05 77.8603 96.9767C77.8203 96.9035 77.8203 96.8169 77.847 96.7303C78.3666 95.0589 78.7863 92.9679 79.1128 90.4708C79.4392 87.9736 79.6058 85.4032 79.6058 82.7728C79.6058 80.1425 79.4392 77.6653 79.1128 75.2081C78.7863 72.7509 78.3599 70.7065 77.847 69.075L77.8203 68.9418C77.8203 68.7687 77.8936 68.6821 78.0335 68.6821H78.8063C78.9329 68.6821 79.0262 68.7554 79.0861 68.9085V68.9152Z" fill="white"/>
<path d="M87.4136 92.5152C86.7807 91.6162 86.4609 90.4309 86.4609 88.9792V81.8073C86.4609 80.3756 86.7807 79.1969 87.4269 78.2846C88.0665 77.3723 88.9059 76.9128 89.9386 76.9128C90.6248 76.9128 91.2377 77.1126 91.7706 77.5188C92.3036 77.9184 92.7167 78.4511 93.0031 79.117C93.2963 79.7829 93.4362 80.5021 93.4362 81.2879V81.481C93.4362 81.7007 93.3562 81.8073 93.203 81.8073L92.4302 81.8739C92.2703 81.8739 92.197 81.7673 92.197 81.5476V81.3545C92.197 80.5687 91.9838 79.8895 91.5641 79.3168C91.1444 78.7441 90.5981 78.4511 89.9452 78.4511C89.2923 78.4511 88.7527 78.7707 88.333 79.41C87.9199 80.0493 87.7134 80.8817 87.7134 81.9072V88.9192C87.7134 89.9181 87.9199 90.7438 88.333 91.3831C88.746 92.0224 89.2857 92.342 89.9452 92.342C90.6048 92.342 91.1444 92.0557 91.5641 91.4763C91.9838 90.9036 92.197 90.2178 92.197 89.4386V89.2788C92.197 89.0591 92.277 88.9525 92.4302 88.9525H93.203C93.3629 88.9525 93.4362 89.0591 93.4362 89.2788V89.5385C93.4362 90.3243 93.2896 91.0435 93.0031 91.7094C92.7167 92.3753 92.3036 92.9014 91.7706 93.2943C91.2377 93.6872 90.6248 93.8803 89.9386 93.8803C88.8859 93.8803 88.0465 93.4275 87.4136 92.5285V92.5152Z" fill="white"/>
<path d="M101.324 78.3911C101.924 79.3833 102.23 80.7018 102.23 82.3533V93.2809C102.23 93.5007 102.151 93.6072 101.997 93.6072H101.225C101.065 93.6072 100.991 93.5007 100.991 93.2809V92.1089C100.991 92.0423 100.978 92.009 100.958 91.9957C100.931 91.9824 100.905 91.9957 100.878 92.0423C100.298 93.2609 99.3924 93.8669 98.1533 93.8669C97.3205 93.8669 96.601 93.5273 95.9947 92.8547C95.3818 92.1822 95.082 90.9968 95.082 89.2988C95.082 87.4941 95.4484 86.169 96.1746 85.3166C96.9008 84.4709 97.8668 84.0447 99.0726 84.0447H100.905C100.965 84.0447 100.998 84.0048 100.998 83.9115V82.4132C100.998 81.1946 100.805 80.229 100.412 79.5099C100.019 78.7907 99.479 78.4311 98.7928 78.4311C98.2599 78.4311 97.7935 78.6708 97.3938 79.1503C96.9941 79.6297 96.7609 80.249 96.7009 81.0082C96.7009 81.2279 96.621 81.3345 96.4678 81.3345L95.6217 81.2679C95.5417 81.2679 95.4818 81.2346 95.4484 81.168C95.4085 81.1014 95.3952 81.0281 95.4151 80.9416C95.5084 79.7229 95.8748 78.7441 96.5211 78.0049C97.1606 77.2657 97.9401 76.8928 98.8461 76.8928C99.9121 76.8928 100.745 77.3856 101.351 78.3778L101.324 78.3911ZM100.219 91.3897C100.725 90.7571 100.985 89.8714 100.985 88.7128V85.6163C100.985 85.5297 100.951 85.4831 100.891 85.4831H99.0593C98.2465 85.4831 97.5936 85.7961 97.1007 86.4154C96.6077 87.0347 96.3612 87.9536 96.3612 89.1722C96.3612 90.2377 96.5477 91.0301 96.9274 91.5562C97.3005 92.0756 97.7935 92.342 98.4064 92.342C99.1126 92.342 99.7189 92.029 100.225 91.3964L100.219 91.3897Z" fill="white"/>
<path d="M110.225 78.2581C110.812 79.1638 111.105 80.3424 111.105 81.7941V88.966C111.105 90.4243 110.812 91.603 110.225 92.502C109.639 93.401 108.86 93.8538 107.887 93.8538C107.414 93.8538 106.981 93.7206 106.574 93.4609C106.168 93.2012 105.822 92.8216 105.542 92.3222C105.509 92.2822 105.482 92.2623 105.462 92.2756C105.435 92.2889 105.429 92.3155 105.429 92.3555V99.6605C105.429 99.8803 105.349 99.9868 105.195 99.9868H104.423C104.263 99.9868 104.189 99.8803 104.189 99.6605V77.4857C104.189 77.2659 104.269 77.1594 104.423 77.1594H105.195C105.349 77.1594 105.429 77.2659 105.429 77.4857V78.398C105.429 78.4446 105.442 78.4712 105.475 78.4779C105.509 78.4912 105.529 78.4779 105.549 78.4313C105.828 77.9318 106.175 77.5522 106.581 77.2925C106.988 77.0328 107.427 76.8997 107.894 76.8997C108.866 76.8997 109.646 77.3525 110.232 78.2515L110.225 78.2581ZM109.253 79.4035C108.833 78.7642 108.28 78.4446 107.607 78.4446C106.934 78.4446 106.441 78.7576 106.035 79.3902C105.628 80.0228 105.422 80.8485 105.422 81.8674V88.9127C105.422 89.9382 105.622 90.7639 106.035 91.3899C106.441 92.0225 106.968 92.3355 107.607 92.3355C108.247 92.3355 108.826 92.0159 109.253 91.3766C109.672 90.7373 109.886 89.9116 109.886 88.9127V81.8674C109.886 80.8685 109.672 80.0494 109.253 79.4035Z" fill="white"/>
<path d="M113.795 92.6085C113.176 91.8361 112.869 90.8438 112.869 89.6252V89.4321C112.869 89.2124 112.949 89.1058 113.102 89.1058H113.828C113.988 89.1058 114.062 89.2124 114.062 89.4321V89.6252C114.062 90.411 114.262 91.0569 114.675 91.583C115.088 92.1091 115.607 92.3688 116.247 92.3688C116.886 92.3688 117.379 92.1024 117.759 91.5697C118.146 91.037 118.332 90.3444 118.332 89.4987C118.332 88.8661 118.225 88.3467 118.006 87.9338C117.786 87.5209 117.513 87.188 117.186 86.9416C116.86 86.6885 116.413 86.4022 115.847 86.0759C115.234 85.7296 114.735 85.3834 114.341 85.0504C113.948 84.7108 113.615 84.2447 113.342 83.6453C113.069 83.046 112.929 82.2935 112.929 81.3812C112.929 80.0561 113.229 78.9973 113.822 78.2181C114.415 77.439 115.208 77.0461 116.194 77.0461C117.18 77.0461 117.992 77.4457 118.592 78.2514C119.185 79.0572 119.485 80.1027 119.485 81.3812V81.4811C119.485 81.7009 119.405 81.8074 119.251 81.8074H118.545C118.392 81.8074 118.312 81.7009 118.312 81.4811V81.3213C118.312 80.5155 118.119 79.843 117.726 79.2969C117.333 78.7509 116.826 78.4845 116.2 78.4845C115.574 78.4845 115.074 78.7509 114.695 79.2836C114.321 79.8163 114.128 80.5089 114.128 81.3546C114.128 81.9406 114.228 82.4334 114.435 82.8196C114.641 83.2125 114.894 83.5255 115.201 83.7652C115.507 84.0049 115.934 84.2979 116.48 84.6442C117.12 85.0171 117.653 85.37 118.066 85.703C118.479 86.0426 118.838 86.5154 119.132 87.1214C119.431 87.7274 119.578 88.4998 119.578 89.4388C119.578 90.744 119.271 91.7894 118.665 92.5885C118.052 93.381 117.246 93.7805 116.247 93.7805C115.248 93.7805 114.408 93.3943 113.789 92.6218L113.795 92.6085Z" fill="white"/>
<path d="M127.2 77.1659H127.973C128.133 77.1659 128.206 77.2725 128.206 77.4922V93.2743C128.206 93.4941 128.126 93.6006 127.973 93.6006H127.2C127.04 93.6006 126.967 93.4941 126.967 93.2743V92.1023C126.967 92.0357 126.954 92.0024 126.934 91.9891C126.907 91.9758 126.881 91.9891 126.854 92.0357C126.354 93.2344 125.555 93.827 124.456 93.827C123.516 93.827 122.77 93.4275 122.224 92.635C121.677 91.8426 121.404 90.6506 121.404 89.0658V77.4855C121.404 77.2658 121.484 77.1592 121.637 77.1592H122.41C122.57 77.1592 122.643 77.2658 122.643 77.4855V88.6729C122.643 89.8715 122.83 90.7705 123.196 91.3765C123.563 91.9824 124.082 92.2888 124.755 92.2888C125.428 92.2888 125.988 91.9425 126.374 91.2433C126.767 90.5507 126.961 89.5918 126.961 88.3732V77.4789C126.961 77.2591 127.04 77.1526 127.194 77.1526L127.2 77.1659Z" fill="white"/>
<path d="M130.344 93.281V71.1061C130.344 70.8863 130.424 70.7798 130.577 70.7798H131.35C131.51 70.7798 131.583 70.8863 131.583 71.1061V93.281C131.583 93.5007 131.503 93.6073 131.35 93.6073H130.577C130.417 93.6073 130.344 93.5007 130.344 93.281Z" fill="white"/>
<path d="M140.444 86.0092H135.041C134.981 86.0092 134.948 86.0558 134.948 86.1424V88.9126C134.948 89.9114 135.155 90.7372 135.568 91.3765C135.981 92.0157 136.52 92.3354 137.18 92.3354C137.726 92.3354 138.199 92.109 138.592 91.6495C138.985 91.19 139.239 90.5973 139.365 89.8582C139.412 89.6651 139.498 89.5652 139.625 89.5652L140.378 89.6318C140.438 89.6318 140.498 89.6517 140.544 89.6983C140.591 89.745 140.604 89.8049 140.591 89.8915V90.0247C140.431 91.2233 140.058 92.1622 139.465 92.8481C138.872 93.534 138.113 93.8736 137.187 93.8736C136.154 93.8736 135.315 93.4208 134.675 92.5218C134.035 91.6228 133.709 90.4508 133.709 89.0125V81.8073C133.709 80.3756 134.029 79.1969 134.675 78.2846C135.315 77.3723 136.154 76.9128 137.187 76.9128C138.219 76.9128 139.079 77.3723 139.725 78.2846C140.364 79.1969 140.691 80.3689 140.691 81.8073V85.6896C140.691 85.9093 140.611 86.0159 140.458 86.0159L140.444 86.0092ZM135.574 79.4034C135.161 80.0426 134.955 80.875 134.955 81.9005V84.3777C134.955 84.4643 134.988 84.5109 135.048 84.5109H139.345C139.405 84.5109 139.438 84.4709 139.438 84.3777V81.9005C139.438 80.8817 139.232 80.0493 138.819 79.4034C138.406 78.7641 137.859 78.4444 137.187 78.4444C136.514 78.4444 135.994 78.7641 135.574 79.4034Z" fill="white"/>
<path d="M142.809 92.6085C142.189 91.8361 141.883 90.8438 141.883 89.6252V89.4321C141.883 89.2124 141.963 89.1058 142.116 89.1058H142.842C143.002 89.1058 143.075 89.2124 143.075 89.4321V89.6252C143.075 90.411 143.275 91.0569 143.688 91.583C144.101 92.1091 144.621 92.3688 145.261 92.3688C145.9 92.3688 146.393 92.1024 146.773 91.5697C147.159 91.037 147.346 90.3444 147.346 89.4987C147.346 88.8661 147.239 88.3467 147.019 87.9338C146.799 87.5209 146.526 87.188 146.2 86.9416C145.873 86.6885 145.427 86.4022 144.861 86.0759C144.248 85.7296 143.748 85.3834 143.355 85.0504C142.962 84.7108 142.629 84.2447 142.356 83.6453C142.083 83.046 141.943 82.2935 141.943 81.3812C141.943 80.0561 142.243 78.9973 142.835 78.2181C143.428 77.439 144.221 77.0461 145.207 77.0461C146.193 77.0461 147.006 77.4457 147.606 78.2514C148.198 79.0572 148.498 80.1027 148.498 81.3812V81.4811C148.498 81.7009 148.418 81.8074 148.265 81.8074H147.559C147.406 81.8074 147.326 81.7009 147.326 81.4811V81.3213C147.326 80.5155 147.133 79.843 146.739 79.2969C146.346 78.7509 145.84 78.4845 145.214 78.4845C144.588 78.4845 144.088 78.7509 143.708 79.2836C143.335 79.8163 143.142 80.5089 143.142 81.3546C143.142 81.9406 143.242 82.4334 143.448 82.8196C143.655 83.2125 143.908 83.5255 144.215 83.7652C144.521 84.0049 144.947 84.2979 145.494 84.6442C146.133 85.0171 146.666 85.37 147.079 85.703C147.492 86.0426 147.852 86.5154 148.145 87.1214C148.445 87.7274 148.592 88.4998 148.592 89.4388C148.592 90.744 148.285 91.7894 147.679 92.5885C147.066 93.381 146.26 93.7805 145.261 93.7805C144.261 93.7805 143.422 93.3943 142.802 92.6218L142.809 92.6085Z" fill="white"/>
<path d="M6.28906 2.95654H10.3063L17.4414 18.7187C17.7679 19.4445 18.061 20.157 18.3342 20.8696C18.9538 22.4611 19.4334 23.7596 19.7665 24.7652H19.9397C20.1196 24.1858 20.3195 23.5932 20.5393 23.0005L21.2389 21.1026C21.512 20.4034 21.8118 19.6909 22.1516 18.9717L29.4066 2.95654H33.2107L20.606 30.7983H18.9005L6.28906 2.95654Z" fill="white"/>
<path d="M66.6406 2.95654H70.8111C74.8484 12.9719 76.9802 18.2792 77.2134 18.8718C77.7464 20.3169 78.0928 21.3024 78.2594 21.8218L78.7457 23.2003H78.9189C79.0855 22.5943 79.2653 21.975 79.4652 21.3424L80.1248 19.2847C80.3712 18.5322 80.6444 17.7531 80.9375 16.9407L85.9608 2.9632H87.0667L92.2432 16.6477L94.475 23.2003H94.6482L96.0272 18.7786C96.2737 18.0062 96.5269 17.2736 96.7867 16.5878L101.73 2.95654H105.9L95.0746 30.7983H93.9686L88.0727 15.2493C87.9061 14.8364 87.7329 14.3636 87.5663 13.8309L86.5204 10.6345H86.4071L85.9008 12.3193C85.7609 12.7987 85.601 13.2982 85.4345 13.8109L79.3453 30.7917H78.2394L66.6406 2.95654Z" fill="white"/>
<path d="M108.086 24.2258C110.491 25.7773 112.936 26.7962 115.421 27.289C116.261 27.4554 117.114 27.542 117.98 27.542C118.846 27.542 119.738 27.4621 120.664 27.3023C121.59 27.1425 122.41 26.8694 123.116 26.4965C124.722 25.6442 125.521 24.3323 125.521 22.561C125.521 20.7897 124.175 19.4645 121.484 18.7387C120.698 18.5322 119.852 18.3458 118.959 18.1793L116.187 17.6932C112.657 17.0872 110.192 16.1949 108.799 15.0162C107.507 13.9441 106.861 12.4991 106.861 10.6745C106.861 8.19061 108.053 6.18621 110.431 4.64796C112.55 3.26286 115.055 2.57031 117.94 2.57031C120.824 2.57031 123.196 3.02313 125.408 3.92877C126.194 4.24175 127.02 4.62798 127.873 5.09412L126.554 8.2572C124.682 7.13181 122.47 6.40597 119.918 6.06635C119.119 5.95315 118.339 5.89321 117.593 5.89321C115.874 5.89321 114.355 6.21951 113.036 6.87876C111.497 7.65122 110.731 8.73 110.731 10.0951C110.731 11.5401 111.711 12.6056 113.663 13.2715C114.542 13.5845 115.535 13.8309 116.647 14.0307L120.098 14.63C123.01 15.176 125.021 15.7887 126.147 16.4746C127.273 17.1604 128.106 17.9262 128.639 18.772C129.179 19.6177 129.445 20.743 129.445 22.1481C129.445 23.5532 129.112 24.8051 128.459 25.9172C127.806 27.0293 126.92 27.9482 125.821 28.6674C123.676 30.0991 120.938 30.8183 117.613 30.8183C114.509 30.8183 111.591 30.1457 108.866 28.8006C107.973 28.3611 107.147 27.855 106.381 27.289L108.086 24.2258Z" fill="white"/>
<path d="M140.583 6.21285H130.264V2.95654H154.487V6.21285H144.168V30.4054H140.577V6.21285H140.583Z" fill="white"/>
<path d="M65.2687 7.83778C63.7031 5.40721 61.5779 3.48272 58.9397 2.1176C56.2215 0.712526 53.2502 0 50.1057 0C46.9612 0 43.7434 0.745821 40.9653 2.21083C39.6395 2.91004 38.4204 3.77572 37.3411 4.78125C36.2618 5.78677 35.3225 6.93214 34.543 8.18406C33.7702 9.43597 33.1639 10.8277 32.7442 12.3061C32.3245 13.791 32.1113 15.5757 32.1113 17.6134C32.1113 19.6511 32.5777 21.6555 33.497 23.6399C34.4164 25.631 35.6889 27.369 37.2745 28.8074C38.8667 30.2457 40.7454 31.3778 42.8706 32.1835C44.9959 32.9826 47.0944 33.3888 49.1197 33.3888C51.145 33.3888 52.9771 33.1957 54.5227 32.8161C57.6073 32.0503 60.2721 30.6386 62.4506 28.6142C65.9682 25.3446 67.6804 21.3292 67.6804 16.3481C67.6804 13.245 66.8743 10.3882 65.2754 7.84444L65.2687 7.83778ZM59.879 26.5765C57.2142 29.0937 53.9231 30.3722 50.099 30.3722C46.275 30.3722 42.7707 29.0071 40.0126 26.3102C38.7201 25.0516 37.6875 23.5533 36.948 21.8619C36.2019 20.1638 35.8288 18.3192 35.8288 16.3814C35.8288 14.4436 36.1952 12.639 36.9147 11.0208C37.6342 9.40268 38.6335 7.98428 39.8927 6.80562C41.1452 5.62696 42.6308 4.68802 44.2963 4.02211C45.9685 3.34954 47.9538 3.00992 50.199 3.00992C52.4441 3.00992 54.7159 3.6492 56.8811 4.90777C59.0729 6.16634 60.7984 7.8511 62.0109 9.92209C63.3034 12.0996 63.9563 14.4969 63.9563 17.0473C63.9563 20.8164 62.5839 24.0261 59.8857 26.5765H59.879Z" fill="#F3E964"/>
<path d="M48.966 29.0537C50.7615 29.0537 52.2171 27.5988 52.2171 25.8041C52.2171 24.0094 50.7615 22.5544 48.966 22.5544C47.1704 22.5544 45.7148 24.0094 45.7148 25.8041C45.7148 27.5988 47.1704 29.0537 48.966 29.0537Z" fill="#7490FF"/>
<path d="M42.837 25.5842C44.1579 25.5842 45.2287 24.5139 45.2287 23.1936C45.2287 21.8733 44.1579 20.803 42.837 20.803C41.5161 20.803 40.4453 21.8733 40.4453 23.1936C40.4453 24.5139 41.5161 25.5842 42.837 25.5842Z" fill="#93DEF9"/>
<path d="M54.2432 22.8009C55.4206 22.8009 56.3751 21.8469 56.3751 20.67C56.3751 19.4931 55.4206 18.5391 54.2432 18.5391C53.0658 18.5391 52.1113 19.4931 52.1113 20.67C52.1113 21.8469 53.0658 22.8009 54.2432 22.8009Z" fill="#93DEF9"/>
<path d="M43.2842 18.126C44.193 18.126 44.9298 17.3896 44.9298 16.4812C44.9298 15.5728 44.193 14.8364 43.2842 14.8364C42.3754 14.8364 41.6387 15.5728 41.6387 16.4812C41.6387 17.3896 42.3754 18.126 43.2842 18.126Z" fill="#5B7CFF"/>
<path d="M58.4873 25.5977C59.3961 25.5977 60.1329 24.8613 60.1329 23.9529C60.1329 23.0445 59.3961 22.3081 58.4873 22.3081C57.5785 22.3081 56.8418 23.0445 56.8418 23.9529C56.8418 24.8613 57.5785 25.5977 58.4873 25.5977Z" fill="#7490FF"/>
<path d="M46.7607 21.1027C47.32 21.1027 47.7733 20.6496 47.7733 20.0906C47.7733 19.5315 47.32 19.0784 46.7607 19.0784C46.2014 19.0784 45.748 19.5315 45.748 20.0906C45.748 20.6496 46.2014 21.1027 46.7607 21.1027Z" fill="#4BC8F5"/>
<path d="M60.1181 20.6232C60.6774 20.6232 61.1308 20.1701 61.1308 19.6111C61.1308 19.052 60.6774 18.5989 60.1181 18.5989C59.5588 18.5989 59.1055 19.052 59.1055 19.6111C59.1055 20.1701 59.5588 20.6232 60.1181 20.6232Z" fill="#4BC8F5"/>
<path d="M39.7526 21.0429C40.2566 21.0429 40.6653 20.6344 40.6653 20.1306C40.6653 19.6267 40.2566 19.2183 39.7526 19.2183C39.2485 19.2183 38.8398 19.6267 38.8398 20.1306C38.8398 20.6344 39.2485 21.0429 39.7526 21.0429Z" fill="#7490FF"/>
<path d="M55.0966 27.3757C55.6559 27.3757 56.1093 26.9225 56.1093 26.3635C56.1093 25.8045 55.6559 25.3513 55.0966 25.3513C54.5374 25.3513 54.084 25.8045 54.084 26.3635C54.084 26.9225 54.5374 27.3757 55.0966 27.3757Z" fill="#4BC8F5"/>
<path d="M156.24 4.90122V4.88791C156.24 3.7492 157.166 2.79028 158.325 2.79028C159.485 2.79028 160.411 3.73588 160.411 4.87459V4.88791C160.411 6.02662 159.485 6.98553 158.325 6.98553C157.166 6.98553 156.24 6.03993 156.24 4.90122ZM160.171 4.89456V4.88125C160.171 3.8624 159.378 3.02335 158.325 3.02335C157.273 3.02335 156.48 3.87572 156.48 4.89456V4.90788C156.48 5.92673 157.273 6.76578 158.325 6.76578C159.378 6.76578 160.171 5.91341 160.171 4.89456ZM157.459 3.76251H158.479C158.985 3.76251 159.351 3.98892 159.351 4.4817C159.351 4.82797 159.158 5.05438 158.872 5.15427L159.425 5.93339H158.792L158.325 5.2475H157.992V5.93339H157.466V3.76251H157.459ZM158.445 4.82131C158.685 4.82131 158.818 4.70145 158.818 4.52165C158.818 4.32854 158.672 4.22199 158.445 4.22199H157.992V4.82131H158.445Z" fill="white"/>
</g>
<defs>
<clipPath id="clip0_34_551">
<rect width="166" height="100" fill="white"/>
</clipPath>
</defs>
</svg>
