<svg width="96" height="50" viewBox="0 0 96 50" fill="none" xmlns="http://www.w3.org/2000/svg">
<path d="M0 0.000113994L96 0V21.0937C96 37.0582 83.0583 49.9999 67.0938 49.9999L0 50V0.000113994Z" fill="#9F248B"/>
<path d="M43.006 39.8437H34.1118C33.4447 39.8437 33 39.399 33 38.7319V12.0493C33 11.3822 33.4447 10.9375 34.1118 10.9375H43.006C43.6731 10.9375 44.1178 11.3822 44.1178 12.0493C44.1178 12.7163 43.6731 13.1611 43.006 13.1611H35.2236V37.6201H43.006C43.6731 37.6201 44.1178 38.0648 44.1178 38.7319C44.1178 39.399 43.6731 39.8437 43.006 39.8437ZM53.012 35.3966C52.6784 35.3966 52.4561 35.2854 52.2337 35.063C51.789 34.6183 51.789 33.9513 52.2337 33.5066L59.2379 26.5024H39.6707C39.0036 26.5024 38.5589 26.0577 38.5589 25.3906C38.5589 24.7235 39.0036 24.2788 39.6707 24.2788H59.2379L52.2337 17.2746C51.789 16.8299 51.789 16.1628 52.2337 15.7181C52.6784 15.2734 53.3455 15.2734 53.7902 15.7181L62.6844 24.6123C62.7956 24.7235 62.9068 24.8347 62.9068 24.9459C62.9068 25.0571 63.018 25.1682 63.018 25.3906C63.018 25.5018 63.018 25.7241 62.9068 25.8353C62.9068 25.9465 62.7956 26.0577 62.6844 26.1688L53.7902 35.063C53.5679 35.2854 53.3455 35.3966 53.012 35.3966Z" fill="white"/>
</svg>
