<svg xmlns="http://www.w3.org/2000/svg" viewBox="0 0 242.41 139.51"><defs><style>.a{isolation:isolate;}.b{fill:#1d1d1b;}.c{fill:#a4167f;}.d{fill:#fff;}.e{fill:#e0c1dd;}.e,.f,.h,.i,.j{mix-blend-mode:multiply;}.f{fill:#bd66a4;}.g{fill:#7b9bd1;}.h{fill:#8da7d7;}.i{fill:#d0d8ef;}.j{fill:#b44d96;}</style></defs><g class="a"><path class="b" d="M63.91,155.92h3.76c4.08,0,5.29,2.81,5.29,5.71,0,3.24-1.65,5.74-5.33,5.74H63.91Zm.71,10.84H67.7c2.13,0,4.55-1.17,4.55-5.13,0-4.68-3-5.1-4.7-5.1H64.62Z" transform="translate(-20.75 -30.81)"/><path class="b" d="M75.1,163.33c0,1.94,1,3.7,3,3.7a2.85,2.85,0,0,0,3-2.45h.61a3.32,3.32,0,0,1-3.56,3c-2.41,0-3.67-1.89-3.64-4.17s1.15-4.46,3.64-4.46,3.73,2,3.62,4.4Zm6-.53a3.13,3.13,0,0,0-3-3.34c-1.83,0-2.9,1.7-3,3.34Z" transform="translate(-20.75 -30.81)"/><path class="b" d="M84.24,155.92v11.45h-.61V155.92Z" transform="translate(-20.75 -30.81)"/><path class="b" d="M92.55,165.84c0,.49,0,1,.54,1a3.2,3.2,0,0,0,.45-.05v.51a2.31,2.31,0,0,1-.5.07c-1,0-1.1-.53-1.1-1.2v-.44h0a3.19,3.19,0,0,1-3.07,1.83c-1.55,0-2.76-.59-2.76-2.32,0-1.93,1.67-2.33,3-2.44,2.72-.2,2.83-.37,2.83-1.72,0-.37-.41-1.62-2.29-1.62a2.25,2.25,0,0,0-2.53,2.2h-.61c.08-1.81,1.2-2.73,3.14-2.73,1.44,0,2.89.45,2.89,2.15Zm-.61-3.15c-.48.54-1.8.48-3,.64-1.45.16-2.27.67-2.27,1.91,0,1,.73,1.79,2.17,1.79a2.87,2.87,0,0,0,3.08-2.8Z" transform="translate(-20.75 -30.81)"/><path class="b" d="M93.7,159.13h.72l3.06,7.52,2.82-7.52H101l-3.53,9.12a4.49,4.49,0,0,1-1,1.7,3,3,0,0,1-1.92.37v-.53a2.08,2.08,0,0,0,1.71-.53,6.46,6.46,0,0,0,.85-1.94Z" transform="translate(-20.75 -30.81)"/><path class="b" d="M102.2,163.33c0,1.94,1,3.7,3,3.7a2.85,2.85,0,0,0,3-2.45h.61a3.32,3.32,0,0,1-3.56,3c-2.4,0-3.67-1.89-3.64-4.17s1.16-4.46,3.64-4.46,3.74,2,3.62,4.4Zm6-.53a3.13,3.13,0,0,0-3-3.34c-1.83,0-2.9,1.7-3,3.34Z" transform="translate(-20.75 -30.81)"/><path class="b" d="M117,165.6h0a3.3,3.3,0,0,1-3.16,2c-2.48,0-3.56-2-3.56-4.3s1.19-4.33,3.68-4.33a3.11,3.11,0,0,1,3,2h0v-5.05h.61v11.45H117Zm0-2.34c0-1.92-1-3.8-3.06-3.8s-3.07,1.82-3.07,3.8,1,3.77,3.08,3.77S117,165.16,117,163.26Z" transform="translate(-20.75 -30.81)"/><path class="b" d="M119.89,163.31v-.61h3.43v.61Z" transform="translate(-20.75 -30.81)"/><path class="b" d="M125.71,155.92h4.78c2,0,3.62.74,3.62,3a2.81,2.81,0,0,1-2.45,2.93v0a2.32,2.32,0,0,1,2.23,2.45c.11,1.19-.08,2.47.38,3.08h-.79c-.43-.79-.17-2.1-.3-3.21s-.69-2-2.69-2h-4.08v5.21h-.7Zm4.78,5.63c1.66,0,2.91-.79,2.91-2.63s-1.37-2.39-2.91-2.39h-4.08v5Z" transform="translate(-20.75 -30.81)"/><path class="b" d="M136.27,163.33c0,1.94,1,3.7,3,3.7a2.84,2.84,0,0,0,2.95-2.45h.61a3.32,3.32,0,0,1-3.56,3c-2.4,0-3.67-1.89-3.64-4.17s1.16-4.46,3.64-4.46,3.74,2,3.63,4.4Zm6-.53a3.13,3.13,0,0,0-3-3.34c-1.82,0-2.9,1.7-3,3.34Z" transform="translate(-20.75 -30.81)"/><path class="b" d="M145.41,155.92v11.45h-.6V155.92Z" transform="translate(-20.75 -30.81)"/><path class="b" d="M147.89,163.33c0,1.94,1,3.7,3,3.7a2.85,2.85,0,0,0,2.95-2.45h.6a3.32,3.32,0,0,1-3.55,3c-2.41,0-3.68-1.89-3.64-4.17s1.15-4.46,3.64-4.46,3.73,2,3.62,4.4Zm6.05-.53a3.13,3.13,0,0,0-3-3.34c-1.83,0-2.91,1.7-3,3.34Z" transform="translate(-20.75 -30.81)"/><path class="b" d="M162.41,165.84c0,.49,0,1,.54,1a3.2,3.2,0,0,0,.45-.05v.51a2.23,2.23,0,0,1-.5.07c-1,0-1.1-.53-1.1-1.2v-.44h0a3.19,3.19,0,0,1-3.07,1.83c-1.55,0-2.75-.59-2.75-2.32,0-1.93,1.66-2.33,3-2.44,2.72-.2,2.83-.37,2.83-1.72,0-.37-.41-1.62-2.29-1.62a2.25,2.25,0,0,0-2.53,2.2h-.61c.08-1.81,1.2-2.73,3.14-2.73,1.44,0,2.89.45,2.89,2.15Zm-.61-3.15c-.48.54-1.8.48-3,.64-1.45.16-2.26.67-2.26,1.91,0,1,.72,1.79,2.16,1.79a2.87,2.87,0,0,0,3.08-2.8Z" transform="translate(-20.75 -30.81)"/><path class="b" d="M164.91,164.63a2.51,2.51,0,0,0,2.72,2.4c1.07,0,2.61-.32,2.61-1.75s-1.41-1.6-2.82-1.89-2.84-.65-2.84-2.34,1.59-2.12,3-2.12c1.74,0,3,.76,3,2.63H170c0-1.49-1.05-2.1-2.43-2.1-1.13,0-2.38.42-2.38,1.59s1.41,1.52,2.74,1.81c1.64.31,2.92.69,2.92,2.42s-1.78,2.28-3.22,2.28c-1.88,0-3.29-1-3.33-2.93Z" transform="translate(-20.75 -30.81)"/><path class="b" d="M172.87,163.33c0,1.94,1,3.7,3,3.7a2.84,2.84,0,0,0,2.95-2.45h.61a3.32,3.32,0,0,1-3.56,3c-2.4,0-3.67-1.89-3.63-4.17s1.15-4.46,3.63-4.46,3.74,2,3.63,4.4Zm6-.53a3.13,3.13,0,0,0-3-3.34c-1.82,0-2.9,1.7-3,3.34Z" transform="translate(-20.75 -30.81)"/><path class="b" d="M194,159.34a3.75,3.75,0,0,0-3.9-3.08c-3,0-4.74,2.45-4.74,5.38s1.74,5.39,4.74,5.39a4.32,4.32,0,0,0,4.09-4.12h.71a5,5,0,0,1-4.8,4.73c-3.43,0-5.45-2.65-5.45-6s2-6,5.45-6a4.38,4.38,0,0,1,4.61,3.69Z" transform="translate(-20.75 -30.81)"/><path class="b" d="M202.6,165.84c0,.49,0,1,.54,1a3.2,3.2,0,0,0,.45-.05v.51a2.31,2.31,0,0,1-.5.07c-1,0-1.1-.53-1.1-1.2v-.44h0a3.16,3.16,0,0,1-3.06,1.83c-1.55,0-2.75-.59-2.75-2.32,0-1.93,1.66-2.33,3-2.44,2.73-.2,2.84-.37,2.84-1.72,0-.37-.41-1.62-2.29-1.62a2.25,2.25,0,0,0-2.53,2.2h-.61c.08-1.81,1.2-2.73,3.14-2.73,1.44,0,2.89.45,2.89,2.15Zm-.61-3.15c-.49.54-1.8.48-3,.64-1.44.16-2.26.67-2.26,1.91,0,1,.73,1.79,2.17,1.79a2.87,2.87,0,0,0,3.08-2.8Z" transform="translate(-20.75 -30.81)"/><path class="b" d="M205.66,161h0a3.09,3.09,0,0,1,3-2.09c2.53,0,3.7,2,3.7,4.33,0,2.5-1.18,4.3-3.7,4.3a2.94,2.94,0,0,1-3-1.91h0v4.67h-.61V159.13h.61Zm6.13,2.24c0-1.87-.89-3.8-3.1-3.8s-3,1.85-3,3.8.69,3.77,3,3.77C210.84,167,211.79,165.3,211.79,163.26Z" transform="translate(-20.75 -30.81)"/><path class="b" d="M214.43,164.63a2.52,2.52,0,0,0,2.73,2.4c1.07,0,2.61-.32,2.61-1.75s-1.41-1.6-2.82-1.89-2.84-.65-2.84-2.34,1.59-2.12,3-2.12c1.74,0,3,.76,3,2.63h-.61c0-1.49-1.06-2.1-2.43-2.1-1.13,0-2.38.42-2.38,1.59s1.41,1.52,2.74,1.81c1.64.31,2.92.69,2.92,2.42s-1.78,2.28-3.22,2.28c-1.88,0-3.29-1-3.34-2.93Z" transform="translate(-20.75 -30.81)"/><path class="b" d="M228.69,167.37h-.61V165.6h0a3.05,3.05,0,0,1-3,2c-2.9,0-2.93-2.32-2.93-3.33v-5.1h.6v5.21c0,.85.1,2.69,2.34,2.69,1.85,0,3-1.43,3-3.45v-4.45h.61Z" transform="translate(-20.75 -30.81)"/><path class="b" d="M231.57,155.92v11.45H231V155.92Z" transform="translate(-20.75 -30.81)"/><path class="b" d="M234.05,163.33c0,1.94,1,3.7,3,3.7a2.84,2.84,0,0,0,2.95-2.45h.61a3.32,3.32,0,0,1-3.56,3c-2.4,0-3.67-1.89-3.64-4.17s1.16-4.46,3.64-4.46,3.74,2,3.63,4.4Zm6-.53a3.14,3.14,0,0,0-3-3.34c-1.82,0-2.9,1.7-3,3.34Z" transform="translate(-20.75 -30.81)"/><path class="b" d="M242.75,164.63a2.52,2.52,0,0,0,2.73,2.4c1.07,0,2.61-.32,2.61-1.75s-1.41-1.6-2.82-1.89-2.84-.65-2.84-2.34,1.59-2.12,3-2.12c1.74,0,3,.76,3,2.63h-.61c0-1.49-1.06-2.1-2.43-2.1-1.13,0-2.38.42-2.38,1.59s1.41,1.52,2.74,1.81c1.64.31,2.92.69,2.92,2.42s-1.78,2.28-3.22,2.28c-1.88,0-3.29-1-3.34-2.93Z" transform="translate(-20.75 -30.81)"/><path class="b" d="M60.87,151.87a24.53,24.53,0,0,1,0-28.21h.83a23.72,23.72,0,0,0,0,28.21Z" transform="translate(-20.75 -30.81)"/><path class="b" d="M63.93,130h.64v4.31h.06c1.21-3.15,4.05-4.81,7.78-4.81,5.9,0,8.51,4,8.51,8.49s-2.61,8.49-8.51,8.49c-3.25,0-6.44-1.25-7.78-4.84h-.06v10.64h-.64Zm8.48,15.85c5.58,0,7.88-3.77,7.88-7.86s-2.3-7.86-7.88-7.86-7.84,3.77-7.84,7.86S66.86,145.81,72.41,145.81Z" transform="translate(-20.75 -30.81)"/><path class="b" d="M100.47,145.72a4.9,4.9,0,0,1-1.5.22c-1.08,0-1.72-.44-1.72-1.59v-1.91h-.06c-1.06,2.12-3.42,4-8.17,4-3.89,0-6.47-1.63-6.47-4.84,0-2.71,1.88-4.37,5.33-4.49l5.38-.19c3.45-.12,4-.47,4-2.4v-.88c0-2.59-2.33-3.55-6.76-3.55-4.69,0-6.31,1.31-6.57,4.71h-.64c.23-4.27,3.06-5.34,7.21-5.34,5.17,0,7.4,1.34,7.4,4.15V144c0,.94.19,1.34,1.08,1.34a6.18,6.18,0,0,0,1.5-.22Zm-3.22-9.14h-.06c-.35.59-1.89.87-4.28,1l-5,.19c-3.38.13-4.75,1.69-4.75,3.9,0,2.87,2.55,4.18,5.87,4.18,5.57,0,8.19-2.87,8.19-6.27Z" transform="translate(-20.75 -30.81)"/><path class="b" d="M102,130h.64v3.59h.06c1.28-2.84,3.8-4.09,7.37-4.09,6.25,0,7.33,3.37,7.33,6.43v10.05h-.63V135.89c0-2.68-.83-5.8-6.7-5.8-6.79,0-7.43,4.83-7.43,6.89v9H102Z" transform="translate(-20.75 -30.81)"/><path class="b" d="M137.9,140.51c-.89,3.56-3.66,5.93-8.61,5.93-5.54,0-9-3.62-9-8.49s3.45-8.49,9-8.49c4.79,0,7.85,2.06,8.49,5.49h-.64c-.64-2.71-2.75-4.86-7.85-4.86-5.48,0-8.35,3.65-8.35,7.86s2.87,7.86,8.35,7.86c4.18,0,7.05-1.84,8-5.3Z" transform="translate(-20.75 -30.81)"/><path class="b" d="M140.81,130h.64v4.31h.06a6.73,6.73,0,0,1,6.73-4.81,10.64,10.64,0,0,1,1.37.1v.62a12.24,12.24,0,0,0-1.4-.09c-3.73,0-6.76,2.71-6.76,7.95v7.9h-.64Z" transform="translate(-20.75 -30.81)"/><path class="b" d="M149.52,138c0,4.21,2.87,7.86,8.35,7.86,5.68,0,7.24-3.4,7.81-5.43h.64c-.51,2.25-2.29,6.06-8.45,6.06-5.54,0-9-3.62-9-8.49s3.45-8.49,9-8.49c4.75,0,8.71,3.12,8.71,8.49Zm16.42-.62a7.65,7.65,0,0,0-8.07-7.24c-5.26,0-8.06,3.3-8.35,7.24Z" transform="translate(-20.75 -30.81)"/><path class="b" d="M169.07,123.66h.64v22.28h-.64Z" transform="translate(-20.75 -30.81)"/><path class="b" d="M173.25,123.66h.64v3.4h-.64Zm0,6.3h.64v16h-.64Z" transform="translate(-20.75 -30.81)"/><path class="b" d="M177.43,130h.63v4.31h.07c1.21-3.15,4.05-4.81,7.78-4.81,5.9,0,8.51,4,8.51,8.49s-2.61,8.49-8.51,8.49c-3.25,0-6.44-1.25-7.78-4.84h-.07v10.64h-.63Zm8.48,15.85c5.58,0,7.87-3.77,7.87-7.86s-2.29-7.86-7.87-7.86-7.85,3.77-7.85,7.86S180.36,145.81,185.91,145.81Z" transform="translate(-20.75 -30.81)"/><path class="b" d="M214,145.72a4.9,4.9,0,0,1-1.5.22c-1.09,0-1.72-.44-1.72-1.59v-1.91h-.07c-1.05,2.12-3.41,4-8.16,4-3.89,0-6.47-1.63-6.47-4.84,0-2.71,1.88-4.37,5.32-4.49l5.39-.19c3.44-.12,4-.47,4-2.4v-.88c0-2.59-2.33-3.55-6.77-3.55-4.68,0-6.31,1.31-6.56,4.71h-.64c.22-4.27,3.06-5.34,7.2-5.34,5.17,0,7.4,1.34,7.4,4.15V144c0,.94.19,1.34,1.09,1.34a6.26,6.26,0,0,0,1.5-.22Zm-3.22-9.14h-.07c-.35.59-1.88.87-4.27,1l-5,.19c-3.37.13-4.75,1.69-4.75,3.9,0,2.87,2.55,4.18,5.87,4.18,5.58,0,8.2-2.87,8.2-6.27Z" transform="translate(-20.75 -30.81)"/><path class="b" d="M214.66,140.94c.32,3,1.44,4.87,7.27,4.87,4.25,0,6.7-1.18,6.7-3.93,0-2.43-1.34-3.18-4.72-3.59L219,137.7c-2.68-.31-4.37-1.44-4.37-4s2-4.28,7.11-4.28c4.37,0,6.7,1.16,6.86,5.18h-.64c-.16-3.62-2.23-4.55-6.41-4.55-4.72,0-6.28,1.49-6.28,3.65,0,2,1.18,3,3.86,3.34l4.94.59c3.92.47,5.23,1.59,5.23,4.24,0,2-1,4.53-7.34,4.53-6.72,0-7.58-2.56-7.9-5.5Z" transform="translate(-20.75 -30.81)"/><path class="b" d="M231.23,138c0,4.21,2.87,7.86,8.35,7.86,5.68,0,7.24-3.4,7.81-5.43H248c-.51,2.25-2.29,6.06-8.45,6.06-5.55,0-9-3.62-9-8.49s3.44-8.49,9-8.49c4.75,0,8.71,3.12,8.71,8.49Zm16.42-.62a7.65,7.65,0,0,0-8.07-7.24c-5.26,0-8.06,3.3-8.35,7.24Z" transform="translate(-20.75 -30.81)"/><path class="b" d="M248.1,151.87a23.68,23.68,0,0,0,0-28.21h.83a24.53,24.53,0,0,1,0,28.21Z" transform="translate(-20.75 -30.81)"/><path class="c" d="M149.42,90.65V121h5.67V102.71a15.25,15.25,0,0,0,3.86,2.71,15.41,15.41,0,0,0,6.86,1.55h0a15.24,15.24,0,0,0,11.23-4.78,16.09,16.09,0,0,0,4.65-11.6A15.68,15.68,0,0,0,177,79.15a15.32,15.32,0,0,0-11.32-4.76,14.93,14.93,0,0,0-7,1.54,19.43,19.43,0,0,0-5.79,4.5A15.81,15.81,0,0,0,149.42,90.65Zm8.46-7.6a10.62,10.62,0,0,1,12.79-1.69,10.25,10.25,0,0,1,3.86,4A10.91,10.91,0,0,1,176,90.72a10.8,10.8,0,0,1-1.46,5.4,10.4,10.4,0,0,1-3.88,4,10.06,10.06,0,0,1-5.22,1.43,10.68,10.68,0,0,1-5.35-1.43,9.68,9.68,0,0,1-3.87-3.82,11,11,0,0,1-1.36-5.49A10.68,10.68,0,0,1,157.88,83.05Z" transform="translate(-20.75 -30.81)"/><path class="c" d="M222.07,90.65V121h5.66V102.71A15.23,15.23,0,0,0,238.44,107h.05a15.18,15.18,0,0,0,11.21-4.78,16.08,16.08,0,0,0,4.68-11.6,15.77,15.77,0,0,0-4.71-11.44,15.35,15.35,0,0,0-11.33-4.76,15,15,0,0,0-7.06,1.54,19.73,19.73,0,0,0-5.77,4.5A15.75,15.75,0,0,0,222.07,90.65Zm8.46-7.6A10.09,10.09,0,0,1,238,80a10.2,10.2,0,0,1,5.29,1.41,10.4,10.4,0,0,1,3.86,4,10.9,10.9,0,0,1,0,10.81,10.71,10.71,0,0,1-3.89,4,10.08,10.08,0,0,1-5.22,1.43,10.59,10.59,0,0,1-5.34-1.43,9.64,9.64,0,0,1-3.88-3.82,10.9,10.9,0,0,1-1.35-5.49A10.59,10.59,0,0,1,230.53,83.05Z" transform="translate(-20.75 -30.81)"/><path class="c" d="M142.74,81.1a11,11,0,0,0-4.1-4.9,11.42,11.42,0,0,0-6.33-1.81l-.65,0a12.65,12.65,0,0,0-6.75,1.83,10.89,10.89,0,0,0-4.1,4.9c-.9,2.11-1.28,5.1-1.28,9.12a.24.24,0,0,0,0,.1v15.9h5.72V91.34a58,58,0,0,1,.37-6.49A6.48,6.48,0,0,1,127.78,81a5.3,5.3,0,0,1,3.77-1.26A6.68,6.68,0,0,1,135.78,81a6.48,6.48,0,0,1,2.14,3.8,34,34,0,0,1,.4,6.5v14.88H144v-16C144,86.22,143.63,83.21,142.74,81.1Z" transform="translate(-20.75 -30.81)"/><path class="c" d="M107.36,96.81A13.38,13.38,0,0,1,105.51,99a10.38,10.38,0,0,1-3.28,1.86,11.37,11.37,0,0,1-4,.72,9.43,9.43,0,0,1-7-2.94A10.76,10.76,0,0,1,88.26,92h26.19l0-1A16.68,16.68,0,0,0,111,80.4a15.31,15.31,0,0,0-12.67-6A14.85,14.85,0,0,0,86,80.27a16.51,16.51,0,0,0-3.61,10.49A16.78,16.78,0,0,0,86.67,102c2.86,3.32,6.9,5,11.84,5h.06a16.9,16.9,0,0,0,6.1-1,15.17,15.17,0,0,0,4.9-3.05,17.61,17.61,0,0,0,3.79-5.2l.45-.86h-6.45ZM91.67,82.43a9.74,9.74,0,0,1,6.73-2.51,10.86,10.86,0,0,1,4.55,1,9.34,9.34,0,0,1,3.44,2.61A10,10,0,0,1,108,86.75H89A10.31,10.31,0,0,1,91.67,82.43Z" transform="translate(-20.75 -30.81)"/><path class="c" d="M210.58,96.81A13.38,13.38,0,0,1,208.73,99a10.27,10.27,0,0,1-3.28,1.86,11.41,11.41,0,0,1-4,.72,9.43,9.43,0,0,1-7-2.94A10.7,10.7,0,0,1,191.49,92h26.18V91a16.86,16.86,0,0,0-3.42-10.56,15.33,15.33,0,0,0-12.68-6,14.88,14.88,0,0,0-12.32,5.88,16.56,16.56,0,0,0-3.6,10.49A16.81,16.81,0,0,0,189.88,102c2.87,3.32,6.91,5,11.84,5h.07a16.9,16.9,0,0,0,6.1-1,15.27,15.27,0,0,0,4.9-3.05,17.81,17.81,0,0,0,3.8-5.2l.44-.86h-6.45ZM194.9,82.43a9.69,9.69,0,0,1,6.71-2.51,10.87,10.87,0,0,1,4.56,1,9.22,9.22,0,0,1,3.43,2.61,10.16,10.16,0,0,1,1.66,3.21H192.18A10.43,10.43,0,0,1,194.9,82.43Z" transform="translate(-20.75 -30.81)"/><polygon class="c" points="43.79 70.11 59.37 37.76 36.13 37.76 36.13 43 50.83 43 35.07 75.39 59.35 75.39 59.35 70.11 43.79 70.11"/><path class="d" d="M49.46,58.65a.11.11,0,0,0-.12,0,88.55,88.55,0,0,0-9.42,5.58,119.13,119.13,0,0,0,8.24-13.66.1.1,0,0,0,0-.12.11.11,0,0,0-.13,0,111,111,0,0,0-8.94,10.13,150.45,150.45,0,0,0,4.67-19.92.12.12,0,0,0-.07-.11.11.11,0,0,0-.12,0,133.79,133.79,0,0,0-6.23,14.21,181.85,181.85,0,0,0-2.1-23.91.11.11,0,0,0-.2,0c-1.73,10.21-2.37,23.83-2.21,37-.19.59-.37,1.18-.55,1.76a124.39,124.39,0,0,0-11.47,9.71.09.09,0,0,0,0,.13.09.09,0,0,0,.08,0h0c2.28-1.18,5-2.77,7.84-4.61-2.67,4.1-5,8-6.66,11.2a.11.11,0,0,0,0,.13l.06,0a.11.11,0,0,0,.07,0c2.32-2.35,5-5.41,7.79-8.81C28.45,83.22,27.23,88.64,26.5,93a.1.1,0,0,0,.07.11h0a.09.09,0,0,0,.08-.05c2-4,4.24-9.2,6.41-14.89A215.29,215.29,0,0,0,35,99.81a.1.1,0,0,0,.2,0,245.11,245.11,0,0,0,2.21-30.87,103.51,103.51,0,0,0,12-10.16A.09.09,0,0,0,49.46,58.65Z" transform="translate(-20.75 -30.81)"/><path class="e" d="M43.66,40.53a.11.11,0,0,0-.12,0C36.22,54.57,28.82,79,26.5,93a.1.1,0,0,0,.07.11h0a.09.09,0,0,0,.08-.05c6.37-12.7,14.74-36.82,17-52.46A.12.12,0,0,0,43.66,40.53Z" transform="translate(-20.75 -30.81)"/><path class="f" d="M48.13,50.42a.11.11,0,0,0-.13,0C39,59.24,27.31,76,22.07,86.12a.11.11,0,0,0,0,.13l.06,0a.11.11,0,0,0,.07,0c8-8.1,20.32-24.38,25.93-35.7A.1.1,0,0,0,48.13,50.42Z" transform="translate(-20.75 -30.81)"/><path class="g" d="M35.21,30.88a.11.11,0,0,0-.2,0c-3.3,19.46-2.66,51.35,0,68.93a.1.1,0,0,0,.2,0C37.88,82.23,38.52,50.34,35.21,30.88Z" transform="translate(-20.75 -30.81)"/><path class="h" d="M43.66,40.53a.11.11,0,0,0-.12,0C36.22,54.57,28.82,79,26.5,93a.1.1,0,0,0,.07.11h0a.09.09,0,0,0,.08-.05c6.37-12.7,14.74-36.82,17-52.46A.12.12,0,0,0,43.66,40.53Z" transform="translate(-20.75 -30.81)"/><path class="i" d="M48.13,50.42a.11.11,0,0,0-.13,0C39,59.24,27.31,76,22.07,86.12a.11.11,0,0,0,0,.13l.06,0a.11.11,0,0,0,.07,0c8-8.1,20.32-24.38,25.93-35.7A.1.1,0,0,0,48.13,50.42Z" transform="translate(-20.75 -30.81)"/><path class="j" d="M49.34,58.62C40.28,63.12,27.26,73,20.78,79.37a.09.09,0,0,0,0,.13.09.09,0,0,0,.08,0h0C29,75.35,42.37,66,49.45,58.78a.09.09,0,0,0,0-.13A.11.11,0,0,0,49.34,58.62Z" transform="translate(-20.75 -30.81)"/><path class="c" d="M258.84,81a4.31,4.31,0,1,1,4.32-4.3A4.3,4.3,0,0,1,258.84,81Zm0-7.72a3.4,3.4,0,1,0,3.42,3.44A3.42,3.42,0,0,0,258.84,73.23ZM257,74.3h2.09a1.78,1.78,0,0,1,1.18.27,1.31,1.31,0,0,1,.49,1.12,1.16,1.16,0,0,1-.56,1.06.81.81,0,0,1,.47.8c.06,1.15,0,1.26.28,1.47h-1.18c-.34-.9.19-1.83-.72-1.83h-1V79h-1Zm1,.9v1.12H259c.38,0,.82,0,.82-.56s-.42-.56-.82-.56Z" transform="translate(-20.75 -30.81)"/></g></svg>