<svg width="189" height="52" viewBox="0 0 189 52" fill="none" xmlns="http://www.w3.org/2000/svg">
<g clip-path="url(#clip0_34_371)">
<path d="M189 47.5133C189 48.5201 188.64 49.3802 187.913 50.1003C187.193 50.8138 186.326 51.1738 185.319 51.1738C184.312 51.1738 183.446 50.8138 182.725 50.087C182.005 49.3669 181.639 48.5068 181.639 47.5133C181.639 46.5198 181.999 45.6664 182.725 44.9463C183.446 44.2329 184.312 43.8728 185.319 43.8728C186.326 43.8728 187.193 44.2262 187.913 44.9396C188.633 45.6464 189 46.5065 189 47.5133ZM188.286 47.5133C188.286 46.6999 188 46.0064 187.413 45.4397C186.833 44.8729 186.133 44.5862 185.319 44.5862C184.506 44.5862 183.812 44.8729 183.226 45.4464C182.639 46.0198 182.352 46.7065 182.352 47.5066C182.352 48.3068 182.645 49.0002 183.226 49.5803C183.806 50.1604 184.506 50.4537 185.319 50.4537C186.133 50.4537 186.826 50.167 187.413 49.5936C187.993 49.0202 188.286 48.3268 188.286 47.5133ZM186.933 49.4336H186.039C186.013 49.2002 185.966 48.8602 185.906 48.4068C185.839 48.0067 185.659 47.8067 185.366 47.8067H184.686V49.4336H183.872V45.5397H185.439C186.339 45.5397 186.793 45.8731 186.793 46.5465C186.793 47.0132 186.566 47.3133 186.113 47.4533C186.399 47.5467 186.579 47.7333 186.653 48.0134C186.666 48.0667 186.699 48.3334 186.746 48.8268C186.773 49.0602 186.833 49.2602 186.919 49.4269M185.979 46.5598C185.979 46.2265 185.726 46.0664 185.226 46.0664H184.686V47.0933H185.226C185.733 47.0933 185.979 46.9132 185.979 46.5598Z" fill="#808B94"/>
<path d="M27.4563 45.6198L21.0287 34.4916H19.0018C18.8684 34.4916 18.7417 34.5649 18.6751 34.6783L16.8281 37.8787L19.5752 42.6394C19.6419 42.7594 19.6419 42.8994 19.5752 43.0128L16.8281 47.7668L18.6751 50.9672C18.7417 51.0806 18.8684 51.1539 19.0018 51.1539H28.1897C28.3231 51.1539 28.4498 51.0806 28.5231 50.9672L31.5035 45.8065H27.7963C27.6563 45.8065 27.5296 45.7332 27.463 45.6131L27.4563 45.6198Z" fill="#CCD0D4"/>
<path d="M56.399 22.0565L51.805 14.0954C51.7384 13.9754 51.6117 13.9087 51.4717 13.9087H42.2837C42.1503 13.9087 42.0237 13.982 41.957 14.0954L38.9766 19.2561H42.6704C42.8104 19.2561 42.9371 19.3295 43.0038 19.4495L49.4314 30.571H51.4717C51.605 30.571 51.7317 30.5044 51.805 30.3843L56.399 22.4299C56.4657 22.3099 56.4657 22.1699 56.399 22.0498V22.0565Z" fill="#6EC6E4"/>
<path d="M41.9588 30.3909L37.3648 22.4364C37.2981 22.3164 37.2981 22.1764 37.3648 22.0564L38.9783 19.256H27.7901C27.6501 19.256 27.5234 19.3293 27.4567 19.4493L20.009 32.3378C19.9423 32.4578 19.9423 32.6045 20.009 32.7246L21.0291 34.4915H28.1901C28.3235 34.4915 28.4502 34.5648 28.5235 34.6782L33.1175 42.6326C33.1842 42.7526 33.1842 42.8993 33.1175 43.0193L31.5039 45.8131H42.6789C42.8189 45.8131 42.9456 45.7397 43.0122 45.6197L50.46 32.7312C50.5266 32.6112 50.5266 32.4645 50.46 32.3445L49.4398 30.5776H42.2921C42.1588 30.5776 42.0321 30.5109 41.9654 30.3909H41.9588Z" fill="#CCD0D4"/>
<path d="M42.6719 19.2627H38.978L37.3645 22.0631C37.2978 22.1764 37.2978 22.3231 37.3645 22.4431L41.9584 30.3976C42.0251 30.5176 42.1518 30.5843 42.2852 30.5843H49.4328L43.0053 19.4627C42.9386 19.3427 42.8119 19.2694 42.6719 19.2694V19.2627Z" fill="#33AFD9"/>
<path d="M33.1177 42.6393L28.5237 34.6849C28.457 34.5648 28.3303 34.4982 28.1903 34.4982H21.0293L27.4569 45.6264C27.5235 45.7464 27.6502 45.8198 27.7903 45.8198H31.4974L33.111 43.026C33.1777 42.9127 33.1777 42.766 33.111 42.6393H33.1177Z" fill="#A5ACB3"/>
<path d="M14.089 42.6393L16.836 37.8853L16.3493 37.0385C16.2826 36.9185 16.1559 36.8518 16.0226 36.8518H9.55501C9.42166 36.8518 9.29498 36.9251 9.23497 37.0385L6.00118 42.6393C5.9345 42.7593 5.9345 42.8993 6.00118 43.0127L9.23497 48.6068C9.30164 48.7201 9.42166 48.7935 9.55501 48.7935H16.0226C16.1559 48.7935 16.276 48.7201 16.3493 48.6068L16.836 47.7667L14.089 43.0127C14.0223 42.8993 14.0223 42.7526 14.089 42.626V42.6393Z" fill="#CCD0D4"/>
<path d="M19.5812 42.646L16.8342 37.8854L14.0871 42.6394C14.0204 42.7594 14.0204 42.9061 14.0871 43.0261L16.8342 47.7801L19.5812 43.0261C19.6479 42.9128 19.6479 42.7661 19.5812 42.6527V42.646Z" fill="#A5ACB3"/>
<path d="M6.6337 36.5185H2.45311C2.31976 36.5185 2.19974 36.4518 2.13973 36.3385L0.0461008 32.718C-0.0205753 32.6046 -0.0205753 32.4713 0.0461008 32.3579L2.13973 28.7374C2.20641 28.624 2.31976 28.5574 2.45311 28.5574H6.6337C6.76038 28.5574 6.8804 28.624 6.94707 28.7374L9.0407 32.3579C9.10738 32.4713 9.10738 32.6046 9.0407 32.718L6.94707 36.3451C6.8804 36.4585 6.76038 36.5252 6.6337 36.5252V36.5185Z" fill="#CCD0D4"/>
<path d="M61.9551 36.9985H64.3754V42.826H69.9295V36.9985H72.3499V50.9472H69.9295V44.9997H64.3754V50.9472H61.9551V36.9985ZM74.3835 48.4268C74.9369 50.1471 76.4171 51.1739 78.5041 51.1739C80.331 51.1739 81.7245 50.4738 82.5647 49.4936C82.6447 49.3936 82.6447 49.2869 82.5447 49.2069L81.3378 48.1401C81.2378 48.0601 81.1311 48.0801 81.0311 48.1801C80.5377 48.7135 79.8243 49.1269 78.7108 49.1269C77.5973 49.1269 76.8238 48.5935 76.4971 47.6267C76.4171 47.4 76.3504 47.1533 76.3504 46.8666C76.3504 46.7999 76.4105 46.7466 76.4705 46.7466H82.5647C82.7113 46.7466 82.7914 46.6666 82.7914 46.5399C82.7914 44.9397 82.6913 44.2662 82.4646 43.5661C81.9112 41.8859 80.431 40.8391 78.4041 40.8391C76.3771 40.8391 74.9169 41.8459 74.3635 43.5661C74.1568 44.1995 74.0368 44.9797 74.0368 46.0065C74.0368 47.0333 74.1835 47.7934 74.3835 48.4268ZM80.351 44.0529C80.431 44.2996 80.471 44.5463 80.471 44.893C80.471 44.9597 80.4177 45.0197 80.351 45.0197H76.4771C76.4105 45.0197 76.3571 44.9663 76.3571 44.893C76.3571 44.5463 76.3971 44.2996 76.4771 44.0529C76.7438 43.2528 77.4839 42.7794 78.4241 42.7794C79.3642 42.7794 80.0843 43.2528 80.351 44.0529ZM92.246 50.9472V44.2796C92.246 41.8592 91.1392 40.8324 88.1254 40.8324C86.5052 40.8324 85.4184 41.2191 84.6183 41.7992C84.5383 41.8592 84.5183 41.9659 84.5783 42.0659L85.3384 43.4194C85.3984 43.5195 85.5251 43.5395 85.6251 43.4594C86.0985 43.0927 86.7719 42.7794 87.8787 42.7794C89.539 42.7794 90.0724 43.2928 90.0724 44.4196V44.893C90.0724 44.9597 90.019 45.013 89.9524 45.013H87.9454C85.5051 45.013 83.9849 45.9998 83.9849 48.1534C83.9849 50.3071 85.5051 51.1672 87.3053 51.1672C88.6989 51.1672 89.6256 50.6938 90.0924 50.0204H90.1124V50.7338C90.1124 50.8472 90.2057 50.9405 90.3191 50.9405H92.246V50.9472ZM90.0724 47.6267C90.0724 48.7535 89.2923 49.3069 87.8787 49.3069C86.7719 49.3069 86.1785 48.9002 86.1785 48.0734C86.1785 47.1533 86.8319 46.7399 88.3121 46.7399H89.9524C90.019 46.7399 90.0724 46.7932 90.0724 46.8599V47.62M98.1068 51.0672V49.2203C98.1068 49.1069 98.0135 49.0136 97.9002 49.0136H97.4467C96.8533 49.0136 96.5866 48.7869 96.5866 48.1134V36.9985H94.2863V48.2401C94.2863 50.1471 95.0664 51.0739 96.9934 51.0739H98.1002L98.1068 51.0672ZM103.668 51.0672V49.2203C103.668 49.1069 103.574 49.0136 103.461 49.0136H102.948C102.314 49.0136 102.027 48.7869 102.027 48.0934V42.846H103.668V41.0591H102.027V38.0253H99.7271V40.9391C99.7271 41.0058 99.6737 41.0591 99.6071 41.0591H98.9536C98.8403 41.0591 98.7469 41.1525 98.7469 41.2658V42.6393C98.7469 42.7527 98.8403 42.846 98.9536 42.846H99.6071C99.6737 42.846 99.7271 42.8994 99.7271 42.966V48.1734C99.7271 50.1004 100.487 51.0672 102.474 51.0672H103.661H103.668ZM113.802 50.9472V44.2729C113.802 42.4726 112.422 40.9324 110.629 40.8391C109.175 40.7657 108.228 41.3258 107.775 41.9792H107.755V36.9985H105.455V50.9472H107.755V45.0397C107.755 43.7662 108.455 42.886 109.642 42.886C110.829 42.886 111.509 43.7662 111.509 45.0397V50.9472H113.802Z" fill="#009BCF"/>
<path d="M114.776 49.3268C114.696 49.2468 114.649 49.1201 114.736 49.0201L116.01 47.5399C116.09 47.4399 116.216 47.4399 116.296 47.5199C117.196 48.24 118.53 49.0001 120.09 49.0001C121.75 49.0001 122.717 48.16 122.717 46.9865C122.717 45.9797 122.104 45.3263 120.177 45.0596L119.437 44.9595C116.75 44.5928 115.229 43.2993 115.229 40.979C115.229 38.4586 117.076 36.7717 119.95 36.7717C121.69 36.7717 123.357 37.3251 124.464 38.1653C124.564 38.2453 124.584 38.3319 124.504 38.452L123.517 39.9722C123.437 40.0722 123.331 40.0922 123.231 40.0322C122.104 39.2921 121.057 38.9454 119.883 38.9454C118.47 38.9454 117.69 39.7255 117.69 40.8123C117.69 41.7791 118.363 42.4325 120.25 42.6992L120.99 42.7992C123.677 43.166 125.151 44.4395 125.151 46.8398C125.151 49.2402 123.364 51.1671 119.897 51.1671C117.843 51.1671 115.856 50.347 114.769 49.3202M126.671 48.4467C127.244 50.2136 128.765 51.1738 130.752 51.1738C132.225 51.1738 133.399 50.5803 134.179 49.6535C134.239 49.5535 134.259 49.4468 134.159 49.3668L132.865 48.24C132.765 48.16 132.659 48.16 132.579 48.26C131.998 48.9134 131.385 49.2268 130.278 49.0935C129.885 49.0468 129.511 48.8534 129.271 48.5401C128.798 47.9266 128.705 47.1599 128.705 46.0064C128.705 45.2463 128.745 44.6728 128.911 44.1794C129.198 43.3193 129.878 42.8859 130.758 42.8859C131.578 42.8859 132.092 43.1926 132.585 43.746C132.665 43.8461 132.772 43.8661 132.872 43.786L134.165 42.6592C134.265 42.5792 134.245 42.4525 134.185 42.3725C133.405 41.4324 132.238 40.8323 130.758 40.8323C128.771 40.8323 127.251 41.7924 126.678 43.5594C126.471 44.1728 126.371 44.9529 126.371 45.9997C126.371 47.0465 126.471 47.8266 126.678 48.44M138.113 39.1921V36.9984H135.812V39.1921H138.106H138.113ZM138.113 50.9471V41.059H135.812V50.9471H138.106H138.113ZM140.1 48.4267C140.653 50.1469 142.133 51.1738 144.22 51.1738C146.047 51.1738 147.441 50.4737 148.281 49.4935C148.361 49.3935 148.361 49.2868 148.261 49.2068L147.054 48.14C146.954 48.06 146.847 48.08 146.747 48.18C146.254 48.7134 145.534 49.1268 144.427 49.1268C143.32 49.1268 142.54 48.5934 142.213 47.6266C142.133 47.3999 142.067 47.1532 142.073 46.8665C142.073 46.7998 142.127 46.7465 142.193 46.7465H148.287C148.434 46.7465 148.514 46.6665 148.514 46.5398C148.514 44.9395 148.414 44.2661 148.187 43.566C147.634 41.8858 146.16 40.839 144.127 40.839C142.093 40.839 140.64 41.8458 140.086 43.566C139.88 44.1994 139.76 44.9796 139.76 46.0064C139.76 47.0332 139.9 47.7933 140.106 48.4267M146.067 44.0528C146.147 44.2995 146.187 44.5462 146.187 44.8929C146.187 44.9596 146.134 45.0196 146.067 45.0196H142.193C142.127 45.0196 142.073 44.9662 142.073 44.8929C142.073 44.5462 142.113 44.2995 142.193 44.0528C142.46 43.2526 143.2 42.7792 144.14 42.7792C145.08 42.7792 145.8 43.2526 146.067 44.0528ZM158.495 50.9471V44.2728C158.495 42.4725 157.115 40.9323 155.322 40.839C153.868 40.7656 152.921 41.3257 152.468 41.9791H152.448V41.259C152.448 41.1457 152.355 41.0523 152.241 41.0523H150.148V50.9404H152.448V45.0329C152.448 43.7594 153.148 42.8793 154.335 42.8793C155.522 42.8793 156.202 43.7594 156.202 45.0329V50.9404H158.502L158.495 50.9471ZM160.342 48.4467C160.916 50.2136 162.436 51.1738 164.423 51.1738C165.897 51.1738 167.07 50.5803 167.85 49.6535C167.91 49.5535 167.93 49.4468 167.83 49.3668L166.537 48.24C166.437 48.16 166.33 48.16 166.25 48.26C165.67 48.9134 165.063 49.2268 163.95 49.0935C163.556 49.0468 163.183 48.8534 162.943 48.5401C162.469 47.9266 162.376 47.1599 162.376 46.0064C162.376 45.2463 162.416 44.6728 162.583 44.1794C162.869 43.3193 163.55 42.8859 164.43 42.8859C165.25 42.8859 165.763 43.1926 166.257 43.746C166.337 43.8461 166.443 43.8661 166.543 43.786L167.837 42.6592C167.937 42.5792 167.917 42.4525 167.857 42.3725C167.077 41.4324 165.91 40.8323 164.43 40.8323C162.443 40.8323 160.923 41.7924 160.349 43.5594C160.142 44.1728 160.042 44.9529 160.042 45.9997C160.042 47.0465 160.142 47.8266 160.349 48.44M169.304 48.4267C169.857 50.1469 171.331 51.1738 173.424 51.1738C175.251 51.1738 176.645 50.4737 177.485 49.4935C177.565 49.3935 177.565 49.2868 177.465 49.2068L176.258 48.14C176.158 48.06 176.051 48.08 175.951 48.18C175.458 48.7134 174.738 49.1268 173.631 49.1268C172.524 49.1268 171.744 48.5934 171.417 47.6266C171.337 47.3999 171.271 47.1532 171.271 46.8665C171.271 46.7998 171.331 46.7465 171.397 46.7465H177.485C177.632 46.7465 177.712 46.6665 177.712 46.5398C177.712 44.9395 177.612 44.2661 177.385 43.566C176.831 41.8858 175.358 40.839 173.324 40.839C171.291 40.839 169.837 41.8458 169.284 43.566C169.077 44.1994 168.957 44.9796 168.957 46.0064C168.957 47.0332 169.097 47.7933 169.304 48.4267ZM175.271 44.0528C175.351 44.2995 175.391 44.5462 175.398 44.8929C175.398 44.9596 175.345 45.0196 175.271 45.0196H171.397C171.331 45.0196 171.271 44.9596 171.271 44.8929C171.271 44.5462 171.311 44.2995 171.397 44.0528C171.664 43.2526 172.404 42.7792 173.344 42.7792C174.284 42.7792 175.004 43.2526 175.271 44.0528Z" fill="#808B94"/>
<path d="M81.8577 1.14016C81.571 1.48688 81.411 1.8736 81.411 2.54703V21.0563H81.311C81.311 21.0563 71.1762 2.99376 70.6895 2.1603C70.3428 1.56689 69.9561 1.16016 69.4493 0.853454C68.9426 0.566747 68.4092 0.386721 67.389 0.386721H64.0486C63.2751 0.386721 62.7817 0.653426 62.435 1.06015C62.1483 1.40687 61.9883 1.79359 61.9883 2.46701V28.704C61.9883 29.3775 62.1483 29.7642 62.435 30.1109C62.7817 30.5176 63.2685 30.7843 64.0486 30.7843H65.9422C66.7156 30.7843 67.209 30.5176 67.5557 30.1109C67.8424 29.7642 68.0025 29.3775 68.0025 28.704V9.74137H68.1025C68.1025 9.74137 78.624 28.3773 79.0507 29.0708C79.6441 30.0509 80.6376 30.7843 82.0644 30.7843H85.3049C86.0783 30.7843 86.5717 30.5176 86.9185 30.1109C87.2052 29.7642 87.3652 29.3775 87.3652 28.704V5.03404H129.951C130.378 5.03404 130.705 4.91403 130.951 4.70733C131.218 4.46063 131.338 4.13392 131.338 3.64718V1.85359C131.338 1.36686 131.218 1.04015 130.951 0.793445C130.705 0.586749 130.378 0.466733 129.951 0.466733H83.4713C82.6979 0.466733 82.2045 0.733437 81.8577 1.14016ZM100.454 8.15448C93.3794 8.15448 89.4055 13.6819 89.4055 19.5094C89.4055 25.7303 93.6661 31.1911 100.494 31.1911C103.901 31.1911 107.241 29.9042 109.155 27.6439C109.988 26.6638 110.662 25.2969 110.662 24.4635C110.662 24.1767 110.602 23.93 110.435 23.75C110.268 23.5433 110.028 23.4233 109.602 23.4233H106.321C105.668 23.4233 105.221 23.67 104.894 24.1567C103.934 25.5636 102.547 26.297 100.514 26.297C97.4533 26.297 95.4797 23.97 95.333 21.423H109.522C110.155 21.423 110.602 21.283 110.909 20.9763C111.255 20.6496 111.415 20.1828 111.415 19.3027C111.415 16.6357 110.582 13.862 108.828 11.7417C107.035 9.60136 104.301 8.15448 100.447 8.15448M122.323 8.15448C116.736 8.15448 113.069 10.8082 113.069 15.0421C113.069 16.549 113.622 17.7758 114.516 18.7293C115.556 19.8495 117.043 20.6229 119.203 21.1763L123.87 22.3565C125.157 22.6832 126.297 23.0699 126.297 24.1901C126.297 25.9237 124.464 26.5171 122.503 26.5171C121.543 26.5171 120.543 26.3304 119.73 25.9237C119.156 25.637 118.67 25.2302 118.323 24.6768C118.016 24.2101 117.916 23.8634 117.449 23.5967C117.163 23.4366 116.816 23.41 116.349 23.41H113.822C113.269 23.41 113.009 23.57 112.822 23.7967C112.642 24.0234 112.575 24.3501 112.575 24.6701C112.575 25.4836 112.862 26.5037 113.536 27.4239C115.082 29.5042 118.323 31.1777 122.463 31.1777C126.604 31.1777 132.185 29.4842 132.185 24.0234C132.185 22.6165 131.778 21.4164 131.025 20.4362C130.065 19.1894 128.698 18.3359 126.377 17.7425L121.75 16.5623C119.836 16.0756 118.936 15.7289 118.936 14.5421C118.936 13.3552 119.956 12.4818 122.323 12.4818C123.71 12.4818 124.971 12.7885 125.791 13.6419C126.464 14.3554 126.344 14.7221 126.871 15.0088C127.197 15.1688 127.564 15.1688 128.138 15.1688H130.438C130.805 15.1688 131.071 15.1088 131.271 14.8821C131.431 14.6954 131.538 14.4154 131.538 13.942C131.538 12.8818 130.845 11.515 129.624 10.4748C127.991 9.06795 125.424 8.12781 122.323 8.12781M135.025 8.92793H133.885C133.458 8.92793 133.132 9.04794 132.885 9.25464C132.618 9.50134 132.498 9.82805 132.498 10.3148V11.7217C132.498 12.2084 132.618 12.5351 132.885 12.7818C133.132 12.9885 133.458 13.1085 133.885 13.1085H135.025V23.2833C135.025 25.8903 135.739 27.5239 137.066 28.8307C138.292 30.0309 139.879 30.791 142.653 30.791H144.387C144.813 30.791 145.14 30.671 145.387 30.4643C145.653 30.2176 145.813 29.8909 145.813 29.4041V27.6306C145.813 27.1438 145.653 26.8171 145.387 26.5704C145.14 26.3637 144.813 26.2437 144.387 26.2437H144.14C143.04 26.2437 142.286 25.957 141.773 25.4703C141.159 24.8968 140.853 24.0234 140.853 22.8832V13.1152H144.567C144.993 13.1152 145.32 12.9952 145.567 12.7885C145.833 12.5418 145.953 12.2151 145.953 11.7283V10.3215C145.953 9.83472 145.833 9.50801 145.567 9.26131C145.32 9.05461 144.993 8.93459 144.567 8.93459H140.879V2.28032C140.879 1.75358 140.719 1.36019 140.473 1.06015C140.166 0.693431 139.739 0.466733 139.106 0.466733H136.799C136.165 0.466733 135.739 0.693431 135.432 1.06015C135.185 1.36686 135.025 1.75358 135.025 2.28032V8.92793ZM147.5 28.9641C147.5 29.4975 147.66 29.8842 147.907 30.1909C148.214 30.5576 148.641 30.7843 149.274 30.7843H151.701C152.334 30.7843 152.761 30.5576 153.068 30.1909C153.315 29.8842 153.475 29.4975 153.475 28.9641V2.28699C153.475 1.75358 153.315 1.36686 153.068 1.06015C152.761 0.693431 152.334 0.466733 151.701 0.466733H149.274C148.641 0.466733 148.214 0.693431 147.907 1.06015C147.66 1.36686 147.5 1.75358 147.5 2.28699V28.9708V28.9641ZM95.373 17.0824C95.6397 14.5754 97.5533 12.7018 100.467 12.7018C103.381 12.7018 105.301 14.5754 105.561 17.0824H95.3663H95.373ZM175.551 5.03404C175.978 5.03404 176.304 4.91403 176.551 4.70733C176.818 4.46063 176.938 4.13392 176.938 3.64718V1.75358C176.938 1.02014 176.798 0.653426 176.551 0.386721C176.324 0.14002 175.958 0 175.551 0C175.224 0 174.898 0.0400056 174.351 0.100014L158.082 1.71358C157.615 1.75358 157.388 1.90027 157.228 2.08029C157.042 2.28699 156.962 2.54703 156.962 2.91374V3.97389C156.962 4.38062 157.042 4.56731 157.188 4.72733C157.375 4.93403 157.635 5.03404 158.002 5.03404H175.551ZM166.563 8.15448C159.489 8.15448 155.515 13.6819 155.515 19.5094C155.515 25.7303 159.775 31.1911 166.603 31.1911C170.01 31.1911 173.351 29.9042 175.264 27.6439C176.098 26.6638 176.771 25.2969 176.771 24.4635C176.771 24.1767 176.711 23.93 176.544 23.75C176.384 23.5433 176.138 23.4233 175.711 23.4233H172.431C171.777 23.4233 171.33 23.67 171.004 24.1567C170.044 25.5636 168.657 26.297 166.623 26.297C163.563 26.297 161.589 23.97 161.442 21.423H175.671C176.304 21.423 176.751 21.283 177.058 20.9763C177.405 20.6496 177.565 20.1828 177.565 19.3027C177.565 16.6357 176.731 13.862 174.978 11.7417C173.184 9.60136 170.41 8.15448 166.556 8.15448M161.489 17.0824C161.756 14.5754 163.669 12.7018 166.583 12.7018C169.497 12.7018 171.417 14.5754 171.677 17.0824H161.482H161.489Z" fill="#193176"/>
</g>
<defs>
<clipPath id="clip0_34_371">
<rect width="189" height="51.1739" fill="white"/>
</clipPath>
</defs>
</svg>
