<svg width="47" height="46" viewBox="0 0 47 46" fill="none" xmlns="http://www.w3.org/2000/svg">
<g opacity="0.5">
<path d="M15.2246 22.6801C15.2246 24.8506 13.4577 26.6176 11.2871 26.6176C9.11655 26.6176 7.34961 24.8506 7.34961 22.6801C7.34961 20.5095 9.11655 18.7426 11.2871 18.7426C13.4577 18.7426 15.2246 20.5095 15.2246 22.6801ZM23.0996 30.5551C20.929 30.5551 19.1621 32.322 19.1621 34.4926C19.1621 36.6631 20.929 38.4301 23.0996 38.4301C25.2702 38.4301 27.0371 36.6631 27.0371 34.4926C27.0371 32.322 25.2702 30.5551 23.0996 30.5551ZM11.2871 30.5551C9.11655 30.5551 7.34961 32.322 7.34961 34.4926C7.34961 36.6631 9.11655 38.4301 11.2871 38.4301C13.4577 38.4301 15.2246 36.6631 15.2246 34.4926C15.2246 32.322 13.4577 30.5551 11.2871 30.5551ZM34.9121 14.8051C37.0827 14.8051 38.8496 13.0381 38.8496 10.8676C38.8496 8.69699 37.0827 6.93005 34.9121 6.93005C32.7415 6.93005 30.9746 8.69699 30.9746 10.8676C30.9746 13.0381 32.7415 14.8051 34.9121 14.8051ZM11.2871 6.93005C9.11655 6.93005 7.34961 8.69699 7.34961 10.8676C7.34961 13.0381 9.11655 14.8051 11.2871 14.8051C13.4577 14.8051 15.2246 13.0381 15.2246 10.8676C15.2246 8.69699 13.4577 6.93005 11.2871 6.93005ZM34.9121 30.5551C32.7415 30.5551 30.9746 32.322 30.9746 34.4926C30.9746 36.6631 32.7415 38.4301 34.9121 38.4301C37.0827 38.4301 38.8496 36.6631 38.8496 34.4926C38.8496 32.322 37.0827 30.5551 34.9121 30.5551ZM34.9121 18.7426C32.7415 18.7426 30.9746 20.5095 30.9746 22.6801C30.9746 24.8506 32.7415 26.6176 34.9121 26.6176C37.0827 26.6176 38.8496 24.8506 38.8496 22.6801C38.8496 20.5095 37.0827 18.7426 34.9121 18.7426ZM23.0996 18.7426C20.929 18.7426 19.1621 20.5095 19.1621 22.6801C19.1621 24.8506 20.929 26.6176 23.0996 26.6176C25.2702 26.6176 27.0371 24.8506 27.0371 22.6801C27.0371 20.5095 25.2702 18.7426 23.0996 18.7426ZM23.0996 6.93005C20.929 6.93005 19.1621 8.69699 19.1621 10.8676C19.1621 13.0381 20.929 14.8051 23.0996 14.8051C25.2702 14.8051 27.0371 13.0381 27.0371 10.8676C27.0371 8.69699 25.2702 6.93005 23.0996 6.93005Z" fill="black"/>
</g>
</svg>
