<svg width="68" height="63" viewBox="0 0 68 63" fill="none" xmlns="http://www.w3.org/2000/svg">
<mask id="path-1-inside-1_97_107" fill="white">
<path d="M53 0C61.2843 0 68 6.71573 68 15V35.8809C68 44.1651 61.2843 50.8809 53 50.8809H40.8271L34.2373 62.2939L27.6484 50.8809H15C6.71573 50.8809 0 44.1651 0 35.8809V15C2.53677e-06 6.71573 6.71573 6.44258e-08 15 0H53Z"/>
</mask>
<path d="M68 15H71H68ZM53 50.8809V53.8809V50.8809ZM40.8271 50.8809V47.8809H39.0952L38.2291 49.3808L40.8271 50.8809ZM34.2373 62.2939L31.6392 63.7939L34.2371 68.2939L36.8353 63.794L34.2373 62.2939ZM27.6484 50.8809L30.2466 49.3809L29.3806 47.8809H27.6484V50.8809ZM0 15L-3 15V15H0ZM15 0V-3V0ZM53 0V3C59.6274 3 65 8.37258 65 15H68H71C71 5.05888 62.9411 -3 53 -3V0ZM68 15H65V35.8809H68H71V15H68ZM68 35.8809H65C65 42.5083 59.6274 47.8809 53 47.8809V50.8809V53.8809C62.9411 53.8809 71 45.822 71 35.8809H68ZM53 50.8809V47.8809H40.8271V50.8809V53.8809H53V50.8809ZM40.8271 50.8809L38.2291 49.3808L31.6393 60.7939L34.2373 62.2939L36.8353 63.794L43.4252 52.3809L40.8271 50.8809ZM34.2373 62.2939L36.8354 60.794L30.2466 49.3809L27.6484 50.8809L25.0503 52.3808L31.6392 63.7939L34.2373 62.2939ZM27.6484 50.8809V47.8809H15V50.8809V53.8809H27.6484V50.8809ZM15 50.8809V47.8809C8.37258 47.8809 3 42.5083 3 35.8809H0H-3C-3 45.822 5.05887 53.8809 15 53.8809V50.8809ZM0 35.8809H3V15H0H-3V35.8809H0ZM0 15L3 15C3 8.37258 8.37259 3 15 3V0V-3C5.05888 -3 -3 5.05888 -3 15L0 15ZM15 0V3H53V0V-3H15V0Z" fill="black" mask="url(#path-1-inside-1_97_107)"/>
<path d="M36.8755 31.5982H31.7852C31.7719 30.8803 31.7652 30.4429 31.7652 30.2863C31.7652 28.6676 32.038 27.336 32.5837 26.2917C33.1293 25.2474 34.2205 24.0725 35.8574 22.767C37.4943 21.4616 38.4724 20.6066 38.7918 20.2019C39.2842 19.5622 39.5304 18.8573 39.5304 18.0871C39.5304 17.0167 39.0913 16.1029 38.2129 15.3457C37.3479 14.5755 36.1768 14.1904 34.6996 14.1904C33.2757 14.1904 32.0846 14.5886 31.1264 15.3849C30.1683 16.1812 29.5095 17.3952 29.1502 19.027L24 18.4004C24.1464 16.0637 25.1578 14.0795 27.0342 12.4477C28.924 10.8159 31.3992 10 34.4601 10C37.6806 10 40.2424 10.8289 42.1454 12.4868C44.0485 14.1317 45 16.0506 45 18.2438C45 19.4578 44.6473 20.6066 43.942 21.6901C43.25 22.7736 41.7595 24.2487 39.4705 26.1155C38.2861 27.0815 37.5475 27.8582 37.2548 28.4456C36.9753 29.0331 36.8489 30.084 36.8755 31.5982ZM31.7852 39V33.4976H37.3945V39H31.7852Z" fill="black"/>
</svg>
