<svg width="592" height="438" viewBox="0 0 592 438" fill="none" xmlns="http://www.w3.org/2000/svg">
<path d="M0 25.185C0 11.2757 11.2757 0 25.185 0H566.815C580.724 0 592 11.2757 592 25.185V412.815C592 426.724 580.724 438 566.815 438H25.185C11.2757 438 0 426.724 0 412.815V25.185Z" fill="#001B70"/>
<path d="M0 25.185C0 11.2757 11.2757 0 25.185 0H566.815C580.724 0 592 11.2757 592 25.185V412.815C592 426.724 580.724 438 566.815 438H25.185C11.2757 438 0 426.724 0 412.815V25.185Z" fill="url(#paint0_linear_60_102)" fill-opacity="0.2"/>
<path d="M143.626 249.99C142.559 246.903 141.693 243.035 141.016 238.385C140.338 233.736 139.999 228.897 139.999 223.882C139.999 218.868 140.35 213.714 141.041 208.914C141.731 204.125 142.647 200.182 143.764 197.095C143.877 196.805 144.053 196.666 144.291 196.666H145.622C145.772 196.666 145.885 196.742 145.948 196.88C146.023 197.019 146.023 197.183 145.973 197.347C145.032 200.56 144.254 204.529 143.626 209.254C143.011 213.991 142.697 218.817 142.697 223.756C142.697 228.696 143.011 233.421 143.626 238.045C144.241 242.669 145.032 246.575 145.973 249.738C145.998 249.776 146.023 249.864 146.023 249.99C146.023 250.116 145.986 250.217 145.91 250.305C145.835 250.381 145.735 250.431 145.622 250.431H144.166C143.927 250.431 143.752 250.292 143.639 250.003L143.626 249.99Z" fill="white"/>
<path d="M151.458 204.73C150.981 205.902 150.755 207.742 150.755 210.249V212.467C150.755 212.63 150.817 212.719 150.93 212.719H154.558C154.846 212.719 154.997 212.92 154.997 213.336V214.697C154.997 215.113 154.846 215.314 154.558 215.314H150.93C150.817 215.314 150.755 215.402 150.755 215.566V243.211C150.755 243.627 150.604 243.828 150.315 243.828H148.859C148.571 243.828 148.42 243.627 148.42 243.211V215.566C148.42 215.402 148.357 215.314 148.244 215.314H146.387C146.086 215.314 145.948 215.113 145.948 214.697V213.336C145.948 212.92 146.098 212.719 146.387 212.719H148.244C148.357 212.719 148.42 212.643 148.42 212.467V210.186C148.42 206.734 148.847 204.188 149.7 202.563C150.554 200.938 151.997 200.131 154.043 200.131H154.708C154.997 200.131 155.147 200.333 155.147 200.749L155.097 202.349C155.097 202.765 154.947 202.966 154.658 202.966H154.081C152.813 202.966 151.947 203.558 151.47 204.73H151.458Z" fill="white"/>
<path d="M168.991 229.452H158.812C158.699 229.452 158.637 229.54 158.637 229.704V234.945C158.637 236.835 159.026 238.398 159.804 239.607C160.582 240.817 161.599 241.422 162.841 241.422C163.87 241.422 164.761 240.993 165.502 240.124C166.242 239.254 166.719 238.133 166.958 236.734C167.046 236.369 167.209 236.18 167.447 236.18L168.866 236.306C168.978 236.306 169.091 236.344 169.179 236.432C169.267 236.52 169.292 236.634 169.267 236.797V237.049C168.966 239.317 168.263 241.094 167.146 242.392C166.029 243.69 164.598 244.332 162.854 244.332C160.908 244.332 159.327 243.475 158.122 241.774C156.917 240.073 156.302 237.856 156.302 235.134V221.501C156.302 218.792 156.904 216.562 158.122 214.835C159.327 213.109 160.908 212.24 162.854 212.24C164.799 212.24 166.418 213.109 167.636 214.835C168.84 216.562 169.455 218.779 169.455 221.501V228.847C169.455 229.263 169.305 229.464 169.016 229.464L168.991 229.452ZM159.804 216.952C159.026 218.162 158.637 219.737 158.637 221.677V226.365C158.637 226.528 158.699 226.617 158.812 226.617H166.908C167.021 226.617 167.083 226.541 167.083 226.365V221.677C167.083 219.749 166.694 218.174 165.916 216.952C165.138 215.743 164.109 215.138 162.841 215.138C161.573 215.138 160.594 215.743 159.804 216.952Z" fill="white"/>
<path d="M174.099 241.762C172.907 240.061 172.305 237.818 172.305 235.071V221.501C172.305 218.792 172.907 216.562 174.125 214.835C175.329 213.109 176.911 212.24 178.856 212.24C180.149 212.24 181.304 212.618 182.308 213.386C183.312 214.142 184.09 215.15 184.63 216.41C185.182 217.67 185.445 219.031 185.445 220.518V220.883C185.445 221.299 185.295 221.501 185.006 221.501L183.55 221.627C183.249 221.627 183.111 221.425 183.111 221.009V220.644C183.111 219.157 182.709 217.872 181.919 216.788C181.128 215.705 180.099 215.15 178.869 215.15C177.639 215.15 176.622 215.755 175.831 216.965C175.053 218.174 174.664 219.749 174.664 221.69V234.958C174.664 236.848 175.053 238.41 175.831 239.62C176.61 240.829 177.626 241.434 178.869 241.434C180.111 241.434 181.128 240.892 181.919 239.796C182.709 238.713 183.111 237.415 183.111 235.941V235.638C183.111 235.222 183.262 235.021 183.55 235.021H185.006C185.307 235.021 185.445 235.222 185.445 235.638V236.13C185.445 237.616 185.169 238.977 184.63 240.237C184.09 241.497 183.312 242.493 182.308 243.236C181.304 243.979 180.149 244.345 178.856 244.345C176.873 244.345 175.292 243.488 174.099 241.787V241.762Z" fill="white"/>
<path d="M199.816 215.037C200.946 216.915 201.523 219.41 201.523 222.534V243.211C201.523 243.627 201.373 243.829 201.084 243.829H199.628C199.327 243.829 199.189 243.627 199.189 243.211V240.994C199.189 240.868 199.164 240.805 199.126 240.779C199.076 240.754 199.025 240.779 198.975 240.868C197.883 243.173 196.176 244.32 193.842 244.32C192.273 244.32 190.918 243.677 189.775 242.405C188.621 241.132 188.056 238.889 188.056 235.676C188.056 232.262 188.746 229.754 190.114 228.141C191.482 226.541 193.302 225.735 195.574 225.735H199.025C199.138 225.735 199.201 225.659 199.201 225.483V222.648C199.201 220.342 198.837 218.515 198.097 217.154C197.356 215.793 196.34 215.113 195.047 215.113C194.043 215.113 193.164 215.567 192.411 216.474C191.658 217.381 191.219 218.553 191.106 219.989C191.106 220.405 190.955 220.607 190.667 220.607L189.073 220.481C188.922 220.481 188.809 220.418 188.746 220.292C188.671 220.166 188.646 220.027 188.684 219.863C188.859 217.557 189.55 215.705 190.767 214.307C191.972 212.908 193.44 212.202 195.147 212.202C197.155 212.202 198.724 213.135 199.866 215.012L199.816 215.037ZM197.733 239.633C198.687 238.436 199.176 236.76 199.176 234.568V228.708C199.176 228.545 199.113 228.456 199 228.456H195.549C194.018 228.456 192.788 229.049 191.859 230.221C190.93 231.392 190.466 233.131 190.466 235.437C190.466 237.453 190.817 238.952 191.533 239.948C192.235 240.931 193.164 241.435 194.319 241.435C195.649 241.435 196.791 240.842 197.745 239.645L197.733 239.633Z" fill="white"/>
<path d="M204.925 243.211V201.253C204.925 200.837 205.075 200.635 205.364 200.635H206.82C207.121 200.635 207.259 200.837 207.259 201.253V243.211C207.259 243.627 207.109 243.829 206.82 243.829H205.364C205.063 243.829 204.925 243.627 204.925 243.211Z" fill="white"/>
<path d="M240.193 214.999C241.172 216.814 241.649 219.283 241.649 222.408V243.198C241.649 243.614 241.499 243.816 241.21 243.816H239.754C239.453 243.816 239.315 243.614 239.315 243.198V222.711C239.315 220.405 238.963 218.578 238.273 217.217C237.583 215.856 236.654 215.176 235.512 215.176C234.269 215.176 233.29 215.831 232.575 217.154C231.847 218.477 231.496 220.279 231.496 222.585V243.198C231.496 243.614 231.345 243.816 231.056 243.816H229.6C229.299 243.816 229.161 243.614 229.161 243.198V222.711C229.161 220.405 228.81 218.578 228.094 217.217C227.391 215.856 226.475 215.176 225.346 215.176C224.103 215.176 223.111 215.831 222.384 217.154C221.643 218.477 221.279 220.279 221.279 222.585V243.198C221.279 243.614 221.128 243.816 220.84 243.816H219.422C219.12 243.816 218.982 243.614 218.982 243.198V213.336C218.982 212.92 219.133 212.719 219.422 212.719H220.84C221.128 212.719 221.279 212.92 221.279 213.336V215.617C221.279 215.743 221.304 215.818 221.367 215.831C221.43 215.856 221.467 215.806 221.505 215.68C222.032 214.571 222.71 213.727 223.513 213.147C224.329 212.568 225.17 212.278 226.061 212.278C227.178 212.278 228.157 212.694 228.985 213.513C229.814 214.332 230.441 215.503 230.893 217.028C230.956 217.23 231.031 217.192 231.119 216.902C231.621 215.377 232.324 214.231 233.24 213.45C234.156 212.668 235.16 212.278 236.252 212.278C237.934 212.278 239.265 213.185 240.231 214.987L240.193 214.999Z" fill="white"/>
<path d="M244.574 205.864C244.16 205.448 243.959 204.919 243.959 204.264C243.959 203.609 244.16 203.08 244.574 202.664C244.988 202.248 245.515 202.046 246.168 202.046C246.82 202.046 247.347 202.248 247.762 202.664C248.176 203.08 248.377 203.609 248.377 204.264C248.377 204.919 248.163 205.448 247.762 205.864C247.347 206.28 246.82 206.482 246.168 206.482C245.515 206.482 244.988 206.28 244.574 205.864ZM245.026 243.211V213.349C245.026 212.933 245.176 212.731 245.465 212.731H246.921C247.209 212.731 247.36 212.933 247.36 213.349V243.211C247.36 243.627 247.209 243.828 246.921 243.828H245.465C245.164 243.828 245.026 243.627 245.026 243.211Z" fill="white"/>
<path d="M252.518 241.762C251.326 240.061 250.723 237.818 250.723 235.071V221.501C250.723 218.792 251.326 216.562 252.543 214.835C253.748 213.109 255.33 212.24 257.275 212.24C258.568 212.24 259.722 212.618 260.726 213.386C261.731 214.142 262.509 215.15 263.048 216.41C263.601 217.67 263.864 219.031 263.864 220.518V220.883C263.864 221.299 263.714 221.501 263.425 221.501L261.969 221.627C261.668 221.627 261.53 221.425 261.53 221.009V220.644C261.53 219.157 261.128 217.872 260.337 216.788C259.547 215.705 258.517 215.15 257.287 215.15C256.057 215.15 255.041 215.755 254.25 216.965C253.472 218.174 253.083 219.749 253.083 221.69V234.958C253.083 236.848 253.472 238.41 254.25 239.62C255.028 240.829 256.045 241.434 257.287 241.434C258.53 241.434 259.547 240.892 260.337 239.796C261.128 238.713 261.53 237.415 261.53 235.941V235.638C261.53 235.222 261.68 235.021 261.969 235.021H263.425C263.726 235.021 263.864 235.222 263.864 235.638V236.13C263.864 237.616 263.588 238.977 263.048 240.237C262.509 241.497 261.731 242.493 260.726 243.236C259.722 243.979 258.568 244.345 257.275 244.345C255.292 244.345 253.71 243.488 252.518 241.787V241.762Z" fill="white"/>
<path d="M275.775 213.097C275.976 213.26 276.051 213.525 276.001 213.903L275.649 216.007C275.561 216.373 275.373 216.486 275.072 216.322C274.595 216.07 274.03 215.969 273.352 216.007C272.173 216.045 271.206 216.877 270.478 218.477C269.738 220.077 269.374 222.055 269.374 224.399V243.224C269.374 243.639 269.223 243.841 268.934 243.841H267.479C267.177 243.841 267.039 243.639 267.039 243.224V213.361C267.039 212.945 267.19 212.744 267.479 212.744H268.934C269.223 212.744 269.374 212.945 269.374 213.361V217.192C269.374 217.318 269.399 217.381 269.462 217.381C269.524 217.381 269.562 217.318 269.6 217.192C270.014 215.705 270.579 214.558 271.307 213.739C272.035 212.92 272.888 212.504 273.892 212.504C274.633 212.504 275.26 212.706 275.8 213.122L275.775 213.097Z" fill="white"/>
<path d="M278.849 241.762C277.657 240.061 277.055 237.818 277.055 235.071V221.501C277.055 218.792 277.657 216.562 278.875 214.835C280.079 213.109 281.661 212.24 283.606 212.24C285.552 212.24 287.221 213.097 288.426 214.798C289.631 216.511 290.246 218.741 290.246 221.488V235.059C290.246 237.818 289.643 240.048 288.426 241.749C287.221 243.45 285.602 244.307 283.606 244.307C281.611 244.307 280.042 243.45 278.849 241.749V241.762ZM286.706 239.595C287.497 238.385 287.899 236.823 287.899 234.933V221.665C287.899 219.737 287.497 218.162 286.706 216.94C285.916 215.73 284.874 215.125 283.606 215.125C282.339 215.125 281.36 215.73 280.569 216.94C279.791 218.149 279.402 219.724 279.402 221.665V234.933C279.402 236.823 279.791 238.385 280.569 239.595C281.347 240.804 282.364 241.409 283.606 241.409C284.849 241.409 285.903 240.804 286.706 239.595Z" fill="white"/>
<path d="M304.655 214.785C305.759 216.499 306.312 218.729 306.312 221.476V235.109C306.312 237.831 305.759 240.036 304.655 241.75C303.55 243.451 302.082 244.307 300.249 244.307C299.358 244.307 298.543 244.055 297.764 243.564C296.999 243.073 296.346 242.354 295.819 241.409C295.756 241.334 295.706 241.296 295.668 241.321C295.618 241.346 295.606 241.397 295.606 241.472V243.199C295.606 243.614 295.455 243.816 295.166 243.816H293.71C293.409 243.816 293.271 243.614 293.271 243.199V201.24C293.271 200.824 293.422 200.623 293.71 200.623H295.166C295.455 200.623 295.606 200.824 295.606 201.24V215.062C295.606 215.151 295.631 215.201 295.693 215.214C295.756 215.239 295.794 215.214 295.832 215.126C296.359 214.18 297.011 213.462 297.777 212.971C298.543 212.479 299.371 212.227 300.262 212.227C302.094 212.227 303.563 213.084 304.667 214.785H304.655ZM302.822 216.953C302.032 215.743 300.99 215.138 299.722 215.138C298.455 215.138 297.526 215.743 296.76 216.953C295.995 218.162 295.606 219.737 295.606 221.678V234.945C295.606 236.886 295.995 238.448 296.76 239.633C297.526 240.83 298.517 241.422 299.722 241.422C300.927 241.422 302.019 240.817 302.822 239.608C303.613 238.398 304.015 236.836 304.015 234.945V221.678C304.015 219.75 303.613 218.175 302.822 216.953Z" fill="white"/>
<path d="M309.286 205.864C308.871 205.448 308.671 204.919 308.671 204.264C308.671 203.609 308.871 203.08 309.286 202.664C309.7 202.248 310.227 202.046 310.88 202.046C311.532 202.046 312.059 202.248 312.474 202.664C312.888 203.08 313.089 203.609 313.089 204.264C313.089 204.919 312.875 205.448 312.474 205.864C312.059 206.28 311.532 206.482 310.88 206.482C310.227 206.482 309.7 206.28 309.286 205.864ZM309.725 243.211V213.349C309.725 212.933 309.876 212.731 310.164 212.731H311.62C311.909 212.731 312.059 212.933 312.059 213.349V243.211C312.059 243.627 311.909 243.828 311.62 243.828H310.164C309.863 243.828 309.725 243.627 309.725 243.211Z" fill="white"/>
<path d="M317.181 241.762C315.989 240.061 315.386 237.818 315.386 235.071V221.501C315.386 218.792 315.989 216.562 317.206 214.835C318.411 213.109 319.992 212.24 321.938 212.24C323.883 212.24 325.552 213.097 326.757 214.798C327.962 216.511 328.577 218.741 328.577 221.488V235.059C328.577 237.818 327.975 240.048 326.757 241.749C325.552 243.45 323.933 244.307 321.938 244.307C319.942 244.307 318.373 243.45 317.181 241.749V241.762ZM325.038 239.595C325.828 238.385 326.23 236.823 326.23 234.933V221.665C326.23 219.737 325.828 218.162 325.038 216.94C324.247 215.73 323.205 215.125 321.938 215.125C320.67 215.125 319.691 215.73 318.9 216.94C318.122 218.149 317.733 219.724 317.733 221.665V234.933C317.733 236.823 318.122 238.385 318.9 239.595C319.678 240.804 320.695 241.409 321.938 241.409C323.18 241.409 324.234 240.804 325.038 239.595Z" fill="white"/>
<path d="M338.141 215.314H334.602C334.489 215.314 334.426 215.403 334.426 215.566V235.437C334.426 237.491 334.677 238.927 335.179 239.721C335.681 240.527 336.472 240.93 337.564 240.93H338.003C338.292 240.93 338.443 241.132 338.443 241.548V243.211C338.443 243.627 338.292 243.828 338.003 243.828H337.112C335.455 243.828 334.213 243.299 333.372 242.228C332.531 241.157 332.117 239.166 332.117 236.243V215.566C332.117 215.403 332.054 215.314 331.941 215.314H330.121C329.82 215.314 329.682 215.113 329.682 214.697V213.336C329.682 212.92 329.833 212.719 330.121 212.719H331.941C332.054 212.719 332.117 212.643 332.117 212.467V205.549C332.117 205.134 332.268 204.932 332.556 204.932H333.974C334.263 204.932 334.414 205.134 334.414 205.549V212.467C334.414 212.631 334.476 212.719 334.589 212.719H338.129C338.417 212.719 338.568 212.92 338.568 213.336V214.697C338.568 215.113 338.417 215.314 338.129 215.314H338.141Z" fill="white"/>
<path d="M351.883 215.037C353.013 216.915 353.59 219.41 353.59 222.534V243.211C353.59 243.627 353.44 243.829 353.151 243.829H351.695C351.394 243.829 351.256 243.627 351.256 243.211V240.994C351.256 240.868 351.231 240.805 351.193 240.779C351.143 240.754 351.093 240.779 351.042 240.868C349.95 243.173 348.243 244.32 345.909 244.32C344.34 244.32 342.985 243.677 341.842 242.405C340.688 241.132 340.123 238.889 340.123 235.676C340.123 232.262 340.813 229.754 342.181 228.141C343.549 226.541 345.369 225.735 347.641 225.735H351.093C351.206 225.735 351.268 225.659 351.268 225.483V222.648C351.268 220.342 350.904 218.515 350.164 217.154C349.423 215.793 348.407 215.113 347.114 215.113C346.11 215.113 345.231 215.567 344.478 216.474C343.725 217.381 343.286 218.553 343.173 219.989C343.173 220.405 343.022 220.607 342.734 220.607L341.14 220.481C340.989 220.481 340.876 220.418 340.813 220.292C340.738 220.166 340.713 220.027 340.751 219.863C340.926 217.557 341.617 215.705 342.834 214.307C344.039 212.908 345.507 212.202 347.214 212.202C349.222 212.202 350.791 213.135 351.933 215.012L351.883 215.037ZM349.8 239.633C350.754 238.436 351.243 236.76 351.243 234.568V228.708C351.243 228.545 351.18 228.456 351.067 228.456H347.616C346.085 228.456 344.855 229.049 343.926 230.221C342.997 231.392 342.533 233.131 342.533 235.437C342.533 237.453 342.884 238.952 343.6 239.948C344.302 240.931 345.231 241.435 346.386 241.435C347.716 241.435 348.858 240.842 349.812 239.645L349.8 239.633Z" fill="white"/>
<path d="M366.179 241.939C365.012 240.477 364.434 238.6 364.434 236.294V235.928C364.434 235.513 364.585 235.311 364.874 235.311H366.242C366.543 235.311 366.681 235.513 366.681 235.928V236.294C366.681 237.781 367.058 239.003 367.836 239.998C368.614 240.994 369.593 241.485 370.798 241.485C372.003 241.485 372.931 240.981 373.647 239.973C374.375 238.965 374.726 237.655 374.726 236.054C374.726 234.857 374.525 233.875 374.111 233.093C373.697 232.312 373.182 231.682 372.567 231.216C371.952 230.737 371.111 230.195 370.045 229.578C368.89 228.923 367.949 228.267 367.208 227.637C366.468 226.995 365.84 226.113 365.325 224.979C364.811 223.845 364.547 222.421 364.547 220.695C364.547 218.187 365.112 216.184 366.229 214.71C367.346 213.236 368.84 212.492 370.697 212.492C372.555 212.492 374.086 213.248 375.216 214.773C376.333 216.297 376.897 218.276 376.897 220.695V220.884C376.897 221.3 376.747 221.501 376.458 221.501H375.128C374.839 221.501 374.688 221.3 374.688 220.884V220.581C374.688 219.057 374.324 217.784 373.584 216.751C372.843 215.718 371.89 215.214 370.71 215.214C369.53 215.214 368.589 215.718 367.873 216.726C367.17 217.734 366.806 219.044 366.806 220.644C366.806 221.753 366.995 222.686 367.384 223.416C367.773 224.16 368.25 224.752 368.827 225.206C369.405 225.659 370.208 226.214 371.237 226.869C372.442 227.574 373.446 228.242 374.224 228.872C375.002 229.515 375.68 230.41 376.232 231.556C376.797 232.703 377.073 234.164 377.073 235.941C377.073 238.411 376.496 240.389 375.354 241.901C374.199 243.4 372.68 244.156 370.798 244.156C368.915 244.156 367.334 243.425 366.166 241.964L366.179 241.939Z" fill="white"/>
<path d="M390.691 214.785C391.795 216.499 392.347 218.729 392.347 221.476V235.046C392.347 237.806 391.795 240.036 390.691 241.737C389.586 243.438 388.118 244.295 386.285 244.295C385.394 244.295 384.578 244.043 383.813 243.551C383.047 243.06 382.395 242.342 381.867 241.397C381.805 241.321 381.754 241.283 381.717 241.309C381.667 241.334 381.654 241.384 381.654 241.46V255.282C381.654 255.698 381.503 255.9 381.215 255.9H379.759C379.458 255.9 379.32 255.698 379.32 255.282V213.324C379.32 212.908 379.47 212.706 379.759 212.706H381.215C381.503 212.706 381.654 212.908 381.654 213.324V215.05C381.654 215.138 381.679 215.189 381.742 215.201C381.805 215.226 381.842 215.201 381.88 215.113C382.407 214.168 383.06 213.45 383.825 212.958C384.591 212.467 385.419 212.215 386.298 212.215C388.13 212.215 389.599 213.072 390.703 214.773L390.691 214.785ZM388.858 216.953C388.068 215.743 387.026 215.138 385.758 215.138C384.491 215.138 383.562 215.73 382.796 216.927C382.031 218.124 381.641 219.687 381.641 221.615V234.946C381.641 236.886 382.018 238.448 382.796 239.633C383.562 240.83 384.553 241.422 385.758 241.422C386.963 241.422 388.055 240.817 388.858 239.608C389.649 238.398 390.051 236.836 390.051 234.946V221.615C390.051 219.725 389.649 218.175 388.858 216.953Z" fill="white"/>
<path d="M396.842 241.762C395.65 240.061 395.047 237.818 395.047 235.071V221.501C395.047 218.792 395.65 216.562 396.867 214.835C398.072 213.109 399.654 212.24 401.599 212.24C403.544 212.24 405.214 213.097 406.418 214.798C407.623 216.511 408.238 218.741 408.238 221.488V235.059C408.238 237.818 407.636 240.048 406.418 241.749C405.214 243.45 403.595 244.307 401.599 244.307C399.603 244.307 398.034 243.45 396.842 241.749V241.762ZM404.699 239.595C405.49 238.385 405.891 236.823 405.891 234.933V221.665C405.891 219.737 405.49 218.162 404.699 216.94C403.908 215.73 402.867 215.125 401.599 215.125C400.331 215.125 399.352 215.73 398.562 216.94C397.783 218.149 397.394 219.724 397.394 221.665V234.933C397.394 236.823 397.783 238.385 398.562 239.595C399.34 240.804 400.356 241.409 401.599 241.409C402.841 241.409 403.896 240.804 404.699 239.595Z" fill="white"/>
<path d="M419.747 213.097C419.948 213.26 420.023 213.525 419.973 213.903L419.621 216.007C419.534 216.373 419.345 216.486 419.044 216.322C418.567 216.07 418.002 215.969 417.325 216.007C416.145 216.045 415.178 216.877 414.45 218.477C413.71 220.077 413.346 222.055 413.346 224.399V243.224C413.346 243.639 413.195 243.841 412.907 243.841H411.451C411.15 243.841 411.011 243.639 411.011 243.224V213.361C411.011 212.945 411.162 212.744 411.451 212.744H412.907C413.195 212.744 413.346 212.945 413.346 213.361V217.192C413.346 217.318 413.371 217.381 413.434 217.381C413.497 217.381 413.534 217.318 413.572 217.192C413.986 215.705 414.551 214.558 415.279 213.739C416.007 212.92 416.86 212.504 417.864 212.504C418.605 212.504 419.232 212.706 419.772 213.122L419.747 213.097Z" fill="white"/>
<path d="M433.151 229.452H422.972C422.859 229.452 422.797 229.54 422.797 229.704V234.945C422.797 236.835 423.186 238.398 423.964 239.607C424.742 240.817 425.759 241.422 427.001 241.422C428.03 241.422 428.922 240.993 429.662 240.124C430.403 239.254 430.879 238.133 431.118 236.734C431.206 236.369 431.369 236.18 431.607 236.18L433.026 236.306C433.139 236.306 433.252 236.344 433.339 236.432C433.427 236.52 433.452 236.634 433.427 236.797V237.049C433.126 239.317 432.423 241.094 431.306 242.392C430.189 243.69 428.758 244.332 427.014 244.332C425.068 244.332 423.487 243.475 422.282 241.774C421.077 240.073 420.462 237.856 420.462 235.134V221.501C420.462 218.792 421.065 216.562 422.282 214.835C423.487 213.109 425.068 212.24 427.014 212.24C428.959 212.24 430.578 213.109 431.796 214.835C433.001 216.562 433.616 218.779 433.616 221.501V228.847C433.616 229.263 433.465 229.464 433.176 229.464L433.151 229.452ZM423.976 216.952C423.198 218.162 422.809 219.737 422.809 221.677V226.365C422.809 226.528 422.872 226.617 422.985 226.617H431.08C431.193 226.617 431.256 226.541 431.256 226.365V221.677C431.256 219.749 430.867 218.174 430.089 216.952C429.311 215.743 428.281 215.138 427.014 215.138C425.746 215.138 424.767 215.743 423.976 216.952Z" fill="white"/>
<path d="M437.606 241.939C436.439 240.477 435.862 238.6 435.862 236.294V235.928C435.862 235.513 436.012 235.311 436.301 235.311H437.669C437.97 235.311 438.108 235.513 438.108 235.928V236.294C438.108 237.781 438.485 239.003 439.263 239.998C440.041 240.994 441.02 241.485 442.225 241.485C443.43 241.485 444.359 240.981 445.074 239.973C445.802 238.965 446.154 237.655 446.154 236.054C446.154 234.857 445.953 233.875 445.539 233.093C445.124 232.312 444.61 231.682 443.995 231.216C443.38 230.737 442.539 230.195 441.472 229.578C440.317 228.923 439.376 228.267 438.635 227.637C437.895 226.995 437.267 226.113 436.753 224.979C436.238 223.845 435.975 222.421 435.975 220.695C435.975 218.187 436.539 216.184 437.657 214.71C438.774 213.236 440.267 212.492 442.125 212.492C443.982 212.492 445.513 213.248 446.643 214.773C447.76 216.297 448.325 218.276 448.325 220.695V220.884C448.325 221.3 448.174 221.501 447.886 221.501H446.555C446.266 221.501 446.116 221.3 446.116 220.884V220.581C446.116 219.057 445.752 217.784 445.011 216.751C444.271 215.718 443.317 215.214 442.137 215.214C440.957 215.214 440.016 215.718 439.301 216.726C438.598 217.734 438.234 219.044 438.234 220.644C438.234 221.753 438.422 222.686 438.811 223.416C439.2 224.16 439.677 224.752 440.255 225.206C440.832 225.659 441.635 226.214 442.664 226.869C443.869 227.574 444.873 228.242 445.651 228.872C446.43 229.515 447.107 230.41 447.66 231.556C448.224 232.703 448.501 234.164 448.501 235.941C448.501 238.411 447.923 240.389 446.781 241.901C445.626 243.4 444.108 244.156 442.225 244.156C440.342 244.156 438.761 243.425 437.594 241.964L437.606 241.939Z" fill="white"/>
<path d="M449.228 248.201C449.14 248.075 449.115 247.911 449.14 247.709L450.646 234.87C450.709 234.504 450.847 234.315 451.086 234.315H452.328C452.479 234.315 452.592 234.378 452.655 234.504C452.73 234.63 452.755 234.794 452.717 234.996L450.86 247.835C450.835 248.201 450.672 248.39 450.37 248.39H449.529C449.416 248.39 449.304 248.327 449.216 248.201H449.228Z" fill="white"/>
<path d="M172.682 300.895V258.936C172.682 258.52 172.833 258.319 173.121 258.319H174.577C174.879 258.319 175.017 258.52 175.017 258.936V300.895C175.017 301.31 174.866 301.512 174.577 301.512H173.121C172.82 301.512 172.682 301.31 172.682 300.895Z" fill="white"/>
<path d="M177.903 263.548C177.489 263.132 177.288 262.603 177.288 261.948C177.288 261.292 177.489 260.763 177.903 260.347C178.317 259.932 178.844 259.73 179.497 259.73C180.149 259.73 180.677 259.932 181.091 260.347C181.505 260.763 181.706 261.292 181.706 261.948C181.706 262.603 181.492 263.132 181.091 263.548C180.677 263.964 180.149 264.165 179.497 264.165C178.844 264.165 178.317 263.964 177.903 263.548ZM178.342 300.895V271.032C178.342 270.617 178.493 270.415 178.781 270.415H180.237C180.526 270.415 180.676 270.617 180.676 271.032V300.895C180.676 301.31 180.526 301.512 180.237 301.512H178.781C178.48 301.512 178.342 301.31 178.342 300.895Z" fill="white"/>
<path d="M188.972 300.958L183.437 271.095L183.387 270.906C183.387 270.579 183.538 270.415 183.827 270.415H185.508C185.772 270.415 185.935 270.604 185.998 270.969L190.202 295.968C190.228 296.094 190.265 296.157 190.29 296.157C190.315 296.157 190.353 296.094 190.378 295.968L194.583 270.969C194.645 270.604 194.809 270.415 195.072 270.415L196.792 270.478C196.942 270.478 197.055 270.541 197.118 270.667C197.193 270.793 197.193 270.957 197.143 271.158L191.696 300.97C191.671 301.336 191.508 301.525 191.206 301.525H189.437C189.173 301.525 189.01 301.336 188.947 300.97L188.972 300.958Z" fill="white"/>
<path d="M211.502 287.135H201.324C201.211 287.135 201.148 287.223 201.148 287.387V292.629C201.148 294.519 201.537 296.081 202.315 297.291C203.093 298.501 204.11 299.105 205.353 299.105C206.382 299.105 207.273 298.677 208.013 297.808C208.754 296.938 209.231 295.817 209.469 294.418C209.557 294.053 209.72 293.864 209.959 293.864L211.377 293.99C211.49 293.99 211.603 294.028 211.691 294.116C211.779 294.204 211.804 294.317 211.779 294.481V294.733C211.477 297.001 210.775 298.778 209.658 300.076C208.54 301.373 207.11 302.016 205.365 302.016C203.42 302.016 201.838 301.159 200.633 299.458C199.428 297.757 198.813 295.54 198.813 292.818V279.185C198.813 276.476 199.416 274.245 200.633 272.519C201.838 270.793 203.42 269.923 205.365 269.923C207.31 269.923 208.93 270.793 210.147 272.519C211.352 274.245 211.967 276.463 211.967 279.185V286.53C211.967 286.946 211.816 287.148 211.528 287.148L211.502 287.135ZM202.315 274.636C201.537 275.846 201.148 277.421 201.148 279.361V284.048C201.148 284.212 201.211 284.3 201.324 284.3H209.419C209.532 284.3 209.595 284.225 209.595 284.048V279.361C209.595 277.433 209.206 275.858 208.428 274.636C207.649 273.426 206.62 272.822 205.353 272.822C204.085 272.822 203.106 273.426 202.315 274.636Z" fill="white"/>
<path d="M213.975 282.939V281.276C213.975 280.86 214.125 280.659 214.414 280.659H224.191C224.48 280.659 224.63 280.86 224.63 281.276V282.939C224.63 283.355 224.48 283.557 224.191 283.557H214.414C214.113 283.557 213.975 283.355 213.975 282.939Z" fill="white"/>
<path d="M239.353 272.468C240.457 274.182 241.009 276.412 241.009 279.159V292.792C241.009 295.514 240.457 297.719 239.353 299.433C238.248 301.134 236.78 301.991 234.947 301.991C234.056 301.991 233.24 301.739 232.462 301.247C231.697 300.756 231.044 300.038 230.517 299.093C230.454 299.017 230.404 298.979 230.366 299.004C230.316 299.03 230.303 299.08 230.303 299.156V300.882C230.303 301.298 230.153 301.499 229.864 301.499H228.408C228.107 301.499 227.969 301.298 227.969 300.882V258.923C227.969 258.508 228.12 258.306 228.408 258.306H229.864C230.153 258.306 230.303 258.508 230.303 258.923V272.746C230.303 272.834 230.329 272.884 230.391 272.897C230.454 272.922 230.492 272.897 230.529 272.809C231.056 271.864 231.709 271.145 232.475 270.654C233.24 270.163 234.069 269.911 234.96 269.911C236.792 269.911 238.261 270.767 239.365 272.468H239.353ZM237.52 274.636C236.729 273.426 235.688 272.821 234.42 272.821C233.152 272.821 232.224 273.426 231.458 274.636C230.692 275.845 230.303 277.42 230.303 279.361V292.629C230.303 294.569 230.692 296.132 231.458 297.316C232.224 298.513 233.215 299.105 234.42 299.105C235.625 299.105 236.717 298.5 237.52 297.291C238.311 296.081 238.713 294.519 238.713 292.629V279.361C238.713 277.433 238.311 275.858 237.52 274.636Z" fill="white"/>
<path d="M253.322 270.78C253.523 270.944 253.598 271.209 253.548 271.587L253.196 273.691C253.108 274.056 252.92 274.17 252.619 274.006C252.142 273.754 251.577 273.653 250.9 273.691C249.72 273.729 248.753 274.56 248.025 276.161C247.285 277.761 246.921 279.739 246.921 282.083V300.907C246.921 301.323 246.77 301.525 246.482 301.525H245.026C244.724 301.525 244.586 301.323 244.586 300.907V271.045C244.586 270.629 244.737 270.428 245.026 270.428H246.482C246.77 270.428 246.921 270.629 246.921 271.045V274.875C246.921 275.001 246.946 275.064 247.009 275.064C247.071 275.064 247.109 275.001 247.147 274.875C247.561 273.389 248.126 272.242 248.854 271.423C249.582 270.604 250.435 270.188 251.439 270.188C252.18 270.188 252.807 270.39 253.347 270.806L253.322 270.78Z" fill="white"/>
<path d="M267.503 272.469C268.608 274.182 269.16 276.412 269.16 279.159V292.73C269.16 295.489 268.608 297.719 267.503 299.42C266.399 301.121 264.93 301.978 263.098 301.978C262.207 301.978 261.391 301.726 260.625 301.235C259.86 300.743 259.207 300.025 258.68 299.08C258.617 299.004 258.567 298.967 258.529 298.992C258.479 299.017 258.466 299.067 258.466 299.143V312.965C258.466 313.381 258.316 313.583 258.027 313.583H256.571C256.27 313.583 256.132 313.381 256.132 312.965V271.007C256.132 270.591 256.283 270.389 256.571 270.389H258.027C258.316 270.389 258.466 270.591 258.466 271.007V272.733C258.466 272.821 258.492 272.872 258.554 272.884C258.617 272.91 258.655 272.884 258.692 272.796C259.22 271.851 259.872 271.133 260.638 270.642C261.403 270.15 262.232 269.898 263.11 269.898C264.943 269.898 266.411 270.755 267.516 272.456L267.503 272.469ZM265.671 274.636C264.88 273.426 263.838 272.821 262.571 272.821C261.303 272.821 260.374 273.414 259.609 274.611C258.843 275.808 258.454 277.37 258.454 279.298V292.629C258.454 294.569 258.83 296.132 259.609 297.316C260.374 298.513 261.366 299.105 262.571 299.105C263.776 299.105 264.867 298.5 265.671 297.291C266.461 296.081 266.863 294.519 266.863 292.629V279.298C266.863 277.408 266.461 275.858 265.671 274.636Z" fill="white"/>
<path d="M272.75 300.895V258.936C272.75 258.52 272.9 258.319 273.189 258.319H274.645C274.933 258.319 275.084 258.52 275.084 258.936V284.855C275.084 284.943 275.109 284.993 275.172 285.006C275.235 285.031 275.272 285.006 275.31 284.918L282.615 270.78C282.728 270.528 282.903 270.415 283.142 270.415H284.685C284.861 270.415 284.974 270.49 285.037 270.629C285.1 270.768 285.062 270.944 284.949 271.158L280.657 279.55C280.594 279.638 280.581 279.739 280.606 279.865L285.79 300.844L285.84 301.096C285.84 301.386 285.702 301.525 285.439 301.525H283.895C283.631 301.525 283.455 301.361 283.368 301.033L279.163 282.7C279.138 282.448 279.05 282.435 278.899 282.637L275.184 289.794C275.122 289.882 275.097 289.983 275.097 290.109V300.907C275.097 301.323 274.946 301.525 274.657 301.525H273.201C272.9 301.525 272.762 301.323 272.762 300.907L272.75 300.895Z" fill="white"/>
<path d="M288.991 254.791C290.057 257.84 290.924 261.708 291.601 266.395C292.279 271.083 292.618 275.921 292.618 280.898C292.618 285.875 292.279 291.016 291.601 295.829C290.924 300.643 290.02 304.586 288.903 307.673C288.79 307.963 288.602 308.102 288.376 308.102H287.008C286.857 308.102 286.744 308.026 286.681 307.888C286.606 307.749 286.606 307.585 286.656 307.421C287.635 304.259 288.426 300.302 289.041 295.577C289.656 290.852 289.97 285.989 289.97 281.012C289.97 276.034 289.656 271.347 289.041 266.698C288.426 262.048 287.623 258.18 286.656 255.093L286.606 254.841C286.606 254.513 286.744 254.35 287.008 254.35H288.464C288.702 254.35 288.878 254.488 288.991 254.778V254.791Z" fill="white"/>
<path d="M304.679 299.446C303.487 297.745 302.884 295.502 302.884 292.755V279.185C302.884 276.476 303.487 274.245 304.704 272.519C305.909 270.793 307.491 269.923 309.436 269.923C310.729 269.923 311.883 270.301 312.888 271.07C313.892 271.826 314.67 272.834 315.21 274.094C315.762 275.354 316.025 276.715 316.025 278.202V278.567C316.025 278.983 315.875 279.185 315.586 279.185L314.13 279.311C313.829 279.311 313.691 279.109 313.691 278.693V278.328C313.691 276.841 313.289 275.556 312.499 274.472C311.708 273.389 310.679 272.834 309.449 272.834C308.219 272.834 307.202 273.439 306.411 274.649C305.633 275.858 305.244 277.433 305.244 279.374V292.642C305.244 294.532 305.633 296.094 306.411 297.304C307.189 298.513 308.206 299.118 309.449 299.118C310.691 299.118 311.708 298.576 312.499 297.48C313.289 296.396 313.691 295.099 313.691 293.624V293.322C313.691 292.906 313.841 292.704 314.13 292.704H315.586C315.887 292.704 316.025 292.906 316.025 293.322V293.813C316.025 295.3 315.749 296.661 315.21 297.921C314.67 299.181 313.892 300.176 312.888 300.92C311.883 301.663 310.729 302.029 309.436 302.029C307.453 302.029 305.872 301.172 304.679 299.471V299.446Z" fill="white"/>
<path d="M330.887 272.721C332.016 274.598 332.594 277.093 332.594 280.218V300.894C332.594 301.31 332.443 301.512 332.155 301.512H330.699C330.397 301.512 330.259 301.31 330.259 300.894V298.677C330.259 298.551 330.234 298.488 330.197 298.463C330.146 298.437 330.096 298.463 330.046 298.551C328.954 300.857 327.247 302.003 324.913 302.003C323.344 302.003 321.988 301.361 320.846 300.088C319.691 298.815 319.127 296.573 319.127 293.36C319.127 289.945 319.817 287.437 321.185 285.825C322.553 284.224 324.373 283.418 326.645 283.418H330.096C330.209 283.418 330.272 283.342 330.272 283.166V280.331C330.272 278.025 329.908 276.198 329.167 274.837C328.427 273.477 327.41 272.796 326.117 272.796C325.113 272.796 324.235 273.25 323.482 274.157C322.729 275.064 322.289 276.236 322.176 277.672C322.176 278.088 322.026 278.29 321.737 278.29L320.143 278.164C319.993 278.164 319.88 278.101 319.817 277.975C319.742 277.849 319.716 277.71 319.754 277.546C319.93 275.241 320.62 273.388 321.838 271.99C323.043 270.591 324.511 269.886 326.218 269.886C328.226 269.886 329.795 270.818 330.937 272.695L330.887 272.721ZM328.803 297.316C329.757 296.119 330.247 294.443 330.247 292.251V286.392C330.247 286.228 330.184 286.14 330.071 286.14H326.62C325.088 286.14 323.858 286.732 322.93 287.904C322.001 289.076 321.536 290.814 321.536 293.12C321.536 295.136 321.888 296.636 322.603 297.631C323.306 298.614 324.235 299.118 325.39 299.118C326.72 299.118 327.862 298.526 328.816 297.329L328.803 297.316Z" fill="white"/>
<path d="M347.654 272.469C348.759 274.182 349.311 276.412 349.311 279.159V292.73C349.311 295.489 348.759 297.719 347.654 299.42C346.55 301.121 345.081 301.978 343.249 301.978C342.358 301.978 341.542 301.726 340.776 301.235C340.011 300.743 339.358 300.025 338.831 299.08C338.768 299.004 338.718 298.967 338.68 298.992C338.63 299.017 338.617 299.067 338.617 299.143V312.965C338.617 313.381 338.467 313.583 338.178 313.583H336.722C336.421 313.583 336.283 313.381 336.283 312.965V271.007C336.283 270.591 336.434 270.389 336.722 270.389H338.178C338.467 270.389 338.617 270.591 338.617 271.007V272.733C338.617 272.821 338.643 272.872 338.705 272.884C338.768 272.91 338.806 272.884 338.843 272.796C339.371 271.851 340.023 271.133 340.789 270.642C341.554 270.15 342.383 269.898 343.261 269.898C345.094 269.898 346.562 270.755 347.667 272.456L347.654 272.469ZM345.822 274.636C345.031 273.426 343.989 272.821 342.722 272.821C341.454 272.821 340.525 273.414 339.76 274.611C338.994 275.808 338.605 277.37 338.605 279.298V292.629C338.605 294.569 338.981 296.132 339.76 297.316C340.525 298.513 341.517 299.105 342.722 299.105C343.927 299.105 345.018 298.5 345.822 297.291C346.612 296.081 347.014 294.519 347.014 292.629V279.298C347.014 277.408 346.612 275.858 345.822 274.636Z" fill="white"/>
<path d="M354.382 299.622C353.215 298.16 352.637 296.283 352.637 293.977V293.612C352.637 293.196 352.788 292.994 353.077 292.994H354.445C354.746 292.994 354.884 293.196 354.884 293.612V293.977C354.884 295.464 355.261 296.686 356.039 297.682C356.817 298.677 357.796 299.168 359.001 299.168C360.206 299.168 361.134 298.664 361.85 297.656C362.578 296.648 362.929 295.338 362.929 293.738C362.929 292.541 362.728 291.558 362.314 290.777C361.9 289.996 361.385 289.366 360.77 288.899C360.155 288.421 359.315 287.879 358.248 287.261C357.093 286.606 356.152 285.951 355.411 285.321C354.671 284.678 354.043 283.796 353.529 282.662C353.014 281.528 352.75 280.104 352.75 278.378C352.75 275.871 353.315 273.867 354.432 272.393C355.549 270.919 357.043 270.176 358.9 270.176C360.758 270.176 362.289 270.932 363.419 272.456C364.536 273.981 365.101 275.959 365.101 278.378V278.567C365.101 278.983 364.95 279.185 364.661 279.185H363.331C363.042 279.185 362.892 278.983 362.892 278.567V278.265C362.892 276.74 362.528 275.468 361.787 274.434C361.047 273.401 360.093 272.897 358.913 272.897C357.733 272.897 356.792 273.401 356.076 274.409C355.374 275.417 355.01 276.728 355.01 278.328C355.01 279.437 355.198 280.369 355.587 281.1C355.976 281.843 356.453 282.435 357.03 282.889C357.608 283.343 358.411 283.897 359.44 284.552C360.645 285.258 361.649 285.926 362.427 286.556C363.205 287.198 363.883 288.093 364.435 289.24C365 290.386 365.276 291.848 365.276 293.624C365.276 296.094 364.699 298.072 363.557 299.584C362.402 301.084 360.883 301.84 359.001 301.84C357.118 301.84 355.537 301.109 354.37 299.647L354.382 299.622Z" fill="white"/>
<path d="M379.633 270.402H381.089C381.39 270.402 381.528 270.604 381.528 271.02V300.882C381.528 301.298 381.378 301.499 381.089 301.499H379.633C379.332 301.499 379.194 301.298 379.194 300.882V298.664C379.194 298.538 379.169 298.475 379.131 298.45C379.081 298.425 379.031 298.45 378.981 298.538C378.039 300.806 376.533 301.928 374.462 301.928C372.693 301.928 371.287 301.172 370.258 299.672C369.228 298.173 368.714 295.917 368.714 292.918V271.007C368.714 270.591 368.864 270.389 369.153 270.389H370.609C370.91 270.389 371.048 270.591 371.048 271.007V292.175C371.048 294.443 371.4 296.144 372.09 297.291C372.78 298.437 373.759 299.017 375.027 299.017C376.295 299.017 377.349 298.362 378.077 297.039C378.817 295.728 379.181 293.914 379.181 291.608V270.994C379.181 270.578 379.332 270.377 379.621 270.377L379.633 270.402Z" fill="white"/>
<path d="M385.558 300.895V258.936C385.558 258.52 385.709 258.319 385.997 258.319H387.453C387.754 258.319 387.893 258.52 387.893 258.936V300.895C387.893 301.31 387.742 301.512 387.453 301.512H385.997C385.696 301.512 385.558 301.31 385.558 300.895Z" fill="white"/>
<path d="M404.586 287.135H394.407C394.294 287.135 394.232 287.223 394.232 287.387V292.629C394.232 294.519 394.621 296.081 395.399 297.291C396.177 298.501 397.194 299.105 398.436 299.105C399.465 299.105 400.356 298.677 401.097 297.808C401.837 296.938 402.314 295.817 402.553 294.418C402.641 294.053 402.804 293.864 403.042 293.864L404.461 293.99C404.574 293.99 404.686 294.028 404.774 294.116C404.862 294.204 404.887 294.317 404.862 294.481V294.733C404.561 297.001 403.858 298.778 402.741 300.076C401.624 301.373 400.193 302.016 398.449 302.016C396.503 302.016 394.922 301.159 393.717 299.458C392.512 297.757 391.897 295.54 391.897 292.818V279.185C391.897 276.476 392.5 274.245 393.717 272.519C394.922 270.793 396.503 269.923 398.449 269.923C400.394 269.923 402.013 270.793 403.231 272.519C404.435 274.245 405.05 276.463 405.05 279.185V286.53C405.05 286.946 404.9 287.148 404.611 287.148L404.586 287.135ZM395.411 274.636C394.633 275.846 394.244 277.421 394.244 279.361V284.048C394.244 284.212 394.307 284.3 394.42 284.3H402.515C402.628 284.3 402.691 284.225 402.691 284.048V279.361C402.691 277.433 402.302 275.858 401.524 274.636C400.745 273.426 399.716 272.822 398.449 272.822C397.181 272.822 396.202 273.426 395.411 274.636Z" fill="white"/>
<path d="M409.041 299.622C407.874 298.16 407.297 296.283 407.297 293.977V293.612C407.297 293.196 407.447 292.994 407.736 292.994H409.104C409.405 292.994 409.543 293.196 409.543 293.612V293.977C409.543 295.464 409.92 296.686 410.698 297.682C411.476 298.677 412.455 299.168 413.66 299.168C414.865 299.168 415.794 298.664 416.509 297.656C417.237 296.648 417.588 295.338 417.588 293.738C417.588 292.541 417.388 291.558 416.973 290.777C416.559 289.996 416.045 289.366 415.43 288.899C414.815 288.421 413.974 287.879 412.907 287.261C411.752 286.606 410.811 285.951 410.07 285.321C409.33 284.678 408.702 283.796 408.188 282.662C407.673 281.528 407.41 280.104 407.41 278.378C407.41 275.871 407.974 273.867 409.091 272.393C410.208 270.919 411.702 270.176 413.56 270.176C415.417 270.176 416.948 270.932 418.078 272.456C419.195 273.981 419.76 275.959 419.76 278.378V278.567C419.76 278.983 419.609 279.185 419.32 279.185H417.99C417.701 279.185 417.551 278.983 417.551 278.567V278.265C417.551 276.74 417.187 275.468 416.446 274.434C415.706 273.401 414.752 272.897 413.572 272.897C412.392 272.897 411.451 273.401 410.736 274.409C410.033 275.417 409.669 276.728 409.669 278.328C409.669 279.437 409.857 280.369 410.246 281.1C410.635 281.843 411.112 282.435 411.689 282.889C412.267 283.343 413.07 283.897 414.099 284.552C415.304 285.258 416.308 285.926 417.086 286.556C417.864 287.198 418.542 288.093 419.094 289.24C419.659 290.386 419.935 291.848 419.935 293.624C419.935 296.094 419.358 298.072 418.216 299.584C417.061 301.084 415.543 301.84 413.66 301.84C411.777 301.84 410.196 301.109 409.029 299.647L409.041 299.622Z" fill="white"/>
<path d="M151.846 129.986H159.415L172.857 159.811C173.472 161.184 174.024 162.533 174.539 163.881C175.706 166.892 176.609 169.349 177.237 171.252H177.563C177.902 170.156 178.279 169.034 178.693 167.913L180.011 164.322C180.525 162.999 181.09 161.651 181.73 160.29L195.398 129.986H202.565L178.818 182.668H175.605L151.846 129.986Z" fill="white"/>
<path d="M265.547 129.986H273.404C281.01 148.937 285.026 158.979 285.465 160.101C286.469 162.835 287.122 164.7 287.436 165.683L288.352 168.291H288.678C288.992 167.144 289.331 165.972 289.707 164.775L290.95 160.882C291.414 159.458 291.929 157.984 292.481 156.447L301.945 129.999H304.028L313.78 155.892L317.985 168.291H318.311L320.909 159.924C321.373 158.463 321.85 157.077 322.34 155.779L331.653 129.986H339.51L319.114 182.668H317.031L305.923 153.246C305.609 152.465 305.283 151.57 304.969 150.562L302.999 144.514H302.785L301.832 147.702C301.568 148.609 301.267 149.554 300.953 150.525L289.481 182.655H287.398L265.547 129.986Z" fill="white"/>
<path d="M343.625 170.231C348.156 173.167 352.762 175.095 357.444 176.027C359.025 176.342 360.632 176.506 362.263 176.506C363.895 176.506 365.577 176.355 367.321 176.053C369.066 175.75 370.61 175.234 371.94 174.528C374.965 172.915 376.471 170.433 376.471 167.081C376.471 163.73 373.936 161.222 368.865 159.849C367.384 159.458 365.79 159.105 364.108 158.79L358.887 157.871C352.235 156.724 347.591 155.036 344.968 152.805C342.533 150.777 341.316 148.043 341.316 144.59C341.316 139.89 343.562 136.098 348.043 133.187C352.034 130.566 356.753 129.256 362.188 129.256C367.623 129.256 372.091 130.113 376.258 131.826C377.739 132.418 379.295 133.149 380.901 134.031L378.416 140.016C374.89 137.887 370.723 136.513 365.916 135.871C364.41 135.657 362.941 135.543 361.535 135.543C358.297 135.543 355.436 136.161 352.951 137.408C350.051 138.87 348.608 140.911 348.608 143.494C348.608 146.228 350.453 148.244 354.13 149.504C355.787 150.096 357.657 150.563 359.753 150.941L366.255 152.075C371.739 153.108 375.53 154.267 377.651 155.565C379.772 156.863 381.341 158.312 382.345 159.912C383.361 161.512 383.863 163.641 383.863 166.3C383.863 168.959 383.236 171.328 382.006 173.432C380.776 175.536 379.107 177.275 377.036 178.636C372.994 181.345 367.836 182.705 361.573 182.705C355.724 182.705 350.227 181.433 345.094 178.888C343.412 178.056 341.855 177.098 340.412 176.027L343.625 170.231Z" fill="white"/>
<path d="M404.849 136.148H385.408V129.986H431.043V136.148H411.601V181.924H404.836V136.148H404.849Z" fill="white"/>
<path d="M262.961 139.222C260.011 134.623 256.008 130.982 251.038 128.399C245.917 125.74 240.319 124.392 234.395 124.392C228.471 124.392 222.409 125.803 217.175 128.575C214.677 129.898 212.381 131.536 210.347 133.439C208.314 135.341 206.544 137.509 205.076 139.878C203.62 142.246 202.478 144.88 201.687 147.677C200.896 150.487 200.495 153.864 200.495 157.719C200.495 161.575 201.373 165.368 203.105 169.122C204.837 172.89 207.235 176.178 210.222 178.9C213.221 181.622 216.761 183.764 220.765 185.288C224.768 186.8 228.722 187.569 232.537 187.569C236.353 187.569 239.804 187.204 242.716 186.485C248.527 185.036 253.548 182.365 257.652 178.535C264.279 172.348 267.504 164.75 267.504 155.325C267.504 149.454 265.986 144.048 262.973 139.235L262.961 139.222ZM252.807 174.679C247.787 179.442 241.587 181.861 234.382 181.861C227.178 181.861 220.576 179.278 215.38 174.175C212.945 171.794 211 168.959 209.607 165.758C208.201 162.545 207.498 159.055 207.498 155.388C207.498 151.722 208.189 148.307 209.544 145.245C210.9 142.183 212.782 139.5 215.154 137.269C217.514 135.039 220.313 133.262 223.451 132.002C226.601 130.73 230.341 130.087 234.571 130.087C238.8 130.087 243.08 131.297 247.159 133.678C251.289 136.06 254.539 139.248 256.823 143.166C259.258 147.286 260.488 151.822 260.488 156.648C260.488 163.78 257.903 169.853 252.82 174.679H252.807Z" fill="#F3E964"/>
<path d="M232.248 179.366C235.631 179.366 238.373 176.613 238.373 173.217C238.373 169.821 235.631 167.069 232.248 167.069C228.866 167.069 226.124 169.821 226.124 173.217C226.124 176.613 228.866 179.366 232.248 179.366Z" fill="#7490FF"/>
<path d="M220.702 172.802C223.19 172.802 225.207 170.777 225.207 168.278C225.207 165.78 223.19 163.755 220.702 163.755C218.213 163.755 216.196 165.78 216.196 168.278C216.196 170.777 218.213 172.802 220.702 172.802Z" fill="#93DEF9"/>
<path d="M242.189 167.535C244.407 167.535 246.206 165.729 246.206 163.503C246.206 161.276 244.407 159.471 242.189 159.471C239.971 159.471 238.173 161.276 238.173 163.503C238.173 165.729 239.971 167.535 242.189 167.535Z" fill="#93DEF9"/>
<path d="M221.543 158.689C223.255 158.689 224.643 157.296 224.643 155.577C224.643 153.858 223.255 152.465 221.543 152.465C219.831 152.465 218.443 153.858 218.443 155.577C218.443 157.296 219.831 158.689 221.543 158.689Z" fill="#5B7CFF"/>
<path d="M250.184 172.827C251.896 172.827 253.284 171.433 253.284 169.715C253.284 167.996 251.896 166.602 250.184 166.602C248.472 166.602 247.084 167.996 247.084 169.715C247.084 171.433 248.472 172.827 250.184 172.827Z" fill="#7490FF"/>
<path d="M228.094 164.322C229.148 164.322 230.002 163.464 230.002 162.407C230.002 161.349 229.148 160.491 228.094 160.491C227.041 160.491 226.187 161.349 226.187 162.407C226.187 163.464 227.041 164.322 228.094 164.322Z" fill="#4BC8F5"/>
<path d="M253.259 163.415C254.313 163.415 255.167 162.557 255.167 161.499C255.167 160.442 254.313 159.584 253.259 159.584C252.206 159.584 251.351 160.442 251.351 161.499C251.351 162.557 252.206 163.415 253.259 163.415Z" fill="#4BC8F5"/>
<path d="M214.89 164.208C215.84 164.208 216.61 163.436 216.61 162.482C216.61 161.529 215.84 160.756 214.89 160.756C213.941 160.756 213.171 161.529 213.171 162.482C213.171 163.436 213.941 164.208 214.89 164.208Z" fill="#7490FF"/>
<path d="M243.796 176.191C244.849 176.191 245.703 175.334 245.703 174.276C245.703 173.218 244.849 172.361 243.796 172.361C242.742 172.361 241.888 173.218 241.888 174.276C241.888 175.334 242.742 176.191 243.796 176.191Z" fill="#4BC8F5"/>
<path d="M434.344 133.666V133.64C434.344 131.486 436.088 129.671 438.272 129.671C440.456 129.671 442.201 131.461 442.201 133.615V133.64C442.201 135.795 440.456 137.609 438.272 137.609C436.088 137.609 434.344 135.82 434.344 133.666ZM441.749 133.653V133.628C441.749 131.7 440.255 130.112 438.272 130.112C436.289 130.112 434.795 131.725 434.795 133.653V133.678C434.795 135.606 436.289 137.194 438.272 137.194C440.255 137.194 441.749 135.581 441.749 133.653ZM436.64 131.511H438.561C439.515 131.511 440.205 131.939 440.205 132.872C440.205 133.527 439.841 133.955 439.301 134.144L440.343 135.619H439.151L438.272 134.321H437.645V135.619H436.653V131.511H436.64ZM438.498 133.514C438.95 133.514 439.201 133.288 439.201 132.947C439.201 132.582 438.925 132.38 438.498 132.38H437.645V133.514H438.498Z" fill="white"/>
<defs>
<linearGradient id="paint0_linear_60_102" x1="296" y1="0" x2="296" y2="438" gradientUnits="userSpaceOnUse">
<stop stop-color="#0336FF"/>
<stop offset="1" stop-color="#001B70"/>
</linearGradient>
</defs>
</svg>
