<svg width="629" height="474" viewBox="0 0 629 474" fill="none" xmlns="http://www.w3.org/2000/svg">
<g filter="url(#filter0_d_34_311)">
<rect x="18" y="14" width="593" height="438" rx="25.185" fill="#9F248B"/>
<rect x="18" y="14" width="593" height="438" rx="25.185" fill="url(#paint0_linear_34_311)" fill-opacity="0.72"/>
</g>
<g clip-path="url(#clip0_34_311)">
<path d="M191.979 302.705H197.325C200.43 302.705 203.171 303.486 204.926 306.057C206.209 307.942 206.965 310.662 206.965 314.297C206.965 323.157 202.631 325.89 197.379 325.89H191.979V302.705ZM194.328 323.736H197.19C202.658 323.736 204.575 320.262 204.575 314.311C204.575 311.079 204.076 308.764 202.942 307.229C201.781 305.599 199.89 304.872 197.123 304.872H194.328V323.736Z" fill="white"/>
<path d="M210.18 308.064H218.564V309.733H211.989V315.954H218.564V317.623H211.989V324.248H218.564V325.917H210.18V308.077V308.064Z" fill="white"/>
<path d="M221.142 308.064H222.952V324.234H228.649V325.904H221.129V308.064H221.142Z" fill="white"/>
<path d="M231.687 325.89H229.824L234.928 308.05H236.71L241.881 325.89H240.045L238.519 320.612H233.159L231.687 325.89ZM235.846 310.393L233.645 318.97H238.047L235.846 310.393Z" fill="white"/>
<path d="M245.27 319.414L240.68 308.064H242.57L246.188 317.677L249.793 308.064H251.683L247.093 319.414V325.89H245.284V319.414H245.27Z" fill="white"/>
<path d="M253.479 308.064H261.863V309.733H255.288V315.954H261.863V317.623H255.288V324.248H261.863V325.917H253.479V308.077V308.064Z" fill="white"/>
<path d="M264.416 308.064H268.52C270.91 308.064 273.016 308.67 274.366 310.649C275.352 312.09 275.933 314.19 275.933 316.991C275.933 323.803 272.598 325.904 268.561 325.904H264.402V308.064H264.416ZM266.225 324.234H268.426C272.638 324.234 274.11 321.555 274.11 316.977C274.11 314.5 273.718 312.709 272.854 311.524C271.963 310.272 270.505 309.72 268.385 309.72H266.239V324.221L266.225 324.234Z" fill="white"/>
<path d="M284.937 316.088V318.188H278.281V316.088H284.937Z" fill="white"/>
<path d="M288.285 302.705H292.713C296.17 302.705 297.587 303.297 298.465 304.078C299.977 305.303 300.882 307.242 300.882 309.693C300.882 311.133 300.625 312.641 299.842 313.893C298.937 315.334 297.547 316.304 295.819 316.559L300.463 325.89H297.817L292.632 315.119C292.943 315.119 293.172 315.119 293.442 315.092C295.049 315.065 296.17 314.688 297.088 313.84C298.06 312.897 298.438 311.483 298.438 309.921C298.438 308.36 298.06 306.69 296.683 305.653C295.684 304.899 294.077 304.872 292.632 304.872H290.621V325.89H288.258V302.705H288.285Z" fill="white"/>
<path d="M303.719 308.064H312.103V309.733H305.528V315.954H312.103V317.623H305.528V324.248H312.103V325.917H303.719V308.077V308.064Z" fill="white"/>
<path d="M314.681 308.064H316.491V324.234H322.188V325.904H314.668V308.064H314.681Z" fill="white"/>
<path d="M324.213 308.064H332.597V309.733H326.022V315.954H332.597V317.623H326.022V324.248H332.597V325.917H324.213V308.077V308.064Z" fill="white"/>
<path d="M336.135 325.89H334.271L339.375 308.05H341.157L346.328 325.89H344.492L342.966 320.612H337.606L336.135 325.89ZM340.293 310.393L338.092 318.97H342.494L340.293 310.393Z" fill="white"/>
<path d="M348.987 320.975C349.203 323.749 350.851 324.611 352.201 324.611C354.105 324.611 355.59 323.332 355.59 321.137C355.59 318.511 353.362 317.933 351.607 317.354C350.081 316.828 347.529 315.926 347.529 312.722C347.502 309.585 349.46 307.713 352.241 307.713C355.023 307.713 356.616 309.086 357.021 312.237H355.279C355.117 310.918 354.483 309.248 352.282 309.248C350.473 309.248 349.352 310.554 349.352 312.399C349.352 314.741 351.134 315.294 353.429 316.034C354.807 316.519 357.412 317.475 357.412 321.029C357.412 324.18 355.144 326.186 352.241 326.186C349.338 326.186 347.313 324.503 347.219 320.962H348.987V320.975Z" fill="white"/>
<path d="M359.91 308.064H368.295V309.733H361.719V315.954H368.295V317.623H361.719V324.248H368.295V325.917H359.91V308.077V308.064Z" fill="white"/>
<path d="M394.097 318.337C394.097 322.349 391.735 326.294 386.834 326.294C381.933 326.294 378.76 322.134 378.76 314.297C378.76 306.959 381.487 302.301 386.834 302.301C391.735 302.301 394.124 306.38 394.097 310.756H391.775C391.708 307.713 390.52 304.495 386.969 304.495C382.918 304.495 381.19 308.414 381.19 314.526C381.19 321.11 383.647 324.113 386.969 324.113C390.547 324.113 391.654 321.137 391.775 318.35H394.097V318.337Z" fill="white"/>
<path d="M396.863 325.89H395L400.104 308.05H401.886L407.057 325.89H405.221L403.695 320.612H398.335L396.863 325.89ZM401.008 310.393L398.807 318.97H403.209L401.008 310.393Z" fill="white"/>
<path d="M412.256 308.064C414.308 308.064 415.591 308.373 416.725 309.289C417.765 310.137 418.467 311.699 418.467 313.382C418.467 315.065 417.765 316.654 416.725 317.502C415.591 318.418 414.281 318.727 412.256 318.727H410.69V325.89H408.881V308.05H412.27L412.256 308.064ZM410.69 317.071H412.256C413.876 317.071 414.7 316.923 415.537 316.223C416.185 315.711 416.617 314.607 416.617 313.409C416.617 312.211 416.158 311.066 415.51 310.541C414.741 309.895 413.89 309.72 412.243 309.72H410.677V317.071H410.69Z" fill="white"/>
<path d="M421.788 320.975C422.004 323.749 423.651 324.611 425.002 324.611C426.905 324.611 428.39 323.332 428.39 321.137C428.39 318.511 426.163 317.933 424.408 317.354C422.882 316.828 420.33 315.926 420.33 312.722C420.303 309.585 422.261 307.713 425.042 307.713C427.823 307.713 429.417 309.086 429.822 312.237H428.08C427.918 310.918 427.283 309.248 425.083 309.248C423.273 309.248 422.153 310.554 422.153 312.399C422.153 314.741 423.935 315.294 426.23 316.034C427.607 316.519 430.213 317.475 430.213 321.029C430.213 324.18 427.945 326.186 425.042 326.186C422.139 326.186 420.114 324.503 420.02 320.962H421.788V320.975Z" fill="white"/>
<path d="M434.385 308.064V321.084C434.385 322.12 434.534 323.036 435.276 323.763C435.884 324.369 436.802 324.557 437.693 324.557C438.584 324.557 439.502 324.369 440.137 323.763C440.88 323.036 441.028 322.12 441.028 321.084V308.064H442.837V321.191C442.837 322.874 442.446 323.992 441.582 324.854C440.731 325.715 439.462 326.2 437.72 326.2C435.979 326.2 434.682 325.715 433.805 324.854C432.954 323.992 432.576 322.874 432.576 321.191V308.064H434.385Z" fill="white"/>
<path d="M446.092 308.064H447.901V324.234H453.598V325.904H446.078V308.064H446.092Z" fill="white"/>
<path d="M455.623 308.064H464.007V309.733H457.432V315.954H464.007V317.623H457.432V324.248H464.007V325.917H455.623V308.077V308.064Z" fill="white"/>
<path d="M467.503 320.975C467.719 323.749 469.366 324.611 470.716 324.611C472.62 324.611 474.105 323.332 474.105 321.137C474.105 318.511 471.878 317.933 470.122 317.354C468.597 316.828 466.045 315.926 466.045 312.722C466.018 309.585 467.976 307.713 470.757 307.713C473.538 307.713 475.131 309.086 475.536 312.237H473.795C473.633 310.918 472.998 309.248 470.797 309.248C468.988 309.248 467.868 310.554 467.868 312.399C467.868 314.741 469.65 315.294 471.945 316.034C473.322 316.519 475.928 317.475 475.928 321.029C475.928 324.18 473.66 326.186 470.757 326.186C467.854 326.186 465.829 324.503 465.734 320.962H467.503V320.975Z" fill="white"/>
<path d="M192.776 211.848C192.776 211.848 192.668 211.781 192.614 211.808C188.752 213.719 184.364 216.345 179.895 219.321C184.324 212.871 188.28 206.462 191.02 200.928C191.047 200.875 191.02 200.807 190.98 200.767C190.926 200.726 190.858 200.74 190.804 200.767C187.01 204.47 182.852 209.222 178.734 214.406C181.596 204.806 183.878 195.408 185.026 187.585C185.026 187.518 184.999 187.464 184.931 187.437C184.864 187.41 184.796 187.437 184.769 187.505C181.92 192.931 179.058 199.542 176.358 206.624C175.993 194.869 175.075 183.627 173.509 174.431C173.482 174.296 173.266 174.31 173.252 174.431C170.917 188.164 170.039 206.516 170.255 224.275C170.012 225.07 169.755 225.864 169.512 226.659C163.45 231.25 157.874 235.949 154.026 239.732C153.986 239.773 153.972 239.854 154.013 239.908C154.04 239.948 154.08 239.961 154.121 239.961C154.134 239.961 154.161 239.961 154.175 239.948C157.253 238.359 160.899 236.218 164.76 233.741C161.142 239.248 158.009 244.485 155.768 248.821C155.741 248.875 155.768 248.956 155.808 248.982C155.835 248.996 155.862 249.009 155.889 249.009C155.93 249.009 155.957 249.009 155.984 248.969C159.116 245.805 162.748 241.698 166.502 237.107C164.395 244.916 162.735 252.214 161.763 258.125C161.763 258.192 161.79 258.246 161.857 258.273C161.871 258.273 161.884 258.273 161.898 258.273C161.952 258.273 161.992 258.246 162.019 258.205C164.746 252.779 167.744 245.818 170.66 238.157C171.146 249.117 172.051 259.269 173.266 267.24C173.266 267.307 173.333 267.348 173.401 267.348C173.468 267.348 173.522 267.307 173.536 267.24C175.197 256.307 176.277 241.267 176.52 225.676C182.703 221.125 188.563 216.291 192.776 211.996C192.816 211.956 192.83 211.875 192.776 211.821V211.848Z" fill="white"/>
<g style="mix-blend-mode:multiply">
<path d="M184.932 187.451C184.932 187.451 184.797 187.451 184.77 187.518C174.874 206.355 164.883 239.248 161.764 258.152C161.764 258.219 161.791 258.273 161.858 258.3C161.872 258.3 161.885 258.3 161.899 258.3C161.953 258.3 161.993 258.273 162.02 258.232C170.621 241.119 181.921 208.657 185.027 187.599C185.027 187.531 185 187.478 184.932 187.451Z" fill="white"/>
</g>
<g style="mix-blend-mode:multiply">
<path d="M190.967 200.753C190.967 200.753 190.846 200.726 190.792 200.753C178.613 212.629 162.857 235.195 155.769 248.821C155.742 248.875 155.769 248.955 155.809 248.982C155.836 248.996 155.863 249.009 155.89 249.009C155.931 249.009 155.958 249.009 155.985 248.969C166.772 238.063 183.42 216.143 190.994 200.901C191.021 200.847 190.994 200.78 190.954 200.74L190.967 200.753Z" fill="white"/>
</g>
<path d="M316.922 258.973V299.877H324.564V275.21C326.17 276.718 327.899 277.944 329.775 278.859C332.624 280.246 335.702 280.946 339.037 280.946H339.091C344.965 280.946 350.109 278.752 354.254 274.51C358.412 270.256 360.545 264.951 360.532 258.892C360.545 252.941 358.399 247.69 354.186 243.489C350.001 239.234 344.802 237.066 338.902 237.08C335.513 237.08 332.233 237.659 329.384 239.167C326.629 240.621 323.416 242.896 321.58 245.226C319.825 247.474 316.908 251.769 316.935 258.986L316.922 258.973ZM328.344 248.74C331.125 245.939 334.406 244.579 338.47 244.552C341.076 244.552 343.412 245.185 345.599 246.451C347.786 247.716 349.501 249.467 350.811 251.783C352.107 254.085 352.755 256.495 352.755 259.067C352.755 261.639 352.107 264.008 350.784 266.338C349.474 268.667 347.732 270.471 345.545 271.737C343.331 273.029 341.036 273.662 338.497 273.662C335.959 273.662 333.569 273.029 331.274 271.737C328.992 270.471 327.264 268.775 326.049 266.593C324.834 264.412 324.213 261.975 324.213 259.201C324.213 254.96 325.576 251.567 328.331 248.74H328.344Z" fill="white"/>
<path d="M415.01 258.973V299.877H422.638V275.21C424.245 276.718 426 277.944 427.877 278.859C430.712 280.246 433.804 280.946 437.098 280.946H437.166C443.026 280.946 448.183 278.752 452.301 274.51C456.487 270.256 458.62 264.951 458.62 258.892C458.62 252.833 456.46 247.69 452.261 243.489C448.089 239.234 442.864 237.066 436.963 237.08C433.588 237.08 430.321 237.659 427.445 239.167C424.704 240.621 421.491 242.896 419.654 245.226C417.886 247.474 414.983 251.769 415.01 258.986V258.973ZM426.419 248.74C429.2 245.939 432.481 244.579 436.545 244.552C439.164 244.552 441.486 245.185 443.687 246.451C445.861 247.716 447.576 249.467 448.912 251.783C450.195 254.085 450.829 256.495 450.829 259.067C450.829 261.639 450.195 264.008 448.885 266.338C447.549 268.667 445.82 270.471 443.633 271.737C441.446 273.029 439.097 273.662 436.599 273.662C434.101 273.662 431.671 273.029 429.376 271.737C427.08 270.471 425.366 268.775 424.137 266.593C422.922 264.412 422.328 261.975 422.328 259.201C422.328 254.96 423.678 251.567 426.432 248.74H426.419Z" fill="white"/>
<path d="M307.888 246.114C306.699 243.367 304.85 241.132 302.352 239.517C299.841 237.874 296.951 237.066 293.792 237.066C293.522 237.066 292.928 237.053 292.928 237.053C289.742 237.053 286.38 237.847 283.814 239.517C281.317 241.146 279.453 243.367 278.279 246.114C277.064 248.955 276.537 252.981 276.537 258.394C276.537 258.394 276.537 258.434 276.537 258.528V279.936H284.273V278.617C284.273 278.617 284.26 261.477 284.26 259.902C284.233 258.461 284.462 252.281 284.76 251.163C285.327 248.753 286.299 247.137 287.676 246.033C289.188 244.862 290.309 244.377 292.779 244.337C295.25 244.35 297.086 244.943 298.477 246.033C299.841 247.111 300.826 248.753 301.366 251.15C301.69 252.415 301.906 255.418 301.906 259.902V279.936H309.602V258.434C309.602 253.008 309.076 248.955 307.874 246.114H307.888Z" fill="white"/>
<path d="M260.133 267.253C259.229 268.519 258.378 269.529 257.636 270.175C256.434 271.198 254.976 272.06 253.207 272.693C251.465 273.339 249.656 273.662 247.807 273.662C243.972 273.635 240.894 272.343 238.301 269.704C236.006 267.307 234.683 264.372 234.346 260.723H269.693V259.39C269.639 253.816 268.099 248.996 265.048 245.158C260.836 239.786 254.989 237.026 247.942 237.066C241.083 237.026 235.399 239.746 231.308 244.983C228.067 249.077 226.42 253.856 226.434 259.107C226.434 264.695 228.378 269.785 232.185 274.201C236.047 278.671 241.515 280.933 248.171 280.933H248.252C251.29 280.933 254.031 280.475 256.502 279.519C258.945 278.59 261.16 277.217 263.117 275.413C265.102 273.622 266.79 271.266 268.248 268.411L268.842 267.24H268.801L260.147 267.226L260.133 267.253ZM238.95 247.905C241.515 245.643 244.445 244.539 248.036 244.539C250.183 244.539 252.222 244.983 254.179 245.885C256.15 246.801 257.663 247.972 258.81 249.4C259.688 250.504 260.457 251.944 261.038 253.722H235.291C236.222 251.15 237.464 249.225 238.95 247.905Z" fill="white"/>
<path d="M399.483 267.253C398.592 268.519 397.728 269.529 396.986 270.175C395.797 271.198 394.326 272.06 392.557 272.693C390.802 273.339 389.02 273.662 387.157 273.662C383.322 273.635 380.257 272.343 377.651 269.704C375.343 267.307 374.047 264.372 373.709 260.723H409.042V259.39C408.988 253.816 407.463 248.996 404.411 245.158C400.199 239.786 394.339 237.026 387.305 237.066C380.46 237.026 374.762 239.746 370.671 244.983C367.444 249.077 365.797 253.856 365.811 259.107C365.811 264.695 367.741 269.785 371.549 274.201C375.41 278.671 380.878 280.933 387.521 280.933H387.616C390.64 280.933 393.394 280.475 395.851 279.519C398.295 278.59 400.51 277.217 402.467 275.413C404.438 273.622 406.14 271.266 407.584 268.411L408.178 267.24H408.124L399.456 267.226L399.483 267.253ZM378.313 247.905C380.865 245.643 383.795 244.539 387.373 244.539C389.533 244.539 391.572 244.983 393.529 245.885C395.5 246.801 397.013 247.972 398.16 249.4C399.051 250.504 399.807 251.944 400.401 253.722H374.654C375.599 251.15 376.841 249.225 378.313 247.905Z" fill="white"/>
<path d="M202.32 272.8L223.342 229.243H191.964V236.285H211.812L190.533 279.909H223.328V272.8H202.32Z" fill="white"/>
<path d="M464.641 245.912C461.428 245.912 458.809 243.354 458.809 240.123C458.809 236.891 461.414 234.32 464.641 234.32C467.868 234.32 470.474 236.918 470.474 240.123C470.474 243.327 467.841 245.912 464.641 245.912ZM464.641 235.504C462.116 235.504 460.01 237.524 460.01 240.136C460.01 242.6 462.049 244.674 464.641 244.674C467.234 244.674 469.272 242.654 469.272 240.136C469.272 237.618 467.193 235.504 464.641 235.504ZM462.224 236.959H465.046C465.64 236.959 466.153 236.959 466.639 237.322C467.085 237.672 467.301 238.17 467.301 238.83C467.301 239.678 466.896 240.002 466.545 240.257C466.829 240.419 467.139 240.621 467.166 241.334C467.247 242.883 467.18 243.031 467.558 243.327H465.964C465.492 242.115 466.221 240.863 464.979 240.863H463.629V243.327H462.211V236.972L462.224 236.959ZM463.629 238.17V239.678H464.803C465.316 239.678 465.91 239.692 465.91 238.924C465.91 238.157 465.343 238.17 464.803 238.17H463.629Z" fill="white"/>
<path d="M191.967 149.804H196.328V154.584C197.678 150.935 200.041 149.158 203.484 149.158C209.195 149.158 213.232 154.853 213.232 164.669C213.232 174.484 209.627 180.072 203.484 180.072C200.257 180.072 197.772 178.133 196.652 175.077C196.706 176.208 196.706 177.433 196.706 179.426V189.847H191.967V149.804ZM208.493 164.561C208.493 157.964 206.454 153.83 202.565 153.83C200.621 153.83 199.339 154.853 198.313 156.456C197.124 158.179 196.692 160.481 196.692 164.615C196.692 168.748 197.124 171.064 198.313 172.774C199.339 174.444 200.621 175.4 202.565 175.4C206.44 175.4 208.493 171.32 208.493 164.615V164.561Z" fill="white"/>
<path d="M238.265 179.426H233.904V174.7C232.608 178.187 230.191 180.072 226.748 180.072C221.037 180.072 217 174.377 217 164.669C217 154.961 220.605 149.158 226.748 149.158C229.759 149.158 232.567 150.558 233.904 154.692V149.804H238.265V179.439V179.426ZM221.739 164.669C221.739 171.32 223.832 175.4 227.666 175.4C229.705 175.4 231.055 174.43 232.081 172.774C233.215 171.051 233.539 168.748 233.539 164.615C233.539 160.481 233.215 158.179 232.081 156.456C231.055 154.84 229.718 153.83 227.666 153.83C223.845 153.83 221.739 157.964 221.739 164.615V164.669Z" fill="white"/>
<path d="M245.056 149.804H249.255C249.255 151.258 249.255 152.591 249.201 154.153C250.606 150.666 253.4 149.158 256.897 149.158C261.852 149.158 265.133 151.999 265.133 158.771V179.439H260.394V160.333C260.394 157.6 259.962 153.844 255.601 153.844C252.104 153.844 249.782 156.2 249.782 161.195V179.453H245.043V149.804H245.056Z" fill="white"/>
<path d="M291.338 168.964C290.906 175.023 287.733 180.072 281.59 180.072C273.948 180.072 270.127 173.313 270.127 164.669C270.127 154.894 274.65 149.158 281.482 149.158C287.719 149.158 291.068 154.153 291.23 160.374H286.383C285.951 155.271 283.75 153.615 281.266 153.615C279.429 153.615 277.877 154.261 276.743 156.348C275.663 158.381 275.123 160.912 275.123 164.615C275.123 172.074 277.377 175.669 281.252 175.669C284.425 175.669 286.045 172.936 286.423 168.964H291.324H291.338Z" fill="white"/>
<path d="M295.752 149.804H300.113C300.113 152.107 300.113 153.668 300.059 155.284C301.409 150.181 304.798 149.225 307.863 149.171V154.813C307.215 154.382 306.567 154.274 305.932 154.274C303.407 154.274 300.491 157.061 300.491 163.134V179.453H295.752V149.804Z" fill="white"/>
<path d="M314.601 166.177C314.601 171.28 316.599 175.683 321.014 175.683C324.025 175.683 326.023 173.649 326.672 170.526H331.357C330.817 173.905 329.358 176.383 327.482 177.931C325.591 179.439 323.283 180.072 321.028 180.072C312.954 180.072 309.619 172.559 309.619 164.669C309.619 155.648 313.71 149.158 320.92 149.158C324.579 149.158 327.333 150.72 329.102 153.507C331.411 157.102 331.735 161.828 331.627 166.177H314.615H314.601ZM326.874 162.097C326.766 157.371 324.984 153.13 320.852 153.13C317.139 153.13 314.709 156.725 314.601 162.097H326.874Z" fill="white"/>
<path d="M337.582 139.706H342.321V179.426H337.582V139.706Z" fill="white"/>
<path d="M350.232 139.706H354.971V145.186H350.232V139.706ZM350.232 149.804H354.971V179.439H350.232V149.804Z" fill="white"/>
<path d="M362.344 149.804H366.705V154.584C368.055 150.935 370.418 149.158 373.861 149.158C379.572 149.158 383.609 154.853 383.609 164.669C383.609 174.484 380.004 180.072 373.861 180.072C370.634 180.072 368.149 178.133 367.029 175.077C367.083 176.208 367.083 177.433 367.083 179.426V189.847H362.344V149.804ZM378.87 164.561C378.87 157.964 376.831 153.83 372.942 153.83C371.012 153.83 369.716 154.853 368.689 156.456C367.501 158.179 367.069 160.481 367.069 164.615C367.069 168.748 367.501 171.064 368.689 172.774C369.716 174.444 370.998 175.4 372.942 175.4C376.817 175.4 378.87 171.32 378.87 164.615V164.561Z" fill="white"/>
<path d="M408.64 179.426H404.279V174.7C402.983 178.187 400.566 180.072 397.123 180.072C391.412 180.072 387.375 174.377 387.375 164.669C387.375 154.961 390.98 149.158 397.123 149.158C400.134 149.158 402.942 150.558 404.279 154.692V149.804H408.64V179.439V179.426ZM392.114 164.669C392.114 171.32 394.207 175.4 398.041 175.4C400.08 175.4 401.43 174.43 402.456 172.774C403.59 171.051 403.914 168.748 403.914 164.615C403.914 160.481 403.59 158.179 402.456 156.456C401.43 154.84 400.093 153.83 398.041 153.83C394.22 153.83 392.114 157.964 392.114 164.615V164.669Z" fill="white"/>
<path d="M427.163 157.856C427.109 154.584 425.489 153.291 422.91 153.291C420.656 153.291 419.143 154.799 419.143 157.048C419.143 160.104 422.154 160.966 425.665 162.043C428.946 163.067 432.604 165.046 432.604 171.01C432.604 176.329 428.622 180.085 423.234 180.085C417.847 180.085 413.864 176.921 413.486 170.472H418.171C418.225 173.905 420.332 175.79 423.288 175.79C426.245 175.79 427.649 173.798 427.649 171.334C427.649 168.062 424.855 167.039 421.088 165.8C417.483 164.615 414.202 162.69 414.202 157.21C414.202 152.376 417.645 149.158 423.086 149.158C428.527 149.158 431.646 152.268 431.862 157.856H427.177H427.163Z" fill="white"/>
<path d="M441.474 166.177C441.474 171.28 443.472 175.683 447.887 175.683C450.898 175.683 452.897 173.649 453.545 170.526H458.23C457.69 173.905 456.231 176.383 454.355 177.931C452.464 179.439 450.156 180.072 447.901 180.072C439.827 180.072 436.492 172.559 436.492 164.669C436.492 155.648 440.583 149.158 447.793 149.158C451.452 149.158 454.206 150.72 455.975 153.507C458.284 157.102 458.608 161.828 458.5 166.177H441.488H441.474ZM453.747 162.097C453.639 157.371 451.857 153.13 447.725 153.13C444.013 153.13 441.582 156.725 441.474 162.097H453.747Z" fill="white"/>
<path d="M173.523 174.457C173.496 174.323 173.28 174.336 173.266 174.457C168.811 200.659 169.675 243.596 173.266 267.267C173.266 267.334 173.334 267.374 173.401 267.374C173.469 267.374 173.523 267.334 173.537 267.267C177.141 243.596 178.006 200.659 173.537 174.457H173.523Z" fill="white"/>
<g style="mix-blend-mode:multiply">
<path d="M184.932 187.451C184.932 187.451 184.797 187.451 184.77 187.518C174.874 206.355 164.883 239.248 161.764 258.152C161.764 258.219 161.791 258.273 161.858 258.3C161.872 258.3 161.885 258.3 161.899 258.3C161.953 258.3 161.993 258.273 162.02 258.232C170.621 241.119 181.921 208.657 185.027 187.599C185.027 187.531 185 187.478 184.932 187.451Z" fill="white"/>
</g>
<g style="mix-blend-mode:multiply">
<path d="M190.967 200.753C190.967 200.753 190.846 200.726 190.792 200.753C178.613 212.629 162.857 235.195 155.769 248.821C155.742 248.875 155.769 248.955 155.809 248.982C155.836 248.996 155.863 249.009 155.89 249.009C155.931 249.009 155.958 249.009 155.985 248.969C166.772 238.063 183.42 216.143 190.994 200.901C191.021 200.847 190.994 200.78 190.954 200.74L190.967 200.753Z" fill="white"/>
</g>
<g style="mix-blend-mode:multiply">
<path d="M192.6 211.807C180.368 217.853 162.789 231.142 154.04 239.746C153.999 239.786 153.986 239.867 154.026 239.921C154.053 239.961 154.094 239.974 154.134 239.974C154.148 239.974 154.175 239.974 154.188 239.961C165.098 234.333 183.19 221.757 192.749 212.023C192.789 211.982 192.803 211.901 192.749 211.848C192.708 211.794 192.641 211.78 192.587 211.807H192.6Z" fill="white"/>
</g>
</g>
<defs>
<filter id="filter0_d_34_311" x="0.48" y="0.86" width="628.04" height="473.04" filterUnits="userSpaceOnUse" color-interpolation-filters="sRGB">
<feFlood flood-opacity="0" result="BackgroundImageFix"/>
<feColorMatrix in="SourceAlpha" type="matrix" values="0 0 0 0 0 0 0 0 0 0 0 0 0 0 0 0 0 0 127 0" result="hardAlpha"/>
<feOffset dy="4.38"/>
<feGaussianBlur stdDeviation="8.76"/>
<feComposite in2="hardAlpha" operator="out"/>
<feColorMatrix type="matrix" values="0 0 0 0 0 0 0 0 0 0 0 0 0 0 0 0 0 0 0.06 0"/>
<feBlend mode="normal" in2="BackgroundImageFix" result="effect1_dropShadow_34_311"/>
<feBlend mode="normal" in="SourceGraphic" in2="effect1_dropShadow_34_311" result="shape"/>
</filter>
<linearGradient id="paint0_linear_34_311" x1="314.5" y1="14" x2="314.5" y2="452" gradientUnits="userSpaceOnUse">
<stop stop-color="#9F248B"/>
<stop offset="1" stop-color="#6C015D"/>
</linearGradient>
<clipPath id="clip0_34_311">
<rect width="321.93" height="186.588" fill="white" transform="translate(154 139.706)"/>
</clipPath>
</defs>
</svg>
