<svg width="593" height="438" viewBox="0 0 593 438" fill="none" xmlns="http://www.w3.org/2000/svg">
<g style="mix-blend-mode:multiply">
<path d="M0 25.185C0 11.2757 11.2757 0 25.185 0H567.815C581.724 0 593 11.2757 593 25.185V412.815C593 426.724 581.724 438 567.815 438H25.185C11.2757 438 0 426.724 0 412.815V25.185Z" fill="#9F248B"/>
<path d="M0 25.185C0 11.2757 11.2757 0 25.185 0H567.815C581.724 0 593 11.2757 593 25.185V412.815C593 426.724 581.724 438 567.815 438H25.185C11.2757 438 0 426.724 0 412.815V25.185Z" fill="url(#paint0_linear_60_136)" fill-opacity="0.72"/>
<path d="M173.98 288.705H179.327C182.432 288.705 185.173 289.486 186.928 292.057C188.211 293.942 188.967 296.662 188.967 300.297C188.967 309.157 184.633 311.89 179.381 311.89H173.98V288.705ZM176.329 309.736H179.192C184.66 309.736 186.577 306.262 186.577 300.311C186.577 297.079 186.077 294.764 184.943 293.229C183.782 291.599 181.892 290.872 179.124 290.872H176.329V309.736Z" fill="white"/>
<path d="M192.18 294.064H200.565V295.733H193.989V301.954H200.565V303.623H193.989V310.248H200.565V311.917H192.18V294.064Z" fill="white"/>
<path d="M204.953 294.064V310.234H210.65V311.904H203.13V294.064H204.953Z" fill="white"/>
<path d="M213.688 311.89H211.825L216.928 294.05H218.711L223.882 311.89H222.046L220.52 306.612H215.16L213.688 311.89ZM217.847 296.393L215.646 304.969H220.047L217.847 296.393Z" fill="white"/>
<path d="M227.271 305.414L222.681 294.064H224.571L228.189 303.677L231.794 294.064H233.685L229.094 305.414V311.89H227.285V305.414H227.271Z" fill="white"/>
<path d="M235.48 294.064H243.864V295.733H237.289V301.954H243.864V303.623H237.289V310.248H243.864V311.917H235.48V294.064Z" fill="white"/>
<path d="M250.521 294.064C252.911 294.064 255.017 294.669 256.367 296.649C257.353 298.089 257.933 300.19 257.933 302.99C257.933 309.803 254.598 311.904 250.561 311.904H246.403V294.064H250.521ZM248.226 310.234H250.426C254.639 310.234 256.111 307.555 256.111 302.977C256.111 300.5 255.719 298.709 254.855 297.524C253.964 296.272 252.506 295.72 250.386 295.72H248.239V310.221L248.226 310.234Z" fill="white"/>
<path d="M266.938 302.088V304.188H260.282V302.088H266.938Z" fill="white"/>
<path d="M274.714 288.705C278.171 288.705 279.588 289.297 280.466 290.078C281.978 291.303 282.883 293.242 282.883 295.693C282.883 297.133 282.626 298.641 281.843 299.893C280.938 301.334 279.548 302.304 277.82 302.559L282.464 311.89H279.818L274.633 301.119C274.944 301.119 275.173 301.119 275.443 301.092C277.05 301.065 278.171 300.688 279.089 299.84C280.061 298.897 280.439 297.483 280.439 295.921C280.439 294.36 280.061 292.69 278.684 291.653C277.685 290.899 276.078 290.872 274.633 290.872H272.622V311.89H270.259V288.705H274.714Z" fill="white"/>
<path d="M285.719 294.064H294.104V295.733H287.528V301.954H294.104V303.623H287.528V310.248H294.104V311.917H285.719V294.064Z" fill="white"/>
<path d="M298.492 294.064V310.234H304.19V311.904H296.669V294.064H298.492Z" fill="white"/>
<path d="M306.214 294.064H314.599V295.733H308.023V301.954H314.599V303.623H308.023V310.248H314.599V311.917H306.214V294.064Z" fill="white"/>
<path d="M318.135 311.89H316.272L321.376 294.05H323.158L328.329 311.89H326.493L324.967 306.612H319.607L318.135 311.89ZM322.294 296.393L320.093 304.969H324.495L322.294 296.393Z" fill="white"/>
<path d="M330.99 306.975C331.206 309.749 332.853 310.611 334.203 310.611C336.107 310.611 337.592 309.332 337.592 307.137C337.592 304.511 335.364 303.933 333.609 303.354C332.083 302.828 329.531 301.926 329.531 298.722C329.504 295.585 331.462 293.713 334.243 293.713C337.025 293.713 338.618 295.086 339.023 298.237H337.281C337.119 296.918 336.485 295.248 334.284 295.248C332.475 295.248 331.354 296.554 331.354 298.399C331.354 300.741 333.136 301.293 335.432 302.034C336.809 302.519 339.415 303.475 339.415 307.029C339.415 310.18 337.146 312.186 334.243 312.186C331.341 312.186 329.315 310.503 329.221 306.962H330.99V306.975Z" fill="white"/>
<path d="M341.912 294.064H350.296V295.733H343.721V301.954H350.296V303.623H343.721V310.248H350.296V311.917H341.912V294.064Z" fill="white"/>
<path d="M376.099 304.337C376.099 308.349 373.736 312.294 368.835 312.294C363.934 312.294 360.761 308.134 360.761 300.297C360.761 292.959 363.488 288.301 368.835 288.301C373.736 288.301 376.126 292.38 376.099 296.756H373.776C373.709 293.713 372.521 290.495 368.97 290.495C364.919 290.495 363.191 294.413 363.191 300.526C363.191 307.11 365.648 310.113 368.97 310.113C372.548 310.113 373.655 307.137 373.776 304.35H376.099V304.337Z" fill="white"/>
<path d="M378.865 311.89H377.002L382.106 294.05H383.888L389.059 311.89H387.223L385.697 306.612H380.337L378.865 311.89ZM383.01 296.393L380.809 304.969H385.211L383.01 296.393Z" fill="white"/>
<path d="M394.257 294.063C396.31 294.063 397.592 294.373 398.726 295.289C399.766 296.137 400.468 297.699 400.468 299.382C400.468 301.065 399.766 302.654 398.726 303.502C397.592 304.417 396.283 304.727 394.257 304.727H392.691V311.89H390.882V294.05H394.271L394.257 294.063ZM394.257 303.071C395.878 303.071 396.701 302.923 397.538 302.223C398.186 301.711 398.618 300.607 398.618 299.409C398.618 298.21 398.159 297.066 397.511 296.541C396.742 295.895 395.891 295.72 394.244 295.72H392.678V303.071H394.257Z" fill="white"/>
<path d="M403.79 306.975C404.006 309.749 405.653 310.611 407.003 310.611C408.907 310.611 410.392 309.332 410.392 307.137C410.392 304.511 408.164 303.933 406.409 303.354C404.884 302.828 402.332 301.926 402.332 298.722C402.305 295.585 404.263 293.713 407.044 293.713C409.825 293.713 411.418 295.086 411.823 298.237H410.082C409.92 296.918 409.285 295.248 407.084 295.248C405.275 295.248 404.155 296.554 404.155 298.399C404.155 300.741 405.937 301.293 408.232 302.034C409.609 302.519 412.215 303.475 412.215 307.029C412.215 310.18 409.947 312.186 407.044 312.186C404.141 312.186 402.116 310.503 402.021 306.962H403.79V306.975Z" fill="white"/>
<path d="M416.387 294.064V307.084C416.387 308.12 416.535 309.036 417.278 309.763C417.885 310.369 418.803 310.557 419.694 310.557C420.586 310.557 421.504 310.369 422.138 309.763C422.881 309.036 423.029 308.12 423.029 307.084V294.064H424.839V307.191C424.839 308.874 424.447 309.992 423.583 310.854C422.732 311.715 421.463 312.2 419.721 312.2C417.98 312.2 416.684 311.715 415.806 310.854C414.955 309.992 414.577 308.874 414.577 307.191V294.064H416.387Z" fill="white"/>
<path d="M429.902 294.064V310.234H435.599V311.904H428.079V294.064H429.902Z" fill="white"/>
<path d="M437.625 294.064H446.009V295.733H439.434V301.954H446.009V303.623H439.434V310.248H446.009V311.917H437.625V294.064Z" fill="white"/>
<path d="M449.505 306.975C449.721 309.749 451.368 310.611 452.719 310.611C454.622 310.611 456.107 309.332 456.107 307.137C456.107 304.511 453.88 303.933 452.124 303.354C450.599 302.828 448.047 301.926 448.047 298.722C448.02 295.585 449.978 293.713 452.759 293.713C455.54 293.713 457.133 295.086 457.539 298.237H455.797C455.635 296.918 455 295.248 452.799 295.248C450.99 295.248 449.87 296.554 449.87 298.399C449.87 300.741 451.652 301.293 453.947 302.034C455.324 302.519 457.93 303.475 457.93 307.029C457.93 310.18 455.662 312.186 452.759 312.186C449.856 312.186 447.831 310.503 447.736 306.962H449.505V306.975Z" fill="white"/>
<path d="M174.777 197.848C174.777 197.848 174.669 197.781 174.615 197.807C170.753 199.719 166.365 202.345 161.896 205.321C166.325 198.871 170.281 192.462 173.021 186.928C173.048 186.874 173.021 186.807 172.981 186.767C172.927 186.726 172.859 186.74 172.805 186.767C169.012 190.469 164.853 195.222 160.735 200.406C163.597 190.806 165.879 181.408 167.027 173.585C167.027 173.518 167 173.464 166.932 173.437C166.865 173.41 166.797 173.437 166.77 173.504C163.921 178.931 161.059 185.542 158.359 192.624C157.994 180.869 157.076 169.627 155.51 160.431C155.483 160.296 155.267 160.309 155.253 160.431C152.918 174.164 152.04 192.516 152.256 210.275C152.013 211.07 151.757 211.864 151.514 212.659C145.451 217.25 139.875 221.949 136.027 225.732C135.987 225.773 135.973 225.854 136.014 225.907C136.041 225.948 136.081 225.961 136.122 225.961C136.135 225.961 136.162 225.961 136.176 225.948C139.254 224.359 142.9 222.218 146.761 219.741C143.143 225.248 140.01 230.485 137.769 234.821C137.742 234.875 137.769 234.955 137.81 234.982C137.837 234.996 137.864 235.009 137.891 235.009C137.931 235.009 137.958 235.009 137.985 234.969C141.117 231.805 144.749 227.698 148.503 223.107C146.397 230.916 144.736 238.214 143.764 244.125C143.764 244.192 143.791 244.246 143.858 244.273C143.872 244.273 143.885 244.273 143.899 244.273C143.953 244.273 143.993 244.246 144.02 244.205C146.748 238.779 149.745 231.818 152.661 224.157C153.147 235.117 154.052 245.269 155.267 253.24C155.267 253.307 155.335 253.348 155.402 253.348C155.47 253.348 155.524 253.307 155.537 253.24C157.198 242.307 158.278 227.267 158.521 211.676C164.705 207.125 170.564 202.291 174.777 197.996C174.817 197.956 174.831 197.875 174.777 197.821V197.848Z" fill="white"/>
<path d="M166.933 173.451C166.933 173.451 166.798 173.451 166.771 173.518C156.875 192.354 146.883 225.248 143.765 244.152C143.765 244.219 143.792 244.273 143.859 244.3C143.873 244.3 143.886 244.3 143.9 244.3C143.954 244.3 143.994 244.273 144.021 244.232C152.622 227.119 163.922 194.657 167.028 173.599C167.028 173.531 167.001 173.477 166.933 173.451Z" fill="white"/>
<path d="M172.967 186.753C172.967 186.753 172.846 186.726 172.792 186.753C160.614 198.629 144.857 221.195 137.769 234.821C137.742 234.875 137.769 234.955 137.81 234.982C137.837 234.996 137.864 235.009 137.891 235.009C137.931 235.009 137.958 235.009 137.985 234.969C148.773 224.063 165.42 202.143 172.994 186.901C173.021 186.847 172.994 186.78 172.954 186.74L172.967 186.753Z" fill="white"/>
<path d="M298.923 244.973V285.877H306.565V261.21C308.172 262.718 309.9 263.944 311.776 264.859C314.625 266.246 317.704 266.946 321.039 266.946H321.092C326.966 266.946 332.11 264.752 336.255 260.51C340.413 256.256 342.546 250.951 342.533 244.892C342.546 238.941 340.4 233.689 336.187 229.489C332.002 225.234 326.804 223.066 320.903 223.08C317.515 223.08 314.234 223.659 311.385 225.167C308.631 226.621 305.417 228.896 303.581 231.225C301.826 233.474 298.91 237.769 298.937 244.986L298.923 244.973ZM310.345 234.74C313.127 231.939 316.407 230.579 320.471 230.552C323.077 230.552 325.413 231.185 327.6 232.451C329.787 233.716 331.502 235.467 332.812 237.783C334.108 240.085 334.756 242.495 334.756 245.067C334.756 247.638 334.108 250.008 332.785 252.337C331.475 254.667 329.733 256.471 327.546 257.737C325.332 259.029 323.037 259.662 320.498 259.662C317.96 259.662 315.57 259.029 313.275 257.737C310.993 256.471 309.265 254.775 308.05 252.593C306.835 250.412 306.214 247.975 306.214 245.201C306.214 240.96 307.577 237.567 310.332 234.74H310.345Z" fill="white"/>
<path d="M397.011 244.973V285.877H404.64V261.21C406.246 262.718 408.001 263.944 409.878 264.859C412.714 266.246 415.805 266.946 419.1 266.946H419.167C425.027 266.946 430.184 264.752 434.302 260.51C438.488 256.256 440.621 250.951 440.621 244.892C440.621 238.833 438.461 233.689 434.262 229.489C430.09 225.234 424.865 223.066 418.965 223.08C415.589 223.08 412.322 223.659 409.446 225.167C406.705 226.621 403.492 228.896 401.656 231.225C399.887 233.474 396.984 237.769 397.011 244.986V244.973ZM408.42 234.74C411.201 231.939 414.482 230.579 418.546 230.552C421.165 230.552 423.488 231.185 425.688 232.451C427.862 233.716 429.577 235.467 430.914 237.783C432.196 240.085 432.831 242.495 432.831 245.067C432.831 247.638 432.196 250.008 430.887 252.337C429.55 254.667 427.822 256.471 425.634 257.737C423.447 259.029 421.098 259.662 418.6 259.662C416.102 259.662 413.672 259.029 411.377 257.737C409.082 256.471 407.367 254.775 406.138 252.593C404.923 250.412 404.329 247.975 404.329 245.201C404.329 240.96 405.679 237.567 408.434 234.74H408.42Z" fill="white"/>
<path d="M289.89 232.114C288.702 229.368 286.852 227.132 284.354 225.517C281.843 223.874 278.954 223.066 275.794 223.066C275.524 223.066 274.93 223.053 274.93 223.053C271.744 223.053 268.382 223.847 265.817 225.517C263.319 227.146 261.456 229.368 260.281 232.114C259.066 234.955 258.54 238.981 258.54 244.394C258.54 244.394 258.54 244.434 258.54 244.528V265.937H266.276V264.617C266.276 264.617 266.262 247.477 266.262 245.902C266.235 244.461 266.465 238.281 266.762 237.163C267.329 234.753 268.301 233.138 269.678 232.033C271.19 230.862 272.311 230.377 274.782 230.337C277.253 230.35 279.089 230.943 280.48 232.033C281.843 233.111 282.829 234.753 283.369 237.15C283.693 238.416 283.909 241.418 283.909 245.902V265.937H291.605V244.434C291.605 239.008 291.078 234.955 289.877 232.114H289.89Z" fill="white"/>
<path d="M242.136 253.253C241.231 254.519 240.38 255.529 239.638 256.175C238.436 257.198 236.978 258.06 235.209 258.693C233.468 259.339 231.658 259.662 229.809 259.662C225.974 259.635 222.896 258.343 220.304 255.704C218.008 253.307 216.685 250.372 216.348 246.723H251.695V245.39C251.641 239.816 250.102 234.996 247.05 231.158C242.838 225.786 236.992 223.026 229.944 223.066C223.085 223.026 217.401 225.746 213.31 230.983C210.07 235.076 208.422 239.856 208.436 245.107C208.436 250.695 210.38 255.785 214.188 260.201C218.049 264.671 223.517 266.933 230.173 266.933H230.254C233.292 266.933 236.033 266.475 238.504 265.519C240.948 264.59 243.162 263.217 245.12 261.413C247.104 259.622 248.792 257.266 250.25 254.411L250.844 253.24H250.804L242.149 253.226L242.136 253.253ZM220.952 233.905C223.517 231.643 226.447 230.539 230.038 230.539C232.185 230.539 234.224 230.983 236.182 231.885C238.153 232.801 239.665 233.972 240.813 235.4C241.69 236.504 242.46 237.944 243.04 239.722H217.293C218.224 237.15 219.467 235.225 220.952 233.905Z" fill="white"/>
<path d="M381.485 253.253C380.594 254.519 379.73 255.529 378.987 256.175C377.799 257.198 376.327 258.06 374.559 258.693C372.803 259.339 371.021 259.662 369.158 259.662C365.324 259.635 362.259 258.343 359.653 255.704C357.344 253.307 356.048 250.372 355.71 246.723H391.044V245.39C390.99 239.816 389.464 234.996 386.413 231.158C382.2 225.786 376.341 223.026 369.306 223.066C362.461 223.026 356.764 225.746 352.673 230.983C349.446 235.076 347.799 239.856 347.812 245.107C347.812 250.695 349.743 255.785 353.55 260.201C357.412 264.671 362.88 266.933 369.523 266.933H369.617C372.641 266.933 375.396 266.475 377.853 265.519C380.297 264.59 382.511 263.217 384.469 261.413C386.44 259.622 388.141 257.266 389.586 254.411L390.18 253.24H390.126L381.458 253.226L381.485 253.253ZM360.314 233.905C362.866 231.643 365.796 230.539 369.374 230.539C371.534 230.539 373.573 230.983 375.531 231.885C377.502 232.801 379.014 233.972 380.162 235.4C381.053 236.504 381.809 237.944 382.403 239.722H356.656C357.601 237.15 358.843 235.225 360.314 233.905Z" fill="white"/>
<path d="M184.322 258.8L205.344 215.243H173.966V222.285H193.813L172.535 265.91H205.33V258.8H184.322Z" fill="white"/>
<path d="M446.644 231.912C443.43 231.912 440.811 229.354 440.811 226.123C440.811 222.891 443.417 220.32 446.644 220.32C449.871 220.32 452.476 222.918 452.476 226.123C452.476 229.327 449.844 231.912 446.644 231.912ZM446.644 221.504C444.119 221.504 442.013 223.524 442.013 226.136C442.013 228.6 444.051 230.674 446.644 230.674C449.236 230.674 451.275 228.654 451.275 226.136C451.275 223.618 449.196 221.504 446.644 221.504ZM444.227 222.959H447.049C447.643 222.959 448.156 222.959 448.642 223.322C449.088 223.672 449.304 224.17 449.304 224.83C449.304 225.678 448.898 226.002 448.547 226.257C448.831 226.419 449.142 226.621 449.169 227.334C449.25 228.883 449.182 229.031 449.56 229.327H447.967C447.494 228.115 448.223 226.863 446.981 226.863H445.631V229.327H444.213V222.972L444.227 222.959ZM445.631 224.17V225.678H446.806C447.319 225.678 447.913 225.692 447.913 224.924C447.913 224.157 447.346 224.17 446.806 224.17H445.631Z" fill="white"/>
<path d="M173.967 135.804H178.328V140.584C179.678 136.935 182.041 135.158 185.484 135.158C191.195 135.158 195.232 140.853 195.232 150.669C195.232 160.484 191.627 166.072 185.484 166.072C182.257 166.072 179.773 164.133 178.652 161.077C178.706 162.208 178.706 163.433 178.706 165.426V175.847H173.967V135.804ZM190.493 150.561C190.493 143.964 188.454 139.83 184.566 139.83C182.622 139.83 181.339 140.853 180.313 142.456C179.125 144.179 178.693 146.481 178.693 150.615C178.693 154.748 179.125 157.064 180.313 158.774C181.339 160.444 182.622 161.4 184.566 161.4C188.441 161.4 190.493 157.32 190.493 150.615V150.561Z" fill="white"/>
<path d="M220.264 165.426H215.903V160.7C214.607 164.187 212.19 166.072 208.747 166.072C203.036 166.072 198.999 160.377 198.999 150.669C198.999 140.961 202.604 135.158 208.747 135.158C211.758 135.158 214.566 136.558 215.903 140.692V135.804H220.264V165.439V165.426ZM203.738 150.669C203.738 157.32 205.831 161.4 209.665 161.4C211.704 161.4 213.054 160.43 214.08 158.774C215.214 157.051 215.538 154.748 215.538 150.615C215.538 146.481 215.214 144.179 214.08 142.456C213.054 140.84 211.718 139.83 209.665 139.83C205.844 139.83 203.738 143.964 203.738 150.615V150.669Z" fill="white"/>
<path d="M231.255 135.804C231.255 137.258 231.255 138.591 231.201 140.153C232.605 136.666 235.4 135.158 238.897 135.158C243.852 135.158 247.133 137.999 247.133 144.771V165.439H242.394V146.333C242.394 143.6 241.962 139.843 237.601 139.843C234.104 139.843 231.782 142.2 231.782 147.195V165.453H227.042V135.804H231.255Z" fill="white"/>
<path d="M273.338 154.964C272.906 161.023 269.733 166.072 263.59 166.072C255.948 166.072 252.127 159.313 252.127 150.669C252.127 140.894 256.65 135.158 263.482 135.158C269.719 135.158 273.068 140.153 273.23 146.374H268.383C267.951 141.271 265.75 139.615 263.266 139.615C261.429 139.615 259.877 140.261 258.743 142.348C257.663 144.381 257.122 146.912 257.122 150.615C257.122 158.074 259.377 161.669 263.252 161.669C266.425 161.669 268.045 158.936 268.423 154.964H273.338Z" fill="white"/>
<path d="M277.753 135.804H282.114C282.114 138.107 282.114 139.668 282.06 141.284C283.41 136.181 286.799 135.225 289.863 135.171V140.813C289.215 140.382 288.567 140.274 287.933 140.274C285.408 140.274 282.492 143.061 282.492 149.134V165.453H277.753V135.804Z" fill="white"/>
<path d="M296.602 152.177C296.602 157.28 298.6 161.683 303.015 161.683C306.026 161.683 308.024 159.649 308.672 156.526H313.357C312.817 159.905 311.359 162.383 309.482 163.931C307.592 165.439 305.283 166.072 303.028 166.072C294.955 166.072 291.62 158.559 291.62 150.669C291.62 141.648 295.711 135.158 302.92 135.158C306.579 135.158 309.334 136.72 311.102 139.507C313.411 143.102 313.735 147.828 313.627 152.177H296.602ZM308.875 148.097C308.767 143.371 306.984 139.13 302.853 139.13C299.14 139.13 296.71 142.725 296.602 148.097H308.875Z" fill="white"/>
<path d="M319.582 125.706H324.321V165.426H319.582V125.706Z" fill="white"/>
<path d="M332.233 125.706H336.972V131.186H332.233V125.706ZM332.233 135.804H336.972V165.439H332.233V135.804Z" fill="white"/>
<path d="M344.343 135.804H348.704V140.584C350.054 136.935 352.417 135.158 355.86 135.158C361.571 135.158 365.608 140.853 365.608 150.669C365.608 160.484 362.003 166.072 355.86 166.072C352.633 166.072 350.149 164.133 349.028 161.077C349.082 162.208 349.082 163.433 349.082 165.426V175.847H344.343V135.804ZM360.869 150.561C360.869 143.964 358.83 139.83 354.942 139.83C353.011 139.83 351.715 140.853 350.689 142.456C349.501 144.179 349.069 146.481 349.069 150.615C349.069 154.748 349.501 157.064 350.689 158.774C351.715 160.444 352.998 161.4 354.942 161.4C358.817 161.4 360.869 157.32 360.869 150.615V150.561Z" fill="white"/>
<path d="M390.64 165.426H386.279V160.7C384.983 164.187 382.566 166.072 379.123 166.072C373.412 166.072 369.375 160.377 369.375 150.669C369.375 140.961 372.98 135.158 379.123 135.158C382.134 135.158 384.943 136.558 386.279 140.692V135.804H390.64V165.439V165.426ZM374.114 150.669C374.114 157.32 376.207 161.4 380.042 161.4C382.08 161.4 383.43 160.43 384.457 158.774C385.591 157.051 385.915 154.748 385.915 150.615C385.915 146.481 385.591 144.179 384.457 142.456C383.43 140.84 382.094 139.83 380.042 139.83C376.221 139.83 374.114 143.964 374.114 150.615V150.669Z" fill="white"/>
<path d="M409.163 143.856C409.109 140.584 407.489 139.291 404.91 139.291C402.656 139.291 401.144 140.799 401.144 143.048C401.144 146.104 404.154 146.966 407.665 148.043C410.946 149.067 414.605 151.046 414.605 157.01C414.605 162.329 410.622 166.085 405.234 166.085C399.847 166.085 395.864 162.921 395.486 156.472H400.171C400.225 159.905 402.332 161.79 405.288 161.79C408.245 161.79 409.649 159.798 409.649 157.334C409.649 154.062 406.855 153.038 403.088 151.8C399.483 150.615 396.202 148.69 396.202 143.21C396.202 138.376 399.645 135.158 405.086 135.158C410.527 135.158 413.646 138.268 413.862 143.856H409.163Z" fill="white"/>
<path d="M423.475 152.177C423.475 157.28 425.473 161.683 429.888 161.683C432.899 161.683 434.897 159.649 435.546 156.526H440.231C439.691 159.905 438.232 162.383 436.356 163.931C434.465 165.439 432.157 166.072 429.902 166.072C421.828 166.072 418.493 158.559 418.493 150.669C418.493 141.648 422.584 135.158 429.794 135.158C433.453 135.158 436.207 136.72 437.976 139.507C440.285 143.102 440.609 147.828 440.501 152.177H423.475ZM435.748 148.097C435.64 143.371 433.858 139.13 429.726 139.13C426.014 139.13 423.583 142.725 423.475 148.097H435.748Z" fill="white"/>
<path d="M155.523 160.457C155.496 160.323 155.28 160.336 155.267 160.457C150.811 186.659 151.676 229.596 155.267 253.267C155.267 253.334 155.334 253.374 155.402 253.374C155.469 253.374 155.523 253.334 155.537 253.267C159.142 229.596 160.006 186.659 155.537 160.457H155.523Z" fill="white"/>
<path d="M166.933 173.451C166.933 173.451 166.798 173.451 166.771 173.518C156.875 192.354 146.883 225.248 143.765 244.152C143.765 244.219 143.792 244.273 143.859 244.3C143.873 244.3 143.886 244.3 143.9 244.3C143.954 244.3 143.994 244.273 144.021 244.232C152.622 227.119 163.922 194.657 167.028 173.599C167.028 173.531 167.001 173.477 166.933 173.451Z" fill="white"/>
<path d="M172.968 186.753C172.968 186.753 172.847 186.726 172.793 186.753C160.615 198.629 144.857 221.195 137.769 234.821C137.742 234.875 137.769 234.955 137.81 234.982C137.837 234.996 137.864 235.009 137.891 235.009C137.931 235.009 137.958 235.009 137.985 234.969C148.773 224.063 165.421 202.143 172.995 186.901C173.022 186.847 172.995 186.78 172.955 186.74L172.968 186.753Z" fill="white"/>
<path d="M174.601 197.807C162.369 203.853 144.79 217.142 136.041 225.746C136 225.786 135.987 225.867 136.027 225.921C136.054 225.961 136.095 225.975 136.135 225.975C136.149 225.975 136.176 225.974 136.189 225.961C147.099 220.333 165.191 207.757 174.75 198.023C174.79 197.982 174.804 197.901 174.75 197.848C174.709 197.794 174.642 197.78 174.588 197.807H174.601Z" fill="white"/>
</g>
<defs>
<linearGradient id="paint0_linear_60_136" x1="296.5" y1="0" x2="296.5" y2="438" gradientUnits="userSpaceOnUse">
<stop stop-color="#9F248B"/>
<stop offset="1" stop-color="#6C015D"/>
</linearGradient>
</defs>
</svg>
